<?xml version="1.0" encoding="UTF-8"?>
<svg id="Layer_1" xmlns="http://www.w3.org/2000/svg" version="1.1" viewBox="0 0 1920 626.5">
  <!-- Generator: Adobe Illustrator 29.1.0, SVG Export Plug-In . SVG Version: 2.1.0 Build 142)  -->
  <defs>
    <style>
      .st0 {
        fill: #fff;
      }

      .st1 {
        fill: #fafafa;
      }

      .st2 {
        fill: #28282d;
      }
    </style>
  </defs>
  <g>
    <rect class="st2" y=".3" width="626.2" height="626.2"/>
    <path class="st0" d="M248.7,293c-2.6,17.5-7.5,26.5-10.9,30.9-4.3,5.5-9.8,8.1-17.8,8.4-2.6.1-8.7.3-16.9-10.8-6.9-9.4-13-23.5-18-41.8,7.5-1.8,15.8-2.3,23.6.8,13.8,5.5,24,12,40,12.5Z"/>
    <path class="st0" d="M463,297.4c-.7-2.6-2-4.5-4.1-5.7-2.1-1.2-5-1.3-8.8-.3-11.2,2.8-21.1,4.6-29.8,5.3,2.2-24.4,1.1-45.8-3.6-64.2-3.3-13-8.9-22.5-16.9-28.4-8-5.9-17.2-7.6-27.6-4.9-8.4,2.2-15.6,6.3-21.4,12.5-5.8,6.1-9.5,14.2-11.3,24s-1,21.2,2.3,34.1c3.3,12.8,8.7,23.5,16.2,32.1,7.5,8.6,17,14.7,28.6,18.3-3.5,19.6-8.6,36.5-15.1,50.7-6.6,14.2-13.8,22.3-21.6,24.3-6.7,1.7-12.5.2-17.4-4.5-4.9-4.7-9-12.4-13.3-22.7-18.6-44.5-26.2-91.9-28.7-120.1-1.4-21.9-4.7-38.2-4.8-39-1.5-7.2-8.5-11.9-15.8-10.5-7.2,1.5-11.9,8.5-10.5,15.8,0,.2,4.3,21.5,4.9,47.4.7,32.7-4.7,57.2-15.5,71.1-6.9,8.7-16,13.2-28,13.7-3.9.2-16,.7-28.6-16.4-8-10.8-14.7-26.4-20.2-46.4-4.8-17.8-7.7-35.8-9.4-49.5-1.7-13.6-2.1-22.9-2.1-23.1-.3-7.4-6.6-13.1-13.9-12.8-7.4.3-13.1,6.6-12.8,13.9,0,1.6,1.9,39.7,12.3,78,6.3,23.3,14.6,42,24.5,55.5,13.6,18.5,28.9,25.2,41.5,26.9,1.8,5.7,3.9,14.4,3.9,24.8-29.1,1.1-48,8.2-49.3,8.6-6.9,2.6-10.4,10.3-7.8,17.2,2,5.3,7.1,8.6,12.5,8.6s3.2-.3,4.7-.9c.1,0,11.1-4.1,28.8-6,16.2-1.8,41.4-2.1,70.1,6.3,7.1,2.1,14.5-1.9,16.6-9,2.1-7.1-1.9-14.5-9-16.6-14.1-4.1-27.5-6.5-39.8-7.6,0-10.8-1.6-20.3-3.5-27.8,12.2-3.6,22.5-10.7,30.7-21.1,2.8-3.6,5.3-7.5,7.6-11.8,3.1,11.7,5.6,19.3,6.2,20.8,6.4,17.1,16.7,44.6,27.7,58,11,13.4,23.7,18.3,38,14.6,15.6-4,29.4-16,41.3-36.1,11.9-20.1,20.5-43.7,25.7-70.8,10.8-.5,22.5-2.5,35.4-5.9,5.3-1.5,8.8-4.2,10.5-8.1,1.6-3.9,1.9-7.9.8-12.2ZM390.2,293.1c-12.2-5-20.3-15.5-24.4-31.4-2.4-9.4-2.9-17-1.4-22.9,1.4-5.8,4.4-9.3,8.8-10.4,3.1-.8,5.9.2,8.5,2.9,2.6,2.7,4.7,7.5,6.5,14.3,3.1,11.9,3.7,27.8,2,47.5Z"/>
    <path class="st0" d="M488.1,390.6c3.7,3.8,5.5,8.5,5.5,14.2s-1.7,10.1-5,14c-3.3,3.9-7.8,6.8-13.4,8.8-5.6,2-11.7,3-18.4,3-11.7,0-20.4-2-26.3-6.1-5.8-4.1-8.8-9.2-8.8-15.3s.8-6.3,2.6-8.3c1.7-2,4-3,6.9-3s4.3.6,5.5,1.9c1.2,1.2,2.3,3.3,3.1,6.4.8,2.9,2.3,5.1,4.7,6.6,2.4,1.5,6,2.2,10.9,2.2s8.6-.9,11.7-2.7c3.1-1.8,4.6-4.5,4.6-8.1s-1.4-6.5-4.3-8.3c-2.9-1.8-7.4-2.8-13.5-3-2.2,0-3.9-.9-5-2.3-1.1-1.4-1.7-3.2-1.7-5.2s.5-4.4,1.4-5.5c.9-1.1,2.5-1.9,4.7-2.3,7.1-1.1,12.2-3.1,15.3-6.2,3.2-3.1,4.7-6.7,4.7-11s-4.1-8.9-12.2-8.9-14.3,3.5-15.9,10.6c-.8,2.9-1.9,5-3.3,6.2-1.4,1.2-3.5,1.9-6,1.9s-5.1-.8-6.7-2.5c-1.6-1.7-2.3-3.9-2.3-6.7,0-4.3,1.5-8.3,4.5-12.2,3-3.9,7.2-6.9,12.8-9.3,5.5-2.4,12-3.5,19.4-3.5s18.1,2,23.6,5.9c5.5,4,8.2,9.9,8.2,17.7s-2,10-5.8,14.4c-3.9,4.4-9,7.8-15.2,10,5.5.7,10,3,13.7,6.7Z"/>
  </g>
  <g>
    <rect class="st2" x="687" y="0" width="1233" height="626.2"/>
    <path class="st1" d="M1009.5,319.1c7.5,10,12.9,9.8,15.3,9.7,7.2-.3,12.1-2.6,16-7.6,3.1-3.9,7.6-12,9.9-27.7-14.4-.5-23.6-6.4-36.1-11.3-7-2.7-14.5-2.3-21.3-.7,4.5,16.4,9.9,29,16.2,37.5Z"/>
    <path class="st1" d="M980.7,417.9c-4.9,0-9.4-2.9-11.3-7.7-2.4-6.2.8-13.1,7-15.5,1.9-.7,46.8-17.2,104.5-.3,6.4,1.9,10,8.5,8.1,14.9-1.9,6.3-8.6,10-15,8.1-25.8-7.6-48.6-7.3-63.2-5.7-15.9,1.7-25.9,5.4-26,5.4-1.5.6-2.9.8-4.3.8Z"/>
    <path class="st1" d="M1243.9,297.6c-.6-2.3-1.8-4-3.8-5.1-1.9-1.1-4.6-1.2-7.9-.3-10.1,2.6-19.1,4.1-26.9,4.7,2-21.9.9-41.1-3.3-57.6-3-11.7-8.1-20.1-15.3-25.5-7.2-5.3-15.5-6.8-24.9-4.4-7.6,1.9-14,5.7-19.3,11.2-5.2,5.5-8.6,12.7-10.2,21.5-1.6,8.8-.9,19,2.1,30.5,2.9,11.5,7.8,21.1,14.6,28.7,6.8,7.7,15.4,13.1,25.7,16.4-3.1,17.6-7.7,32.7-13.7,45.5-6,12.8-12.4,20-19.5,21.8-6,1.5-11.2.2-15.7-4.1-4.4-4.2-8.1-11.1-12-20.4-17.5-41.7-24.2-86.3-26.2-111.1,0-1.4-2.2-4-2.8-6.3-1-3.9,1.5-5.9-1.1-7.3-2.6-1.4-6.2-1.6-10.8-.4-.2,0-.5.1-.8.3-4.8,1.8-8.1,6.4-8.1,11.5,0,52.1,16.1,100.6,17.6,104.5,5.8,15.3,15.1,40,25,52,9.9,12,21.3,16.3,34.3,13.1,14.1-3.6,26.5-14.3,37.2-32.3,10.8-18,18.5-39.1,23.2-63.5,9.7-.4,20.4-2.2,31.9-5.3,4.8-1.4,8-3.8,9.5-7.3,1.5-3.5,1.8-7.2.8-11ZM1178.3,293.7c-11-4.5-18.3-13.9-22-28.2-2.2-8.5-2.6-15.3-1.3-20.5,1.3-5.2,3.9-8.3,7.9-9.3,2.8-.7,5.3.1,7.7,2.6,2.3,2.4,4.3,6.7,5.9,12.8,2.7,10.7,3.3,24.9,1.8,42.6Z"/>
    <path class="st1" d="M1024.2,365.2c-12.3,0-29.4-4.5-44.2-24.6-8.9-12.1-16.4-28.8-22.1-49.8-9.4-34.4-11-68.5-11.1-69.9-.3-6.6,4.9-12.2,11.5-12.5,6.6-.3,12.3,4.8,12.6,11.4,0,.3,1.6,33.2,10.3,65.1,4.9,17.9,11.1,31.9,18.2,41.6,11.4,15.3,22.2,14.9,25.8,14.7,10.8-.4,19.1-4.4,25.3-12.3,9.8-12.4,14.6-34.5,14-63.7-.5-23.2-4.4-42.3-4.4-42.4-1.3-6.5,2.9-12.8,9.4-14.1,6.5-1.3,12.9,2.9,14.2,9.4.2.9,4.3,21.4,4.9,46.7.8,35.4-5.7,62-19.1,79.1-10.6,13.5-25.2,20.7-43.3,21.4-.7,0-1.3,0-2,0Z"/>
    <path class="st1" d="M1032.1,410.8c-.6,0-1.2,0-1.8-.1-6.6-1-11.1-7.1-10.1-13.6,3.2-21.2-5.1-38.3-5.2-38.5h0c0,0,21.5-10.8,21.5-10.8.5.9,11.9,23.8,7.5,52.8-.9,6-6,10.2-11.9,10.2Z"/>
    <path class="st1" d="M1218.5,407.5c-4.5-6.9-6.7-16.1-6.7-27.5s.9-15.4,2.6-26c1.7-10.6,8.6-41.2,11.3-50.4,1.4-4.8,3.2-8.1,5.4-9.9,2.3-1.8,5.9-2.7,10.9-2.7,7.7,0,11.6,2.6,11.6,7.7s-8.4,27.6-11.1,43.8c-2.8,16.7-3.2,30.8-3.2,36.7s.6,8,1.8,10.4c1.2,2.4,3.3,3.6,6.1,3.6s6.1-1.9,10.2-5.6c4.1-3.8,9.5-9.7,16.3-17.8,1.8-2.1,3.8-3.2,6.1-3.2s3.5.9,4.7,2.7c1.1,1.8,1.7,4.3,1.7,7.5,0,6-1.5,10.7-4.3,14-15,18.2-28.9,27.3-42,27.3-9.8,0-16.9-3.4-21.4-10.3ZM1233.5,274.8c-3.2-2.9-4.8-7-4.8-12.3s2.1-9.7,6.3-13.2c4.1-3.5,9.3-5.3,15.5-5.3s10.1,1.4,13.6,4.1c3.5,2.7,5.2,6.5,5.2,11.5s-2,10.8-5.9,14.3-9.2,5.3-15.6,5.3-11.1-1.4-14.3-4.4Z"/>
    <path class="st1" d="M1271.8,408.9c-2.3-6-3.5-15.6-3.5-28.9,0-19.5,2.8-38.1,8.4-55.7,1.4-4.4,3.6-7.5,6.7-9.6,3.1-2,7.4-3,13-3s5.1.4,6.3,1.1c1.2.8,1.8,2.2,1.8,4.3s-1.1,7.8-3.4,16.2c-1.5,6-2.7,11.3-3.6,15.8-.9,4.5-1.7,10.1-2.3,16.7,5-12.9,10.6-23.4,16.8-31.6,6.2-8.1,12.3-13.9,18.3-17.3,6-3.4,11.5-5.2,16.4-5.2,9.8,0,14.8,4.9,14.8,14.7s-1.7,16.5-5,31.8c-2.9,13.1-4.3,21.7-4.3,25.9,0,6,2.2,9,6.6,9s6.6-1.8,10.8-5.5c4.1-3.7,9.7-9.7,16.7-17.9,1.8-2.1,3.9-3.2,6.1-3.2s3.5.9,4.7,2.7c1.1,1.8,1.7,4.3,1.7,7.5,0,6-1.5,10.7-4.3,14-6.5,8-13.5,14.5-21,19.6-7.5,5.1-16,7.7-25.5,7.7s-13.5-2.2-17.5-6.7c-3.9-4.4-5.9-10.9-5.9-19.3s1.1-11.7,3.2-22.5c2-9.5,3-16,3-19.6s-.8-3.6-2.5-3.6-4.7,2.5-8.3,7.5c-3.6,5-7.2,11.7-10.9,19.9-3.7,8.3-6.7,17-8.9,26.2-1.7,7.1-3.6,11.8-5.8,14.3-2.2,2.5-5.6,3.7-10.3,3.7-5.9,0-9.9-3-12.2-9Z"/>
    <path class="st1" d="M1486.1,369.2c1.1,1.8,1.7,4.3,1.7,7.5,0,6-1.5,10.7-4.3,14-5.6,6.8-13.5,13-23.7,18.7-10.2,5.7-21.1,8.6-32.8,8.6s-28.2-4.3-37-12.8c-8.8-8.6-13.2-20.3-13.2-35.2s2.2-20,6.6-29c4.4-9,10.5-16.1,18.3-21.3,7.8-5.3,16.6-7.9,26.4-7.9s15.8,2.6,21.1,7.8c5.3,5.2,7.9,12.2,7.9,21.1s-3.7,19.3-11.2,26.7c-7.5,7.5-20.1,13.3-38,17.7,3.8,6.9,11,10.4,21.5,10.4s14.5-2.4,23.3-7.1c8.7-4.7,16.2-10.9,22.6-18.6,1.8-2.1,3.9-3.2,6.1-3.2,2,0,3.5.9,4.6,2.7ZM1410.1,343.5c-3.9,6.5-5.8,14.3-5.8,23.4v.4c8.9-2.1,15.9-5.3,21.1-9.5,5.1-4.2,7.7-9.1,7.7-14.7s-.8-5.2-2.4-6.9c-1.6-1.7-3.7-2.6-6.5-2.6-5.6,0-10.3,3.2-14.2,9.7Z"/>
    <path class="st1" d="M1555.3,375.9c1.1,1.8,1.7,4.3,1.7,7.5,0,5.4-1.3,10.1-3.9,14-4.2,6.5-9.8,11.5-16.7,15.1-6.9,3.6-15.1,5.4-24.6,5.4-14.5,0-25.8-4.3-33.8-13-8-8.6-12-20.3-12-35.1s2.2-20,6.6-29c4.4-9,10.5-16.1,18.3-21.3,7.8-5.3,16.6-7.9,26.4-7.9s15.8,2.6,21.1,7.8c5.3,5.2,7.9,12.2,7.9,21.1s-3.7,19.3-11.2,26.7c-7.5,7.5-20.2,13.3-38.2,17.7,3.6,6.9,9.7,10.4,18.4,10.4s11.3-1.4,15.3-4.3c4-2.9,8.7-7.7,14-14.4,1.8-2.3,3.9-3.4,6.1-3.4,2,0,3.6.9,4.7,2.7ZM1499.2,343.5c-3.8,6.5-5.8,14.3-5.8,23.4v.4c8.9-2.1,15.9-5.3,21.1-9.5,5.1-4.2,7.7-9.1,7.7-14.7s-.8-5.2-2.4-6.9c-1.6-1.7-3.7-2.6-6.5-2.6-5.6,0-10.3,3.2-14.2,9.7Z"/>
    <path class="st1" d="M1648.4,369.1c4.6,4.6,6.8,10.4,6.8,17.3s-2,12.4-6.1,17.1c-4.1,4.7-9.6,8.3-16.5,10.7-6.9,2.4-14.5,3.7-22.6,3.7-14.4,0-25.2-2.5-32.4-7.5-7.2-5-10.8-11.2-10.8-18.7s1.1-7.7,3.2-10.1c2.1-2.4,4.9-3.7,8.5-3.7s5.3.8,6.8,2.3c1.5,1.5,2.8,4.1,3.8,7.8.9,3.5,2.8,6.2,5.7,8.1,2.9,1.8,7.4,2.7,13.5,2.7s10.6-1.1,14.3-3.2c3.8-2.2,5.6-5.5,5.6-9.9s-1.8-8-5.3-10.1c-3.6-2.1-9.1-3.4-16.6-3.7-2.8-.1-4.9-1.1-6.2-2.9-1.4-1.8-2.1-3.9-2.1-6.4s.6-5.4,1.7-6.8c1.1-1.4,3.1-2.3,5.8-2.9,8.7-1.3,15-3.8,18.9-7.6,3.9-3.7,5.8-8.2,5.8-13.5s-5-10.8-15-10.8-17.6,4.3-19.6,13c-.9,3.5-2.3,6.1-4.1,7.6-1.8,1.5-4.3,2.3-7.4,2.3s-6.3-1-8.2-3c-1.9-2-2.9-4.7-2.9-8.2,0-5.2,1.8-10.2,5.5-14.9,3.7-4.7,8.9-8.5,15.7-11.4,6.8-2.9,14.7-4.3,23.8-4.3s22.3,2.4,29.1,7.3c6.7,4.9,10.1,12.1,10.1,21.6s-2.4,12.2-7.2,17.6c-4.8,5.4-11.1,9.5-18.7,12.3,6.7.9,12.3,3.6,16.9,8.2Z"/>
  </g>
</svg>