<?xml version="1.0" encoding="utf-8"?>
<!-- Generator: Adobe Illustrator 26.2.1, SVG Export Plug-In . SVG Version: 6.00 Build 0)  -->
<svg version="1.1" id="Layer_1" xmlns="http://www.w3.org/2000/svg" xmlns:xlink="http://www.w3.org/1999/xlink" x="0px" y="0px"
	 viewBox="0 0 32.9 21" style="enable-background:new 0 0 32.9 21;" xml:space="preserve">
<style type="text/css">
	.st0{fill:#FAFAFA;}
</style>
<g>
	<path id="behance" class="st0" d="M9.7,0c0.9,0,1.9,0.2,2.7,0.3c0.8,0.2,1.6,0.5,2,0.8C15,1.6,15.5,2,15.8,2.7s0.5,1.4,0.5,2.5
		S16,7.1,15.5,7.8c-0.3,0.6-1.1,1.1-2,1.6c1.3,0.3,2.2,0.9,2.8,1.9s0.9,2,0.9,3.3c0,1.1-0.2,1.9-0.6,2.7c-0.5,0.8-0.9,1.4-1.6,1.9
		c-0.6,0.5-1.4,0.8-2.4,1.1c-0.8,0.3-1.7,0.5-2.7,0.5H0V0H9.7z M9.1,8.3c0.8,0,1.4-0.2,2-0.6c0.5-0.3,0.8-0.9,0.8-1.9
		c0-0.5-0.2-0.9-0.3-1.3c-0.2-0.2-0.3-0.3-0.6-0.6c-0.3-0.2-0.6-0.2-0.9-0.3c-0.3,0-0.8-0.2-1.3-0.2H4.5v4.9H9.1L9.1,8.3z M9.4,17.2
		c0.5,0,0.8,0,1.3-0.2c0.5-0.2,0.8-0.2,1.1-0.5c0.3-0.3,0.6-0.3,0.8-0.6c0.2-0.3,0.3-0.8,0.3-1.4c0-1.1-0.3-1.9-0.9-2.4
		c-0.6-0.5-1.4-0.6-2.4-0.6h-5v5.6L9.4,17.2L9.4,17.2z M23,16.9c0.6,0.6,1.6,0.9,2.7,0.9c0.8,0,1.6-0.2,2.2-0.6
		c0.6-0.5,0.9-0.8,1.1-1.3h3.6c-0.6,1.7-1.4,3.1-2.7,3.9c-1.3,0.8-2.7,1.1-4.4,1.1c-1.3,0-2.2-0.2-3.1-0.6c-0.9-0.3-1.7-0.9-2.4-1.6
		s-1.1-1.6-1.6-2.5c-0.5-0.9-0.5-2-0.5-3.1s0.2-2.2,0.6-3.1c0.3-0.9,0.9-1.9,1.6-2.5c0.6-0.6,1.4-1.3,2.4-1.7c0.9-0.5,2-0.6,3.1-0.6
		C27,5.2,28.1,5.5,29,6c0.9,0.5,1.7,1.1,2.4,2c0.6,0.8,1.1,1.7,1.3,2.8c0.3,0.9,0.3,2,0.3,3.1H22.1C22.1,15.4,22.4,16.1,23,16.9
		L23,16.9z M27.7,8.8C27.3,8.3,26.5,8,25.5,8c-0.6,0-1.3,0.2-1.6,0.3c-0.5,0.2-0.8,0.5-1.1,0.8s-0.5,0.6-0.6,1.1
		c-0.2,0.3-0.2,0.6-0.2,0.9h6.7C28.5,10.2,28.2,9.4,27.7,8.8L27.7,8.8z M21.3,1.1h8.5v2.2h-8.3L21.3,1.1L21.3,1.1z"/>
</g>
</svg>
