<?xml version="1.0" encoding="utf-8"?>
<!-- Generator: Adobe Illustrator 26.2.1, SVG Export Plug-In . SVG Version: 6.00 Build 0)  -->
<svg version="1.1" id="Layer_1" xmlns="http://www.w3.org/2000/svg" xmlns:xlink="http://www.w3.org/1999/xlink" x="0px" y="0px"
	 viewBox="0 0 21 21" style="enable-background:new 0 0 21 21;" xml:space="preserve">
<style type="text/css">
	.st0{fill:#FAFAFA;}
</style>
<g>
	<path id="behance" class="st0" d="M6.2,3.9c0.6,0,1.2,0.1,1.7,0.2s1,0.3,1.3,0.5c0.4,0.3,0.7,0.6,0.9,1s0.3,0.9,0.3,1.6
		s-0.2,1.2-0.5,1.7c-0.2,0.4-0.7,0.7-1.3,1c0.8,0.2,1.4,0.6,1.8,1.2c0.4,0.6,0.6,1.3,0.6,2.1c0,0.7-0.1,1.2-0.4,1.7s-0.6,0.9-1,1.2
		c-0.4,0.3-0.9,0.5-1.5,0.7C7.6,17,7,17.1,6.4,17.1H0V3.9H6.2z M5.8,9.2c0.5,0,0.9-0.1,1.3-0.4c0.3-0.2,0.5-0.6,0.5-1.2
		c0-0.3-0.1-0.6-0.2-0.8C7.3,6.7,7.2,6.6,7,6.4C6.8,6.3,6.6,6.3,6.4,6.2c-0.2,0-0.5-0.1-0.8-0.1H2.9v3.1H5.8L5.8,9.2z M6,14.8
		c0.3,0,0.5,0,0.8-0.1s0.5-0.1,0.7-0.3S7.9,14.2,8,14c0.1-0.2,0.2-0.5,0.2-0.9c0-0.7-0.2-1.2-0.6-1.5s-0.9-0.4-1.5-0.4H2.9v3.6
		L6,14.8L6,14.8z M14.7,14.6c0.4,0.4,1,0.6,1.7,0.6c0.5,0,1-0.1,1.4-0.4c0.4-0.3,0.6-0.5,0.7-0.8h2.3c-0.4,1.1-0.9,2-1.7,2.5
		c-0.8,0.5-1.7,0.7-2.8,0.7c-0.8,0-1.4-0.1-2-0.4c-0.6-0.2-1.1-0.6-1.5-1s-0.7-1-1-1.6s-0.3-1.3-0.3-2s0.1-1.4,0.4-2
		c0.2-0.6,0.6-1.2,1-1.6s0.9-0.8,1.5-1.1c0.6-0.3,1.3-0.4,2-0.4c0.8,0,1.5,0.2,2.1,0.5s1.1,0.7,1.5,1.3c0.4,0.5,0.7,1.1,0.8,1.8
		c0.2,0.6,0.2,1.3,0.2,2h-6.9C14.1,13.6,14.3,14.2,14.7,14.6L14.7,14.6z M17.7,9.5C17.4,9.2,16.9,9,16.3,9c-0.4,0-0.8,0.1-1,0.2
		c-0.3,0.1-0.5,0.3-0.7,0.5s-0.3,0.4-0.4,0.7c-0.1,0.2-0.1,0.4-0.1,0.6h4.3C18.2,10.4,18,9.9,17.7,9.5L17.7,9.5z M13.6,4.6H19V6
		h-5.3L13.6,4.6L13.6,4.6z"/>
</g>
</svg>
