<?xml version="1.0" encoding="utf-8"?>
<!-- Generator: Adobe Illustrator 26.2.1, SVG Export Plug-In . SVG Version: 6.00 Build 0)  -->
<svg version="1.1" id="Layer_1" xmlns="http://www.w3.org/2000/svg" xmlns:xlink="http://www.w3.org/1999/xlink" x="0px" y="0px"
	 viewBox="0 0 512 512" style="enable-background:new 0 0 512 512;" xml:space="preserve">
<style type="text/css">
	.st0{clip-path:url(#SVGID_00000154395869251168462950000013974514636999459238_);}
	.st1{fill:#DC2626;}
	.st2{fill:#FFFFFF;}
</style>
<g>
	<defs>
		<rect id="SVGID_1_" width="512" height="512"/>
	</defs>
	<clipPath id="SVGID_00000035507652472437447870000007602434558742312579_">
		<use xlink:href="#SVGID_1_"  style="overflow:visible;"/>
	</clipPath>
	<g style="clip-path:url(#SVGID_00000035507652472437447870000007602434558742312579_);">
		<path class="st1" d="M63,0.9H449c34.8,0,63,28.2,63,63V449c0,34.8-28.2,63-63,63H63c-34.8,0-63-28.2-63-63V63.9
			C0,29.1,28.2,0.9,63,0.9z"/>
		<path class="st2" d="M325.2,174.4c-1.5-15.2-8-27-19.4-35.4c-11.4-8.4-26.9-12.6-46.5-12.6c-13.3,0-24.6,1.9-33.7,5.7
			c-9.2,3.6-16.2,8.7-21.1,15.3c-4.8,6.5-7.2,13.9-7.2,22.2c-0.3,6.9,1.2,12.9,4.3,18.1c3.3,5.2,7.7,9.6,13.4,13.4
			c5.7,3.6,12.2,6.8,19.6,9.6c7.4,2.6,15.3,4.9,23.7,6.8l34.7,8.3c16.8,3.8,32.3,8.8,46.4,15.1c14.1,6.3,26.3,14,36.6,23.2
			c10.3,9.2,18.3,20,23.9,32.4c5.8,12.4,8.7,26.7,8.9,42.8c-0.1,23.6-6.2,44.1-18.1,61.4c-11.8,17.2-28.9,30.6-51.3,40.1
			c-22.2,9.4-49.1,14.1-80.5,14.1c-31.2,0-58.3-4.8-81.4-14.3c-23-9.5-41-23.7-53.9-42.4c-12.8-18.8-19.5-42.2-20.2-69.9h79
			c0.9,12.9,4.6,23.7,11.1,32.4c6.7,8.5,15.5,15,26.6,19.4c11.2,4.3,23.8,6.4,37.9,6.4c13.8,0,25.8-2,36-6
			c10.3-4,18.3-9.6,23.9-16.8c5.7-7.2,8.5-15.4,8.5-24.7c0-8.7-2.6-16-7.7-21.9c-5-5.9-12.4-10.9-22.2-15.1
			c-9.7-4.1-21.5-7.9-35.6-11.3l-42-10.6c-32.5-7.9-58.2-20.3-77.1-37.1c-18.8-16.8-28.2-39.5-28.1-68c-0.1-23.4,6.1-43.8,18.7-61.2
			c12.7-17.5,30.1-31.1,52.2-40.9c22.1-9.8,47.2-14.7,75.4-14.7c28.6,0,53.6,4.9,75,14.7c21.5,9.8,38.2,23.4,50.1,40.9
			c11.9,17.5,18.1,37.7,18.5,60.7H325.2z"/>
	</g>
</g>
</svg>
