<?xml version="1.0" encoding="UTF-8"?>
<svg id="Layer_1" xmlns="http://www.w3.org/2000/svg" xmlns:xlink="http://www.w3.org/1999/xlink" version="1.1" viewBox="0 0 1256 202">
  <!-- Generator: Adobe Illustrator 29.1.0, SVG Export Plug-In . SVG Version: 2.1.0 Build 142)  -->
  <defs>
    <style>
      .st0 {
        fill: url(#linear-gradient1);
      }

      .st1 {
        stroke-opacity: .1;
      }

      .st1, .st2 {
        fill: none;
        stroke: #fff;
      }

      .st3 {
        fill: url(#linear-gradient);
      }

      .st4 {
        fill: #fafafa;
      }
    </style>
    <linearGradient id="linear-gradient" x1="459.5" y1="116" x2="459.5" y2="8" gradientTransform="translate(0 204) scale(1 -1)" gradientUnits="userSpaceOnUse">
      <stop offset="0" stop-color="#fff" stop-opacity=".2"/>
      <stop offset="1" stop-color="#fff" stop-opacity="0"/>
    </linearGradient>
    <linearGradient id="linear-gradient1" x1="990.5" y1="116" x2="990.5" y2="8" gradientTransform="translate(0 204) scale(1 -1)" gradientUnits="userSpaceOnUse">
      <stop offset="0" stop-color="#fff" stop-opacity=".2"/>
      <stop offset="1" stop-color="#fff" stop-opacity="0"/>
    </linearGradient>
  </defs>
  <path class="st4" d="M1.6,106v-12.7h1.6v12.7h-1.6ZM6.2,98.3l.8-5h1.7l-1.4,5h-1.1ZM13.7,106l-3.5-9.5h1.6l2.6,7.8h.1l2.6-7.8h1.6l-3.5,9.5h-1.5ZM24.3,106.2c-.9,0-1.7-.2-2.3-.6-.6-.4-1.1-1-1.5-1.7-.3-.7-.5-1.6-.5-2.6h0c0-1,.2-1.8.5-2.6.4-.7.8-1.3,1.5-1.7.6-.4,1.4-.6,2.2-.6s1.6.2,2.2.6c.6.4,1.1.9,1.4,1.7.3.7.5,1.5.5,2.5v.6h-7.6v-1.2h6.8l-.8,1.1v-.6c0-.7-.1-1.4-.3-1.8-.2-.5-.5-.8-.9-1.1-.4-.2-.8-.4-1.4-.4s-1,.1-1.4.4c-.4.2-.7.6-.9,1.1-.2.5-.4,1.1-.4,1.8v.6c0,.7.1,1.2.3,1.7.2.5.6.8,1,1.1.4.3.9.4,1.5.4s.8,0,1.1-.2c.3-.1.6-.3.8-.4.2-.2.3-.4.4-.6h0c0,0,1.5,0,1.5,0h0c0,.4-.2.7-.4,1-.2.3-.5.6-.8.8-.3.2-.7.4-1.2.6-.4.1-.9.2-1.5.2ZM35.9,106v-12.7h4.4c1.3,0,2.3.3,3.2.8.9.5,1.6,1.2,2.1,2.2.5.9.7,2.1.7,3.4h0c0,1.3-.2,2.5-.7,3.4-.5.9-1.2,1.7-2,2.2-.9.5-2,.7-3.2.7h-4.4ZM37.4,104.6h2.7c.9,0,1.7-.2,2.4-.6s1.2-.9,1.5-1.7c.4-.7.5-1.6.5-2.6h0c0-1-.2-1.9-.5-2.7-.4-.7-.9-1.3-1.5-1.7-.7-.4-1.5-.6-2.4-.6h-2.7v9.8ZM52.6,106.2c-.9,0-1.7-.2-2.3-.6-.7-.4-1.2-1-1.5-1.7-.4-.7-.5-1.6-.5-2.6h0c0-1,.2-1.9.5-2.6.4-.7.9-1.3,1.5-1.7.7-.4,1.4-.6,2.3-.6s1.7.2,2.3.6c.7.4,1.2,1,1.5,1.7.4.7.5,1.6.5,2.6h0c0,1-.2,1.9-.5,2.6-.4.7-.9,1.3-1.5,1.7-.7.4-1.4.6-2.3.6ZM52.6,104.8c.6,0,1.1-.1,1.5-.4.4-.3.7-.7.9-1.2.2-.5.3-1.2.3-1.9h0c0-.8-.1-1.4-.3-1.9-.2-.5-.5-.9-.9-1.2-.4-.3-.9-.4-1.5-.4s-1.1.1-1.5.4-.7.7-1,1.2c-.2.5-.3,1.2-.3,1.9h0c0,.8.1,1.4.3,1.9.2.5.5.9,1,1.2.4.3.9.4,1.5.4ZM59.3,106v-9.5h1.5v1.4h.1c.2-.5.6-.9,1-1.2.5-.3,1-.4,1.7-.4,1.1,0,1.9.3,2.4.9.6.6.9,1.5.9,2.6v6.1h-1.5v-5.8c0-.9-.2-1.5-.5-1.9-.4-.4-.9-.6-1.7-.6s-.9.1-1.3.3c-.4.2-.7.5-.9.9-.2.4-.3.9-.3,1.4v5.6h-1.5ZM73.6,106.2c-.9,0-1.7-.2-2.3-.6-.6-.4-1.1-1-1.5-1.7-.3-.7-.5-1.6-.5-2.6h0c0-1,.2-1.8.5-2.6.4-.7.8-1.3,1.5-1.7.6-.4,1.4-.6,2.2-.6s1.6.2,2.2.6c.6.4,1.1.9,1.4,1.7.3.7.5,1.5.5,2.5v.6h-7.6v-1.2h6.8l-.8,1.1v-.6c0-.7-.1-1.4-.3-1.8-.2-.5-.5-.8-.9-1.1-.4-.2-.8-.4-1.4-.4s-1,.1-1.4.4c-.4.2-.7.6-.9,1.1-.2.5-.4,1.1-.4,1.8v.6c0,.7.1,1.2.3,1.7.2.5.6.8,1,1.1.4.3.9.4,1.5.4s.8,0,1.1-.2c.3-.1.6-.3.8-.4.2-.2.3-.4.4-.6h0c0,0,1.5,0,1.5,0h0c0,.4-.2.7-.4,1-.2.3-.5.6-.8.8-.3.2-.7.4-1.2.6-.4.1-.9.2-1.5.2ZM1.6,127v-12.7h7.9v1.4H3.2v4.1h6v1.4H3.2v4.4h6.3v1.4H1.6ZM12.1,127v-9.5h1.5v1.4h.1c.2-.5.6-.9,1-1.2.5-.3,1-.4,1.7-.4,1.1,0,1.9.3,2.4.9.6.6.9,1.5.9,2.6v6.1h-1.5v-5.8c0-.9-.2-1.5-.5-1.9-.4-.4-.9-.6-1.7-.6s-.9.1-1.3.3c-.4.2-.7.5-.9.9-.2.4-.3.9-.3,1.4v5.6h-1.5ZM26.4,127.2c-.9,0-1.7-.2-2.3-.6-.7-.4-1.2-1-1.5-1.7-.4-.7-.5-1.6-.5-2.6h0c0-1,.2-1.9.5-2.6.4-.7.9-1.3,1.5-1.7.7-.4,1.4-.6,2.3-.6s1.7.2,2.3.6c.7.4,1.2,1,1.5,1.7.4.7.5,1.6.5,2.6h0c0,1-.2,1.9-.5,2.6-.4.7-.9,1.3-1.5,1.7-.7.4-1.4.6-2.3.6ZM26.4,125.8c.6,0,1.1-.1,1.5-.4.4-.3.7-.7.9-1.2.2-.5.3-1.2.3-1.9h0c0-.8-.1-1.4-.3-1.9-.2-.5-.5-.9-.9-1.2-.4-.3-.9-.4-1.5-.4s-1.1.1-1.5.4c-.4.3-.7.7-1,1.2-.2.5-.3,1.2-.3,1.9h0c0,.8.1,1.4.3,1.9.2.5.5.9,1,1.2.4.3.9.4,1.5.4ZM36.3,127.2c-.7,0-1.3-.1-1.8-.4-.5-.3-.9-.7-1.1-1.2-.2-.5-.4-1.2-.4-1.9v-6.1h1.5v5.8c0,.8.2,1.5.5,1.9.3.4.9.6,1.6.6s.8,0,1.1-.2c.3-.1.6-.3.8-.5.2-.2.4-.5.5-.8.1-.3.2-.7.2-1.1v-5.6h1.5v9.5h-1.5v-1.4h-.1c-.2.3-.4.6-.6.9-.3.2-.6.4-.9.5-.4.1-.8.2-1.2.2ZM47.5,130.3c-.8,0-1.4-.1-2-.3-.6-.2-1-.5-1.4-.9-.3-.4-.5-.8-.6-1.4h0s1.6,0,1.6,0h0c0,.4.3.7.7.9.4.2,1,.4,1.6.4s1.5-.2,2-.6c.5-.4.7-.9.7-1.6v-1.9h-.1c-.2.3-.4.6-.7.9-.3.2-.6.4-1,.6-.4.1-.8.2-1.2.2-.8,0-1.5-.2-2.1-.6-.6-.4-1-.9-1.4-1.6-.3-.7-.5-1.5-.5-2.4h0c0-.9.2-1.7.5-2.4.3-.7.8-1.2,1.4-1.6.6-.4,1.3-.6,2.1-.6s.9,0,1.2.2.7.3,1,.6c.3.3.5.6.7.9h.1v-1.6h1.5v9.3c0,.7-.2,1.3-.5,1.8-.3.5-.8.9-1.5,1.2s-1.4.4-2.2.4ZM47.4,125.2c.6,0,1.1-.1,1.5-.4.4-.3.7-.7,1-1.1.2-.5.3-1,.3-1.7h0c0-.6-.1-1.2-.3-1.7-.2-.5-.5-.9-1-1.1-.4-.3-.9-.4-1.5-.4s-1.1.1-1.5.4c-.4.3-.7.7-.9,1.1-.2.5-.3,1-.3,1.7h0c0,.7.1,1.2.3,1.7.2.5.5.9.9,1.1.4.3.9.4,1.5.4ZM54.6,127v-13.2h1.5v5.2h.1c.2-.5.6-.9,1-1.2.5-.3,1-.4,1.7-.4s1.3.1,1.8.4c.5.3.9.7,1.1,1.2.3.5.4,1.2.4,1.9v6.1h-1.5v-5.7c0-.9-.2-1.5-.5-1.9-.4-.4-.9-.6-1.7-.6s-.9.1-1.3.3c-.4.2-.6.5-.9.9-.2.4-.3.9-.3,1.4v5.6h-1.5ZM73.4,127.1c-1,0-1.7-.2-2.1-.6-.4-.4-.7-1-.7-1.9v-5.7h-1.5v-1.3h1.5v-2.5h1.6v2.5h2.1v1.3h-2.1v5.4c0,.6.1.9.3,1.2.2.2.6.4,1,.4s.2,0,.3,0c0,0,.2,0,.4,0v1.3c-.1,0-.3,0-.4,0-.1,0-.3,0-.4,0ZM80.3,127.2c-.9,0-1.7-.2-2.3-.6-.7-.4-1.2-1-1.5-1.7-.4-.7-.5-1.6-.5-2.6h0c0-1,.2-1.9.5-2.6.4-.7.9-1.3,1.5-1.7.7-.4,1.4-.6,2.3-.6s1.7.2,2.3.6c.7.4,1.2,1,1.5,1.7.4.7.5,1.6.5,2.6h0c0,1-.2,1.9-.5,2.6-.4.7-.9,1.3-1.5,1.7-.7.4-1.4.6-2.3.6ZM80.3,125.8c.6,0,1.1-.1,1.5-.4.4-.3.7-.7.9-1.2.2-.5.3-1.2.3-1.9h0c0-.8-.1-1.4-.3-1.9-.2-.5-.5-.9-.9-1.2-.4-.3-.9-.4-1.5-.4s-1.1.1-1.5.4c-.4.3-.7.7-1,1.2-.2.5-.3,1.2-.3,1.9h0c0,.8.1,1.4.3,1.9.2.5.5.9,1,1.2.4.3.9.4,1.5.4ZM92.2,127v-12.7h1.6v11.3h6.1v1.4h-7.7ZM105.6,127.2c-.9,0-1.7-.2-2.3-.6-.6-.4-1.1-1-1.5-1.7-.3-.7-.5-1.6-.5-2.6h0c0-1,.2-1.8.5-2.6.4-.7.8-1.3,1.5-1.7.6-.4,1.4-.6,2.2-.6s1.6.2,2.2.6c.6.4,1.1.9,1.4,1.7.3.7.5,1.5.5,2.5v.6h-7.6v-1.2h6.8l-.8,1.1v-.6c0-.7-.1-1.4-.3-1.8-.2-.5-.5-.8-.9-1.1-.4-.2-.8-.4-1.4-.4s-1,.1-1.4.4c-.4.2-.7.6-.9,1.1-.2.5-.4,1.1-.4,1.8v.6c0,.7.1,1.2.3,1.7.2.5.6.8,1,1.1.4.3.9.4,1.5.4s.8,0,1.1-.2c.3-.1.6-.3.8-.4.2-.2.3-.4.4-.6h0c0,0,1.5,0,1.5,0h0c0,.4-.2.7-.4,1-.2.3-.5.6-.8.8-.3.2-.7.4-1.2.6-.4.1-.9.2-1.5.2ZM114.6,127.2c-.6,0-1.1-.1-1.6-.3-.5-.2-.8-.6-1.1-1-.3-.4-.4-.9-.4-1.5h0c0-.6.1-1.1.4-1.5.3-.4.7-.7,1.2-.9.5-.2,1.1-.4,1.9-.4l3.5-.2v1.2l-3.3.2c-.7,0-1.2.2-1.6.4-.3.3-.5.6-.5,1.1h0c0,.5.2.9.5,1.1.4.3.8.4,1.4.4s1-.1,1.4-.3c.4-.2.7-.5.9-.9.2-.4.4-.8.4-1.2v-2.9c0-.6-.2-1-.5-1.3-.4-.3-.9-.5-1.6-.5s-1,.1-1.4.3c-.4.2-.6.5-.7.9h0s-1.5,0-1.5,0h0c0-.6.3-1,.6-1.4.3-.4.8-.7,1.3-.9.5-.2,1.1-.3,1.8-.3s1.4.1,2,.4.9.6,1.2,1.1c.3.5.4,1,.4,1.7v6.5h-1.5v-1.4h-.1c-.2.3-.4.6-.7.9-.3.2-.6.4-1,.5-.4.1-.8.2-1.2.2ZM125.4,127.2c-.8,0-1.5-.2-2.1-.6-.6-.4-1.1-1-1.4-1.7-.3-.7-.5-1.6-.5-2.6h0c0-1,.2-1.9.5-2.6.3-.7.8-1.3,1.4-1.7.6-.4,1.3-.6,2.1-.6s.8,0,1.2.2c.4.1.7.3,1,.6.3.2.5.5.7.9h.1v-5.2h1.5v13.2h-1.5v-1.5h-.1c-.2.4-.4.7-.7.9-.3.2-.6.4-1,.6-.4.1-.8.2-1.2.2ZM125.7,125.8c.6,0,1.1-.1,1.5-.4.4-.3.7-.7,1-1.2.2-.5.3-1.2.3-1.9h0c0-.8-.1-1.4-.3-1.9-.2-.5-.5-.9-1-1.2-.4-.3-.9-.4-1.5-.4s-1.1.1-1.5.4c-.4.3-.7.7-.9,1.2-.2.5-.3,1.2-.3,1.9h0c0,.8.1,1.4.3,1.9.2.5.5.9.9,1.2.4.3.9.4,1.5.4Z"/>
  <path class="st4" d="M3.2,159.9v13.1h-1.6v-13.1h1.6ZM11.4,173v-13.1h1.6v6.5h.2l5.9-6.5h2.1l-5.5,5.9,5.5,7.2h-1.9l-4.6-6.1-1.6,1.8v4.2h-1.6ZM24.5,167.1v5.9h-1.5v-9.8h1.5v1.5h.1c.2-.5.6-.9,1-1.2.5-.3,1.1-.5,1.8-.5s1.2.1,1.7.4c.5.3.9.7,1.2,1.2.3.5.4,1.2.4,2.1v6.2h-1.5v-6.1c0-.8-.2-1.4-.6-1.8-.4-.4-1-.7-1.6-.7s-.9.1-1.3.3c-.4.2-.7.5-.9.9-.2.4-.3.9-.3,1.5ZM37.5,173.2c-.9,0-1.7-.2-2.3-.6-.7-.4-1.2-1-1.6-1.8-.4-.8-.6-1.6-.6-2.7s.2-1.9.6-2.7c.4-.8.9-1.4,1.6-1.8.7-.4,1.4-.6,2.3-.6s1.7.2,2.3.6c.7.4,1.2,1,1.6,1.8.4.8.6,1.7.6,2.7s-.2,1.9-.6,2.7c-.4.8-.9,1.3-1.6,1.8-.7.4-1.4.6-2.3.6ZM37.5,171.9c.7,0,1.2-.2,1.7-.5s.8-.8,1-1.4c.2-.6.3-1.2.3-1.8s-.1-1.3-.3-1.8c-.2-.6-.5-1-1-1.4-.4-.3-1-.5-1.7-.5s-1.2.2-1.7.5c-.4.4-.8.8-1,1.4-.2.6-.3,1.2-.3,1.8s.1,1.3.3,1.8c.2.6.5,1,1,1.4.4.3,1,.5,1.7.5ZM46.1,173l-3-9.8h1.6l2.1,7.5h.1l2.1-7.5h1.6l2.1,7.5h.1l2.1-7.5h1.6l-3,9.8h-1.5l-2.1-7.5h-.2l-2.1,7.5h-1.5ZM63.8,173v-13.1h7.9v1.4h-6.3v4.4h5.9v1.4h-5.9v4.4h6.4v1.4h-8ZM75.8,167.1v5.9h-1.5v-9.8h1.5v1.5h.1c.2-.5.6-.9,1-1.2.5-.3,1.1-.5,1.8-.5s1.2.1,1.7.4c.5.3.9.7,1.2,1.2.3.5.4,1.2.4,2.1v6.2h-1.5v-6.1c0-.8-.2-1.4-.6-1.8-.4-.4-1-.7-1.6-.7s-.9.1-1.3.3c-.4.2-.7.5-.9.9-.2.4-.3.9-.3,1.5ZM88.8,173.2c-.9,0-1.7-.2-2.3-.6-.7-.4-1.2-1-1.6-1.8-.4-.8-.6-1.6-.6-2.7s.2-1.9.6-2.7c.4-.8.9-1.4,1.6-1.8.7-.4,1.4-.6,2.3-.6s1.7.2,2.3.6c.7.4,1.2,1,1.6,1.8.4.8.6,1.7.6,2.7s-.2,1.9-.6,2.7c-.4.8-.9,1.3-1.6,1.8-.7.4-1.4.6-2.3.6ZM88.8,171.9c.7,0,1.2-.2,1.7-.5.4-.3.8-.8,1-1.4.2-.6.3-1.2.3-1.8s-.1-1.3-.3-1.8c-.2-.6-.5-1-1-1.4-.4-.3-1-.5-1.7-.5s-1.2.2-1.7.5c-.4.4-.8.8-1,1.4-.2.6-.3,1.2-.3,1.8s.1,1.3.3,1.8c.2.6.5,1,1,1.4s1,.5,1.7.5ZM101.8,169v-5.8h1.5v9.8h-1.5v-1.7h-.1c-.2.5-.6.9-1.1,1.3-.5.3-1.1.5-1.8.5s-1.2-.1-1.6-.4c-.5-.3-.9-.7-1.1-1.2-.3-.6-.4-1.2-.4-2.1v-6.2h1.5v6.1c0,.7.2,1.3.6,1.7.4.4.9.6,1.5.6s.8,0,1.1-.3c.4-.2.7-.5,1-.9.3-.4.4-.9.4-1.5ZM110,176.9c-.7,0-1.4,0-1.9-.3-.5-.2-1-.4-1.3-.7-.3-.3-.6-.6-.8-1l1.2-.8c.1.2.3.4.5.6.2.2.5.4.9.6.4.2.8.3,1.4.3s1.4-.2,2-.6c.5-.4.8-1,.8-1.8v-2h-.1c-.1.2-.3.4-.5.7-.2.3-.5.5-.9.7-.4.2-.9.3-1.5.3s-1.5-.2-2.1-.6c-.6-.4-1.1-.9-1.5-1.6-.4-.7-.5-1.6-.5-2.6s.2-1.9.5-2.6c.4-.8.8-1.3,1.5-1.7.6-.4,1.4-.6,2.2-.6s1.1.1,1.5.3c.4.2.7.4.9.7.2.3.4.5.5.7h.2v-1.6h1.5v10.1c0,.8-.2,1.5-.6,2.1-.4.5-.9.9-1.5,1.2-.6.3-1.3.4-2.1.4ZM110,171.5c.6,0,1.1-.1,1.5-.4.4-.3.7-.7,1-1.2s.3-1.1.3-1.9-.1-1.3-.3-1.9c-.2-.5-.5-1-.9-1.3-.4-.3-.9-.5-1.5-.5s-1.2.2-1.6.5c-.4.3-.7.8-1,1.3-.2.5-.3,1.2-.3,1.8s.1,1.3.3,1.8c.2.5.5.9,1,1.2.4.3,1,.4,1.6.4ZM118.5,167.1v5.9h-1.5v-13.1h1.5v4.8h.1c.2-.5.6-.9,1-1.2.5-.3,1.1-.5,1.9-.5s1.3.1,1.8.4c.5.3.9.7,1.2,1.2.3.5.4,1.2.4,2.1v6.2h-1.5v-6.1c0-.8-.2-1.4-.6-1.8-.4-.4-1-.6-1.7-.6s-.9.1-1.3.3c-.4.2-.7.5-.9.9-.2.4-.3.9-.3,1.5ZM5.7,185.2v1.3H.6v-1.3h5.1ZM2,182.8h1.5v9.4c0,.4,0,.7.2,1,.1.2.3.4.5.4.2,0,.4.1.6.1s.3,0,.4,0c.1,0,.2,0,.3,0l.3,1.4c-.1,0-.2,0-.4.1-.2,0-.4,0-.7,0-.4,0-.8,0-1.3-.3-.4-.2-.7-.5-1-.8-.3-.4-.4-.8-.4-1.4v-9.8ZM11.8,195.2c-.9,0-1.7-.2-2.3-.6-.7-.4-1.2-1-1.6-1.8-.4-.8-.6-1.6-.6-2.7s.2-1.9.6-2.7c.4-.8.9-1.4,1.6-1.8.7-.4,1.4-.6,2.3-.6s1.7.2,2.3.6c.7.4,1.2,1,1.6,1.8.4.8.6,1.7.6,2.7s-.2,1.9-.6,2.7c-.4.8-.9,1.3-1.6,1.8-.7.4-1.4.6-2.3.6ZM11.8,193.9c.7,0,1.2-.2,1.7-.5.4-.3.8-.8,1-1.4.2-.6.3-1.2.3-1.8s-.1-1.3-.3-1.8c-.2-.6-.5-1-1-1.4-.4-.3-1-.5-1.7-.5s-1.2.2-1.7.5c-.4.4-.8.8-1,1.4-.2.6-.3,1.2-.3,1.8s.1,1.3.3,1.8c.2.6.5,1,1,1.4.4.3,1,.5,1.7.5ZM23.8,195v-13.1h1.6v5.8h7v-5.8h1.6v13.1h-1.6v-5.9h-7v5.9h-1.6ZM39.8,195.2c-.6,0-1.2-.1-1.7-.4-.5-.2-.9-.6-1.2-1-.3-.5-.4-1-.4-1.6s.1-1,.3-1.4c.2-.4.5-.6.9-.8.4-.2.8-.3,1.2-.4.5-.1.9-.2,1.4-.2.6,0,1.1-.1,1.5-.2.4,0,.6-.1.8-.2.2,0,.3-.3.3-.5h0c0-.7-.2-1.2-.5-1.5-.3-.4-.9-.5-1.6-.5s-1.3.2-1.7.5c-.4.3-.7.7-.9,1l-1.4-.5c.3-.6.6-1.1,1-1.4.4-.3.9-.6,1.4-.7.5-.1,1-.2,1.5-.2s.7,0,1.1.1c.4,0,.8.2,1.2.5.4.2.7.6,1,1,.3.5.4,1.1.4,1.9v6.5h-1.5v-1.3h0c-.1.2-.3.4-.5.7-.2.2-.6.4-1,.6-.4.2-.9.3-1.5.3ZM40.1,193.9c.6,0,1.1-.1,1.5-.4.4-.2.7-.5.9-.9.2-.4.3-.8.3-1.2v-1.4c0,0-.2.1-.4.2-.2,0-.5.1-.7.2-.3,0-.5,0-.8.1-.3,0-.5,0-.6,0-.4,0-.8.1-1.1.2-.3.1-.6.3-.8.5-.2.2-.3.5-.3.9s.2.9.6,1.2c.4.3.9.4,1.5.4ZM48.6,189.1v5.9h-1.5v-9.8h1.5v1.5h.1c.2-.5.6-.9,1-1.2.5-.3,1.1-.5,1.8-.5s1.2.1,1.7.4c.5.3.9.7,1.2,1.2.3.5.4,1.2.4,2.1v6.2h-1.5v-6.1c0-.8-.2-1.4-.6-1.8-.4-.4-1-.7-1.6-.7s-.9.1-1.3.3c-.4.2-.7.5-.9.9-.2.4-.3.9-.3,1.5ZM61.6,198.9c-.7,0-1.4,0-1.9-.3-.5-.2-1-.4-1.3-.7-.3-.3-.6-.6-.8-1l1.2-.8c.1.2.3.4.5.6.2.2.5.4.9.6.4.2.8.3,1.4.3s1.4-.2,2-.6c.5-.4.8-1,.8-1.8v-2h-.1c-.1.2-.3.4-.5.7-.2.3-.5.5-.9.7-.4.2-.9.3-1.5.3s-1.5-.2-2.1-.6c-.6-.4-1.1-.9-1.5-1.6-.4-.7-.5-1.6-.5-2.6s.2-1.9.5-2.6c.4-.8.8-1.3,1.5-1.7.6-.4,1.4-.6,2.2-.6s1.1.1,1.5.3c.4.2.7.4.9.7.2.3.4.5.5.7h.2v-1.6h1.5v10.1c0,.8-.2,1.5-.6,2.1-.4.5-.9.9-1.5,1.2-.6.3-1.4.4-2.1.4ZM61.5,193.5c.6,0,1.1-.1,1.5-.4.4-.3.7-.7,1-1.2.2-.5.3-1.1.3-1.9s-.1-1.3-.3-1.9c-.2-.5-.5-1-.9-1.3-.4-.3-.9-.5-1.5-.5s-1.2.2-1.6.5c-.4.3-.7.8-1,1.3-.2.5-.3,1.2-.3,1.8s.1,1.3.3,1.8c.2.5.5.9,1,1.2.4.3,1,.4,1.6.4Z"/>
  <path class="st4" d="M195.6,18V4.9h7.8v1.4h-6.3v4.4h5.7v1.4h-5.7v5.9h-1.6ZM205.8,18v-9.8h1.5v1.5h.1c.2-.5.5-.9,1-1.2.5-.3,1-.5,1.6-.5s.2,0,.4,0c.2,0,.3,0,.4,0v1.5c0,0-.2,0-.4,0-.2,0-.4,0-.6,0-.5,0-.9.1-1.3.3-.4.2-.7.5-.9.8-.2.3-.3.7-.3,1.2v6.2h-1.5ZM216.2,18.2c-.9,0-1.7-.2-2.3-.6-.7-.4-1.2-1-1.6-1.8-.4-.8-.6-1.6-.6-2.7s.2-1.9.6-2.7c.4-.8.9-1.4,1.6-1.8.7-.4,1.4-.6,2.3-.6s1.7.2,2.3.6c.7.4,1.2,1,1.6,1.8.4.8.6,1.7.6,2.7s-.2,1.9-.6,2.7c-.4.8-.9,1.3-1.6,1.8-.7.4-1.4.6-2.3.6ZM216.2,16.8c.7,0,1.2-.2,1.7-.5.4-.3.8-.8,1-1.4s.3-1.2.3-1.8-.1-1.3-.3-1.8c-.2-.6-.5-1-1-1.4-.4-.3-1-.5-1.7-.5s-1.2.2-1.7.5c-.4.3-.8.8-1,1.4-.2.6-.3,1.2-.3,1.8s.1,1.3.3,1.8c.2.6.5,1,1,1.4.4.3,1,.5,1.7.5ZM224.5,12.1v5.9h-1.5v-9.8h1.5v1.5h.1c.2-.5.6-.9,1-1.2.5-.3,1.1-.5,1.8-.5s1.2.1,1.7.4c.5.3.9.7,1.2,1.2.3.5.4,1.2.4,2.1v6.2h-1.5v-6.1c0-.8-.2-1.4-.6-1.8-.4-.4-1-.7-1.6-.7s-.9.1-1.3.3c-.4.2-.7.5-.9.9-.2.4-.3.9-.3,1.5ZM237.8,8.2v1.3h-5.1v-1.3h5.1ZM234.2,5.8h1.5v9.4c0,.4,0,.7.2,1,.1.2.3.3.5.4.2,0,.4.1.6.1s.3,0,.4,0c.1,0,.2,0,.3,0l.3,1.4c-.1,0-.2,0-.4.1-.2,0-.4,0-.7,0-.4,0-.8,0-1.3-.3-.4-.2-.7-.5-1-.8-.3-.4-.4-.8-.4-1.4V5.8ZM245.3,11.7v1.4h-5.7v-1.4h5.7ZM248.2,18V4.9h7.9v1.4h-6.3v4.4h5.9v1.4h-5.9v4.4h6.4v1.4h-8ZM260.2,12.1v5.9h-1.5v-9.8h1.5v1.5h.1c.2-.5.6-.9,1-1.2.5-.3,1.1-.5,1.8-.5s1.2.1,1.7.4c.5.3.9.7,1.2,1.2.3.5.4,1.2.4,2.1v6.2h-1.5v-6.1c0-.8-.2-1.4-.6-1.8-.4-.4-1-.7-1.6-.7s-.9.1-1.3.3c-.4.2-.7.5-.9.9-.2.4-.3.9-.3,1.5ZM273,18.2c-.8,0-1.5-.2-2.2-.6-.6-.4-1.1-1-1.5-1.8-.4-.8-.5-1.7-.5-2.7s.2-1.9.5-2.7c.4-.8.8-1.3,1.5-1.8.6-.4,1.4-.6,2.2-.6s1.1.1,1.5.3c.4.2.7.4.9.7.2.3.4.5.5.7h.1v-4.8h1.5v13.1h-1.5v-1.5h-.2c-.1.2-.3.4-.5.7-.2.3-.5.5-.9.7-.4.2-.9.3-1.5.3ZM273.2,16.8c.6,0,1.1-.2,1.5-.5.4-.3.7-.8,1-1.3.2-.6.3-1.2.3-2s-.1-1.4-.3-1.9c-.2-.6-.5-1-.9-1.3-.4-.3-.9-.5-1.5-.5s-1.2.2-1.6.5c-.4.3-.7.8-1,1.3-.2.6-.3,1.2-.3,1.9s.1,1.3.3,1.9c.2.6.5,1,1,1.4.4.3,1,.5,1.6.5ZM199.6,40h-4v-13.1h4.2c1.3,0,2.4.3,3.3.8.9.5,1.6,1.3,2.1,2.2.5,1,.7,2.1.7,3.5s-.2,2.5-.7,3.5c-.5,1-1.2,1.7-2.1,2.3-.9.5-2.1.8-3.4.8ZM197.2,38.6h2.4c1.1,0,2-.2,2.7-.6.7-.4,1.2-1,1.6-1.8.4-.8.5-1.7.5-2.8s-.2-2-.5-2.7c-.3-.8-.9-1.4-1.5-1.8-.7-.4-1.5-.6-2.6-.6h-2.5v10.3ZM212.4,40.2c-.9,0-1.8-.2-2.4-.6-.7-.4-1.2-1-1.6-1.8-.4-.8-.6-1.6-.6-2.6s.2-1.9.6-2.7c.4-.8.9-1.4,1.5-1.8.7-.4,1.4-.7,2.3-.7s1,0,1.5.3c.5.2,1,.4,1.4.8.4.4.7.9,1,1.5.2.6.4,1.4.4,2.3v.6h-7.6v-1.3h6c0-.6-.1-1-.3-1.5-.2-.4-.5-.8-.9-1-.4-.3-.9-.4-1.4-.4s-1.1.1-1.6.4c-.4.3-.8.7-1,1.2-.2.5-.4,1-.4,1.5v.9c0,.7.1,1.4.4,1.9.3.5.6.9,1.1,1.2.5.3,1,.4,1.6.4s.8,0,1.1-.2c.3-.1.6-.3.8-.5.2-.2.4-.5.5-.9l1.5.4c-.2.5-.4.9-.8,1.3-.4.4-.8.7-1.3.9-.5.2-1.1.3-1.8.3ZM226.5,30.2l-3.6,9.8h-1.5l-3.6-9.8h1.6l2.7,7.8h.1l2.7-7.8h1.6ZM232.3,40.2c-.9,0-1.8-.2-2.4-.6-.7-.4-1.2-1-1.6-1.8-.4-.8-.5-1.6-.5-2.6s.2-1.9.5-2.7c.4-.8.9-1.4,1.5-1.8.7-.4,1.4-.7,2.3-.7s1,0,1.5.3c.5.2,1,.4,1.4.8.4.4.7.9,1,1.5.2.6.4,1.4.4,2.3v.6h-7.6v-1.3h6c0-.6-.1-1-.3-1.5-.2-.4-.5-.8-.9-1-.4-.3-.9-.4-1.4-.4s-1.1.1-1.6.4c-.4.3-.8.7-1,1.2-.2.5-.4,1-.4,1.5v.9c0,.7.1,1.4.4,1.9.3.5.6.9,1.1,1.2.5.3,1,.4,1.6.4s.8,0,1.1-.2c.3-.1.6-.3.8-.5.2-.2.4-.5.5-.9l1.5.4c-.2.5-.4.9-.8,1.3-.4.4-.8.7-1.3.9-.5.2-1.1.3-1.8.3ZM240.1,26.9v13.1h-1.5v-13.1h1.5ZM246.9,40.2c-.9,0-1.7-.2-2.3-.6-.7-.4-1.2-1-1.6-1.8-.4-.8-.6-1.6-.6-2.7s.2-1.9.6-2.7c.4-.8.9-1.4,1.6-1.8.7-.4,1.4-.6,2.3-.6s1.7.2,2.3.6c.7.4,1.2,1,1.6,1.8.4.8.6,1.7.6,2.7s-.2,1.9-.6,2.7c-.4.8-.9,1.3-1.6,1.8-.7.4-1.4.6-2.3.6ZM246.9,38.8c.7,0,1.2-.2,1.7-.5.4-.3.8-.8,1-1.4s.3-1.2.3-1.8-.1-1.3-.3-1.8c-.2-.6-.5-1-1-1.4-.4-.3-1-.5-1.7-.5s-1.2.2-1.7.5c-.4.3-.8.8-1,1.4-.2.6-.3,1.2-.3,1.8s.1,1.3.3,1.8c.2.6.5,1,1,1.4.4.3,1,.5,1.7.5ZM253.7,43.7v-13.5h1.5v1.6h.2c.1-.2.3-.4.5-.7.2-.3.5-.5.9-.7.4-.2.9-.3,1.5-.3s1.6.2,2.2.6c.6.4,1.1,1,1.5,1.8.4.8.5,1.7.5,2.7s-.2,1.9-.5,2.7c-.4.8-.8,1.3-1.5,1.8-.6.4-1.3.6-2.2.6s-1.1-.1-1.5-.3c-.4-.2-.7-.5-.9-.7-.2-.3-.4-.5-.5-.7h-.1v5.2h-1.5ZM255.1,35.1c0,.7.1,1.4.3,2,.2.6.5,1,1,1.3.4.3.9.5,1.5.5s1.2-.2,1.6-.5c.4-.3.7-.8,1-1.4.2-.6.3-1.2.3-1.9s-.1-1.3-.3-1.9c-.2-.6-.5-1-1-1.3-.4-.3-1-.5-1.6-.5s-1.1.2-1.5.5c-.4.3-.7.7-.9,1.3-.2.5-.3,1.2-.3,1.9ZM264.6,40v-9.8h1.5v1.5h.1c.2-.5.5-.9,1-1.2.5-.3,1-.4,1.6-.4s1.2.1,1.6.4c.4.3.8.7,1,1.2h.1c.3-.5.6-.9,1.1-1.2.5-.3,1.1-.5,1.8-.5s1.6.3,2.2.8c.6.5.8,1.4.8,2.6v6.6h-1.5v-6.6c0-.7-.2-1.2-.6-1.6-.4-.3-.9-.5-1.4-.5s-1.2.2-1.6.6c-.4.4-.6.9-.6,1.6v6.4h-1.5v-6.7c0-.6-.2-1-.5-1.3-.4-.3-.8-.5-1.4-.5s-.8.1-1.1.3c-.3.2-.6.5-.8.9-.2.4-.3.8-.3,1.3v6.1h-1.5ZM284.4,40.2c-.9,0-1.8-.2-2.4-.6-.7-.4-1.2-1-1.6-1.8-.4-.8-.6-1.6-.6-2.6s.2-1.9.6-2.7c.4-.8.9-1.4,1.5-1.8.7-.4,1.4-.7,2.3-.7s1,0,1.5.3c.5.2,1,.4,1.4.8.4.4.7.9,1,1.5.2.6.4,1.4.4,2.3v.6h-7.6v-1.3h6c0-.6-.1-1-.3-1.5-.2-.4-.5-.8-.9-1-.4-.3-.9-.4-1.4-.4s-1.1.1-1.6.4c-.4.3-.8.7-1,1.2-.2.5-.4,1-.4,1.5v.9c0,.7.1,1.4.4,1.9.3.5.6.9,1.1,1.2.5.3,1,.4,1.6.4s.8,0,1.1-.2c.3-.1.6-.3.8-.5.2-.2.4-.5.5-.9l1.5.4c-.2.5-.4.9-.8,1.3-.4.4-.8.7-1.3.9-.5.2-1.1.3-1.8.3ZM292.3,34.1v5.9h-1.5v-9.8h1.5v1.5h.1c.2-.5.6-.9,1-1.2.5-.3,1.1-.5,1.8-.5s1.2.1,1.7.4c.5.3.9.7,1.2,1.2.3.5.4,1.2.4,2.1v6.2h-1.5v-6.1c0-.8-.2-1.4-.6-1.8-.4-.4-1-.7-1.6-.7s-.9.1-1.3.3c-.4.2-.7.5-.9.9-.2.4-.3.9-.3,1.5ZM305.5,30.2v1.3h-5.1v-1.3h5.1ZM301.9,27.8h1.5v9.4c0,.4,0,.7.2,1,.1.2.3.3.5.4.2,0,.4.1.6.1s.3,0,.4,0c.1,0,.2,0,.3,0l.3,1.4c-.1,0-.2,0-.4.1-.2,0-.4,0-.7,0-.4,0-.8,0-1.3-.3-.4-.2-.7-.5-1-.8-.3-.4-.4-.8-.4-1.4v-9.8Z"/>
  <path class="st4" d="M1188.6,4.9h1.6v8.7c0,.9-.2,1.7-.6,2.4-.4.7-1,1.3-1.8,1.7-.8.4-1.7.6-2.7.6s-1.9-.2-2.7-.6c-.8-.4-1.4-1-1.8-1.7-.4-.7-.6-1.5-.6-2.4V4.9h1.6v8.5c0,.6.1,1.2.4,1.7.3.5.7.9,1.2,1.2.5.3,1.2.4,1.9.4s1.4-.1,1.9-.4c.5-.3.9-.7,1.2-1.2.3-.5.4-1.1.4-1.7V4.9ZM1194.1,4.9l3.4,5.4h.1l3.4-5.4h1.9l-4.1,6.5,4.1,6.5h-1.9l-3.4-5.3h-.1l-3.4,5.3h-1.9l4.2-6.5-4.2-6.5h1.9ZM1180,40v-13.1h4.4c1,0,1.9.2,2.5.5.7.3,1.1.8,1.5,1.4.3.6.5,1.3.5,2.1s-.2,1.5-.5,2.1c-.3.6-.8,1.1-1.5,1.4-.7.3-1.5.5-2.5.5h-3.6v-1.4h3.5c.7,0,1.3-.1,1.7-.3.4-.2.7-.5.9-.9.2-.4.3-.8.3-1.4s0-1-.3-1.4c-.2-.4-.5-.7-.9-.9-.4-.2-1-.3-1.7-.3h-2.8v11.7h-1.6ZM1186.1,34.1l3.2,5.9h-1.8l-3.2-5.9h1.8ZM1195.3,40.2c-.9,0-1.8-.2-2.4-.6-.7-.4-1.2-1-1.6-1.8-.4-.8-.5-1.6-.5-2.6s.2-1.9.5-2.7c.4-.8.9-1.4,1.5-1.8.7-.4,1.4-.7,2.3-.7s1,0,1.5.3c.5.2,1,.4,1.4.8.4.4.7.9,1,1.5.2.6.4,1.4.4,2.3v.6h-7.6v-1.3h6c0-.6-.1-1-.3-1.5-.2-.4-.5-.8-.9-1-.4-.3-.9-.4-1.4-.4s-1.1.1-1.6.4c-.4.3-.8.7-1,1.2-.2.5-.4,1-.4,1.5v.9c0,.7.1,1.4.4,1.9.3.5.6.9,1.1,1.2.5.3,1,.4,1.6.4s.8,0,1.1-.2c.3-.1.6-.3.8-.5.2-.2.4-.5.5-.9l1.5.4c-.2.5-.4.9-.8,1.3-.4.4-.8.7-1.3.9-.5.2-1.1.3-1.8.3ZM1208.6,32.4l-1.4.4c0-.2-.2-.4-.4-.7-.2-.2-.4-.4-.7-.5s-.6-.2-1.1-.2-1.1.1-1.5.4c-.4.3-.6.6-.6,1s.1.7.4.9c.3.2.7.4,1.3.5l1.5.4c.9.2,1.5.5,2,1,.4.4.6,1,.6,1.7s-.2,1.1-.5,1.5c-.3.4-.8.8-1.3,1-.6.3-1.2.4-2,.4s-1.8-.2-2.5-.7c-.7-.4-1.1-1.1-1.2-1.9l1.4-.4c.1.5.4.9.8,1.2.4.3.9.4,1.5.4s1.3-.1,1.7-.4c.4-.3.6-.7.6-1.1s-.1-.6-.4-.9c-.2-.2-.6-.4-1.1-.5l-1.6-.4c-.9-.2-1.6-.5-2-1-.4-.5-.6-1-.6-1.7s.2-1,.5-1.5c.3-.4.7-.8,1.3-1,.5-.2,1.2-.4,1.9-.4s1.7.2,2.3.6c.6.4,1,1,1.2,1.7ZM1215.2,40.2c-.9,0-1.8-.2-2.4-.6-.7-.4-1.2-1-1.6-1.8-.4-.8-.5-1.6-.5-2.6s.2-1.9.5-2.7c.4-.8.9-1.4,1.5-1.8.7-.4,1.4-.7,2.3-.7s1,0,1.5.3c.5.2,1,.4,1.4.8.4.4.7.9,1,1.5.2.6.4,1.4.4,2.3v.6h-7.6v-1.3h6c0-.6-.1-1-.3-1.5-.2-.4-.5-.8-.9-1-.4-.3-.9-.4-1.4-.4s-1.1.1-1.6.4c-.4.3-.8.7-1,1.2-.2.5-.4,1-.4,1.5v.9c0,.7.1,1.4.4,1.9.3.5.6.9,1.1,1.2.5.3,1,.4,1.6.4s.8,0,1.1-.2c.3-.1.6-.3.8-.5.2-.2.4-.5.5-.9l1.5.4c-.2.5-.4.9-.8,1.3-.4.4-.8.7-1.3.9-.5.2-1.1.3-1.8.3ZM1224.4,40.2c-.6,0-1.2-.1-1.7-.4-.5-.2-.9-.6-1.2-1-.3-.5-.4-1-.4-1.6s.1-1,.3-1.4c.2-.4.5-.6.9-.8.4-.2.8-.3,1.2-.4.5-.1.9-.2,1.4-.2.6,0,1.1-.1,1.5-.2.4,0,.6-.1.8-.2.2,0,.3-.3.3-.5h0c0-.7-.2-1.2-.5-1.5-.3-.3-.9-.5-1.6-.5s-1.3.2-1.7.5c-.4.3-.7.7-.9,1l-1.4-.5c.3-.6.6-1.1,1-1.4.4-.3.9-.6,1.4-.7.5-.1,1-.2,1.5-.2s.7,0,1.1.1c.4,0,.8.2,1.2.5.4.2.7.6,1,1,.3.5.4,1.1.4,1.9v6.5h-1.5v-1.3h0c-.1.2-.3.4-.5.7-.2.2-.6.4-1,.6-.4.2-.9.3-1.5.3ZM1224.6,38.9c.6,0,1.1-.1,1.5-.4.4-.2.7-.5.9-.9.2-.4.3-.8.3-1.2v-1.4c0,0-.2.1-.4.2-.2,0-.5.1-.7.2-.3,0-.5,0-.8.1-.3,0-.5,0-.6,0-.4,0-.8.1-1.1.2-.3.1-.6.3-.8.5-.2.2-.3.5-.3.9s.2.9.6,1.2c.4.3.9.4,1.5.4ZM1231.7,40v-9.8h1.5v1.5h.1c.2-.5.5-.9,1-1.2.5-.3,1-.5,1.6-.5s.2,0,.4,0c.2,0,.3,0,.4,0v1.5c0,0-.2,0-.4,0-.2,0-.4,0-.6,0-.5,0-.9.1-1.3.3-.4.2-.7.5-.9.8-.2.3-.3.7-.3,1.2v6.2h-1.5ZM1242.1,40.2c-.9,0-1.7-.2-2.4-.7-.7-.4-1.2-1-1.5-1.8-.4-.8-.5-1.6-.5-2.6s.2-1.9.5-2.6c.4-.8.9-1.4,1.5-1.8.7-.4,1.4-.7,2.3-.7s1.3.1,1.9.4c.6.3,1,.6,1.4,1.1.4.5.6,1,.7,1.6h-1.5c-.1-.4-.4-.8-.8-1.2-.4-.3-.9-.5-1.6-.5s-1.1.2-1.5.5c-.4.3-.8.7-1,1.3-.2.5-.4,1.2-.4,1.9s.1,1.4.4,2c.2.6.6,1,1,1.3.4.3,1,.5,1.6.5s.7,0,1.1-.2c.3-.1.6-.3.8-.6.2-.3.4-.6.5-.9h1.5c0,.6-.3,1.1-.6,1.6-.3.5-.8.8-1.3,1.1-.5.3-1.2.4-1.9.4ZM1249.6,34.1v5.9h-1.5v-13.1h1.5v4.8h.1c.2-.5.6-.9,1-1.2.5-.3,1.1-.5,1.9-.5s1.3.1,1.8.4c.5.3.9.7,1.2,1.2.3.5.4,1.2.4,2.1v6.2h-1.5v-6.1c0-.8-.2-1.4-.6-1.8-.4-.4-1-.6-1.7-.6s-.9.1-1.3.3c-.4.2-.7.5-.9.9-.2.4-.3.9-.3,1.5Z"/>
  <path class="st4" d="M605,4.9h2.8v8.5c0,1-.2,1.8-.7,2.5-.5.7-1.1,1.3-1.9,1.7-.8.4-1.8.6-2.8.6s-2-.2-2.9-.6c-.8-.4-1.4-1-1.9-1.7-.5-.7-.7-1.6-.7-2.5V4.9h2.8v8.3c0,.5.1.9.3,1.3.2.4.5.7.9.9.4.2.9.3,1.4.3s1-.1,1.4-.3c.4-.2.7-.5.9-.9.2-.4.3-.8.3-1.3V4.9ZM612.8,4.9v13.1h-2.8V4.9h2.8ZM601.6,40h-4.6v-13.1h4.7c1.3,0,2.5.3,3.4.8,1,.5,1.7,1.3,2.2,2.2.5,1,.8,2.1.8,3.5s-.3,2.5-.8,3.5c-.5,1-1.2,1.7-2.2,2.3-1,.5-2.1.8-3.4.8ZM599.7,37.6h1.8c.8,0,1.5-.1,2.1-.4.6-.3,1-.7,1.3-1.4.3-.6.4-1.4.4-2.4s-.1-1.8-.4-2.4c-.3-.6-.7-1.1-1.3-1.4-.6-.3-1.2-.4-2.1-.4h-1.8v8.3ZM614.5,40.2c-1,0-1.9-.2-2.6-.6-.7-.4-1.3-1-1.7-1.8-.4-.8-.6-1.7-.6-2.7s.2-1.9.6-2.7c.4-.8.9-1.4,1.7-1.8.7-.4,1.6-.6,2.5-.6s1.3.1,1.8.3c.6.2,1.1.5,1.5.9.4.4.8.9,1,1.6.2.6.4,1.4.4,2.2v.7h-8.3v-1.7h5.7c0-.4,0-.7-.3-1-.2-.3-.4-.5-.7-.7-.3-.2-.6-.3-1-.3s-.8,0-1.1.3c-.3.2-.6.4-.7.8-.2.3-.3.7-.3,1.1v1.6c0,.5,0,.9.3,1.3.2.4.4.6.8.8.3.2.7.3,1.2.3s.6,0,.8-.1c.3,0,.5-.2.6-.4.2-.2.3-.4.4-.6l2.5.2c-.1.6-.4,1.1-.8,1.6-.4.4-.9.8-1.5,1-.6.2-1.3.4-2.1.4ZM628.9,33l-2.5.2c0-.2-.1-.4-.3-.6-.1-.2-.3-.3-.6-.4-.2-.1-.5-.2-.8-.2s-.8,0-1.1.3c-.3.2-.4.4-.4.7s0,.4.3.6c.2.2.5.3,1,.4l1.8.4c1,.2,1.7.5,2.1.9.5.4.7,1,.7,1.7s-.2,1.2-.6,1.7c-.4.5-.9.9-1.5,1.1-.7.3-1.4.4-2.3.4-1.3,0-2.3-.3-3.1-.8-.8-.5-1.2-1.3-1.3-2.2h2.7c0,.3.3.6.6.8.3.2.7.3,1.2.3s.9,0,1.2-.3c.3-.2.4-.4.4-.7,0-.2-.1-.4-.3-.6-.2-.2-.5-.3-.9-.4l-1.7-.3c-1-.2-1.7-.5-2.1-1-.5-.5-.7-1.1-.7-1.8s.2-1.2.5-1.6c.3-.5.8-.8,1.5-1.1.6-.2,1.4-.4,2.2-.4,1.2,0,2.2.3,2.9.8.7.5,1.1,1.2,1.3,2.1ZM630.8,40v-9.8h2.7v9.8h-2.7ZM632.2,28.9c-.4,0-.8-.1-1-.4-.3-.3-.4-.6-.4-1s.1-.7.4-1c.3-.3.6-.4,1-.4s.8.1,1,.4c.3.3.4.6.4,1s-.1.7-.4,1c-.3.3-.6.4-1,.4ZM640.2,43.9c-.9,0-1.6-.1-2.3-.4-.6-.2-1.1-.6-1.5-1-.4-.4-.6-.9-.7-1.4l2.5-.3c0,.2.2.4.4.5.2.2.4.3.7.4.3.1.6.2,1,.2.6,0,1.1-.1,1.5-.4.4-.3.6-.8.6-1.4v-1.8h-.1c-.1.3-.3.5-.5.8-.2.2-.5.4-.9.6-.4.2-.8.2-1.3.2-.7,0-1.4-.2-2-.5-.6-.3-1.1-.9-1.4-1.6-.4-.7-.5-1.6-.5-2.7s.2-2,.5-2.8c.4-.7.8-1.3,1.4-1.7.6-.4,1.3-.6,2-.6s1,0,1.4.3c.4.2.7.4.9.7.2.3.4.5.5.8h.1v-1.6h2.7v9.9c0,.8-.2,1.5-.6,2.1s-1,1-1.7,1.3c-.7.3-1.5.4-2.5.4ZM640.2,37.8c.4,0,.8-.1,1.1-.3.3-.2.5-.5.7-.9.2-.4.2-.9.2-1.5s0-1.1-.2-1.5c-.2-.4-.4-.8-.7-1-.3-.2-.7-.4-1.1-.4s-.8.1-1.1.4c-.3.2-.5.6-.7,1-.2.4-.2.9-.2,1.5s0,1.1.2,1.5c.2.4.4.7.7,1,.3.2.7.3,1.1.3ZM649.9,34.3v5.7h-2.7v-9.8h2.6v1.7h.1c.2-.6.6-1,1.1-1.4.5-.3,1.1-.5,1.9-.5s1.3.1,1.8.4c.5.3.9.7,1.2,1.3.3.5.4,1.2.4,2v6.3h-2.7v-5.8c0-.6-.1-1.1-.5-1.4-.3-.3-.7-.5-1.3-.5s-.7,0-1,.2c-.3.2-.5.4-.7.7-.2.3-.2.7-.2,1.1Z"/>
  <path class="st4" d="M805.4,4.9h2.8v8.5c0,1-.2,1.8-.7,2.5-.5.7-1.1,1.3-1.9,1.7-.8.4-1.8.6-2.8.6s-2-.2-2.9-.6c-.8-.4-1.4-1-1.9-1.7-.5-.7-.7-1.6-.7-2.5V4.9h2.8v8.3c0,.5.1.9.3,1.3.2.4.5.7.9.9.4.2.9.3,1.4.3s1-.1,1.4-.3c.4-.2.7-.5.9-.9.2-.4.3-.8.3-1.3V4.9ZM813.1,4.9l2.6,4.5h.1l2.7-4.5h3.1l-4,6.5,4.1,6.5h-3.2l-2.7-4.5h-.1l-2.7,4.5h-3.2l4.1-6.5-4-6.5h3.1ZM802,40h-4.6v-13.1h4.7c1.3,0,2.4.3,3.4.8,1,.5,1.7,1.3,2.2,2.2.5,1,.8,2.1.8,3.5s-.3,2.5-.8,3.5c-.5,1-1.2,1.7-2.2,2.3-1,.5-2.1.8-3.4.8ZM800.1,37.6h1.8c.8,0,1.5-.1,2.1-.4.6-.3,1-.7,1.3-1.4.3-.6.4-1.4.4-2.4s-.1-1.8-.4-2.4c-.3-.6-.7-1.1-1.3-1.4-.6-.3-1.2-.4-2.1-.4h-1.8v8.3ZM814.9,40.2c-1,0-1.9-.2-2.6-.6-.7-.4-1.3-1-1.7-1.8-.4-.8-.6-1.7-.6-2.7s.2-1.9.6-2.7c.4-.8.9-1.4,1.7-1.8.7-.4,1.6-.6,2.5-.6s1.3.1,1.8.3c.6.2,1.1.5,1.5.9.4.4.8.9,1,1.6.2.6.4,1.4.4,2.2v.7h-8.3v-1.7h5.7c0-.4,0-.7-.3-1-.2-.3-.4-.5-.7-.7-.3-.2-.6-.3-1-.3s-.8,0-1.1.3c-.3.2-.6.4-.7.8-.2.3-.3.7-.3,1.1v1.6c0,.5,0,.9.3,1.3.2.4.4.6.8.8.3.2.7.3,1.2.3s.6,0,.8-.1c.3,0,.5-.2.6-.4.2-.2.3-.4.4-.6l2.5.2c-.1.6-.4,1.1-.8,1.6-.4.4-.9.8-1.5,1-.6.2-1.3.4-2.1.4ZM829.3,33l-2.5.2c0-.2-.1-.4-.3-.6-.1-.2-.3-.3-.6-.4-.2-.1-.5-.2-.8-.2s-.8,0-1.1.3c-.3.2-.4.4-.4.7s0,.4.3.6c.2.2.5.3,1,.4l1.8.4c1,.2,1.7.5,2.1.9.5.4.7,1,.7,1.7s-.2,1.2-.6,1.7c-.4.5-.9.9-1.5,1.1-.7.3-1.4.4-2.3.4-1.3,0-2.3-.3-3.1-.8-.8-.5-1.2-1.3-1.3-2.2h2.7c0,.3.3.6.6.8.3.2.7.3,1.2.3s.9,0,1.2-.3c.3-.2.4-.4.4-.7,0-.2-.1-.4-.3-.6-.2-.2-.5-.3-.9-.4l-1.7-.3c-1-.2-1.7-.5-2.1-1-.5-.5-.7-1.1-.7-1.8s.2-1.2.5-1.6c.3-.5.8-.8,1.5-1.1.6-.2,1.4-.4,2.2-.4,1.2,0,2.2.3,2.9.8.7.5,1.1,1.2,1.3,2.1ZM831.2,40v-9.8h2.7v9.8h-2.7ZM832.6,28.9c-.4,0-.8-.1-1-.4-.3-.3-.4-.6-.4-1s.1-.7.4-1c.3-.3.6-.4,1-.4s.8.1,1,.4c.3.3.4.6.4,1s-.1.7-.4,1c-.3.3-.6.4-1,.4ZM840.6,43.9c-.9,0-1.6-.1-2.3-.4-.6-.2-1.1-.6-1.5-1-.4-.4-.6-.9-.7-1.4l2.5-.3c0,.2.2.4.4.5.2.2.4.3.7.4.3.1.6.2,1,.2.6,0,1.1-.1,1.5-.4.4-.3.6-.8.6-1.4v-1.8h-.1c-.1.3-.3.5-.5.8-.2.2-.5.4-.9.6-.4.2-.8.2-1.3.2-.7,0-1.4-.2-2-.5-.6-.3-1.1-.9-1.4-1.6-.4-.7-.5-1.6-.5-2.7s.2-2,.5-2.8c.4-.7.8-1.3,1.4-1.7.6-.4,1.3-.6,2-.6s1,0,1.4.3c.4.2.7.4.9.7.2.3.4.5.5.8h.1v-1.6h2.7v9.9c0,.8-.2,1.5-.6,2.1s-1,1-1.7,1.3c-.7.3-1.5.4-2.5.4ZM840.6,37.8c.4,0,.8-.1,1.1-.3.3-.2.5-.5.7-.9.2-.4.2-.9.2-1.5s0-1.1-.2-1.5c-.2-.4-.4-.8-.7-1-.3-.2-.7-.4-1.1-.4s-.8.1-1.1.4c-.3.2-.5.6-.7,1-.2.4-.2.9-.2,1.5s0,1.1.2,1.5c.2.4.4.7.7,1,.3.2.7.3,1.1.3ZM850.3,34.3v5.7h-2.7v-9.8h2.6v1.7h.1c.2-.6.6-1,1.1-1.4.5-.3,1.1-.5,1.9-.5s1.3.1,1.8.4c.5.3.9.7,1.2,1.3.3.5.4,1.2.4,2v6.3h-2.7v-5.8c0-.6-.1-1.1-.5-1.4-.3-.3-.7-.5-1.3-.5s-.7,0-1,.2c-.3.2-.5.4-.7.7-.2.3-.2.7-.2,1.1Z"/>
  <path class="st4" d="M1007.1,9c-.1-.4-.3-.8-.5-1.2-.2-.3-.5-.6-.8-.9s-.7-.4-1.1-.6c-.4-.1-.8-.2-1.3-.2-.8,0-1.5.2-2.1.6-.6.4-1.1,1-1.5,1.8-.4.8-.6,1.7-.6,2.9s.2,2.1.6,2.9c.4.8.9,1.4,1.5,1.8.6.4,1.4.6,2.2.6s1.4-.2,2-.5c.6-.3,1-.8,1.3-1.4.3-.6.5-1.3.5-2.1h.5c0,.1-3.9.1-3.9.1v-1.4h5v1.4c0,1.1-.2,2-.7,2.8-.5.8-1.1,1.4-1.9,1.9-.8.4-1.7.7-2.8.7s-2.2-.3-3-.8c-.9-.5-1.6-1.3-2-2.3-.5-1-.7-2.2-.7-3.6s.1-2,.4-2.8c.3-.8.7-1.5,1.2-2.1.5-.6,1.1-1,1.8-1.3.7-.3,1.5-.5,2.3-.5s1.3.1,1.9.3c.6.2,1.1.5,1.6.9.5.4.9.8,1.2,1.3.3.5.5,1.1.7,1.7h-1.6ZM1011.4,18v-9.8h1.5v1.5h0c.2-.5.5-.9,1-1.2.5-.3,1-.5,1.6-.5s.2,0,.4,0c.2,0,.3,0,.4,0v1.5c0,0-.2,0-.4,0-.2,0-.4,0-.6,0-.5,0-.9.1-1.3.3-.4.2-.7.5-.9.8-.2.3-.3.7-.3,1.2v6.2h-1.5ZM1020.9,18.2c-.6,0-1.2-.1-1.7-.4-.5-.2-.9-.6-1.2-1-.3-.5-.4-1-.4-1.6s.1-1,.3-1.4c.2-.4.5-.6.9-.8.4-.2.8-.3,1.2-.4.5-.1.9-.2,1.4-.2.6,0,1.1-.1,1.5-.2.4,0,.6-.1.8-.2.2,0,.3-.3.3-.5h0c0-.7-.2-1.2-.5-1.5-.3-.3-.9-.5-1.6-.5s-1.3.2-1.7.5c-.4.3-.7.7-.9,1l-1.4-.5c.2-.6.6-1.1,1-1.4.4-.3.9-.6,1.4-.7.5-.1,1-.2,1.5-.2s.7,0,1.1.1c.4,0,.8.2,1.2.5.4.2.7.6,1,1,.3.5.4,1.1.4,1.9v6.5h-1.5v-1.3h0c0,.2-.3.4-.5.7-.2.2-.6.4-.9.6-.4.2-.9.3-1.5.3ZM1021.2,16.9c.6,0,1.1-.1,1.5-.4.4-.2.7-.5.9-.9s.3-.8.3-1.2v-1.4c0,0-.2.1-.4.2-.2,0-.5.1-.7.2-.3,0-.6,0-.8.1-.3,0-.5,0-.6,0-.4,0-.8.1-1.1.2-.3.1-.6.3-.8.5-.2.2-.3.5-.3.9s.2.9.6,1.2c.4.3.9.4,1.5.4ZM1028.2,21.7v-13.5h1.5v1.6h.2c.1-.2.3-.4.5-.7.2-.3.5-.5.9-.7.4-.2.9-.3,1.5-.3s1.6.2,2.2.6c.6.4,1.1,1,1.5,1.8.4.8.5,1.7.5,2.7s-.2,1.9-.5,2.7c-.3.8-.8,1.3-1.5,1.8-.6.4-1.3.6-2.2.6s-1.1-.1-1.5-.3c-.4-.2-.7-.5-.9-.7-.2-.3-.4-.5-.5-.7h-.1v5.2h-1.5ZM1029.7,13.1c0,.7.1,1.4.3,2,.2.6.5,1,.9,1.3.4.3.9.5,1.5.5s1.2-.2,1.6-.5c.4-.3.8-.8,1-1.4.2-.6.3-1.2.3-1.9s-.1-1.3-.3-1.9c-.2-.6-.5-1-1-1.3-.4-.3-.9-.5-1.6-.5s-1.1.2-1.5.5c-.4.3-.7.7-.9,1.3-.2.5-.3,1.2-.3,1.9ZM1040.7,12.1v5.9h-1.5V4.9h1.5v4.8h.1c.2-.5.6-.9,1-1.2.5-.3,1.1-.5,1.8-.5s1.3.1,1.8.4c.5.3.9.7,1.2,1.2.3.5.4,1.2.4,2.1v6.2h-1.5v-6.1c0-.8-.2-1.4-.6-1.8-.4-.4-1-.6-1.7-.6s-.9.1-1.3.3c-.4.2-.7.5-.9.9-.2.4-.3.9-.3,1.5ZM1049.8,18v-9.8h1.5v9.8h-1.5ZM1050.6,6.5c-.3,0-.5-.1-.8-.3-.2-.2-.3-.4-.3-.7s.1-.5.3-.7c.2-.2.5-.3.8-.3s.5.1.8.3c.2.2.3.4.3.7s0,.5-.3.7c-.2.2-.5.3-.8.3ZM1058.1,18.2c-.9,0-1.7-.2-2.4-.7-.7-.4-1.2-1-1.5-1.8s-.5-1.6-.5-2.6.2-1.9.6-2.6c.4-.8.9-1.4,1.5-1.8.7-.4,1.4-.7,2.3-.7s1.3.1,1.9.4c.6.3,1,.6,1.4,1.1.4.5.6,1,.7,1.6h-1.5c-.1-.4-.4-.8-.8-1.2-.4-.3-.9-.5-1.6-.5s-1.1.2-1.6.5c-.4.3-.8.7-1,1.3-.2.5-.4,1.2-.4,1.9s.1,1.4.4,2,.6,1,1,1.3c.4.3,1,.5,1.6.5s.8,0,1.1-.2.6-.3.8-.6c.2-.3.4-.6.5-.9h1.5c0,.6-.3,1.1-.6,1.6-.3.5-.8.8-1.3,1.1-.5.3-1.2.4-1.9.4ZM1002.2,40h-4v-13.1h4.2c1.3,0,2.4.3,3.3.8.9.5,1.6,1.3,2.1,2.2.5,1,.7,2.1.7,3.5s-.2,2.5-.7,3.5c-.5,1-1.2,1.7-2.1,2.3-.9.5-2.1.8-3.4.8ZM999.8,38.6h2.3c1.1,0,2-.2,2.7-.6.7-.4,1.2-1,1.6-1.8.3-.8.5-1.7.5-2.8s-.2-2-.5-2.7c-.3-.8-.9-1.4-1.5-1.8-.7-.4-1.5-.6-2.6-.6h-2.5v10.3ZM1015,40.2c-.9,0-1.8-.2-2.4-.6-.7-.4-1.2-1-1.6-1.8-.4-.8-.5-1.6-.5-2.6s.2-1.9.5-2.7c.4-.8.9-1.4,1.5-1.8.7-.4,1.4-.7,2.3-.7s1,0,1.5.3c.5.2.9.4,1.4.8.4.4.7.9,1,1.5.2.6.4,1.4.4,2.3v.6h-7.6v-1.3h6c0-.6-.1-1-.3-1.5-.2-.4-.5-.8-.9-1-.4-.3-.9-.4-1.4-.4s-1.1.1-1.6.4c-.4.3-.8.7-1,1.2-.2.5-.4,1-.4,1.5v.9c0,.7.1,1.4.4,1.9.3.5.6.9,1.1,1.2.5.3,1,.4,1.6.4s.8,0,1.1-.2c.3-.1.6-.3.8-.5.2-.2.4-.5.5-.9l1.5.4c-.2.5-.4.9-.8,1.3-.4.4-.8.7-1.3.9-.5.2-1.1.3-1.8.3ZM1028.3,32.4l-1.4.4c0-.2-.2-.4-.4-.7-.2-.2-.4-.4-.7-.5-.3-.1-.6-.2-1.1-.2s-1.1.1-1.5.4c-.4.3-.6.6-.6,1s.1.7.4.9c.3.2.7.4,1.3.5l1.5.4c.9.2,1.5.5,2,1,.4.4.7,1,.7,1.7s-.2,1.1-.5,1.5c-.3.4-.8.8-1.3,1-.6.3-1.2.4-2,.4s-1.8-.2-2.5-.7c-.7-.4-1.1-1.1-1.2-1.9l1.4-.4c.1.5.4.9.8,1.2.4.3.9.4,1.5.4s1.3-.1,1.7-.4c.4-.3.6-.7.6-1.1s-.1-.6-.4-.9c-.2-.2-.6-.4-1.1-.5l-1.6-.4c-.9-.2-1.5-.5-2-1-.4-.5-.6-1-.6-1.7s.1-1,.5-1.5c.3-.4.8-.8,1.3-1,.5-.2,1.2-.4,1.8-.4s1.7.2,2.3.6c.6.4,1,1,1.2,1.7ZM1030.8,40v-9.8h1.5v9.8h-1.5ZM1031.6,28.5c-.3,0-.5-.1-.8-.3-.2-.2-.3-.4-.3-.7s.1-.5.3-.7c.2-.2.5-.3.8-.3s.5.1.8.3c.2.2.3.4.3.7s-.1.5-.3.7c-.2.2-.5.3-.8.3ZM1039,43.9c-.7,0-1.3,0-1.9-.3-.5-.2-1-.4-1.3-.7-.3-.3-.6-.6-.8-1l1.2-.8c.1.2.3.4.5.6.2.2.5.4.9.6.4.2.8.3,1.4.3s1.4-.2,2-.6c.5-.4.8-1,.8-1.8v-2h-.1c-.1.2-.3.4-.5.7-.2.3-.5.5-.9.7-.4.2-.9.3-1.5.3s-1.5-.2-2.1-.6c-.6-.4-1.1-.9-1.5-1.6-.4-.7-.5-1.6-.5-2.6s.2-1.9.5-2.6c.3-.8.8-1.3,1.5-1.7.6-.4,1.4-.6,2.2-.6s1.1.1,1.5.3c.4.2.7.4.9.7.2.3.4.5.5.7h.1v-1.6h1.5v10.1c0,.8-.2,1.5-.6,2.1-.4.5-.9.9-1.5,1.2-.6.3-1.4.4-2.1.4ZM1039,38.5c.6,0,1.1-.1,1.5-.4.4-.3.7-.7.9-1.2.2-.5.3-1.1.3-1.9s-.1-1.3-.3-1.9c-.2-.5-.5-1-.9-1.3-.4-.3-.9-.5-1.6-.5s-1.2.2-1.6.5c-.4.3-.7.8-.9,1.3-.2.5-.3,1.2-.3,1.8s.1,1.3.3,1.8c.2.5.5.9,1,1.2.4.3.9.4,1.6.4ZM1047.6,34.1v5.9h-1.5v-9.8h1.5v1.5h.1c.2-.5.6-.9,1.1-1.2.5-.3,1.1-.5,1.8-.5s1.2.1,1.7.4c.5.3.9.7,1.2,1.2.3.5.4,1.2.4,2.1v6.2h-1.5v-6.1c0-.8-.2-1.4-.6-1.8-.4-.4-.9-.7-1.6-.7s-.9.1-1.3.3c-.4.2-.7.5-.9.9-.2.4-.3.9-.3,1.5Z"/>
  <path class="st4" d="M394,4.9h1.9l4.5,10.9h.1l4.5-10.9h1.9v13.1h-1.5v-9.9h-.1l-4.1,9.9h-1.4l-4.1-9.9h-.1v9.9h-1.5V4.9ZM413.8,18.2c-.9,0-1.7-.2-2.3-.6-.7-.4-1.2-1-1.6-1.8-.4-.8-.6-1.6-.6-2.7s.2-1.9.6-2.7c.4-.8.9-1.4,1.6-1.8.7-.4,1.4-.6,2.3-.6s1.7.2,2.3.6c.7.4,1.2,1,1.6,1.8.4.8.6,1.7.6,2.7s-.2,1.9-.6,2.7c-.4.8-.9,1.3-1.6,1.8-.7.4-1.4.6-2.3.6ZM413.8,16.8c.7,0,1.2-.2,1.7-.5.4-.3.8-.8,1-1.4s.3-1.2.3-1.8,0-1.3-.3-1.8c-.2-.6-.5-1-1-1.4-.4-.3-1-.5-1.7-.5s-1.2.2-1.7.5c-.4.3-.8.8-1,1.4-.2.6-.3,1.2-.3,1.8s.1,1.3.3,1.8c.2.6.5,1,1,1.4.4.3,1,.5,1.7.5ZM424.8,8.2v1.3h-5.1v-1.3h5.1ZM421.2,5.8h1.5v9.4c0,.4,0,.7.2,1,.1.2.3.3.5.4.2,0,.4.1.6.1s.3,0,.4,0c.1,0,.2,0,.3,0l.3,1.4c0,0-.2,0-.4.1-.2,0-.4,0-.7,0-.4,0-.8,0-1.2-.3-.4-.2-.8-.5-1-.8-.3-.4-.4-.8-.4-1.4V5.8ZM427.1,18v-9.8h1.5v9.8h-1.5ZM427.8,6.5c-.3,0-.5-.1-.8-.3-.2-.2-.3-.4-.3-.7s0-.5.3-.7c.2-.2.5-.3.8-.3s.6.1.8.3c.2.2.3.4.3.7s0,.5-.3.7c-.2.2-.5.3-.8.3ZM435.3,18.2c-.9,0-1.7-.2-2.3-.6-.7-.4-1.2-1-1.6-1.8-.4-.8-.6-1.6-.6-2.7s.2-1.9.6-2.7c.4-.8.9-1.4,1.6-1.8.7-.4,1.5-.6,2.3-.6s1.7.2,2.3.6c.7.4,1.2,1,1.6,1.8.4.8.6,1.7.6,2.7s-.2,1.9-.6,2.7c-.4.8-.9,1.3-1.6,1.8-.7.4-1.4.6-2.3.6ZM435.3,16.8c.7,0,1.2-.2,1.7-.5.4-.3.8-.8,1-1.4.2-.6.3-1.2.3-1.8s0-1.3-.3-1.8c-.2-.6-.5-1-1-1.4-.4-.3-1-.5-1.7-.5s-1.2.2-1.7.5c-.4.3-.8.8-1,1.4-.2.6-.3,1.2-.3,1.8s.1,1.3.3,1.8c.2.6.5,1,1,1.4.4.3,1,.5,1.7.5ZM443.6,12.1v5.9h-1.5v-9.8h1.5v1.5h.1c.2-.5.6-.9,1-1.2.5-.3,1.1-.5,1.8-.5s1.2.1,1.8.4c.5.3.9.7,1.2,1.2.3.5.4,1.2.4,2.1v6.2h-1.5v-6.1c0-.8-.2-1.4-.6-1.8-.4-.4-.9-.7-1.7-.7s-.9.1-1.3.3c-.4.2-.7.5-.9.9-.2.4-.3.9-.3,1.5ZM398,40h-4v-13.1h4.2c1.3,0,2.4.3,3.3.8.9.5,1.6,1.3,2.1,2.2.5,1,.7,2.1.7,3.5s-.2,2.5-.7,3.5c-.5,1-1.2,1.7-2.1,2.3-.9.5-2.1.8-3.4.8ZM395.6,38.6h2.3c1.1,0,2-.2,2.7-.6.7-.4,1.2-1,1.6-1.8.3-.8.5-1.7.5-2.8s-.2-2-.5-2.7c-.3-.8-.9-1.4-1.6-1.8-.7-.4-1.5-.6-2.6-.6h-2.5v10.3ZM410.8,40.2c-.9,0-1.8-.2-2.4-.6-.7-.4-1.2-1-1.6-1.8-.4-.8-.6-1.6-.6-2.6s.2-1.9.6-2.7c.4-.8.9-1.4,1.5-1.8.7-.4,1.4-.7,2.3-.7s1,0,1.5.3c.5.2.9.4,1.4.8.4.4.7.9,1,1.5.2.6.4,1.4.4,2.3v.6h-7.6v-1.3h6c0-.6-.1-1-.3-1.5-.2-.4-.5-.8-.9-1-.4-.3-.9-.4-1.4-.4s-1.1.1-1.6.4c-.4.3-.8.7-1,1.2-.2.5-.3,1-.3,1.5v.9c0,.7.1,1.4.4,1.9.3.5.6.9,1.1,1.2.5.3,1,.4,1.6.4s.8,0,1.1-.2c.3-.1.6-.3.8-.5.2-.2.4-.5.5-.9l1.5.4c-.2.5-.4.9-.8,1.3-.4.4-.8.7-1.3.9-.5.2-1.1.3-1.8.3ZM424.1,32.4l-1.4.4c0-.2-.2-.4-.4-.7-.2-.2-.4-.4-.7-.5s-.6-.2-1.1-.2-1.1.1-1.5.4c-.4.3-.6.6-.6,1s.1.7.4.9c.3.2.7.4,1.3.5l1.5.4c.9.2,1.5.5,2,1,.4.4.7,1,.7,1.7s-.2,1.1-.5,1.5c-.3.4-.8.8-1.3,1-.6.3-1.2.4-2,.4s-1.8-.2-2.5-.7c-.7-.4-1.1-1.1-1.2-1.9l1.4-.4c.1.5.4.9.8,1.2.4.3.9.4,1.5.4s1.3-.1,1.7-.4c.4-.3.6-.7.6-1.1s-.1-.6-.4-.9c-.2-.2-.6-.4-1.1-.5l-1.6-.4c-.9-.2-1.6-.5-2-1-.4-.5-.6-1-.6-1.7s.1-1,.5-1.5c.3-.4.8-.8,1.3-1,.5-.2,1.2-.4,1.8-.4s1.7.2,2.3.6c.6.4.9,1,1.2,1.7ZM426.6,40v-9.8h1.5v9.8h-1.5ZM427.4,28.5c-.3,0-.5-.1-.8-.3-.2-.2-.3-.4-.3-.7s.1-.5.3-.7c.2-.2.5-.3.8-.3s.5.1.8.3c.2.2.3.4.3.7s-.1.5-.3.7c-.2.2-.5.3-.8.3ZM434.8,43.9c-.7,0-1.4,0-1.9-.3-.5-.2-1-.4-1.3-.7-.3-.3-.6-.6-.8-1l1.2-.8c.1.2.3.4.5.6.2.2.5.4.9.6.4.2.8.3,1.4.3s1.4-.2,2-.6c.5-.4.8-1,.8-1.8v-2h-.1c-.1.2-.3.4-.5.7-.2.3-.5.5-.9.7-.4.2-.9.3-1.5.3s-1.5-.2-2.1-.6c-.6-.4-1.1-.9-1.5-1.6-.4-.7-.5-1.6-.5-2.6s.2-1.9.5-2.6c.3-.8.8-1.3,1.5-1.7.6-.4,1.4-.6,2.2-.6s1.2.1,1.5.3c.4.2.7.4.9.7.2.3.4.5.5.7h.2v-1.6h1.5v10.1c0,.8-.2,1.5-.6,2.1-.4.5-.9.9-1.5,1.2-.6.3-1.3.4-2.1.4ZM434.8,38.5c.6,0,1.1-.1,1.5-.4.4-.3.7-.7.9-1.2.2-.5.3-1.1.3-1.9s0-1.3-.3-1.9c-.2-.5-.5-1-.9-1.3-.4-.3-.9-.5-1.6-.5s-1.2.2-1.6.5c-.4.3-.7.8-1,1.3-.2.5-.3,1.2-.3,1.8s.1,1.3.3,1.8c.2.5.5.9,1,1.2.4.3.9.4,1.6.4ZM443.3,34.1v5.9h-1.5v-9.8h1.5v1.5h.1c.2-.5.6-.9,1-1.2.5-.3,1.1-.5,1.8-.5s1.2.1,1.7.4c.5.3.9.7,1.2,1.2.3.5.4,1.2.4,2.1v6.2h-1.5v-6.1c0-.8-.2-1.4-.6-1.8-.4-.4-.9-.7-1.7-.7s-.9.1-1.3.3c-.4.2-.7.5-.9.9-.2.4-.3.9-.3,1.5Z"/>
  <line class="st1" x1="194" y1="127.5" x2="1256" y2="127.5"/>
  <line class="st1" x1="194" y1="195.5" x2="1256" y2="195.5"/>
  <path class="st2" d="M194,196c298,0,278-108,531-108"/>
  <path class="st2" d="M1256,196c-298,0-278-108-531-108"/>
  <path class="st3" d="M725,88c-253,0-233,108-531,108h531v-108Z"/>
  <path class="st0" d="M725,88c253,0,233,108,531,108h-531v-108Z"/>
</svg>