<?xml version="1.0" encoding="utf-8"?>
<!-- Generator: Adobe Illustrator 26.2.1, SVG Export Plug-In . SVG Version: 6.00 Build 0)  -->
<svg version="1.1" id="Layer_1" xmlns="http://www.w3.org/2000/svg" xmlns:xlink="http://www.w3.org/1999/xlink" x="0px" y="0px"
	 viewBox="0 0 800 800" style="enable-background:new 0 0 800 800;" xml:space="preserve">
<style type="text/css">
	.st0{fill:#FFFFFF;}
</style>
<path class="st0" d="M610.4,0H189.6C84.9,0,0,84.9,0,189.6v420.8C0,715.1,84.9,800,189.6,800h420.8C715.1,800,800,715.1,800,610.4
	V189.6C800,84.9,715.1,0,610.4,0z M532.4,312.8c-0.1,0-0.2,0-0.2,0V528c0,6.2,1.1,11.2,3.4,15.1c2.3,3.9,6.5,7,12.7,9.3l9.8,3.9v4.9
	H433.5v-4.9l8.8-2.9c6.5-2.6,10.8-5.8,12.9-9.5c2.1-3.7,3.2-8.9,3.2-15.4V400H341.6v67.2v61.3v32.7c0,40.9-33.1,74-74,74
	c-40.9,0-74-33.1-74-74c0-40.9,33.1-74,74-74c0.1,0,0.2,0,0.2,0V272.5c0-6.5-1.1-11.7-3.2-15.6c-2.1-3.9-6.4-7-12.9-9.3l-9.8-3.9
	v-4.9H366v4.9l-8.3,3.4c-6.2,2.3-10.4,5.3-12.7,9c-2.3,3.7-3.4,8.9-3.4,15.4v118.7h116.8v-79v-39.7v-32.7c0-40.9,33.1-74,74-74
	c40.9,0,74,33.1,74,74C606.4,279.7,573.3,312.8,532.4,312.8z"/>
</svg>
