<?xml version="1.0" encoding="UTF-8"?>
<svg id="Layer_2" data-name="Layer 2" xmlns="http://www.w3.org/2000/svg" viewBox="0 0 1144.87 581.25">
  <defs>
    <style>
      .cls-1 {
        fill: #fff;
      }
    </style>
  </defs>
  <g id="QR_Code" data-name="QR Code">
    <g>
      <path class="cls-1" d="M36.14,42.18h-6.04c-3.05,0-5.52-2.48-5.52-5.52v-7.04c0-.28-.23-.51-.51-.51h-4.02c-.28,0-.51.23-.51.51v7.04c0,3.05-2.48,5.52-5.52,5.52h-6.04c-3.05,0-5.52-2.48-5.52-5.52v-14.46c0-1.72.74-3.36,2.02-4.5l13.54-13.17c2.33-2.08,5.78-2.08,8.06-.05l1.4,1.36c.59.58.61,1.53.03,2.12-.58.59-1.53.61-2.12.03l-1.35-1.31c-1.1-.98-2.83-.98-3.98.05l-13.54,13.17c-.69.62-1.06,1.44-1.06,2.31v14.46c0,1.39,1.13,2.52,2.52,2.52h6.04c1.39,0,2.52-1.13,2.52-2.52v-7.04c0-1.94,1.58-3.51,3.51-3.51h4.02c1.94,0,3.51,1.58,3.51,3.51v7.04c0,1.39,1.13,2.52,2.52,2.52h6.04c1.39,0,2.52-1.13,2.52-2.52v-14.46c0-.86-.37-1.69-1.02-2.26l-2.31-2.24c-.59-.58-.61-1.53-.03-2.12.58-.59,1.53-.61,2.12-.03l2.26,2.2c1.24,1.1,1.97,2.74,1.97,4.46v14.46c0,3.05-2.48,5.52-5.52,5.52Z"/>
      <path class="cls-1" d="M96.03,40.94c-.75,0-1.48-.24-2.12-.7-1.06-.77-1.61-2-1.47-3.3l.11-1.1c.08-.82.82-1.43,1.65-1.34.82.08,1.42.82,1.34,1.65l-.11,1.1c-.03.31.14.49.25.56.11.08.33.19.61.07l8.81-3.9c1.03-.46,2.21-.46,3.24,0l8.81,3.9c.28.12.51.01.61-.07.11-.08.28-.26.25-.56l-.99-9.59c-.12-1.12.25-2.25,1-3.08l6.43-7.18c.21-.23.17-.48.13-.6s-.16-.35-.46-.41l-9.42-2.02c-1.1-.24-2.06-.93-2.62-1.91l-4.84-8.34c-.16-.27-.4-.31-.53-.31s-.38.04-.53.31l-4.84,8.34c-.57.97-1.52,1.67-2.62,1.91l-9.42,2.02c-.3.07-.42.29-.46.41s-.08.37.13.6l6.43,7.18c.75.84,1.12,1.96,1,3.08l-.11,1.1c-.08.82-.83,1.42-1.65,1.34-.82-.08-1.42-.82-1.34-1.65l.11-1.1c.03-.28-.06-.56-.25-.77l-6.43-7.18c-.87-.97-1.15-2.29-.75-3.53s1.41-2.15,2.68-2.42l9.42-2.02c.28-.06.52-.23.66-.48l4.84-8.34c.65-1.13,1.82-1.8,3.13-1.8s2.47.67,3.13,1.8l4.84,8.34c.14.24.38.42.66.48l9.42,2.02c1.28.27,2.28,1.18,2.68,2.42s.12,2.56-.75,3.53l-6.43,7.18c-.19.21-.28.49-.25.77l.99,9.59c.13,1.3-.42,2.53-1.47,3.3-1.06.77-2.4.91-3.59.38l-8.81-3.9c-.26-.11-.56-.11-.81,0l-8.81,3.9c-.48.21-.98.31-1.47.31Z"/>
      <path class="cls-1" d="M188.19,5.82h-14.99c-.83,0-1.5-.67-1.5-1.5s.67-1.5,1.5-1.5h14.99c.83,0,1.5.67,1.5,1.5s-.67,1.5-1.5,1.5Z"/>
      <path class="cls-1" d="M184.97,25.09h-11.78c-.83,0-1.5-.67-1.5-1.5s.67-1.5,1.5-1.5h11.78c.83,0,1.5.67,1.5,1.5s-.67,1.5-1.5,1.5Z"/>
      <path class="cls-1" d="M184.97,15.46h-11.78c-.83,0-1.5-.67-1.5-1.5s.67-1.5,1.5-1.5h11.78c.83,0,1.5.67,1.5,1.5s-.67,1.5-1.5,1.5Z"/>
      <path class="cls-1" d="M192.34,39.01c-.83,0-1.5-.67-1.5-1.5V13.23c0-3.56,2.25-6.75,5.6-7.95l6.93-2.48c1.77-.63,3.74-.37,5.28.72,1.54,1.08,2.45,2.85,2.45,4.73v20.7c0,.83-.67,1.5-1.5,1.5s-1.5-.67-1.5-1.5V8.24c0-.92-.43-1.75-1.18-2.27-.75-.53-1.68-.65-2.54-.34l-6.93,2.48c-2.16.77-3.61,2.83-3.61,5.13v24.28c0,.83-.67,1.5-1.5,1.5Z"/>
      <path class="cls-1" d="M192.34,19.36c-.62,0-1.19-.38-1.41-1-.28-.78.13-1.64.91-1.92l17.26-6.18c.78-.28,1.64.13,1.92.91.28.78-.13,1.64-.91,1.92l-17.26,6.18c-.17.06-.34.09-.51.09Z"/>
      <g>
        <circle class="cls-1" cx="189.14" cy="37.53" r="3.19"/>
        <path class="cls-1" d="M189.14,42.22c-2.59,0-4.69-2.1-4.69-4.69s2.1-4.69,4.69-4.69,4.69,2.1,4.69,4.69-2.1,4.69-4.69,4.69ZM189.14,35.84c-.93,0-1.69.76-1.69,1.69s.76,1.69,1.69,1.69,1.69-.76,1.69-1.69-.76-1.69-1.69-1.69Z"/>
      </g>
      <g>
        <circle class="cls-1" cx="206.4" cy="29.62" r="3.19"/>
        <path class="cls-1" d="M206.4,34.31c-2.59,0-4.69-2.1-4.69-4.69s2.1-4.69,4.69-4.69,4.69,2.1,4.69,4.69-2.11,4.69-4.69,4.69ZM206.4,27.93c-.93,0-1.69.76-1.69,1.69s.76,1.69,1.69,1.69,1.69-.76,1.69-1.69-.76-1.69-1.69-1.69Z"/>
      </g>
      <path class="cls-1" d="M282.11,42.15c-1.57,0-3.14-.27-4.7-.8-4.4-1.5-7.69-5.28-8.58-9.87-.4-2.05-.38-4.03.05-5.88.24-1.04,1.31-1.72,2.37-1.49,2.86.6,4.75,0,5.78-1.84.64-1.15.67-2.49.58-3.4-.07-.64-.11-1.26-.13-1.87-.29-7.24,3.11-11.27,5.16-13.03,1.26-1.08,3.03-1.29,4.5-.52,1.48.77,2.33,2.36,2.16,4.03-.35,3.45-.12,8.34,2.95,12.1,2.25,2.75,3.44,5.87,3.44,9.02,0,1.21-.16,2.41-.47,3.57-.22.8-1.04,1.27-1.84,1.05-.8-.22-1.27-1.04-1.05-1.84.24-.9.37-1.83.37-2.78,0-2.48-.93-4.87-2.76-7.12-3.72-4.55-4.02-10.29-3.61-14.3.07-.68-.42-.99-.57-1.07-.19-.1-.67-.28-1.16.14-1.64,1.4-4.35,4.65-4.11,10.63.02.54.05,1.09.12,1.68.2,1.94-.13,3.73-.94,5.18-.91,1.63-3.13,4.15-8.01,3.49-.15,1.17-.1,2.41.14,3.69.69,3.54,3.22,6.45,6.6,7.6,1.59.54,3.19.74,4.76.59,1.4-.13,2.73-.54,3.96-1.2.73-.39,1.64-.12,2.03.61s.12,1.64-.61,2.03c-1.59.85-3.3,1.37-5.09,1.54-.44.04-.88.06-1.32.06ZM270.63,27.05s0,0,0,0c0,0,0,0,0,0Z"/>
      <path class="cls-1" d="M275.02,5.94h-17.02c-.83,0-1.5-.67-1.5-1.5s.67-1.5,1.5-1.5h17.02c.83,0,1.5.67,1.5,1.5s-.67,1.5-1.5,1.5Z"/>
      <path class="cls-1" d="M264.91,25.08h-6.91c-.83,0-1.5-.67-1.5-1.5s.67-1.5,1.5-1.5h6.91c.83,0,1.5.67,1.5,1.5s-.67,1.5-1.5,1.5Z"/>
      <path class="cls-1" d="M271.82,15.51h-13.83c-.83,0-1.5-.67-1.5-1.5s.67-1.5,1.5-1.5h13.83c.83,0,1.5.67,1.5,1.5s-.67,1.5-1.5,1.5Z"/>
      <path class="cls-1" d="M354.54,42.28c-.7,0-1.4-.05-2.1-.16-6.18-.94-11.04-6.37-11.3-12.64-.06-1.42.09-2.8.45-4.09.22-.78,1.01-1.25,1.8-1.05,3,.73,5.06.16,6.11-1.71.63-1.13.66-2.45.57-3.35-.07-.63-.11-1.25-.13-1.85-.34-8.47,4.36-12.51,6.39-13.86,1.18-.78,2.65-.79,3.84-.04,1.19.75,1.8,2.08,1.6,3.47-.35,2.48-.5,6.16.83,9.57.3.77-.08,1.64-.85,1.94-.77.3-1.64-.08-1.94-.85-1.56-4.01-1.41-8.24-1-11.08.04-.29-.13-.45-.24-.52-.11-.07-.33-.16-.58,0-1.61,1.06-5.33,4.29-5.05,11.23.02.53.05,1.08.12,1.65.2,1.92-.13,3.69-.93,5.13-.92,1.63-3.12,4.1-7.91,3.46-.07.58-.1,1.19-.07,1.81.21,4.86,3.97,9.08,8.76,9.81.89.14,1.78.16,2.65.08.82-.07,1.56.52,1.64,1.35.08.82-.52,1.56-1.35,1.64-.43.04-.86.06-1.3.06Z"/>
      <path class="cls-1" d="M366.58,38.13c-.83,0-1.5-.67-1.5-1.5v-16.28c0-3.39,2-6.46,5.11-7.83l2.26-.99c1.76-.77,3.77-.61,5.38.44,1.61,1.05,2.57,2.83,2.57,4.75v15.21c0,.83-.67,1.5-1.5,1.5s-1.5-.67-1.5-1.5v-15.21c0-.92-.44-1.73-1.21-2.24-.77-.5-1.69-.58-2.53-.21l-2.26.99c-2.01.89-3.32,2.88-3.32,5.08v16.28c0,.83-.67,1.5-1.5,1.5Z"/>
      <path class="cls-1" d="M366.59,26.54c-.58,0-1.13-.33-1.37-.9-.33-.76.01-1.64.77-1.98l12.32-5.42c.76-.34,1.64.01,1.98.77.33.76-.01,1.64-.77,1.98l-12.32,5.42c-.2.09-.4.13-.6.13Z"/>
      <g>
        <circle class="cls-1" cx="363.78" cy="36.65" r="2.8"/>
        <path class="cls-1" d="M363.79,40.95c-2.37,0-4.3-1.93-4.3-4.3s1.93-4.3,4.3-4.3,4.3,1.93,4.3,4.3-1.93,4.3-4.3,4.3ZM363.79,35.35c-.72,0-1.3.58-1.3,1.3s.58,1.3,1.3,1.3,1.3-.58,1.3-1.3-.58-1.3-1.3-1.3Z"/>
      </g>
      <g>
        <circle class="cls-1" cx="376.1" cy="32.53" r="2.8"/>
        <path class="cls-1" d="M376.1,36.83c-2.37,0-4.3-1.93-4.3-4.3s1.93-4.3,4.3-4.3,4.3,1.93,4.3,4.3-1.93,4.3-4.3,4.3ZM376.1,31.23c-.72,0-1.3.58-1.3,1.3s.58,1.3,1.3,1.3,1.3-.58,1.3-1.3-.58-1.3-1.3-1.3Z"/>
      </g>
      <path class="cls-1" d="M455.19,34.35h-2.65c-.83,0-1.5-.67-1.5-1.5s.67-1.5,1.5-1.5h2.65c3.94,0,7.14-3.2,7.14-7.14,0-2.87-1.71-5.45-4.36-6.58l-.81-.35-.09-.88c-.6-6-5.61-10.52-11.65-10.52s-11.05,4.52-11.65,10.52l-.09.88-.81.35c-2.65,1.13-4.36,3.72-4.36,6.58,0,3.94,3.2,7.14,7.14,7.14h2.65c.83,0,1.5.67,1.5,1.5s-.67,1.5-1.5,1.5h-2.65c-5.59,0-10.14-4.55-10.14-10.14,0-3.77,2.09-7.2,5.38-8.96,1.13-7.11,7.23-12.37,14.53-12.37s13.4,5.26,14.53,12.37c3.3,1.76,5.38,5.19,5.38,8.96,0,5.59-4.55,10.14-10.14,10.14Z"/>
      <path class="cls-1" d="M445.43,42.17c-.83,0-1.5-.67-1.5-1.5v-22.63c0-.83.67-1.5,1.5-1.5s1.5.67,1.5,1.5v22.63c0,.83-.67,1.5-1.5,1.5Z"/>
      <path class="cls-1" d="M440.16,22.7c-.38,0-.77-.15-1.06-.44-.59-.59-.59-1.54,0-2.12l5.27-5.27c.56-.56,1.56-.56,2.12,0l5.11,5.11c.59.59.59,1.54,0,2.12-.59.59-1.54.59-2.12,0l-4.04-4.04-4.21,4.21c-.29.29-.68.44-1.06.44Z"/>
      <path class="cls-1" d="M529.94,32.73c-.83,0-1.5-.67-1.5-1.5V4.38c0-.83.67-1.5,1.5-1.5s1.5.67,1.5,1.5v26.85c0,.83-.67,1.5-1.5,1.5Z"/>
      <path class="cls-1" d="M529.94,33.92c-.38,0-.77-.15-1.06-.44l-5.13-5.13c-.59-.59-.59-1.54,0-2.12.59-.59,1.54-.59,2.12,0l4.07,4.07,4.23-4.23c.59-.59,1.54-.59,2.12,0,.59.59.59,1.54,0,2.12l-5.29,5.29c-.29.29-.68.44-1.06.44Z"/>
      <path class="cls-1" d="M543.71,42.14h-27.23c-3.33,0-6.04-2.71-6.04-6.04v-14.75c0-3.33,2.71-6.04,6.04-6.04h3.25c.83,0,1.5.67,1.5,1.5s-.67,1.5-1.5,1.5h-3.25c-1.68,0-3.04,1.36-3.04,3.04v14.75c0,1.68,1.36,3.04,3.04,3.04h27.23c1.68,0,3.04-1.36,3.04-3.04v-14.75c0-1.68-1.36-3.04-3.04-3.04h-3.25c-.83,0-1.5-.67-1.5-1.5s.67-1.5,1.5-1.5h3.25c3.33,0,6.04,2.71,6.04,6.04v14.75c0,3.33-2.71,6.04-6.04,6.04Z"/>
      <path class="cls-1" d="M603.77,31.17c-4.77,0-8.65-3.88-8.65-8.65s3.88-8.65,8.65-8.65,8.65,3.88,8.65,8.65-3.88,8.65-8.65,8.65ZM603.77,16.88c-3.11,0-5.65,2.53-5.65,5.65s2.53,5.65,5.65,5.65,5.65-2.53,5.65-5.65-2.53-5.65-5.65-5.65Z"/>
      <g>
        <path class="cls-1" d="M625.77,20.18c-4.77,0-8.65-3.88-8.65-8.65s3.88-8.65,8.65-8.65,8.65,3.88,8.65,8.65-3.88,8.65-8.65,8.65ZM625.77,5.88c-3.11,0-5.65,2.53-5.65,5.65s2.53,5.65,5.65,5.65,5.65-2.53,5.65-5.65-2.53-5.65-5.65-5.65Z"/>
        <path class="cls-1" d="M625.77,42.17c-4.77,0-8.65-3.88-8.65-8.65s3.88-8.65,8.65-8.65,8.65,3.88,8.65,8.65-3.88,8.65-8.65,8.65ZM625.77,27.88c-3.11,0-5.65,2.53-5.65,5.65s2.53,5.65,5.65,5.65,5.65-2.53,5.65-5.65-2.53-5.65-5.65-5.65Z"/>
      </g>
      <rect class="cls-1" x="609.62" y="15.53" width="10.3" height="3" transform="translate(57.29 276.73) rotate(-26.57)"/>
      <rect class="cls-1" x="613.27" y="22.87" width="3" height="10.3" transform="translate(314.77 565.36) rotate(-63.43)"/>
      <path class="cls-1" d="M699.45,44.37c-12.04,0-21.84-9.8-21.84-21.84s9.8-21.84,21.84-21.84,21.84,9.8,21.84,21.84-9.8,21.84-21.84,21.84ZM699.45,3.68c-10.39,0-18.84,8.45-18.84,18.84s8.45,18.84,18.84,18.84,18.84-8.45,18.84-18.84-8.45-18.84-18.84-18.84Z"/>
      <path class="cls-1" d="M699.3,29.27c-.9,0-1.74-.35-2.37-.98l-7.46-7.46c-.59-.59-.59-1.54,0-2.12s1.54-.59,2.12,0l7.46,7.46c.17.17.33.17.5,0l7.74-7.74c.59-.59,1.54-.59,2.12,0s.59,1.54,0,2.12l-7.74,7.74c-.63.63-1.48.98-2.37.98Z"/>
      <path class="cls-1" d="M784.12,44.37c-12.04,0-21.84-9.8-21.84-21.84s9.8-21.84,21.84-21.84,21.84,9.8,21.84,21.84-9.8,21.84-21.84,21.84ZM784.12,3.68c-10.39,0-18.84,8.45-18.84,18.84s8.45,18.84,18.84,18.84,18.84-8.45,18.84-18.84-8.45-18.84-18.84-18.84Z"/>
      <path class="cls-1" d="M775.2,27.07c-.38,0-.77-.15-1.06-.44-.59-.59-.59-1.54,0-2.12l7.74-7.74c1.27-1.27,3.48-1.27,4.75,0l7.46,7.46c.59.59.59,1.54,0,2.12-.59.59-1.54.59-2.12,0l-7.46-7.46c-.17-.17-.33-.17-.5,0l-7.74,7.74c-.29.29-.68.44-1.06.44Z"/>
      <path class="cls-1" d="M868.79,44.37c-12.04,0-21.84-9.8-21.84-21.84s9.8-21.84,21.84-21.84,21.84,9.8,21.84,21.84-9.8,21.84-21.84,21.84ZM868.79,3.68c-10.39,0-18.84,8.45-18.84,18.84s8.45,18.84,18.84,18.84,18.84-8.45,18.84-18.84-8.45-18.84-18.84-18.84Z"/>
      <path class="cls-1" d="M866.03,32.94c-.38,0-.77-.15-1.06-.44-.59-.59-.59-1.54,0-2.12l7.46-7.46c.14-.14.14-.36,0-.5l-7.74-7.74c-.59-.59-.59-1.54,0-2.12.59-.59,1.54-.59,2.12,0l7.74,7.74c1.31,1.31,1.31,3.44,0,4.75l-7.46,7.46c-.29.29-.68.44-1.06.44Z"/>
      <path class="cls-1" d="M953.47,44.37c-12.04,0-21.84-9.8-21.84-21.84s9.8-21.84,21.84-21.84,21.84,9.8,21.84,21.84-9.8,21.84-21.84,21.84ZM953.47,3.68c-10.39,0-18.84,8.45-18.84,18.84s8.45,18.84,18.84,18.84,18.84-8.45,18.84-18.84-8.45-18.84-18.84-18.84Z"/>
      <path class="cls-1" d="M956.51,32.94c-.38,0-.77-.15-1.06-.44l-7.74-7.74c-1.31-1.31-1.31-3.44,0-4.75l7.46-7.46c.59-.59,1.54-.59,2.12,0,.59.59.59,1.54,0,2.12l-7.46,7.46c-.14.14-.14.37,0,.5l7.74,7.74c.59.59.59,1.54,0,2.12-.29.29-.68.44-1.06.44Z"/>
      <path class="cls-1" d="M1051.89,42.17h-27.49c-3.25,0-5.9-2.65-5.9-5.9V8.78c0-3.25,2.65-5.9,5.9-5.9h13.75c.83,0,1.5.67,1.5,1.5s-.67,1.5-1.5,1.5h-13.75c-1.6,0-2.9,1.3-2.9,2.9v27.49c0,1.6,1.3,2.9,2.9,2.9h27.49c1.6,0,2.9-1.3,2.9-2.9v-13.75c0-.83.67-1.5,1.5-1.5s1.5.67,1.5,1.5v13.75c0,3.25-2.65,5.9-5.9,5.9Z"/>
      <path class="cls-1" d="M1041.05,28.61l-8.44-8.44,15.78-15.78c1.04-1.04,2.42-1.61,3.89-1.61s2.85.57,3.89,1.61l.66.66c1.04,1.04,1.61,2.42,1.61,3.89s-.57,2.85-1.61,3.89l-15.78,15.78ZM1036.85,20.17l4.2,4.2,13.66-13.66c.47-.47.73-1.1.73-1.77s-.26-1.3-.73-1.77l-.66-.66c-.95-.94-2.59-.94-3.54,0l-13.66,13.66Z"/>
      <path class="cls-1" d="M1035,32.55h-3.87c-1.36,0-2.46-1.1-2.46-2.46v-3.87c0-1.36.53-2.64,1.49-3.6l1.06-1.06,8.44,8.44-1.06,1.06c-.96.96-2.24,1.49-3.6,1.49ZM1031.67,29.55h3.3l-3.3-3.3v3.3Z"/>
      <path class="cls-1" d="M1132.53,44.37h-19.56c-3.22,0-5.87-2.31-6.16-5.36l-2.09-21.99c-.15-1.61.37-3.17,1.49-4.4,1.18-1.29,2.88-2.04,4.68-2.04h1.37c.83,0,1.5.67,1.5,1.5s-.67,1.5-1.5,1.5h-1.37c-.95,0-1.85.38-2.46,1.05-.54.59-.79,1.33-.72,2.09l2.09,21.99c.14,1.49,1.54,2.65,3.18,2.65h19.56c1.64,0,3.04-1.16,3.18-2.65l2.09-21.99c.07-.76-.18-1.5-.72-2.09-.61-.67-1.5-1.05-2.46-1.05h-12.85c-.83,0-1.5-.67-1.5-1.5s.67-1.5,1.5-1.5h12.85c1.8,0,3.5.74,4.68,2.04,1.11,1.22,1.64,2.78,1.49,4.4l-2.09,21.99c-.29,3.06-2.94,5.36-6.16,5.36Z"/>
      <g>
        <path class="cls-1" d="M1117.39,37.55c-.77,0-1.42-.59-1.49-1.37l-1.5-16.82c-.07-.83.54-1.55,1.36-1.63.83-.08,1.55.54,1.63,1.36l1.5,16.82c.07.83-.54,1.55-1.36,1.63-.05,0-.09,0-.14,0Z"/>
        <path class="cls-1" d="M1128.11,37.55s-.09,0-.14,0c-.83-.07-1.43-.8-1.36-1.63l1.5-16.82c.07-.83.79-1.44,1.63-1.36.83.07,1.43.8,1.36,1.63l-1.5,16.82c-.07.78-.72,1.37-1.49,1.37Z"/>
      </g>
      <g>
        <path class="cls-1" d="M1136.01,7.22h-26.39c-.83,0-1.5-.67-1.5-1.5s.67-1.5,1.5-1.5h26.39c.83,0,1.5.67,1.5,1.5s-.67,1.5-1.5,1.5Z"/>
        <path class="cls-1" d="M1122.82,7.22c-.83,0-1.5-.67-1.5-1.5V1.5c0-.83.67-1.5,1.5-1.5s1.5.67,1.5,1.5v4.22c0,.83-.67,1.5-1.5,1.5Z"/>
      </g>
      <path class="cls-1" d="M39.64,149.39c-.38,0-.77-.15-1.06-.44L3.39,113.76c-.59-.59-.59-1.54,0-2.12.59-.59,1.54-.59,2.12,0l35.19,35.19c.59.59.59,1.54,0,2.12-.29.29-.68.44-1.06.44Z"/>
      <path class="cls-1" d="M4.45,149.39c-.38,0-.77-.15-1.06-.44-.59-.59-.59-1.54,0-2.12l35.19-35.19c.59-.59,1.54-.59,2.12,0,.59.59.59,1.54,0,2.12L5.52,148.95c-.29.29-.68.44-1.06.44Z"/>
      <path class="cls-1" d="M106.45,151.04c-.83,0-1.5-.67-1.5-1.5v-37.94c0-.83.67-1.5,1.5-1.5s1.5.67,1.5,1.5v37.94c0,.83-.67,1.5-1.5,1.5Z"/>
      <path class="cls-1" d="M125.42,132.07h-37.94c-.83,0-1.5-.67-1.5-1.5s.67-1.5,1.5-1.5h37.94c.83,0,1.5.67,1.5,1.5s-.67,1.5-1.5,1.5Z"/>
      <path class="cls-1" d="M191.4,152.14c-12.04,0-21.84-9.8-21.84-21.84s9.8-21.84,21.84-21.84,21.84,9.8,21.84,21.84-9.8,21.84-21.84,21.84ZM191.4,111.45c-10.39,0-18.84,8.45-18.84,18.84s8.45,18.84,18.84,18.84,18.84-8.45,18.84-18.84-8.45-18.84-18.84-18.84Z"/>
      <g>
        <path class="cls-1" d="M197.34,137.74c-.38,0-.77-.15-1.06-.44l-11.88-11.88c-.59-.59-.59-1.54,0-2.12.59-.59,1.54-.59,2.12,0l11.88,11.88c.59.59.59,1.54,0,2.12-.29.29-.68.44-1.06.44Z"/>
        <path class="cls-1" d="M185.46,137.74c-.38,0-.77-.15-1.06-.44-.59-.59-.59-1.54,0-2.12l11.88-11.88c.59-.59,1.54-.59,2.12,0,.59.59.59,1.54,0,2.12l-11.88,11.88c-.29.29-.68.44-1.06.44Z"/>
      </g>
      <path class="cls-1" d="M276.07,152.06c-5.83,0-11.32-2.27-15.45-6.4-4.13-4.13-6.4-9.61-6.4-15.45s2.27-11.32,6.4-15.45c4.13-4.13,9.61-6.4,15.45-6.4s11.32,2.27,15.45,6.4c4.13,4.13,6.4,9.61,6.4,15.45s-2.27,11.32-6.4,15.45h0c-4.13,4.13-9.61,6.4-15.45,6.4ZM276.07,111.38c-5.03,0-9.77,1.96-13.32,5.52s-5.52,8.29-5.52,13.32,1.96,9.77,5.52,13.32,8.29,5.52,13.32,5.52,9.77-1.96,13.32-5.52h0c3.56-3.56,5.52-8.29,5.52-13.32s-1.96-9.77-5.52-13.32-8.29-5.52-13.32-5.52Z"/>
      <g>
        <path class="cls-1" d="M276.07,140.12c-.83,0-1.5-.67-1.5-1.5v-16.81c0-.83.67-1.5,1.5-1.5s1.5.67,1.5,1.5v16.81c0,.83-.67,1.5-1.5,1.5Z"/>
        <path class="cls-1" d="M284.48,131.72h-16.81c-.83,0-1.5-.67-1.5-1.5s.67-1.5,1.5-1.5h16.81c.83,0,1.5.67,1.5,1.5s-.67,1.5-1.5,1.5Z"/>
      </g>
      <path class="cls-1" d="M347.16,150.49c-1.07,0-2.13-.29-3.09-.87-1.86-1.13-2.97-3.13-2.97-5.35v-29.12c0-1.8.9-3.42,2.41-4.33,1.45-.89,3.22-.95,4.73-.17l3.71,1.92c.74.38,1.02,1.29.64,2.02s-1.29,1.02-2.02.64l-3.71-1.92c-.58-.3-1.24-.28-1.8.06-.61.37-.97,1.03-.97,1.77v29.12c0,1.16.57,2.21,1.53,2.79.9.55,1.95.59,2.88.1l28.34-14.66c.68-.35,1.08-1.04,1.08-1.83s-.4-1.48-1.08-1.83l-17.63-9.12c-.74-.38-1.02-1.29-.64-2.02.38-.74,1.29-1.02,2.02-.64l17.63,9.12c1.67.86,2.7,2.59,2.7,4.5s-1.04,3.64-2.7,4.5l-28.34,14.66c-.87.45-1.8.67-2.73.67Z"/>
      <path class="cls-1" d="M437.17,152.14h-3.3c-3.25,0-5.9-2.65-5.9-5.9v-21.21c0-.83.67-1.5,1.5-1.5s1.5.67,1.5,1.5v21.21c0,1.6,1.3,2.9,2.9,2.9h3.3c1.6,0,2.9-1.3,2.9-2.9v-31.89c0-1.6-1.3-2.9-2.9-2.9h-3.3c-1.6,0-2.9,1.3-2.9,2.9v1.5c0,.83-.67,1.5-1.5,1.5s-1.5-.67-1.5-1.5v-1.5c0-3.25,2.65-5.9,5.9-5.9h3.3c3.25,0,5.9,2.65,5.9,5.9v31.89c0,3.25-2.65,5.9-5.9,5.9Z"/>
      <path class="cls-1" d="M457.37,152.14h-4.1c-3.03,0-5.5-2.47-5.5-5.5v-32.69c0-3.03,2.47-5.5,5.5-5.5h4.1c3.03,0,5.5,2.47,5.5,5.5v32.69c0,3.03-2.47,5.5-5.5,5.5ZM453.27,111.45c-1.38,0-2.5,1.12-2.5,2.5v32.69c0,1.38,1.12,2.5,2.5,2.5h4.1c1.38,0,2.5-1.12,2.5-2.5v-32.69c0-1.38-1.12-2.5-2.5-2.5h-4.1Z"/>
      <path class="cls-1" d="M543.84,149.94h-27.49c-3.25,0-5.9-2.65-5.9-5.9v-27.49c0-3.25,2.65-5.9,5.9-5.9h13.75c.83,0,1.5.67,1.5,1.5s-.67,1.5-1.5,1.5h-13.75c-1.6,0-2.9,1.3-2.9,2.9v27.49c0,1.6,1.3,2.9,2.9,2.9h27.49c1.6,0,2.9-1.3,2.9-2.9v-27.49c0-1.6-1.3-2.9-2.9-2.9h-3.97c-.83,0-1.5-.67-1.5-1.5s.67-1.5,1.5-1.5h3.97c3.25,0,5.9,2.65,5.9,5.9v27.49c0,3.25-2.65,5.9-5.9,5.9Z"/>
      <path class="cls-1" d="M633.47,120.99h-23.05c-.83,0-1.5-.67-1.5-1.5s.67-1.5,1.5-1.5h23.05c.83,0,1.5.67,1.5,1.5s-.67,1.5-1.5,1.5Z"/>
      <path class="cls-1" d="M594.43,129.71c-.83,0-1.5-.67-1.5-1.5v-4.32c0-3.25,2.65-5.9,5.9-5.9h2.52c.83,0,1.5.67,1.5,1.5s-.67,1.5-1.5,1.5h-2.52c-1.6,0-2.9,1.3-2.9,2.9v4.32c0,.83-.67,1.5-1.5,1.5Z"/>
      <path class="cls-1" d="M629.93,126.32c-.38,0-.77-.15-1.06-.44-.59-.59-.59-1.54,0-2.12l4.07-4.07-4.23-4.23c-.59-.59-.59-1.54,0-2.12.59-.59,1.54-.59,2.12,0l5.29,5.29c.59.59.59,1.54,0,2.12l-5.13,5.13c-.29.29-.68.44-1.06.44Z"/>
      <path class="cls-1" d="M630.66,142.62h-34.64c-.83,0-1.5-.67-1.5-1.5s.67-1.5,1.5-1.5h34.64c1.6,0,2.9-1.3,2.9-2.9v-4.32c0-.83.67-1.5,1.5-1.5s1.5.67,1.5,1.5v4.32c0,3.25-2.65,5.9-5.9,5.9Z"/>
      <path class="cls-1" d="M599.72,147.72c-.38,0-.77-.15-1.06-.44l-5.29-5.29c-.59-.59-.59-1.54,0-2.12l5.13-5.13c.59-.59,1.54-.59,2.12,0,.59.59.59,1.54,0,2.12l-4.07,4.07,4.23,4.23c.59.59.59,1.54,0,2.12-.29.29-.68.44-1.06.44Z"/>
      <path class="cls-1" d="M713.19,149.94h-27.49c-3.25,0-5.9-2.65-5.9-5.9v-27.49c0-3.25,2.65-5.9,5.9-5.9h3.97c.83,0,1.5.67,1.5,1.5s-.67,1.5-1.5,1.5h-3.97c-1.6,0-2.9,1.3-2.9,2.9v27.49c0,1.6,1.3,2.9,2.9,2.9h27.49c1.6,0,2.9-1.3,2.9-2.9v-27.49c0-1.6-1.3-2.9-2.9-2.9h-13.75c-.83,0-1.5-.67-1.5-1.5s.67-1.5,1.5-1.5h13.75c3.25,0,5.9,2.65,5.9,5.9v27.49c0,3.25-2.65,5.9-5.9,5.9Z"/>
      <path class="cls-1" d="M681.3,140.64c-.38,0-.77-.15-1.06-.44-.59-.59-.59-1.54,0-2.12l4.57-4.57c1.05-1.05,2.45-1.63,3.93-1.63s2.88.58,3.93,1.63c.97.97,2.66.97,3.63,0l6.28-6.28c2.17-2.17,5.7-2.17,7.87,0l8.19,8.19c.59.59.59,1.54,0,2.12-.59.59-1.54.59-2.12,0l-8.19-8.19c-1-1-2.63-1-3.63,0l-6.28,6.28c-1.05,1.05-2.45,1.63-3.93,1.63s-2.88-.58-3.93-1.63c-.97-.97-2.66-.97-3.63,0l-4.57,4.57c-.29.29-.68.44-1.06.44Z"/>
      <path class="cls-1" d="M692.3,129.05c-3.25,0-5.9-2.65-5.9-5.9s2.65-5.9,5.9-5.9,5.9,2.65,5.9,5.9-2.65,5.9-5.9,5.9ZM692.3,120.25c-1.6,0-2.9,1.3-2.9,2.9s1.3,2.9,2.9,2.9,2.9-1.3,2.9-2.9-1.3-2.9-2.9-2.9Z"/>
      <path class="cls-1" d="M784.12,150.15c-1.37,0-2.75-.4-3.94-1.18-5.72-3.77-15.45-13.68-15.69-26.96,0-.03,0-.14,0-.25-.09-4.85,2.97-9.21,7.42-10.59,4.67-1.44,9.54.27,12.22,3.98,2.68-3.71,7.55-5.42,12.22-3.98,4.46,1.38,7.51,5.74,7.42,10.59,0,.1,0,.21-.01.32-.05,3.22-.71,6.52-1.93,9.73-.3.77-1.17,1.16-1.94.87-.77-.3-1.16-1.16-.87-1.94,1.1-2.88,1.69-5.84,1.74-8.79v-.23c.07-3.6-2.06-6.68-5.3-7.68-4.81-1.49-8.7,1.37-9.92,4.81-.21.6-.78,1-1.41,1s-1.2-.4-1.41-1c-1.22-3.44-5.11-6.3-9.92-4.81-3.24,1-5.38,4.09-5.31,7.67v.15c.22,12.11,9.12,21.14,14.35,24.59,1.39.92,3.19.92,4.59,0,2.24-1.47,4.69-3.68,6.74-6.06.54-.63,1.49-.7,2.12-.16.63.54.7,1.49.16,2.12-3.04,3.54-5.92,5.66-7.36,6.61-1.2.79-2.57,1.18-3.94,1.18Z"/>
      <path class="cls-1" d="M852.73,147.59c-1.12,0-2.23-.32-3.21-.94-1.61-1.02-2.57-2.74-2.57-4.58v-24.77c0-1.51.79-2.92,2.1-3.76,1.42-.9,3.17-1.01,4.69-.3l3.48,1.63c.75.35,1.07,1.24.72,1.99-.35.75-1.24,1.08-1.99.72l-3.48-1.63c-.59-.28-1.27-.23-1.81.11-.21.14-.71.53-.71,1.22v24.77c0,.83.43,1.58,1.18,2.05.87.55,1.95.62,2.89.18l26.65-12.47c.83-.39.92-1.06.92-1.34s-.09-.95-.92-1.34l-16.58-7.76c-.75-.35-1.07-1.24-.72-1.99.35-.75,1.24-1.07,1.99-.72l16.58,7.76c1.63.76,2.64,2.32,2.64,4.05s-1.01,3.29-2.64,4.05l-26.65,12.47c-.82.38-1.69.57-2.56.57Z"/>
      <path class="cls-1" d="M889.14,147.74c-.83,0-1.5-.67-1.5-1.5v-31.89c0-.83.67-1.5,1.5-1.5s1.5.67,1.5,1.5v31.89c0,.83-.67,1.5-1.5,1.5Z"/>
      <path class="cls-1" d="M969.53,147.78c-.87,0-1.74-.19-2.56-.57l-26.65-12.47c-1.63-.76-2.64-2.32-2.64-4.05s1.01-3.29,2.64-4.05l16.58-7.76c.75-.35,1.64-.03,1.99.72.35.75.03,1.64-.72,1.99l-16.58,7.76c-.83.39-.92,1.06-.92,1.34s.09.95.92,1.34l26.65,12.47c.94.44,2.02.37,2.89-.18.75-.48,1.18-1.23,1.18-2.05v-24.77c0-.7-.5-1.09-.71-1.22-.54-.35-1.22-.39-1.81-.11l-3.48,1.63c-.75.35-1.64.03-1.99-.72-.35-.75-.03-1.64.72-1.99l3.48-1.63c1.52-.71,3.28-.6,4.69.3,1.32.84,2.1,2.24,2.1,3.75v24.77c0,1.85-.96,3.56-2.57,4.58-.98.62-2.09.94-3.21.94Z"/>
      <path class="cls-1" d="M933.13,147.7c-.83,0-1.5-.67-1.5-1.5v-31.89c0-.83.67-1.5,1.5-1.5s1.5.67,1.5,1.5v31.89c0,.83-.67,1.5-1.5,1.5Z"/>
      <path class="cls-1" d="M1038.14,152.14c-12.04,0-21.84-9.8-21.84-21.84s9.8-21.84,21.84-21.84,21.84,9.8,21.84,21.84c0,2.66-.47,5.25-1.4,7.72-.29.78-1.16,1.17-1.93.87-.77-.29-1.17-1.16-.87-1.93.8-2.13,1.21-4.37,1.21-6.66,0-10.39-8.45-18.84-18.84-18.84s-18.84,8.45-18.84,18.84,8.45,18.84,18.84,18.84c3.66,0,7.2-1.05,10.26-3.03.69-.45,1.62-.26,2.08.44.45.69.25,1.62-.44,2.08-3.54,2.3-7.65,3.52-11.89,3.52Z"/>
      <path class="cls-1" d="M1038.14,131.79c-.19,0-.39-.04-.57-.11-.56-.23-.93-.78-.93-1.39v-12.64c0-.83.67-1.5,1.5-1.5s1.5.67,1.5,1.5v9.02l2.94-2.94c.59-.59,1.54-.59,2.12,0,.59.59.59,1.54,0,2.12l-5.5,5.5c-.29.29-.67.44-1.06.44Z"/>
      <path class="cls-1" d="M1122.82,152.19c-2.76,0-5.42-.57-7.92-1.68-.76-.34-1.09-1.23-.76-1.98.34-.76,1.23-1.09,1.98-.76,2.11.94,4.36,1.42,6.69,1.42,9.04,0,16.4-7.36,16.4-16.4s-7.36-16.4-16.4-16.4-16.4,7.36-16.4,16.4c0,2.47.54,4.84,1.59,7.05.36.75.04,1.64-.71,2-.75.36-1.64.04-2-.71-1.25-2.62-1.88-5.43-1.88-8.35,0-10.7,8.7-19.4,19.4-19.4s19.4,8.7,19.4,19.4-8.7,19.4-19.4,19.4Z"/>
      <path class="cls-1" d="M1110.47,134.29h-5.55c-.83,0-1.5-.67-1.5-1.5s.67-1.5,1.5-1.5h5.55c.83,0,1.5.67,1.5,1.5s-.67,1.5-1.5,1.5Z"/>
      <path class="cls-1" d="M1140.1,134.29h-5.55c-.83,0-1.5-.67-1.5-1.5s.67-1.5,1.5-1.5h5.55c.83,0,1.5.67,1.5,1.5s-.67,1.5-1.5,1.5Z"/>
      <path class="cls-1" d="M1122.51,151.88c-.83,0-1.5-.67-1.5-1.5v-5.56c0-.83.67-1.5,1.5-1.5s1.5.67,1.5,1.5v5.56c0,.83-.67,1.5-1.5,1.5Z"/>
      <path class="cls-1" d="M1122.51,122.26c-.83,0-1.5-.67-1.5-1.5v-10.8c0-.83.67-1.5,1.5-1.5s1.5.67,1.5,1.5v10.8c0,.83-.67,1.5-1.5,1.5Z"/>
      <path class="cls-1" d="M1122.82,134.29c-.38,0-.77-.15-1.06-.44-.59-.59-.59-1.54,0-2.12l5.56-5.55c.59-.59,1.54-.59,2.12,0s.59,1.54,0,2.12l-5.56,5.55c-.29.29-.68.44-1.06.44Z"/>
      <path class="cls-1" d="M1134.55,120.77c-.38,0-.77-.15-1.06-.44-.59-.59-.59-1.54,0-2.12l2.81-2.81c.59-.59,1.54-.59,2.12,0,.59.59.59,1.54,0,2.12l-2.81,2.81c-.29.29-.68.44-1.06.44Z"/>
      <path class="cls-1" d="M1127.77,111.45h-10.45c-.83,0-1.5-.67-1.5-1.5s.67-1.5,1.5-1.5h10.45c.83,0,1.5.67,1.5,1.5s-.67,1.5-1.5,1.5Z"/>
      <path class="cls-1" d="M18.75,251.81c-9.25,0-16.77-7.52-16.77-16.77s7.52-16.77,16.77-16.77c4.11,0,8.06,1.5,11.13,4.22.68.6.74,1.65.14,2.33-.6.68-1.65.74-2.33.14-2.46-2.19-5.64-3.39-8.94-3.39-7.43,0-13.47,6.04-13.47,13.47s6.04,13.47,13.47,13.47,13.47-6.04,13.47-13.47c0-1.14-.14-2.27-.42-3.35-.23-.88.31-1.78,1.19-2.01.88-.22,1.78.3,2.01,1.19.35,1.36.52,2.76.52,4.17,0,9.25-7.52,16.77-16.77,16.77Z"/>
      <path class="cls-1" d="M9.68,236.41c-.91,0-1.65-.74-1.65-1.65,0-5.76,4.69-10.45,10.45-10.45.91,0,1.65.74,1.65,1.65s-.74,1.65-1.65,1.65c-3.94,0-7.15,3.21-7.15,7.15,0,.91-.74,1.65-1.65,1.65Z"/>
      <path class="cls-1" d="M40.19,257.93c-.42,0-.84-.16-1.17-.48l-9.9-9.9c-.64-.64-.64-1.69,0-2.33.64-.64,1.69-.64,2.33,0l9.9,9.9c.64.64.64,1.69,0,2.33-.32.32-.74.48-1.17.48Z"/>
      <path class="cls-1" d="M106.72,253.11c-8.03,0-15.43-3.66-20.3-10.04-2.25-2.95-2.25-7.06,0-10.01,1.04-1.37,2.23-2.63,3.53-3.76.69-.6,1.73-.53,2.33.16.6.69.53,1.73-.16,2.33-1.13.98-2.17,2.09-3.08,3.28-1.35,1.77-1.35,4.23,0,6,4.25,5.56,10.69,8.74,17.68,8.74s13.44-3.19,17.68-8.74c1.35-1.77,1.35-4.23,0-6-4.25-5.56-10.69-8.74-17.68-8.74-2.06,0-4.09.28-6.05.83-.87.25-1.79-.26-2.04-1.14-.25-.88.26-1.79,1.14-2.04,2.25-.63,4.59-.96,6.95-.96,8.03,0,15.43,3.66,20.3,10.04,2.25,2.95,2.25,7.06,0,10.01-4.88,6.38-12.28,10.04-20.3,10.04Z"/>
      <path class="cls-1" d="M106.72,246.86c-4.85,0-8.8-3.95-8.8-8.8s3.95-8.8,8.8-8.8,8.8,3.95,8.8,8.8-3.95,8.8-8.8,8.8ZM106.72,232.56c-3.03,0-5.5,2.47-5.5,5.5s2.47,5.5,5.5,5.5,5.5-2.47,5.5-5.5-2.47-5.5-5.5-5.5Z"/>
      <path class="cls-1" d="M193.43,255.14h-3.05c-2.31,0-4.19-1.88-4.19-4.19v-2.5c0-.41-.2-.77-.51-.92-4.38-2.19-7.11-6.59-7.11-11.48,0-3.64,1.55-7.12,4.26-9.55,2.71-2.43,6.35-3.59,10-3.2,2.78.3,5.43,1.56,7.48,3.53.66.63.67,1.68.04,2.33-.63.66-1.68.67-2.33.04-1.52-1.47-3.49-2.4-5.54-2.63-2.76-.3-5.4.54-7.44,2.37-2.01,1.81-3.17,4.39-3.17,7.1,0,3.64,2.02,6.91,5.28,8.53,1.42.71,2.34,2.23,2.34,3.88v2.5c0,.49.4.89.89.89h3.05c.49,0,.89-.4.89-.89v-3.15c0-1.48.77-2.84,2.06-3.63,3.24-1.99,4.98-5.73,4.45-9.53-.13-.9.5-1.74,1.4-1.86.91-.13,1.74.5,1.86,1.4.72,5.1-1.63,10.13-5.99,12.8-.31.19-.49.49-.49.82v3.15c0,2.31-1.88,4.19-4.19,4.19Z"/>
      <path class="cls-1" d="M191.4,221.02c-.91,0-1.65-.74-1.65-1.65v-1.85c0-.91.74-1.65,1.65-1.65s1.65.74,1.65,1.65v1.85c0,.91-.74,1.65-1.65,1.65Z"/>
      <path class="cls-1" d="M203.94,226.24c-.42,0-.84-.16-1.17-.48-.64-.64-.64-1.69,0-2.33l1.31-1.31c.64-.64,1.69-.64,2.33,0,.64.64.64,1.69,0,2.33l-1.31,1.31c-.32.32-.74.48-1.17.48Z"/>
      <path class="cls-1" d="M178.86,226.24c-.42,0-.84-.16-1.17-.48l-1.31-1.31c-.64-.64-.64-1.69,0-2.33.64-.64,1.69-.64,2.33,0l1.31,1.31c.64.64.64,1.69,0,2.33-.32.32-.74.48-1.17.48Z"/>
      <path class="cls-1" d="M195.25,260.06h-6.6c-.91,0-1.65-.74-1.65-1.65s.74-1.65,1.65-1.65h6.6c.91,0,1.65.74,1.65,1.65s-.74,1.65-1.65,1.65Z"/>
      <g>
        <path class="cls-1" d="M276.07,241.36c-4.85,0-8.8-3.95-8.8-8.8s3.95-8.8,8.8-8.8,8.8,3.95,8.8,8.8-3.95,8.8-8.8,8.8ZM276.07,227.07c-3.03,0-5.5,2.47-5.5,5.5s2.47,5.5,5.5,5.5,5.5-2.47,5.5-5.5-2.47-5.5-5.5-5.5Z"/>
        <path class="cls-1" d="M275.8,260.06c-7.42,0-16.5-12.69-16.5-27.49,0-2.03.37-4.01,1.08-5.89.33-.85,1.28-1.28,2.13-.95.85.33,1.28,1.28.95,2.13-.58,1.5-.87,3.09-.87,4.72,0,14.22,8.56,24.19,13.2,24.19,3.81,0,13.2-9.64,13.2-24.19,0-7.28-5.92-13.2-13.2-13.2-2.16,0-4.21.5-6.11,1.5-.81.42-1.8.11-2.23-.7s-.11-1.8.7-2.23c2.34-1.22,4.98-1.87,7.64-1.87,9.1,0,16.5,7.4,16.5,16.5,0,6.94-2.04,13.83-5.74,19.4-3.31,4.99-7.44,8.09-10.76,8.09Z"/>
      </g>
      <path class="cls-1" d="M374.49,257.86h-27.49c-3.33,0-6.05-2.71-6.05-6.05v-5.87c0-.91.74-1.65,1.65-1.65s1.65.74,1.65,1.65v5.87c0,1.52,1.23,2.75,2.75,2.75h27.49c1.52,0,2.75-1.23,2.75-2.75v-15.4c0-1.52-1.23-2.75-2.75-2.75h-27.49c-1.52,0-2.75,1.23-2.75,2.75v1.1c0,.91-.74,1.65-1.65,1.65s-1.65-.74-1.65-1.65v-1.1c0-3.33,2.71-6.05,6.05-6.05h27.49c3.33,0,6.05,2.71,6.05,6.05v15.4c0,3.33-2.71,6.05-6.05,6.05Z"/>
      <path class="cls-1" d="M375.04,233.11h-3.3v-6.6c0-2.73-2.22-4.95-4.95-4.95h-12.1c-2.73,0-4.95,2.22-4.95,4.95v6.6h-3.3v-6.6c0-4.55,3.7-8.25,8.25-8.25h12.1c4.55,0,8.25,3.7,8.25,8.25v6.6Z"/>
      <path class="cls-1" d="M360.75,252.36c-2.12,0-3.85-1.73-3.85-3.85v-1.94c-1.38-1.14-2.2-2.85-2.2-4.66,0-3.33,2.71-6.05,6.05-6.05s6.05,2.71,6.05,6.05c0,1.82-.82,3.53-2.2,4.66v1.94c0,2.12-1.73,3.85-3.85,3.85ZM360.75,239.16c-1.52,0-2.75,1.23-2.75,2.75,0,.99.51,1.88,1.37,2.37l.83.48v3.75c0,.3.25.55.55.55s.55-.25.55-.55v-3.75l.83-.48c.86-.49,1.37-1.38,1.37-2.37,0-1.52-1.23-2.75-2.75-2.75Z"/>
      <path class="cls-1" d="M460.27,234.21h-9.35c-3.33,0-6.05-2.71-6.05-6.05v-9.35c0-.91.74-1.65,1.65-1.65s1.65.74,1.65,1.65v9.35c0,1.52,1.23,2.75,2.75,2.75h9.35c.91,0,1.65.74,1.65,1.65s-.74,1.65-1.65,1.65Z"/>
      <path class="cls-1" d="M456.97,260.06h-.55c-.91,0-1.65-.74-1.65-1.65s.74-1.65,1.65-1.65h.55c1.52,0,2.75-1.23,2.75-2.75v-20.17c0-.73-.29-1.44-.81-1.95l-11.71-11.71c-.52-.52-1.21-.81-1.95-.81h-11.37c-1.52,0-2.75,1.23-2.75,2.75v31.89c0,1.52,1.23,2.75,2.75,2.75h13.75c.91,0,1.65.74,1.65,1.65s-.74,1.65-1.65,1.65h-13.75c-3.33,0-6.05-2.71-6.05-6.05v-31.89c0-3.33,2.71-6.05,6.05-6.05h11.37c1.62,0,3.14.63,4.28,1.77l11.71,11.71c1.14,1.14,1.77,2.67,1.77,4.28v20.17c0,3.33-2.71,6.05-6.05,6.05Z"/>
      <g>
        <path class="cls-1" d="M440.62,229.26h-5.1c-.91,0-1.65-.74-1.65-1.65s.74-1.65,1.65-1.65h5.1c.91,0,1.65.74,1.65,1.65s-.74,1.65-1.65,1.65Z"/>
        <path class="cls-1" d="M440.62,236.23h-5.1c-.91,0-1.65-.74-1.65-1.65s.74-1.65,1.65-1.65h5.1c.91,0,1.65.74,1.65,1.65s-.74,1.65-1.65,1.65Z"/>
        <path class="cls-1" d="M454.22,243.19h-18.69c-.91,0-1.65-.74-1.65-1.65s.74-1.65,1.65-1.65h18.69c.91,0,1.65.74,1.65,1.65s-.74,1.65-1.65,1.65Z"/>
        <path class="cls-1" d="M454.22,250.16h-18.69c-.91,0-1.65-.74-1.65-1.65s.74-1.65,1.65-1.65h18.69c.91,0,1.65.74,1.65,1.65s-.74,1.65-1.65,1.65Z"/>
      </g>
      <path class="cls-1" d="M541.64,257.86h-23.09c-3.33,0-6.05-2.71-6.05-6.05v-17.74l2.47,1.42c.43.25.89.37,1.38.37h27.49c.48,0,.95-.13,1.38-.37l2.47-1.42v5.78c0,.91-.74,1.65-1.65,1.65s-1.65-.74-1.65-1.65v-.71c-.18.02-.37.03-.55.03h-27.49c-.18,0-.37,0-.55-.03v12.67c0,1.52,1.23,2.75,2.75,2.75h23.09c1.52,0,2.75-1.23,2.75-2.75v-4.4c0-.91.74-1.65,1.65-1.65s1.65.74,1.65,1.65v4.4c0,3.33-2.71,6.05-6.05,6.05Z"/>
      <path class="cls-1" d="M543.84,239.16h-27.49c-1.01,0-2.02-.23-2.91-.66-1.93-.93-3.13-2.71-3.13-4.66v-.92c0-2.93,2.71-5.32,6.05-5.32h27.49c3.33,0,6.05,2.38,6.05,5.32v.92c0,1.95-1.2,3.73-3.14,4.66-.89.43-1.9.66-2.91.66ZM516.35,230.91c-1.49,0-2.75.92-2.75,2.02v.92c0,.68.47,1.3,1.26,1.68.45.22.97.33,1.49.33h27.49c.52,0,1.03-.11,1.48-.33.79-.38,1.27-1.01,1.27-1.68v-.92c0-1.09-1.26-2.02-2.75-2.02h-27.49Z"/>
      <rect class="cls-1" x="528.45" y="227.62" width="3.3" height="28.59"/>
      <g>
        <path class="cls-1" d="M528.12,230.33c-2.74,0-6.16-1.98-7.48-3.29-2.14-2.14-2.14-5.63,0-7.78,2.14-2.14,5.63-2.14,7.78,0,1.81,1.81,4.86,7.58,2.33,10.11-.69.69-1.61.96-2.63.96ZM524.53,220.95c-.56,0-1.13.21-1.56.64-.86.86-.86,2.25,0,3.11,1.3,1.3,4.56,2.58,5.43,2.32.26-.87-1.02-4.13-2.32-5.43-.43-.43-.99-.64-1.56-.64Z"/>
        <path class="cls-1" d="M532.07,230.33c-1.02,0-1.94-.27-2.63-.96-2.53-2.53.53-8.3,2.33-10.11,2.14-2.14,5.63-2.14,7.78,0,2.14,2.14,2.14,5.63,0,7.78-1.31,1.32-4.74,3.29-7.48,3.29ZM531.79,227.02c.87.26,4.13-1.02,5.43-2.32.86-.86.86-2.25,0-3.11s-2.25-.86-3.11,0c-1.3,1.3-2.58,4.56-2.32,5.43Z"/>
      </g>
      <g>
        <path class="cls-1" d="M614.58,249.6l-10.96-10.96,1.03-1.16c.16-.18,3.93-4.42,8.74-8.92.67-.62,1.71-.59,2.33.08.62.67.59,1.71-.08,2.33-3.23,3.02-6.04,5.98-7.48,7.55l6.54,6.54c5.59-5.18,16.84-16.69,16.98-22.01.02-.73-.22-1.06-.4-1.24-.93-.93-3.95-.36-9.63,4-.72.56-1.76.42-2.31-.3-.56-.72-.42-1.76.3-2.31,2.47-1.9,9.99-7.68,13.96-3.73.94.93,1.41,2.2,1.37,3.66-.21,8.16-17.29,23.69-19.23,25.43l-1.16,1.04Z"/>
        <path class="cls-1" d="M631.01,232.03l-.92-.04c-2.34-.1-4.54-1.07-6.18-2.71-1.69-1.69-2.65-3.94-2.71-6.34l-.02-.9.74-.51c2.02-1.38,8.17-5.58,11.69-2.06,3.55,3.53-.68,9.75-2.08,11.79l-.52.76ZM624.58,223.73c.21,1.21.78,2.33,1.66,3.22s1.93,1.42,3.1,1.65c2.14-3.35,2.86-5.85,1.93-6.78-.92-.92-3.4-.2-6.7,1.92Z"/>
        <g>
          <path class="cls-1" d="M617.99,254.11s-.03,0-.05,0c-.9-.02-1.74-.52-2.17-1.31l-2.56-4.65,2.89-1.59,1.92,3.49.98-1.64c.88-1.46,1.32-3.13,1.27-4.84l-.08-3.18,3.3-.09.08,3.19c.06,2.33-.54,4.62-1.74,6.62l-1.67,2.78c-.46.76-1.29,1.23-2.17,1.23Z"/>
          <path class="cls-1" d="M605.03,239.97l-4.65-2.56c-.79-.44-1.29-1.27-1.31-2.17-.02-.9.45-1.75,1.23-2.22l2.78-1.67c2-1.2,4.3-1.8,6.62-1.74l3.19.08-.09,3.3-3.19-.08c-1.71-.05-3.38.39-4.84,1.27l-1.63.98,3.49,1.92-1.59,2.89Z"/>
        </g>
        <path class="cls-1" d="M609.06,250.93c-.81,0-1.56-.31-2.13-.88h0s-3.79-3.79-3.79-3.79c-.57-.57-.88-1.33-.88-2.13s.31-1.56.88-2.13l4.24-4.24,8.06,8.06-4.24,4.24c-.57.57-1.33.88-2.13.88ZM605.67,244.12l3.4,3.4,1.71-1.71-3.4-3.4-1.71,1.71Z"/>
        <g>
          <path class="cls-1" d="M597.09,252.35c-.42,0-.84-.16-1.17-.48-.64-.64-.64-1.69,0-2.33l3.04-3.04c.64-.64,1.69-.64,2.33,0,.64.64.64,1.69,0,2.33l-3.04,3.04c-.32.32-.74.48-1.17.48Z"/>
          <path class="cls-1" d="M596.42,258.41c-.42,0-.84-.16-1.17-.48-.64-.64-.64-1.69,0-2.33l6.4-6.4c.64-.64,1.69-.64,2.33,0s.64,1.69,0,2.33l-6.4,6.4c-.32.32-.74.48-1.17.48Z"/>
          <path class="cls-1" d="M602.48,257.74c-.42,0-.84-.16-1.17-.48-.64-.64-.64-1.69,0-2.33l3.03-3.03c.64-.64,1.69-.64,2.33,0s.64,1.69,0,2.33l-3.03,3.03c-.32.32-.74.48-1.17.48Z"/>
        </g>
        <path class="cls-1" d="M614.62,240.21c-.42,0-.84-.16-1.17-.48-.64-.64-.64-1.69,0-2.33l6.4-6.4c.64-.64,1.69-.64,2.33,0,.64.64.64,1.69,0,2.33l-6.4,6.4c-.32.32-.74.48-1.17.48Z"/>
      </g>
      <path class="cls-1" d="M715.39,255.66h-31.89c-3.33,0-6.05-2.71-6.05-6.05v-1.34c0-.91.74-1.65,1.65-1.65s1.65.74,1.65,1.65v1.34c0,1.52,1.23,2.75,2.75,2.75h31.89c1.52,0,2.75-1.23,2.75-2.75v-17.59c0-1.52-1.23-2.75-2.75-2.75h-6.32c-.91,0-1.65-.74-1.65-1.65v-1.1c0-1.52-1.23-2.75-2.75-2.75h-10.45c-1.52,0-2.75,1.23-2.75,2.75v1.1c0,.91-.74,1.65-1.65,1.65h-6.32c-1.52,0-2.75,1.23-2.75,2.75v7.7c0,.91-.74,1.65-1.65,1.65s-1.65-.74-1.65-1.65v-7.7c0-3.33,2.71-6.05,6.05-6.05h4.7c.28-3.08,2.87-5.5,6.02-5.5h10.45c3.15,0,5.75,2.42,6.02,5.5h4.7c3.33,0,6.05,2.71,6.05,6.05v17.59c0,3.33-2.71,6.05-6.05,6.05Z"/>
      <path class="cls-1" d="M699.45,249.06c-5.15,0-9.35-4.19-9.35-9.35s4.19-9.35,9.35-9.35,9.35,4.19,9.35,9.35-4.19,9.35-9.35,9.35ZM699.45,233.66c-3.33,0-6.05,2.71-6.05,6.05s2.71,6.05,6.05,6.05,6.05-2.71,6.05-6.05-2.71-6.05-6.05-6.05Z"/>
      <g>
        <path class="cls-1" d="M713.47,231.46c-1.06,0-1.92.87-1.92,1.92s.87,1.92,1.92,1.92,1.92-.87,1.92-1.92-.87-1.92-1.92-1.92ZM713.47,234.76c-.76,0-1.37-.62-1.37-1.37s.62-1.37,1.37-1.37,1.37.62,1.37,1.37-.62,1.37-1.37,1.37Z"/>
        <circle class="cls-1" cx="713.47" cy="233.39" r="1.37"/>
      </g>
      <path class="cls-1" d="M796.49,255.66h-24.74c-2.88,0-5.22-2.34-5.22-5.22s2.34-5.22,5.22-5.22h24.74c2.88,0,5.22,2.34,5.22,5.22s-2.34,5.22-5.22,5.22ZM771.75,248.51c-1.06,0-1.92.86-1.92,1.92s.86,1.92,1.92,1.92h24.74c1.06,0,1.92-.86,1.92-1.92s-.86-1.92-1.92-1.92h-24.74Z"/>
      <path class="cls-1" d="M796.5,243.56h-24.76c-2.7,0-5.09-1.81-5.82-4.41l-3.73-13.29c-.19-.67.06-1.38.62-1.78.56-.4,1.32-.42,1.89-.03l9.09,6.15,9.16-9.15c.64-.64,1.69-.64,2.33,0l2.39,2.38c.64.64.64,1.69,0,2.33-.64.65-1.69.64-2.33,0l-1.22-1.22-8.96,8.95c-.56.56-1.44.64-2.09.2l-6.49-4.39,2.51,8.95c.33,1.18,1.42,2.01,2.65,2.01h24.76c1.23,0,2.32-.82,2.65-2.01l2.51-8.95-6.49,4.39c-.65.44-1.53.36-2.09-.2l-2.55-2.55c-.64-.64-.64-1.69,0-2.33.64-.65,1.69-.65,2.33,0l1.59,1.59,9.09-6.15c.57-.39,1.33-.38,1.89.03s.81,1.12.62,1.78l-3.73,13.29c-.73,2.6-3.12,4.41-5.82,4.41Z"/>
      <path class="cls-1" d="M882.54,257.86h-27.49c-3.33,0-6.05-2.71-6.05-6.05v-2.2c0-.91.74-1.65,1.65-1.65s1.65.74,1.65,1.65v2.2c0,1.52,1.23,2.75,2.75,2.75h27.49c1.52,0,2.75-1.23,2.75-2.75v-23.09c0-1.52-1.23-2.75-2.75-2.75h-27.49c-1.52,0-2.75,1.23-2.75,2.75v11.55c0,.91-.74,1.65-1.65,1.65s-1.65-.74-1.65-1.65v-11.55c0-3.33,2.71-6.05,6.05-6.05h27.49c3.33,0,6.05,2.71,6.05,6.05v23.09c0,3.33-2.71,6.05-6.05,6.05Z"/>
      <g>
        <path class="cls-1" d="M858.11,229.81c-.91,0-1.65-.74-1.65-1.65v-7.7c0-.91.74-1.65,1.65-1.65s1.65.74,1.65,1.65v7.7c0,.91-.74,1.65-1.65,1.65Z"/>
        <path class="cls-1" d="M879.47,230.36c-.91,0-1.65-.74-1.65-1.65v-7.7c0-.91.74-1.65,1.65-1.65s1.65.74,1.65,1.65v7.7c0,.91-.74,1.65-1.65,1.65Z"/>
      </g>
      <rect class="cls-1" x="850.65" y="231.45" width="36.29" height="3.3"/>
      <path class="cls-1" d="M869.62,251.26c-.91,0-1.65-.74-1.65-1.65v-6.46l-1.03,1.03c-.64.64-1.69.64-2.33,0-.64-.64-.64-1.69,0-2.33l3.85-3.85c.47-.47,1.18-.61,1.8-.36.62.26,1.02.86,1.02,1.52v10.45c0,.91-.74,1.65-1.65,1.65Z"/>
      <path class="cls-1" d="M969.41,255.66h-31.89c-3.33,0-6.05-2.71-6.05-6.05v-23.09c0-3.33,2.71-6.05,6.05-6.05h31.89c3.33,0,6.05,2.71,6.05,6.05v10.28c0,.91-.74,1.65-1.65,1.65s-1.65-.74-1.65-1.65v-10.28c0-1.52-1.23-2.75-2.75-2.75h-31.89c-1.52,0-2.75,1.23-2.75,2.75v23.09c0,1.52,1.23,2.75,2.75,2.75h31.89c1.52,0,2.75-1.23,2.75-2.75v-1.57c0-.91.74-1.65,1.65-1.65s1.65.74,1.65,1.65v1.57c0,3.33-2.71,6.05-6.05,6.05Z"/>
      <g>
        <path class="cls-1" d="M940.44,248.19c-.42,0-.84-.16-1.17-.48-.64-.64-.64-1.69,0-2.33l6.05-6.05c.64-.64,1.69-.64,2.33,0l3.23,3.23,12.03-12.03c.64-.64,1.69-.64,2.33,0,.64.64.64,1.69,0,2.33l-13.2,13.2c-.64.64-1.69.64-2.33,0l-3.23-3.23-4.88,4.88c-.32.32-.74.48-1.17.48Z"/>
        <path class="cls-1" d="M966.49,238.45c-.91,0-1.65-.74-1.65-1.65v-5.57h-5.8c-.91,0-1.65-.74-1.65-1.65s.74-1.65,1.65-1.65h7.45c.91,0,1.65.74,1.65,1.65v7.22c0,.91-.74,1.65-1.65,1.65Z"/>
      </g>
      <g>
        <path class="cls-1" d="M1031.15,255.66c-.14,0-.27-.02-.41-.05l-13.4-3.42c-.73-.19-1.24-.84-1.24-1.6v-13.83c0-.91.74-1.65,1.65-1.65s1.65.74,1.65,1.65v12.55l10.1,2.58v-25.07l-10.1-2.58v1.19c0,.91-.74,1.65-1.65,1.65s-1.65-.74-1.65-1.65v-3.31c0-.51.24-.99.64-1.3.4-.31.93-.42,1.42-.3l13.4,3.42c.73.19,1.24.84,1.24,1.6v28.47c0,.51-.24.99-.64,1.3-.29.23-.65.35-1.01.35Z"/>
        <path class="cls-1" d="M1058.43,255.66c-.14,0-.27-.02-.41-.05l-13.4-3.42c-.88-.22-1.42-1.12-1.19-2.01.22-.88,1.13-1.41,2-1.19l11.35,2.89v-25.07l-12.16-3.1c-.88-.22-1.42-1.12-1.19-2.01.22-.88,1.13-1.42,2-1.19l13.4,3.42c.73.19,1.24.84,1.24,1.6v28.47c0,.51-.24.99-.64,1.3-.29.23-.65.35-1.01.35Z"/>
        <path class="cls-1" d="M1031.31,255.66c-.74,0-1.41-.5-1.6-1.24-.23-.88.31-1.78,1.19-2.01l12.16-3.1v-25.07l-11.35,2.89c-.88.23-1.78-.31-2-1.19-.23-.88.31-1.78,1.19-2.01l13.4-3.42c.49-.13,1.02-.02,1.42.3s.64.79.64,1.3v28.47c0,.75-.51,1.41-1.24,1.6l-13.4,3.42c-.14.03-.27.05-.41.05Z"/>
      </g>
      <path class="cls-1" d="M1030.52,242.56c-4.13,0-7.24-1.63-7.46-1.75-.8-.43-1.1-1.43-.67-2.23.43-.8,1.43-1.1,2.23-.67.29.15,6.94,3.58,12.93-1.08,7.72-6.01,15.36-1.9,15.68-1.72.8.44,1.09,1.44.64,2.24-.44.8-1.45,1.09-2.24.64-.24-.13-6.09-3.2-12.06,1.44-3.09,2.4-6.3,3.13-9.06,3.13Z"/>
      <path class="cls-1" d="M1113.68,244.66c-.41,0-.83-.15-1.15-.47l-2.92-2.83h-.54c-3.33,0-6.05-2.71-6.05-6.05v-11c0-3.33,2.71-6.05,6.05-6.05h16.5c3.33,0,6.05,2.71,6.05,6.05v11c0,3.33-2.71,6.05-6.05,6.05h-7.97l-2.74,2.8c-.32.33-.75.5-1.18.5ZM1109.07,221.57c-1.52,0-2.75,1.23-2.75,2.75v11c0,1.52,1.23,2.75,2.75,2.75h1.21c.43,0,.84.17,1.15.47l2.22,2.16,2.08-2.12c.31-.32.74-.5,1.18-.5h8.66c1.52,0,2.75-1.23,2.75-2.75v-11c0-1.52-1.23-2.75-2.75-2.75h-16.5Z"/>
      <path class="cls-1" d="M1131.95,257.86c-.43,0-.86-.17-1.18-.5l-2.74-2.8h-7.97c-3.28,0-5.96-2.63-6.05-5.89,0-.03,0-.06,0-.08v-.08c0-.91.74-1.65,1.65-1.65s1.65.74,1.65,1.65c0,1.52,1.23,2.75,2.75,2.75h8.66c.44,0,.87.18,1.18.5l2.08,2.12,2.22-2.16c.31-.3.72-.47,1.15-.47h1.21c1.52,0,2.75-1.23,2.75-2.75v-11c0-1.52-1.23-2.75-2.75-2.75h-1.13c-.91,0-1.65-.74-1.65-1.65s.74-1.65,1.65-1.65h1.13c3.33,0,6.05,2.71,6.05,6.05v11c0,3.33-2.71,6.05-6.05,6.05h-.54l-2.92,2.83c-.32.31-.73.47-1.15.47Z"/>
      <g>
        <path class="cls-1" d="M29.65,358.47c-.53,0-1.05-.11-1.55-.33-.94-.41-1.66-1.17-2.04-2.13l-7.08-18.2c-.77-1.98.21-4.21,2.19-4.98l1.36-.53c1.98-.77,4.21.22,4.98,2.19l7.08,18.2c.37.96.35,2-.06,2.94-.41.94-1.17,1.66-2.13,2.04l-1.36.53c-.45.18-.92.26-1.4.26ZM23.93,335.34c-.07,0-.13.01-.2.04l-1.36.53c-.28.11-.42.43-.31.71l7.08,18.2c.07.18.21.27.29.3.08.03.24.08.42,0l1.36-.53c.18-.07.27-.21.3-.29s.08-.24,0-.42l-7.08-18.2c-.08-.22-.29-.35-.51-.35Z"/>
        <path class="cls-1" d="M9.39,358.96l-4.69-12.06,7.16-4.63c.77-.5,1.79-.28,2.28.49.49.77.28,1.79-.49,2.28l-4.9,3.17,2.74,7.05,13.39-2.27-4.73-12.16-.79.51c-.77.49-1.79.27-2.28-.49-.49-.77-.28-1.79.49-2.28l4.19-2.71,7.66,19.7-20.03,3.39Z"/>
        <path class="cls-1" d="M6.49,360.05c-2.33,0-4.62-1.59-5.61-4.11l-.41-1.06c-.58-1.5-.63-3.12-.12-4.56.54-1.53,1.62-2.68,3.05-3.24l4.27-1.66,4.91,12.63-4.27,1.66c-.59.23-1.21.34-1.82.34ZM5.79,349.69l-1.19.46c-.52.2-.92.65-1.13,1.25-.25.7-.22,1.51.08,2.27l.41,1.06c.57,1.47,2.02,2.34,3.16,1.89l1.19-.46-2.52-6.48Z"/>
        <path class="cls-1" d="M19.4,363.11c-3.22,0-6-2.42-6.37-5.7l3.28-.37c.19,1.71,1.75,2.94,3.45,2.75.83-.09,1.57-.5,2.09-1.16s.75-1.47.66-2.29l3.28-.37c.19,1.7-.29,3.38-1.36,4.72-1.07,1.34-2.6,2.19-4.3,2.38-.24.03-.49.04-.73.04Z"/>
        <g>
          <path class="cls-1" d="M35.44,343.54c-.66,0-1.28-.4-1.54-1.05-.33-.85.09-1.81.94-2.13l5.45-2.12c.85-.33,1.81.09,2.13.94.33.85-.09,1.81-.94,2.13l-5.45,2.12c-.2.08-.4.11-.6.11Z"/>
          <path class="cls-1" d="M31.99,337.69c-.18,0-.37-.03-.55-.09-.86-.3-1.31-1.24-1.01-2.1l2.11-6c.3-.86,1.24-1.31,2.1-1.01.86.3,1.31,1.24,1.01,2.1l-2.11,6c-.24.68-.88,1.1-1.56,1.1Z"/>
          <path class="cls-1" d="M42.45,353.19c-.26,0-.53-.06-.78-.2l-5.6-3c-.8-.43-1.11-1.43-.68-2.23.43-.8,1.43-1.11,2.23-.68l5.6,3c.8.43,1.11,1.43.68,2.23-.3.56-.87.87-1.46.87Z"/>
        </g>
      </g>
      <path class="cls-1" d="M111.67,367.82h-9.9c-3.33,0-6.05-2.71-6.05-6.05v-21.42c0-.91.74-1.65,1.65-1.65s1.65.74,1.65,1.65v21.42c0,1.52,1.23,2.75,2.75,2.75h9.9c1.52,0,2.75-1.23,2.75-2.75v-31.89c0-1.52-1.23-2.75-2.75-2.75h-9.9c-1.52,0-2.75,1.23-2.75,2.75v2.18c0,.91-.74,1.65-1.65,1.65s-1.65-.74-1.65-1.65v-2.18c0-3.33,2.71-6.05,6.05-6.05h9.9c3.33,0,6.05,2.71,6.05,6.05v31.89c0,3.33-2.71,6.05-6.05,6.05Z"/>
      <path class="cls-1" d="M108.65,328.23h-3.85c-.91,0-1.65-.74-1.65-1.65s.74-1.65,1.65-1.65h3.85c.91,0,1.65.74,1.65,1.65s-.74,1.65-1.65,1.65Z"/>
      <path class="cls-1" d="M110.57,362.32h-7.7c-.91,0-1.65-.74-1.65-1.65s.74-1.65,1.65-1.65h7.7c.91,0,1.65.74,1.65,1.65s-.74,1.65-1.65,1.65Z"/>
      <g>
        <path class="cls-1" d="M171.06,348.51c-.65,0-1.26-.38-1.52-1.02-.35-.84.05-1.81.89-2.16l7.11-2.94s.02,0,.02,0l33.56-13.9c.84-.35,1.81.05,2.16.89.35.84-.05,1.81-.89,2.16l-24.68,10.23s0,0-.01,0l-16,6.63c-.21.09-.42.13-.63.13Z"/>
        <path class="cls-1" d="M182.07,352.46c-.19,0-.37-.03-.56-.1l-11.01-3.96c-.86-.31-1.3-1.25-.99-2.11s1.25-1.3,2.11-.99l11.01,3.96c.86.31,1.3,1.25.99,2.11-.24.67-.88,1.09-1.55,1.09Z"/>
        <path class="cls-1" d="M206.94,361.39c-.19,0-.38-.03-.56-.1l-16.02-5.75c-.86-.31-1.3-1.25-.99-2.11s1.25-1.3,2.11-.99l14.15,5.08.37-2.28c.15-.9.99-1.51,1.89-1.37.9.15,1.51.99,1.37,1.89l-.68,4.24c-.08.48-.37.91-.79,1.16-.26.15-.55.23-.84.23Z"/>
        <path class="cls-1" d="M209.02,348.51c-.09,0-.18,0-.27-.02-.9-.15-1.51-.99-1.37-1.89l2.72-16.86c.15-.9,1-1.51,1.89-1.37.9.15,1.51.99,1.37,1.89l-2.72,16.86c-.13.81-.83,1.39-1.63,1.39Z"/>
        <path class="cls-1" d="M189.1,363.64c-.56,0-1.09-.29-1.4-.77l-7.05-11.21c-.47-.74-.27-1.73.45-2.23l29.69-20.78c.68-.48,1.61-.37,2.17.25.56.62.57,1.56.02,2.19l-20.62,23.76-1.66,7.5c-.14.65-.67,1.15-1.33,1.27-.09.02-.19.02-.28.02ZM184.28,351.23l4.07,6.48.88-3.99c.06-.27.18-.52.37-.73l12.13-13.98-17.45,12.21Z"/>
        <path class="cls-1" d="M189.1,363.64c-.39,0-.78-.14-1.09-.41-.68-.6-.75-1.65-.14-2.33l5.05-5.71c.6-.68,1.65-.75,2.33-.14.68.6.75,1.65.14,2.33l-5.05,5.71c-.33.37-.78.56-1.24.56Z"/>
      </g>
      <path class="cls-1" d="M261.78,363.75c-3.33,0-6.05-2.75-6.05-6.14,0-.91.74-1.66,1.65-1.66s1.65.73,1.65,1.64c0,1.58,1.23,2.85,2.75,2.85s2.75-1.27,2.75-2.84v-10.61c0-1.57-1.23-2.84-2.75-2.84s-2.75,1.27-2.75,2.84v3.13c0,.91-.74,1.65-1.65,1.65s-1.65-.74-1.65-1.65v-3.13c0-3.38,2.71-6.14,6.05-6.14s6.05,2.75,6.05,6.14v10.61c0,3.38-2.71,6.14-6.05,6.14Z"/>
      <path class="cls-1" d="M285.83,365.85c-.18,0-.36,0-.53-.02l-9.31-1c-3.08-.33-5.41-2.96-5.41-6.1v-12.71c0-2.51,1.51-4.75,3.76-5.68.77-1.46,2.54-5,3.23-8.2.55-2.6,2.46-4.42,4.75-4.53h.24c2.82,0,5.17,2.6,5.33,5.93.07,1.74-.07,3.52-.42,5.3l1.17-.11c1.93-.18,3.76.57,5.04,2.02,1.29,1.47,1.81,3.5,1.38,5.43l-3.31,14.9c-.64,2.81-3.12,4.78-5.91,4.78ZM282.4,330.89c-.68.04-1.38.83-1.61,1.93-.88,4.1-3.18,8.43-3.87,9.66-.22.39-.58.67-1.01.79-1.2.33-2.04,1.46-2.04,2.74v12.71c0,1.46,1.06,2.67,2.46,2.82l9.28,1c1.33.13,2.59-.82,2.9-2.2l3.31-14.89s0,0,0,0c.2-.92-.03-1.84-.64-2.54-.58-.66-1.4-.99-2.26-.91l-3.48.33c-.55.05-1.08-.17-1.43-.59-.35-.42-.46-.99-.31-1.52.66-2.22.95-4.42.87-6.54-.08-1.66-1.12-2.78-2.04-2.78h-.15Z"/>
      <path class="cls-1" d="M360.75,348.89c-.56,0-1.11-.08-1.65-.23l-17.83-5.05c-.11-.03-.21-.07-.3-.12-1.39-.72-2.26-2.14-2.26-3.71s.87-2.99,2.26-3.71c.1-.05.2-.09.3-.12l17.83-5.05c1.08-.31,2.22-.31,3.3,0l1.39.39c.88.25,1.39,1.16,1.14,2.04-.25.88-1.16,1.38-2.04,1.14l-1.39-.39c-.49-.14-1.01-.14-1.5,0l-17.63,5c-.33.23-.36.57-.36.71s.04.48.36.71l17.63,5c.49.14,1.01.14,1.5,0l17.63-5c.33-.23.36-.57.36-.71s-.04-.48-.36-.71l-8.66-2.45c-.88-.25-1.39-1.16-1.14-2.04.25-.88,1.16-1.39,2.04-1.14l8.86,2.51c.11.03.21.07.3.12,1.39.72,2.26,2.14,2.26,3.71s-.87,2.99-2.26,3.71c-.1.05-.2.09-.3.12l-17.83,5.05c-.54.15-1.09.23-1.65.23Z"/>
      <path class="cls-1" d="M360.75,359.03c-6.54,0-17.59-1.27-17.59-6.05h3.3c0-.07-.02-.12-.02-.13.42.85,5.15,2.88,14.32,2.88s13.89-2.03,14.32-2.88c0,.01-.02.06-.02.13h3.3c0,4.77-11.06,6.05-17.59,6.05Z"/>
      <rect class="cls-1" x="375.04" y="343.61" width="3.3" height="9.37"/>
      <rect class="cls-1" x="343.15" y="343.61" width="3.3" height="9.37"/>
      <path class="cls-1" d="M345.9,362.32c-.91,0-1.65-.74-1.65-1.65s.74-1.65,1.65-1.65c1.03,0,1.82-.29,2.4-.88,1.1-1.11,1.31-3.13,1.3-3.81v-9.6c0-.71.45-1.34,1.13-1.57l9.49-3.16c.87-.29,1.8.18,2.09,1.04.29.86-.18,1.8-1.04,2.09l-8.36,2.78v8.38c0,.35.02,3.83-2.23,6.14-1.2,1.23-2.85,1.88-4.77,1.88Z"/>
      <g>
        <path class="cls-1" d="M445.06,350.62c-.91,0-1.65-.74-1.65-1.65,0-2.12,1.12-4.05,2.99-5.18.97-.58,1.44-1.69,1.2-2.82-.2-.96-.98-1.75-1.94-1.95-1.3-.28-2.28.37-2.76,1.08-.51.75-1.54.95-2.29.44-.75-.51-.95-1.54-.44-2.29,1.36-2.02,3.8-2.98,6.2-2.46,2.21.48,4,2.29,4.47,4.5.52,2.49-.57,5.03-2.73,6.32-.87.52-1.39,1.4-1.39,2.35s-.74,1.65-1.65,1.65Z"/>
        <path class="cls-1" d="M445.01,356c-.91,0-1.65-.74-1.65-1.65v-.45c0-.91.74-1.65,1.65-1.65s1.65.74,1.65,1.65v.45c0,.91-.74,1.65-1.65,1.65Z"/>
      </g>
      <path class="cls-1" d="M459.17,365.62h-27.49c-3.33,0-6.05-2.71-6.05-6.05v-27.49c0-3.33,2.71-6.05,6.05-6.05h27.49c3.33,0,6.05,2.71,6.05,6.05v14.66c0,.91-.74,1.65-1.65,1.65s-1.65-.74-1.65-1.65v-14.66c0-1.52-1.23-2.75-2.75-2.75h-27.49c-1.52,0-2.75,1.23-2.75,2.75v27.49c0,1.52,1.23,2.75,2.75,2.75h27.49c1.52,0,2.75-1.23,2.75-2.75v-1.32c0-.91.74-1.65,1.65-1.65s1.65.74,1.65,1.65v1.32c0,3.33-2.71,6.05-6.05,6.05Z"/>
      <path class="cls-1" d="M530.1,365.62c-1.75,0-12.13-3.36-16.11-18.23-.95-3.55-1.54-8.79-1.54-13.67,0-1.7,1.16-3.2,2.83-3.66l13.81-3.81c.67-.18,1.38-.18,2.05,0l13.81,3.81c1.66.46,2.82,1.96,2.82,3.66,0,3.45-.31,7.24-.84,10.39-.15.9-1,1.5-1.9,1.35-.9-.15-1.5-1-1.35-1.9.51-2.98.8-6.57.8-9.84,0-.21-.17-.41-.4-.48l-13.81-3.81c-.1-.03-.2-.03-.29,0l-13.81,3.81c-.23.06-.4.27-.4.48,0,4.55.56,9.58,1.43,12.82,3.32,12.39,11.5,15.65,12.97,15.78.85-.08,6.38-2.01,10.3-9.19.44-.8,1.44-1.09,2.24-.66.8.44,1.09,1.44.66,2.24-4.54,8.32-11.29,10.91-13.24,10.91Z"/>
      <path class="cls-1" d="M527.9,351.66c-.42,0-.84-.16-1.17-.48l-4.18-4.18c-.64-.64-.64-1.69,0-2.33.64-.64,1.69-.64,2.33,0l3.01,3.01,7.41-7.41c.64-.64,1.69-.64,2.33,0,.64.64.64,1.69,0,2.33l-8.58,8.58c-.32.32-.74.48-1.17.48Z"/>
      <path class="cls-1" d="M627.42,354.63h-25.29c-3.33,0-6.05-2.71-6.05-6.05v-.51c0-.91.74-1.65,1.65-1.65s1.65.74,1.65,1.65v.51c0,1.52,1.23,2.75,2.75,2.75h25.29c1.52,0,2.75-1.23,2.75-2.75v-14.3c0-1.52-1.23-2.75-2.75-2.75h-25.29c-1.52,0-2.75,1.23-2.75,2.75v4.95c0,.91-.74,1.65-1.65,1.65s-1.65-.74-1.65-1.65v-4.95c0-3.33,2.71-6.05,6.05-6.05h25.29c3.33,0,6.05,2.71,6.05,6.05v14.3c0,3.33-2.71,6.05-6.05,6.05Z"/>
      <path class="cls-1" d="M632.92,363.42h-36.29c-2.12,0-3.85-1.73-3.85-3.85s1.73-3.85,3.85-3.85h36.29c2.12,0,3.85,1.73,3.85,3.85s-1.73,3.85-3.85,3.85ZM596.63,359.03c-.3,0-.55.25-.55.55s.25.55.55.55h36.29c.3,0,.55-.25.55-.55s-.25-.55-.55-.55h-36.29Z"/>
      <path class="cls-1" d="M616.42,335.93h-3.3c-.91,0-1.65-.74-1.65-1.65s.74-1.65,1.65-1.65h3.3c.91,0,1.65.74,1.65,1.65s-.74,1.65-1.65,1.65Z"/>
      <path class="cls-1" d="M715.39,354.63h-31.89c-3.33,0-6.05-2.71-6.05-6.05v-14.3c0-3.33,2.71-6.05,6.05-6.05h31.89c3.33,0,6.05,2.71,6.05,6.05v.95c0,.91-.74,1.65-1.65,1.65s-1.65-.74-1.65-1.65v-.95c0-1.52-1.23-2.75-2.75-2.75h-31.89c-1.52,0-2.75,1.23-2.75,2.75v14.3c0,1.52,1.23,2.75,2.75,2.75h31.89c1.52,0,2.75-1.23,2.75-2.75v-4.52c0-.91.74-1.65,1.65-1.65s1.65.74,1.65,1.65v4.52c0,3.33-2.71,6.05-6.05,6.05Z"/>
      <path class="cls-1" d="M704.39,335.93h-9.9c-.91,0-1.65-.74-1.65-1.65s.74-1.65,1.65-1.65h9.9c.91,0,1.65.74,1.65,1.65s-.74,1.65-1.65,1.65Z"/>
      <path class="cls-1" d="M703.94,363.42h-8.99c-1.12,0-2.11-.67-2.54-1.7s-.19-2.21.6-3l2.2-2.2c.51-.51,1.22-.81,1.94-.81h4.59c.72,0,1.43.29,1.94.81l2.2,2.2c.79.79,1.02,1.96.6,3s-1.42,1.7-2.54,1.7ZM703.55,361.06h.01-.01ZM696.28,360.13h6.33l-1.1-1.1h-4.13l-1.1,1.1Z"/>
      <path class="cls-1" d="M797.87,365.62h-27.49c-3.33,0-6.05-2.71-6.05-6.05v-27.49c0-3.33,2.71-6.05,6.05-6.05h14.3c.91,0,1.65.74,1.65,1.65s-.74,1.65-1.65,1.65h-14.3c-1.52,0-2.75,1.23-2.75,2.75v27.49c0,1.52,1.23,2.75,2.75,2.75h27.49c1.52,0,2.75-1.23,2.75-2.75v-27.49c0-1.52-1.23-2.75-2.75-2.75h-3.26c-.91,0-1.65-.74-1.65-1.65s.74-1.65,1.65-1.65h3.26c3.33,0,6.05,2.71,6.05,6.05v27.49c0,3.33-2.71,6.05-6.05,6.05Z"/>
      <rect class="cls-1" x="765.98" y="335.9" width="36.29" height="3.3"/>
      <g>
        <path class="cls-1" d="M770.92,330.43c-1.21,0-2.2.99-2.2,2.2s.99,2.2,2.2,2.2,2.2-.99,2.2-2.2-.99-2.2-2.2-2.2ZM770.92,333.73c-.6,0-1.1-.49-1.1-1.1s.49-1.1,1.1-1.1,1.1.49,1.1,1.1-.49,1.1-1.1,1.1Z"/>
        <circle class="cls-1" cx="770.92" cy="332.63" r="1.1"/>
      </g>
      <g>
        <path class="cls-1" d="M776.42,330.43c-1.21,0-2.2.99-2.2,2.2s.99,2.2,2.2,2.2,2.2-.99,2.2-2.2-.99-2.2-2.2-2.2ZM776.42,333.73c-.6,0-1.1-.49-1.1-1.1s.49-1.1,1.1-1.1,1.1.49,1.1,1.1-.49,1.1-1.1,1.1Z"/>
        <circle class="cls-1" cx="776.42" cy="332.63" r="1.1"/>
      </g>
      <g>
        <path class="cls-1" d="M781.92,330.43c-1.21,0-2.2.99-2.2,2.2s.99,2.2,2.2,2.2,2.2-.99,2.2-2.2-.99-2.2-2.2-2.2ZM781.92,333.73c-.6,0-1.1-.49-1.1-1.1s.49-1.1,1.1-1.1,1.1.49,1.1,1.1-.49,1.1-1.1,1.1Z"/>
        <circle class="cls-1" cx="781.92" cy="332.63" r="1.1"/>
      </g>
      <path class="cls-1" d="M794.57,360.13h-6.6c-2.12,0-3.85-1.73-3.85-3.85v-11c0-2.12,1.73-3.85,3.85-3.85h6.6c2.12,0,3.85,1.73,3.85,3.85v11c0,2.12-1.73,3.85-3.85,3.85ZM787.97,344.73c-.3,0-.55.25-.55.55v11c0,.3.25.55.55.55h6.6c.3,0,.55-.25.55-.55v-11c0-.3-.25-.55-.55-.55h-6.6Z"/>
      <rect class="cls-1" x="790.26" y="341.68" width="3.3" height="18.04" transform="translate(-64.95 476.77) rotate(-32.26)"/>
      <path class="cls-1" d="M775.32,344.73h-3.85c-.91,0-1.65-.74-1.65-1.65s.74-1.65,1.65-1.65h3.85c.91,0,1.65.74,1.65,1.65s-.74,1.65-1.65,1.65Z"/>
      <path class="cls-1" d="M779.72,350.23h-8.25c-.91,0-1.65-.74-1.65-1.65s.74-1.65,1.65-1.65h8.25c.91,0,1.65.74,1.65,1.65s-.74,1.65-1.65,1.65Z"/>
      <path class="cls-1" d="M779.72,355.73h-8.25c-.91,0-1.65-.74-1.65-1.65s.74-1.65,1.65-1.65h8.25c.91,0,1.65.74,1.65,1.65s-.74,1.65-1.65,1.65Z"/>
      <path class="cls-1" d="M882.54,353.53h-27.49c-.91,0-1.65-.74-1.65-1.65v-10.83c0-.91.74-1.65,1.65-1.65s1.65.74,1.65,1.65v9.18h24.19v-20.34c0-1.52-1.23-2.75-2.75-2.75h-18.69c-1.52,0-2.75,1.23-2.75,2.75v2.2c0,.91-.74,1.65-1.65,1.65s-1.65-.74-1.65-1.65v-2.2c0-3.33,2.71-6.05,6.05-6.05h18.69c3.33,0,6.05,2.71,6.05,6.05v21.99c0,.91-.74,1.65-1.65,1.65Z"/>
      <path class="cls-1" d="M880.34,367.82h-7.7c-.91,0-1.65-.74-1.65-1.65v-6.6c0-.3-.25-.55-.55-.55h-3.3c-.3,0-.55.25-.55.55v6.6c0,.91-.74,1.65-1.65,1.65h-7.7c-3.33,0-6.05-2.71-6.05-6.05v-5.5c0-3.33,2.71-6.05,6.05-6.05h23.09c3.33,0,6.05,2.71,6.05,6.05v5.5c0,3.33-2.71,6.05-6.05,6.05ZM874.29,364.52h6.05c1.52,0,2.75-1.23,2.75-2.75v-5.5c0-1.52-1.23-2.75-2.75-2.75h-23.09c-1.52,0-2.75,1.23-2.75,2.75v5.5c0,1.52,1.23,2.75,2.75,2.75h6.05v-4.95c0-2.12,1.73-3.85,3.85-3.85h3.3c2.12,0,3.85,1.73,3.85,3.85v4.95Z"/>
      <path class="cls-1" d="M859.45,362.87c-.91,0-1.65-.74-1.65-1.65v-3.3c0-.91.74-1.65,1.65-1.65s1.65.74,1.65,1.65v3.3c0,.91-.74,1.65-1.65,1.65Z"/>
      <path class="cls-1" d="M878.14,362.87c-.91,0-1.65-.74-1.65-1.65v-3.3c0-.91.74-1.65,1.65-1.65s1.65.74,1.65,1.65v3.3c0,.91-.74,1.65-1.65,1.65Z"/>
      <path class="cls-1" d="M865.05,333.73h-3.4c-.91,0-1.65-.74-1.65-1.65s.74-1.65,1.65-1.65h3.4c.91,0,1.65.74,1.65,1.65s-.74,1.65-1.65,1.65Z"/>
      <path class="cls-1" d="M876.05,333.73h-3.4c-.91,0-1.65-.74-1.65-1.65s.74-1.65,1.65-1.65h3.4c.91,0,1.65.74,1.65,1.65s-.74,1.65-1.65,1.65Z"/>
      <path class="cls-1" d="M865.05,340.33h-3.4c-.91,0-1.65-.74-1.65-1.65s.74-1.65,1.65-1.65h3.4c.91,0,1.65.74,1.65,1.65s-.74,1.65-1.65,1.65Z"/>
      <path class="cls-1" d="M876.05,340.33h-3.4c-.91,0-1.65-.74-1.65-1.65s.74-1.65,1.65-1.65h3.4c.91,0,1.65.74,1.65,1.65s-.74,1.65-1.65,1.65Z"/>
      <path class="cls-1" d="M865.05,346.93h-3.4c-.91,0-1.65-.74-1.65-1.65s.74-1.65,1.65-1.65h3.4c.91,0,1.65.74,1.65,1.65s-.74,1.65-1.65,1.65Z"/>
      <path class="cls-1" d="M876.05,346.93h-3.4c-.91,0-1.65-.74-1.65-1.65s.74-1.65,1.65-1.65h3.4c.91,0,1.65.74,1.65,1.65s-.74,1.65-1.65,1.65Z"/>
      <path class="cls-1" d="M953.47,367.82c-.91,0-1.65-.74-1.65-1.65v-13.75c0-.91.74-1.65,1.65-1.65s1.65.74,1.65,1.65v13.75c0,.91-.74,1.65-1.65,1.65Z"/>
      <path class="cls-1" d="M953.47,360.93c-.46,0-.91-.19-1.24-.56-.6-.68-.54-1.73.15-2.33l7.15-6.31c.68-.6,1.73-.54,2.33.15.6.68.54,1.73-.15,2.33l-7.15,6.31c-.31.28-.7.41-1.09.41Z"/>
      <path class="cls-1" d="M947.42,355.73c-6.37,0-11.55-5.18-11.55-11.55,0-4.18,2.22-7.95,5.77-9.99-.18-.68-.27-1.38-.27-2.1,0-4.55,3.7-8.25,8.25-8.25,2.48,0,4.8,1.12,6.35,2.99,1.3-.52,2.69-.79,4.09-.79.91,0,1.65.74,1.65,1.65s-.74,1.65-1.65,1.65c-1.34,0-2.67.35-3.83,1.02-.38.22-.84.28-1.27.16-.43-.12-.79-.41-1-.8-.87-1.59-2.54-2.59-4.35-2.59-2.73,0-4.95,2.22-4.95,4.95,0,.78.17,1.51.51,2.19.21.41.23.89.07,1.32s-.5.77-.92.95c-3.13,1.27-5.15,4.27-5.15,7.64,0,4.55,3.7,8.25,8.25,8.25,4,0,7.42-2.86,8.12-6.8.08-.46.35-.86.75-1.11s.88-.31,1.33-.18c.14.04.28.08.42.14.71.3,1.12,1.06.98,1.82-.03.17-.05.38-.05.63,0,2.43,1.97,4.4,4.4,4.4s4.4-1.97,4.4-4.4c0-1.2-.47-2.32-1.34-3.16-.59-.58-.67-1.5-.17-2.17.99-1.33,1.51-2.91,1.51-4.57s-.56-3.35-1.61-4.71c-.56-.72-.43-1.76.29-2.31s1.76-.43,2.32.29c1.51,1.94,2.3,4.27,2.3,6.73,0,1.93-.49,3.78-1.43,5.42.93,1.3,1.43,2.84,1.43,4.48,0,4.24-3.45,7.7-7.7,7.7-2.78,0-5.22-1.48-6.57-3.69-2.11,2.93-5.55,4.79-9.37,4.79Z"/>
      <path class="cls-1" d="M1047.49,365.62h-6.36c-2.12,0-3.85-1.73-3.85-3.85v-9.34c0-.3-.25-.55-.55-.55h-2.7c-.3,0-.55.25-.55.55v9.34c0,2.12-1.73,3.85-3.85,3.85h-.84c-3.33,0-6.05-2.71-6.05-6.05v-15.4h3.3v15.4c0,1.52,1.23,2.75,2.75,2.75h.84c.3,0,.55-.25.55-.55v-9.34c0-2.12,1.73-3.85,3.85-3.85h2.7c2.12,0,3.85,1.73,3.85,3.85v9.34c0,.3.25.55.55.55h6.36c1.52,0,2.75-1.23,2.75-2.75v-15.4h3.3v15.4c0,3.33-2.71,6.05-6.05,6.05Z"/>
      <path class="cls-1" d="M1053.61,340.33h-30.92c-1.16,0-2.24-.51-2.98-1.41-.73-.9-1.02-2.06-.8-3.19l1.32-6.6c.36-1.79,1.94-3.09,3.77-3.09h16.62c.91,0,1.65.74,1.65,1.65s-.74,1.65-1.65,1.65h-16.62c-.26,0-.49.19-.54.44l-1.32,6.6c-.04.22.05.38.11.46s.2.2.43.2h30.92c.23,0,.36-.13.43-.2s.16-.23.11-.46l-1.32-6.6c-.05-.26-.28-.44-.54-.44h-3.3c-.91,0-1.65-.74-1.65-1.65s.74-1.65,1.65-1.65h3.3c1.83,0,3.42,1.3,3.77,3.09l1.32,6.6c.23,1.13-.06,2.3-.8,3.19-.73.9-1.82,1.41-2.98,1.41Z"/>
      <g>
        <path class="cls-1" d="M1026.48,345.53c-3.27,0-5.93-2.66-5.93-5.93h3.3c0,1.45,1.18,2.63,2.63,2.63s2.63-1.18,2.63-2.63h3.3c0,3.27-2.66,5.93-5.93,5.93Z"/>
        <path class="cls-1" d="M1038.14,345.53c-3.27,0-5.93-2.66-5.93-5.93h3.3c0,1.45,1.18,2.63,2.63,2.63s2.63-1.18,2.63-2.63h3.3c0,3.27-2.66,5.93-5.93,5.93Z"/>
        <path class="cls-1" d="M1049.81,345.53c-3.27,0-5.93-2.66-5.93-5.93h3.3c0,1.45,1.18,2.63,2.63,2.63s2.63-1.18,2.63-2.63h3.3c0,3.27-2.66,5.93-5.93,5.93Z"/>
      </g>
      <path class="cls-1" d="M1045.29,355.18c-.91,0-1.65-.74-1.65-1.65v-3.3c0-.91.74-1.65,1.65-1.65s1.65.74,1.65,1.65v3.3c0,.91-.74,1.65-1.65,1.65Z"/>
      <path class="cls-1" d="M1136.04,349.68h-21.47c-.91,0-1.65-.74-1.65-1.65s.74-1.65,1.65-1.65h21.47c.24,0,.45-.16.53-.39l3.05-9.9c.07-.23-.02-.4-.08-.49-.06-.08-.2-.22-.44-.22h-4.41c-.91,0-1.65-.74-1.65-1.65s.74-1.65,1.65-1.65h4.41c1.23,0,2.36.57,3.1,1.56s.95,2.24.58,3.42l-3.05,9.9c-.5,1.63-1.98,2.72-3.68,2.72Z"/>
      <path class="cls-1" d="M1126.28,335.38h-15.01c-.91,0-1.65-.74-1.65-1.65s.74-1.65,1.65-1.65h15.01c.91,0,1.65.74,1.65,1.65s-.74,1.65-1.65,1.65Z"/>
      <path class="cls-1" d="M1137.11,357.93h-20.34c-.74,0-1.39-.49-1.59-1.2l-6.98-24.61h-3.53c-.91,0-1.65-.74-1.65-1.65s.74-1.65,1.65-1.65h4.77c.74,0,1.39.49,1.59,1.2l6.98,24.61h19.1c.91,0,1.65.74,1.65,1.65s-.74,1.65-1.65,1.65Z"/>
      <path class="cls-1" d="M1115.67,365.62c-3.03,0-5.5-2.47-5.5-5.5s2.47-5.5,5.5-5.5,5.5,2.47,5.5,5.5-2.47,5.5-5.5,5.5ZM1115.67,357.93c-1.21,0-2.2.99-2.2,2.2s.99,2.2,2.2,2.2,2.2-.99,2.2-2.2-.99-2.2-2.2-2.2Z"/>
      <path class="cls-1" d="M1137.11,365.62c-3.03,0-5.5-2.47-5.5-5.5s2.47-5.5,5.5-5.5,5.5,2.47,5.5,5.5-2.47,5.5-5.5,5.5ZM1137.11,357.93c-1.21,0-2.2.99-2.2,2.2s.99,2.2,2.2,2.2,2.2-.99,2.2-2.2-.99-2.2-2.2-2.2Z"/>
      <path class="cls-1" d="M22.05,475.59c-12.13,0-21.99-9.87-21.99-21.99s9.87-21.99,21.99-21.99c6.75,0,13.02,3.03,17.23,8.32.57.71.45,1.75-.27,2.32-.71.57-1.75.45-2.32-.27-3.57-4.49-8.91-7.07-14.64-7.07-10.31,0-18.69,8.39-18.69,18.69s8.39,18.69,18.69,18.69,18.69-8.39,18.69-18.69c0-.91.74-1.65,1.65-1.65s1.65.74,1.65,1.65c0,12.13-9.87,21.99-21.99,21.99Z"/>
      <path class="cls-1" d="M22.05,456.9c-4.85,0-8.8-3.95-8.8-8.8s3.95-8.8,8.8-8.8,8.8,3.95,8.8,8.8-3.95,8.8-8.8,8.8ZM22.05,442.6c-3.03,0-5.5,2.47-5.5,5.5s2.47,5.5,5.5,5.5,5.5-2.47,5.5-5.5-2.47-5.5-5.5-5.5Z"/>
      <path class="cls-1" d="M7.98,467.98l-2.56-2.08c4.09-5.02,10.15-7.9,16.63-7.9s12.53,2.88,16.63,7.9l-2.56,2.08c-3.46-4.25-8.59-6.69-14.07-6.69s-10.61,2.44-14.07,6.69Z"/>
      <path class="cls-1" d="M106.54,475.59c-.73,0-1.37-.48-1.58-1.17-.21-.7.06-1.45.66-1.85.02-.01.08-.07.09-.09,6.23-4.82,9.81-12.1,9.81-19.98,0-6.78-2.64-13.14-7.44-17.91-.5-.5-.63-1.26-.32-1.89.31-.63.99-1.01,1.68-.92,3.74.46,7.32,1.89,10.36,4.14.73.54.89,1.57.34,2.31s-1.58.89-2.31.34c-1.25-.93-2.61-1.69-4.05-2.27,3.27,4.72,5.02,10.32,5.02,16.2,0,7.22-2.65,13.99-7.4,19.2,8.03-2.09,14-9.44,14-18.1,0-1.67-.22-3.33-.66-4.93-.24-.88.28-1.79,1.16-2.03.88-.24,1.78.28,2.03,1.16.51,1.88.77,3.83.77,5.8,0,12.02-9.78,21.89-21.79,21.99h-.39Z"/>
      <rect class="cls-1" x="86.38" y="451.95" width="40.69" height="3.3"/>
      <path class="cls-1" d="M118.82,445.9h-29.69c-.91,0-1.65-.74-1.65-1.65s.74-1.65,1.65-1.65h29.69c.91,0,1.65.74,1.65,1.65s-.74,1.65-1.65,1.65Z"/>
      <rect class="cls-1" x="88.03" y="461.29" width="37.39" height="3.3"/>
      <rect class="cls-1" x="105.07" y="433.25" width="3.3" height="40.69"/>
      <path class="cls-1" d="M106,475.31c-.11-.07-.2-.15-.3-.24-7.02-5.43-11.06-13.67-11.06-22.58,0-7.67,2.99-14.86,8.42-20.25l.39-.39.55-.07c1.78-.24,3.69-.24,5.47,0l-.44,3.27c-1.33-.18-2.72-.2-4.05-.06-4.55,4.72-7.05,10.92-7.05,17.51,0,7.88,3.57,15.17,9.81,19.98l.14.12-1.88,2.71Z"/>
      <path class="cls-1" d="M106.54,475.59h-.01c-12.02-.11-21.79-9.97-21.79-21.99,0-11.09,8.29-20.47,19.27-21.82.7-.09,1.38.28,1.68.92.31.63.18,1.39-.32,1.89-4.8,4.77-7.44,11.13-7.44,17.91,0,7.88,3.57,15.17,9.81,19.98.4.31.63.77.64,1.27,0,.5-.21.98-.59,1.3l-1.06-1.26,1.03,1.29c-.1.09-.2.17-.3.24-.27.18-.59.28-.91.28ZM99.66,436.29c-6.87,2.8-11.63,9.56-11.63,17.31,0,8.66,5.96,16,14,18.09-4.75-5.21-7.4-11.98-7.4-19.19,0-5.88,1.76-11.48,5.03-16.21Z"/>
      <path class="cls-1" d="M191.4,475.59c-12.13,0-21.99-9.87-21.99-21.99,0-2.97.58-5.85,1.73-8.56.35-.84,1.32-1.23,2.16-.88.84.35,1.23,1.32.88,2.16-.97,2.3-1.47,4.75-1.47,7.28,0,10.31,8.39,18.69,18.69,18.69s18.69-8.39,18.69-18.69-8.39-18.69-18.69-18.69c-2.84,0-5.57.62-8.1,1.84-.82.4-1.81.05-2.2-.77-.4-.82-.05-1.81.77-2.2,2.99-1.44,6.2-2.17,9.54-2.17,12.13,0,21.99,9.87,21.99,21.99s-9.87,21.99-21.99,21.99Z"/>
      <path class="cls-1" d="M189.2,459.53c-.42,0-.84-.16-1.17-.48l-4.18-4.18c-.64-.64-.64-1.69,0-2.33.64-.64,1.69-.64,2.33,0l3.01,3.01,7.41-7.41c.64-.64,1.69-.64,2.33,0,.64.64.64,1.69,0,2.33l-8.58,8.58c-.32.32-.74.48-1.17.48Z"/>
      <g>
        <path class="cls-1" d="M276.07,475.59c-.42,0-.84-.02-1.26-.04-1.7-.12-3.13-1.37-3.48-3.06l-.83-4.01c-.34-.13-.68-.27-1.01-.42l-3.41,2.24c-1.46.96-3.39.82-4.69-.35-.58-.53-1.15-1.09-1.67-1.67-1.16-1.3-1.31-3.22-.35-4.69l2.24-3.41c-.15-.33-.29-.67-.42-1.01l-4.01-.83c-1.68-.35-2.94-1.78-3.06-3.48-.03-.42-.04-.84-.04-1.26s.02-.84.04-1.26c.11-1.7,1.37-3.13,3.06-3.48l4.01-.83c.13-.34.27-.68.42-1.01l-2.24-3.41c-.96-1.46-.82-3.39.35-4.69.53-.58,1.09-1.15,1.67-1.67,1.3-1.16,3.22-1.31,4.68-.35l3.41,2.24c.33-.15.67-.29,1.01-.42l.83-4.01c.35-1.68,1.78-2.94,3.48-3.06.83-.06,1.69-.06,2.52,0,1.7.12,3.13,1.37,3.48,3.06l.83,4.01c.34.13.68.27,1.01.42l3.41-2.24c1.46-.96,3.39-.81,4.69.35.58.53,1.15,1.09,1.67,1.67,1.16,1.3,1.31,3.22.35,4.69l-2.24,3.41c.15.33.29.67.42,1.01l4.01.83c1.68.35,2.94,1.78,3.06,3.48.03.42.04.84.04,1.26s-.02.84-.04,1.26c-.12,1.7-1.37,3.13-3.06,3.48l-4.01.83c-.13.34-.27.68-.42,1.01l2.24,3.41c.96,1.46.82,3.39-.35,4.69-.53.58-1.09,1.15-1.67,1.67-1.3,1.16-3.22,1.31-4.69.35l-3.41-2.24c-.33.15-.67.29-1.01.42l-.83,4.01c-.35,1.68-1.78,2.94-3.48,3.06-.42.03-.84.04-1.26.04ZM269.44,464.68c.41,0,.82.09,1.21.28.4.19.81.36,1.23.51.93.33,1.59,1.09,1.79,2.03l.9,4.32c.05.24.25.42.47.44.69.05,1.39.05,2.07,0,.22-.02.42-.2.47-.44l.9-4.32c.2-.94.87-1.7,1.79-2.03.42-.15.83-.32,1.23-.51.88-.42,1.89-.36,2.7.17l3.67,2.41c.21.14.49.12.67-.04.5-.45.98-.93,1.42-1.42.16-.18.18-.46.04-.67l-2.41-3.67c-.53-.81-.59-1.82-.17-2.7.19-.4.36-.81.51-1.23.33-.93,1.09-1.59,2.03-1.79l4.32-.9c.24-.05.42-.25.44-.47.02-.34.04-.69.04-1.04s-.01-.69-.04-1.04c-.02-.22-.2-.42-.44-.47l-4.32-.9c-.94-.2-1.7-.87-2.03-1.79-.15-.42-.32-.83-.51-1.23-.42-.88-.36-1.89.17-2.7l2.41-3.67c.14-.21.12-.49-.04-.67-.45-.5-.93-.98-1.42-1.42-.18-.16-.46-.18-.67-.04l-3.67,2.41c-.81.53-1.82.59-2.7.17-.4-.19-.81-.36-1.23-.51-.92-.33-1.59-1.09-1.79-2.03l-.9-4.32c-.05-.24-.25-.42-.47-.44-.69-.05-1.39-.05-2.07,0-.22.02-.42.2-.47.44l-.9,4.32c-.2.94-.87,1.7-1.79,2.03-.42.15-.83.32-1.23.51-.88.42-1.89.36-2.7-.17l-3.67-2.41c-.21-.14-.49-.12-.67.04-.5.45-.98.93-1.42,1.42-.16.18-.18.46-.04.67l2.41,3.67c.53.81.59,1.82.17,2.7-.19.4-.36.81-.51,1.23-.33.92-1.09,1.59-2.03,1.79l-4.32.9c-.24.05-.42.25-.44.47-.02.34-.04.69-.04,1.04s.01.69.04,1.04c.02.22.2.42.44.47l4.32.9c.94.2,1.7.87,2.03,1.79.15.42.32.83.51,1.23.42.88.36,1.89-.17,2.7l-2.41,3.67c-.14.21-.12.49.04.67.45.5.93.98,1.42,1.42.18.16.46.18.67.04l3.67-2.41c.45-.3.97-.45,1.49-.45Z"/>
        <g>
          <path class="cls-1" d="M276.07,462.94c-5.15,0-9.35-4.19-9.35-9.35s4.19-9.35,9.35-9.35c.91,0,1.65.74,1.65,1.65s-.74,1.65-1.65,1.65c-3.33,0-6.05,2.71-6.05,6.05s2.71,6.05,6.05,6.05,6.05-2.71,6.05-6.05c0-.94-.21-1.84-.62-2.67-.4-.82-.07-1.81.75-2.21.82-.4,1.81-.07,2.21.75.64,1.29.96,2.68.96,4.13,0,5.15-4.19,9.35-9.35,9.35Z"/>
          <g>
            <path class="cls-1" d="M276.07,451.4c-1.21,0-2.2.99-2.2,2.2s.99,2.2,2.2,2.2,2.2-.99,2.2-2.2-.99-2.2-2.2-2.2ZM276.07,454.7c-.6,0-1.1-.49-1.1-1.1s.49-1.1,1.1-1.1,1.1.49,1.1,1.1-.49,1.1-1.1,1.1Z"/>
            <circle class="cls-1" cx="276.07" cy="453.6" r="1.1"/>
          </g>
        </g>
      </g>
      <g>
        <path class="cls-1" d="M360.75,457.84c-.61,0-1.22-.14-1.77-.43l-15.89-8.22c-1.28-.66-2.07-1.96-2.07-3.4s.79-2.74,2.07-3.4l1.52-.79c.81-.42,1.8-.1,2.22.71.42.81.1,1.8-.71,2.22l-1.52.79c-.25.13-.29.35-.29.47s.04.34.28.47l15.89,8.22c.16.08.35.08.51,0l15.89-8.22c.25-.13.28-.35.28-.47s-.04-.34-.28-.47l-15.65-8.1c-.3-.16-.67-.16-.98,0l-7,3.62c-.81.42-1.8.1-2.22-.71-.42-.81-.1-1.8.71-2.22l7-3.62c1.25-.65,2.75-.65,4.01,0l15.65,8.1c1.28.66,2.07,1.96,2.07,3.4s-.79,2.74-2.07,3.4l-15.89,8.22c-.55.29-1.16.43-1.77.43Z"/>
        <path class="cls-1" d="M360.75,465.65c-.61,0-1.22-.14-1.77-.43l-15.89-8.22c-1.27-.66-2.07-1.96-2.07-3.4s.79-2.74,2.07-3.4l3.81-1.97c.48-.25,1.04-.25,1.52,0l12.08,6.25c.16.08.35.08.51,0l12.08-6.25c.48-.25,1.04-.25,1.52,0l3.81,1.97h0c1.27.66,2.07,1.96,2.07,3.4s-.79,2.74-2.07,3.4l-15.89,8.22c-.55.29-1.16.43-1.77.43ZM347.66,451.55l-3.05,1.58c-.25.13-.28.35-.28.47s.04.34.28.47l15.89,8.22c.16.08.35.08.51,0l15.89-8.22c.25-.13.28-.35.28-.47s-.04-.34-.28-.47l-3.05-1.58-11.32,5.86c-1.11.57-2.43.57-3.54,0l-11.32-5.86Z"/>
        <path class="cls-1" d="M360.75,473.39c-.69,0-1.38-.16-2-.49l-15.65-8.1c-1.28-.66-2.07-1.96-2.07-3.4s.79-2.74,2.07-3.4l3.81-1.97c.48-.25,1.04-.25,1.52,0l12.08,6.25c.16.08.35.08.51,0l12.08-6.25c.48-.25,1.04-.25,1.52,0l3.81,1.97c1.28.66,2.07,1.96,2.07,3.4s-.79,2.74-2.07,3.4l-15.65,8.1c-.63.32-1.32.49-2,.49ZM347.66,459.36l-3.05,1.58c-.25.13-.28.35-.28.47s.04.34.28.47l15.65,8.1c.3.16.67.16.98,0l15.65-8.1h0c.25-.13.28-.35.28-.47s-.04-.34-.28-.47l-3.05-1.58-11.32,5.86c-1.11.57-2.43.57-3.54,0l-11.32-5.86Z"/>
      </g>
      <path class="cls-1" d="M454.77,473.39h-18.69c-2.12,0-3.85-1.73-3.85-3.85v-1.1c0-2.12,1.73-3.85,3.85-3.85h18.69c2.12,0,3.85,1.73,3.85,3.85v1.1c0,2.12-1.73,3.85-3.85,3.85ZM436.07,467.89c-.3,0-.55.25-.55.55v1.1c0,.3.25.55.55.55h18.69c.3,0,.55-.25.55-.55v-1.1c0-.3-.25-.55-.55-.55h-18.69Z"/>
      <rect class="cls-1" x="441.02" y="456.35" width="3.3" height="9.35"/>
      <rect class="cls-1" x="446.52" y="456.35" width="3.3" height="9.35"/>
      <path class="cls-1" d="M445.42,458.13c-1.05,0-2.08-.17-3.08-.5-3.87-1.27-7.16-4.86-9.26-10.09-1.17-2.92-1.91-6.3-2.15-9.77-.07-1.06.29-2.1,1.01-2.86.73-.78,1.76-1.23,2.83-1.23h1.51c.91,0,1.65.74,1.65,1.65s-.74,1.65-1.65,1.65h-1.51c-.21,0-.35.11-.42.18-.07.07-.15.19-.13.36.22,3.16.88,6.19,1.92,8.8,1.7,4.25,4.34,7.23,7.23,8.19,1.34.45,2.76.44,4.09,0,2.9-.95,5.54-3.94,7.24-8.19,1.04-2.6,1.71-5.63,1.92-8.77.01-.19-.06-.32-.13-.39-.06-.07-.2-.18-.42-.18h-11.2c-.91,0-1.65-.74-1.65-1.65s.74-1.65,1.65-1.65h11.2c1.07,0,2.1.45,2.83,1.23.72.77,1.08,1.8,1.01,2.84-.24,3.49-.98,6.87-2.15,9.79-2.1,5.23-5.39,8.81-9.26,10.09-.99.33-2.03.5-3.08.5Z"/>
      <path class="cls-1" d="M437.7,450.2l-3.8-1.79c-3.6-1.7-6.26-4.2-7.49-7.03-.52-1.19-.4-2.55.31-3.64.72-1.09,1.92-1.74,3.22-1.74h4.16l.1,1.54c.21,3.13.88,6.17,1.92,8.77l1.56,3.9ZM429.95,439.3c-.26,0-.4.16-.46.25-.06.09-.15.28-.05.52.46,1.07,1.24,2.09,2.27,3.02-.28-1.23-.49-2.5-.64-3.79h-1.12Z"/>
      <path class="cls-1" d="M453.14,450.2l1.56-3.9c1.04-2.6,1.71-5.63,1.92-8.77l.1-1.54h4.16c1.3,0,2.51.65,3.22,1.74.71,1.09.83,2.45.31,3.64h0c-1.23,2.83-3.89,5.33-7.49,7.03l-3.8,1.79ZM459.77,439.3c-.14,1.29-.36,2.56-.64,3.79,1.03-.92,1.8-1.94,2.27-3.02h0c.1-.24.02-.43-.05-.52-.06-.09-.2-.25-.46-.25h-1.12Z"/>
      <path class="cls-1" d="M543.84,473.39h-27.49c-3.33,0-6.05-2.71-6.05-6.05v-8.7c0-.91.74-1.65,1.65-1.65s1.65.74,1.65,1.65v8.7c0,1.52,1.23,2.75,2.75,2.75h27.49c1.52,0,2.75-1.23,2.75-2.75v-27.49c0-1.52-1.23-2.75-2.75-2.75h-27.49c-1.52,0-2.75,1.23-2.75,2.75v8.89c0,.91-.74,1.65-1.65,1.65s-1.65-.74-1.65-1.65v-8.89c0-3.33,2.71-6.05,6.05-6.05h27.49c3.33,0,6.05,2.71,6.05,6.05v27.49c0,3.33-2.71,6.05-6.05,6.05Z"/>
      <rect class="cls-1" x="511.95" y="443.8" width="36.29" height="3.3"/>
      <path class="cls-1" d="M525.95,467.17c-.79,0-1.58-.22-2.28-.65-1.31-.8-2.1-2.2-2.1-3.74v-8.48c0-1.54.78-2.94,2.1-3.74,1.31-.8,2.91-.86,4.28-.16l8.28,4.24c1.47.75,2.38,2.25,2.38,3.9s-.91,3.15-2.38,3.9l-8.28,4.24c-.63.32-1.32.49-2,.49ZM525.96,453.22c-.26,0-.47.1-.57.16-.16.1-.52.38-.52.92v8.48c0,.55.36.83.52.92.16.09.57.29,1.06.04l8.28-4.24c.53-.27.59-.76.59-.96s-.06-.69-.59-.96l-8.28-4.24c-.18-.09-.34-.12-.49-.12Z"/>
      <g>
        <rect class="cls-1" x="524.24" y="438.8" width="11.72" height="3.3" transform="translate(-122.43 662.28) rotate(-58.5)"/>
        <rect class="cls-1" x="533.58" y="438.8" width="11.72" height="3.3" transform="translate(-117.96 670.25) rotate(-58.5)"/>
        <rect class="cls-1" x="514.89" y="438.8" width="11.72" height="3.3" transform="translate(-126.89 654.31) rotate(-58.5)"/>
      </g>
      <path class="cls-1" d="M614.77,467.34c-.3,0-.6-.08-.86-.24l-.92-.56c-2.79-1.7-5.97-2.73-9.22-2.97-1.92-.14-3.43-1.79-3.43-3.75v-11.1c0-.91.74-1.65,1.65-1.65s1.65.74,1.65,1.65v11.1c0,.24.16.45.37.46,3.16.24,6.28,1.12,9.11,2.56v-22.62l-.13-.08c-.75-.46-1.53-.87-2.33-1.23-2.1-.94-4.33-1.52-6.62-1.72-.08,0-.16.02-.23.09-.05.05-.16.17-.16.39v1.46c0,.91-.74,1.65-1.65,1.65s-1.65-.74-1.65-1.65v-1.46c0-1.08.45-2.11,1.24-2.82.75-.69,1.75-1.03,2.75-.94,2.66.24,5.24.91,7.67,2,.93.42,1.84.9,2.71,1.42l.92.56c.49.3.79.83.79,1.41v26.4c0,.6-.32,1.15-.84,1.44-.25.14-.53.21-.81.21Z"/>
      <path class="cls-1" d="M614.77,467.34c-.28,0-.56-.07-.81-.21-.52-.29-.84-.84-.84-1.44v-26.4c0-.58.3-1.11.79-1.41l.92-.56c3.14-1.92,6.73-3.1,10.38-3.42.99-.09,2,.25,2.75.94.79.72,1.24,1.75,1.24,2.82v22.15c0,1.96-1.5,3.61-3.43,3.75-3.25.24-6.43,1.27-9.22,2.97l-.92.56c-.26.16-.56.24-.86.24ZM616.42,440.22v22.62c2.83-1.44,5.94-2.32,9.11-2.56.21-.02.37-.22.37-.46v-22.15c0-.22-.11-.35-.16-.39-.07-.07-.15-.09-.23-.09-3.15.28-6.24,1.3-8.95,2.95l-.13.08Z"/>
      <path class="cls-1" d="M614.77,473.39c-.26,0-.53-.06-.78-.19-6.17-3.29-9.92-3.36-14.31-2.37-1.15.26-2.34-.01-3.26-.75-.92-.73-1.44-1.83-1.44-3v-23.93c0-.91.74-1.65,1.65-1.65s1.65.74,1.65,1.65v23.93c0,.23.13.36.2.42.08.06.24.16.48.11,5.02-1.13,9.54-1.08,16.59,2.68.8.43,1.11,1.43.68,2.23-.3.56-.87.87-1.46.87Z"/>
      <path class="cls-1" d="M614.77,473.39c-.59,0-1.16-.32-1.46-.87-.43-.8-.12-1.8.68-2.23,7.05-3.76,11.57-3.81,16.59-2.68.22.05.4-.05.48-.11.08-.06.2-.2.2-.42v-23.93c0-.91.74-1.65,1.65-1.65s1.65.74,1.65,1.65v23.93c0,1.17-.53,2.27-1.44,3-.92.74-2.12,1.01-3.26.75-4.39-.99-8.14-.92-14.31,2.37-.25.13-.51.19-.78.19Z"/>
      <g>
        <path class="cls-1" d="M690.9,468.29c-1.58,0-3.16-.6-4.35-1.8-2.29-2.29-2.41-5.99-.26-8.42l19.3-21.78c1.44-1.63,3.51-2.6,5.68-2.66,2.13-.08,4.3.78,5.83,2.31s2.38,3.66,2.31,5.83c-.07,2.17-1.04,4.24-2.66,5.68l-21.79,19.3c-1.16,1.03-2.62,1.54-4.07,1.54ZM711.52,436.92s-.1,0-.15,0c-1.28.04-2.46.59-3.31,1.55l-19.3,21.78c-1,1.13-.94,2.84.12,3.9,1.06,1.06,2.78,1.11,3.9.12l21.79-19.3c.96-.85,1.51-2.03,1.55-3.31.04-1.28-.44-2.49-1.35-3.4s-2.03-1.35-3.25-1.35Z"/>
        <path class="cls-1" d="M696.05,451.18c-.36,0-.72-.12-1.02-.35l-11.39-8.98c-.91-.72-1.47-1.8-1.54-2.96-.07-1.16.36-2.29,1.18-3.12l.93-.93c1.22-1.22,3.08-1.54,4.64-.79l.96.46c.82.4,1.17,1.38.77,2.2-.39.82-1.38,1.17-2.2.77l-.95-.46c-.29-.14-.65-.08-.88.15l-.93.93c-.21.21-.23.46-.22.59,0,.13.06.37.29.56l10.16,8.02,3.85-4.34-3.54-1.7c-.82-.39-1.17-1.38-.77-2.2.4-.82,1.38-1.17,2.2-.77l5.51,2.65c.47.22.8.65.9,1.16s-.04,1.03-.38,1.42l-6.34,7.14c-.33.37-.78.55-1.23.55Z"/>
        <path class="cls-1" d="M714.39,470.94c-.08,0-.16,0-.24,0-1.16-.07-2.24-.63-2.96-1.54l-9.95-12.61,9.94-8.82,7.79,16.22c.75,1.56.43,3.42-.79,4.64h0s-.93.93-.93.93c-.76.76-1.8,1.19-2.88,1.19ZM705.77,457.19l8.02,10.16c.19.24.43.28.56.29.13,0,.38-.01.59-.22l.93-.93c.23-.23.29-.58.15-.88l-5.9-12.28-4.34,3.85Z"/>
        <path class="cls-1" d="M686.85,461.58c-.36,0-.73-.12-1.03-.36l-5.55-4.44c-.64-.51-.81-1.4-.4-2.11.41-.71,1.27-1.01,2.02-.72l7.07,2.72c.5.19.88.62,1.01,1.15s0,1.08-.36,1.48l-1.51,1.72c-.33.37-.78.56-1.24.56Z"/>
        <path class="cls-1" d="M697.55,473.39c-.49,0-.97-.22-1.29-.62l-4.44-5.55c-.55-.69-.46-1.69.2-2.27l1.72-1.51c.41-.36.96-.49,1.48-.36.52.13.95.51,1.15,1.01l2.72,7.06c.29.76-.01,1.62-.72,2.02-.26.15-.54.22-.82.22Z"/>
      </g>
      <path class="cls-1" d="M785.77,473.39h-12.1c-5.15,0-9.35-4.19-9.35-9.35v-4.99c0-.91.74-1.65,1.65-1.65s1.65.74,1.65,1.65v4.99c0,3.33,2.71,6.05,6.05,6.05h12.1c3.33,0,6.05-2.71,6.05-6.05v-14.3c0-.3-.25-.55-.55-.55h-23.09c-.3,0-.55.25-.55.55v.83c0,.91-.74,1.65-1.65,1.65s-1.65-.74-1.65-1.65v-.83c0-2.12,1.73-3.85,3.85-3.85h23.09c2.12,0,3.85,1.73,3.85,3.85v14.3c0,5.15-4.19,9.35-9.35,9.35Z"/>
      <path class="cls-1" d="M800.07,464.59h-6.6v-3.3h6.6c.3,0,.55-.25.55-.55v-7.7c0-.3-.25-.55-.55-.55h-6.6v-3.3h6.6c2.12,0,3.85,1.73,3.85,3.85v7.7c0,2.12-1.73,3.85-3.85,3.85Z"/>
      <path class="cls-1" d="M778.07,449.2c-.2,0-.41-.04-.61-.12-.85-.34-1.26-1.3-.92-2.14,1.58-3.96,2.5-6.85.89-10.87-.34-.85.07-1.81.92-2.15.84-.34,1.8.07,2.14.92,2.06,5.14.88,8.92-.89,13.32-.26.64-.88,1.04-1.53,1.04Z"/>
      <g>
        <path class="cls-1" d="M773.84,444.79c-.21,0-.41-.04-.61-.12-.85-.34-1.26-1.3-.92-2.14.55-1.37.55-2.89,0-4.26-.34-.85.07-1.81.92-2.14.85-.34,1.81.07,2.14.92.87,2.17.87,4.55,0,6.72-.26.64-.88,1.04-1.53,1.04Z"/>
        <path class="cls-1" d="M784.84,444.79c-.21,0-.41-.04-.61-.12-.85-.34-1.26-1.3-.92-2.14.55-1.37.55-2.89,0-4.26-.34-.85.07-1.81.92-2.14.85-.34,1.81.07,2.14.92.87,2.17.87,4.55,0,6.72-.26.64-.88,1.04-1.53,1.04Z"/>
      </g>
      <path class="cls-1" d="M848.45,455.94c-.91,0-1.65-.74-1.65-1.65v-3.99h15.98c.91,0,1.65.74,1.65,1.65s-.74,1.65-1.65,1.65h-12.68v.69c0,.91-.74,1.65-1.65,1.65Z"/>
      <path class="cls-1" d="M884.74,471.19h-31.89c-3.33,0-6.05-2.71-6.05-6.05v-3.07c0-.91.74-1.65,1.65-1.65s1.65.74,1.65,1.65v3.07c0,1.52,1.23,2.75,2.75,2.75h31.89c1.52,0,2.75-1.23,2.75-2.75v-11.55h-12.53c-.91,0-1.65-.74-1.65-1.65s.74-1.65,1.65-1.65h15.83v14.85c0,3.33-2.71,6.05-6.05,6.05Z"/>
      <path class="cls-1" d="M890.79,453.05h-3.3v-5.5c0-1.52-1.23-2.75-2.75-2.75h-31.89c-1.52,0-2.75,1.23-2.75,2.75v5.5h-3.3v-5.5c0-3.33,2.71-6.05,6.05-6.05h31.89c3.33,0,6.05,2.71,6.05,6.05v5.5Z"/>
      <path class="cls-1" d="M878.42,443.7h-3.3v-3.85c0-.3-.25-.55-.55-.55h-11.55c-.3,0-.55.25-.55.55v3.85h-3.3v-3.85c0-2.12,1.73-3.85,3.85-3.85h11.55c2.12,0,3.85,1.73,3.85,3.85v3.85Z"/>
      <path class="cls-1" d="M871.68,456.35h-5.77c-2.12,0-3.85-1.73-3.85-3.85v-1.1c0-2.12,1.73-3.85,3.85-3.85h5.77c2.12,0,3.85,1.73,3.85,3.85v1.1c0,2.12-1.73,3.85-3.85,3.85ZM865.91,450.85c-.3,0-.55.25-.55.55v1.1c0,.3.25.55.55.55h5.77c.3,0,.55-.25.55-.55v-1.1c0-.3-.25-.55-.55-.55h-5.77Z"/>
      <path class="cls-1" d="M969.41,434.9h-15.44c-.91,0-1.65-.74-1.65-1.65s.74-1.65,1.65-1.65h15.44c.91,0,1.65.74,1.65,1.65s-.74,1.65-1.65,1.65Z"/>
      <path class="cls-1" d="M946.56,434.9h-9.04c-.91,0-1.65-.74-1.65-1.65s.74-1.65,1.65-1.65h9.04c.91,0,1.65.74,1.65,1.65s-.74,1.65-1.65,1.65Z"/>
      <path class="cls-1" d="M969.41,475.59h-31.89c-.91,0-1.65-.74-1.65-1.65s.74-1.65,1.65-1.65h31.89c.91,0,1.65.74,1.65,1.65s-.74,1.65-1.65,1.65Z"/>
      <path class="cls-1" d="M953.47,454.97c-6.37,0-11.55-5.18-11.55-11.55v-10.17c0-.91.74-1.65,1.65-1.65s1.65.74,1.65,1.65v10.17c0,4.55,3.7,8.25,8.25,8.25s8.25-3.7,8.25-8.25v-10.17c0-.91.74-1.65,1.65-1.65s1.65.74,1.65,1.65v10.17c0,6.37-5.18,11.55-11.55,11.55Z"/>
      <path class="cls-1" d="M963.37,475.04c-.91,0-1.65-.74-1.65-1.65v-10.17c0-4.55-3.7-8.25-8.25-8.25s-8.25,3.7-8.25,8.25v10.17c0,.91-.74,1.65-1.65,1.65s-1.65-.74-1.65-1.65v-10.17c0-6.37,5.18-11.55,11.55-11.55s11.55,5.18,11.55,11.55v10.17c0,.91-.74,1.65-1.65,1.65Z"/>
      <path class="cls-1" d="M963.37,445.35h-19.79c-.91,0-1.65-.74-1.65-1.65s.74-1.65,1.65-1.65h19.79c.91,0,1.65.74,1.65,1.65s-.74,1.65-1.65,1.65Z"/>
      <path class="cls-1" d="M963.37,469.14c-.21,0-.43-.04-.63-.13l-9.26-3.87-9.26,3.87c-.85.35-1.81-.05-2.16-.89-.35-.84.05-1.81.89-2.16l9.9-4.13c.41-.17.86-.17,1.27,0l9.9,4.13c.84.35,1.24,1.32.89,2.16-.26.63-.88,1.01-1.52,1.01Z"/>
      <path class="cls-1" d="M1054.11,473.41h-31.92c-1.34,0-2.57-.68-3.27-1.83-.71-1.14-.77-2.54-.17-3.75l15.96-31.92c.66-1.31,1.98-2.13,3.44-2.13s2.79.82,3.44,2.13l3.32,6.64c.41.82.08,1.81-.74,2.21-.82.41-1.81.08-2.21-.74l-3.32-6.64c-.13-.26-.37-.3-.49-.3s-.36.04-.49.3l-15.96,31.92c-.12.24-.04.44.02.54s.2.26.47.26h31.92c.27,0,.41-.16.47-.26s.14-.3.02-.54l-8.63-17.26c-.41-.82-.08-1.81.74-2.21.82-.4,1.81-.08,2.21.74l8.63,17.26c.6,1.2.54,2.6-.17,3.75-.71,1.14-1.93,1.83-3.27,1.83Z"/>
      <path class="cls-1" d="M1038.14,461.32c-.91,0-1.65-.74-1.65-1.65v-11.61c0-.91.74-1.65,1.65-1.65s1.65.74,1.65,1.65v11.61c0,.91-.74,1.65-1.65,1.65Z"/>
      <path class="cls-1" d="M1038.14,466.87c-.91,0-1.65-.74-1.65-1.65v-.79c0-.91.74-1.65,1.65-1.65s1.65.74,1.65,1.65v.79c0,.91-.74,1.65-1.65,1.65Z"/>
      <path class="cls-1" d="M1122.82,468.99c-8.49,0-15.4-6.91-15.4-15.4s6.91-15.4,15.4-15.4,15.4,6.91,15.4,15.4-6.91,15.4-15.4,15.4ZM1122.82,441.5c-6.67,0-12.1,5.43-12.1,12.1s5.43,12.1,12.1,12.1,12.1-5.43,12.1-12.1-5.43-12.1-12.1-12.1Z"/>
      <path class="cls-1" d="M1114.02,455.25c-.91,0-1.65-.74-1.65-1.65,0-5.76,4.69-10.45,10.45-10.45.91,0,1.65.74,1.65,1.65s-.74,1.65-1.65,1.65c-3.94,0-7.15,3.21-7.15,7.15,0,.91-.74,1.65-1.65,1.65Z"/>
      <g>
        <path class="cls-1" d="M1104.95,455.25h-2.53c-.91,0-1.65-.74-1.65-1.65s.74-1.65,1.65-1.65h2.53c.91,0,1.65.74,1.65,1.65s-.74,1.65-1.65,1.65Z"/>
        <path class="cls-1" d="M1143.22,455.25h-2.53c-.91,0-1.65-.74-1.65-1.65s.74-1.65,1.65-1.65h2.53c.91,0,1.65.74,1.65,1.65s-.74,1.65-1.65,1.65Z"/>
      </g>
      <g>
        <path class="cls-1" d="M1122.82,475.65c-.91,0-1.65-.74-1.65-1.65v-2.53c0-.91.74-1.65,1.65-1.65s1.65.74,1.65,1.65v2.53c0,.91-.74,1.65-1.65,1.65Z"/>
        <path class="cls-1" d="M1122.82,437.38c-.91,0-1.65-.74-1.65-1.65v-2.53c0-.91.74-1.65,1.65-1.65s1.65.74,1.65,1.65v2.53c0,.91-.74,1.65-1.65,1.65Z"/>
      </g>
      <g>
        <path class="cls-1" d="M1137.24,469.67c-.42,0-.84-.16-1.17-.48l-1.79-1.79c-.64-.64-.64-1.69,0-2.33s1.69-.64,2.33,0l1.79,1.79c.64.64.64,1.69,0,2.33-.32.32-.74.48-1.17.48Z"/>
        <path class="cls-1" d="M1110.18,442.61c-.42,0-.84-.16-1.17-.48l-1.79-1.79c-.64-.64-.64-1.69,0-2.33s1.69-.64,2.33,0l1.79,1.79c.64.64.64,1.69,0,2.33-.32.32-.74.48-1.17.48Z"/>
      </g>
      <g>
        <path class="cls-1" d="M1108.39,469.67c-.42,0-.84-.16-1.17-.48-.64-.64-.64-1.69,0-2.33l1.79-1.79c.64-.64,1.69-.64,2.33,0s.64,1.69,0,2.33l-1.79,1.79c-.32.32-.74.48-1.17.48Z"/>
        <path class="cls-1" d="M1135.45,442.61c-.42,0-.84-.16-1.17-.48-.64-.64-.64-1.69,0-2.33l1.79-1.79c.64-.64,1.69-.64,2.33,0s.64,1.69,0,2.33l-1.79,1.79c-.32.32-.74.48-1.17.48Z"/>
      </g>
      <path class="cls-1" d="M40.19,581.16c-.4,0-.79-.14-1.1-.42l-11.28-10.02-11.28,10.02c-.49.43-1.18.54-1.77.27-.59-.27-.97-.85-.97-1.5v-36.29c0-.91.74-1.65,1.65-1.65h20.34c3.33,0,6.05,2.71,6.05,6.05v1.64c0,.91-.74,1.65-1.65,1.65s-1.65-.74-1.65-1.65v-1.64c0-1.52-1.23-2.75-2.75-2.75h-18.69v30.97l9.63-8.56c.63-.56,1.57-.56,2.19,0l9.63,8.56v-15.98c0-.91.74-1.65,1.65-1.65s1.65.74,1.65,1.65v19.65c0,.65-.38,1.24-.97,1.5-.22.1-.45.14-.67.14Z"/>
      <path class="cls-1" d="M15.45,556.95H6.1c-2.12,0-3.85-1.73-3.85-3.85v-5.48c0-3.33,2.71-6.05,6.05-6.05h7.15v3.3h-7.15c-1.52,0-2.75,1.23-2.75,2.75v5.48c0,.3.25.55.55.55h9.35v3.3Z"/>
      <g>
        <path class="cls-1" d="M124.87,572.94h-11.02c-6.35,0-11.52-5.17-11.52-11.52,0-4.53-3.69-8.22-8.22-8.22h-7.72c-.91,0-1.65-.74-1.65-1.65s.74-1.65,1.65-1.65h7.72c6.35,0,11.52,5.17,11.52,11.52,0,4.53,3.69,8.22,8.22,8.22h11.02c.91,0,1.65.74,1.65,1.65s-.74,1.65-1.65,1.65Z"/>
        <path class="cls-1" d="M121.96,578.1c-.42,0-.84-.16-1.17-.48-.64-.64-.64-1.69,0-2.33l3.94-3.94-4.1-4.1c-.64-.64-.64-1.69,0-2.33.64-.64,1.69-.64,2.33,0l5.27,5.27c.64.64.64,1.69,0,2.33l-5.1,5.11c-.32.32-.74.48-1.17.48Z"/>
      </g>
      <g>
        <path class="cls-1" d="M107.48,555.49c-.47,0-.93-.2-1.26-.58-.59-.7-.5-1.74.19-2.32,2.08-1.75,4.72-2.72,7.44-2.72h11.02c.91,0,1.65.74,1.65,1.65s-.74,1.65-1.65,1.65h-11.02c-1.94,0-3.83.69-5.31,1.94-.31.26-.69.39-1.06.39Z"/>
        <path class="cls-1" d="M94.1,572.91h-7.72c-.91,0-1.65-.74-1.65-1.65s.74-1.65,1.65-1.65h7.72c1.99,0,3.91-.72,5.41-2.03.69-.6,1.73-.53,2.33.16.6.69.53,1.73-.16,2.33-2.1,1.84-4.79,2.85-7.58,2.85Z"/>
        <path class="cls-1" d="M121.79,558.38c-.42,0-.84-.16-1.17-.48-.64-.64-.64-1.69,0-2.33l4.1-4.1-3.94-3.94c-.64-.64-.64-1.69,0-2.33.64-.64,1.69-.64,2.33,0l5.1,5.11c.64.64.64,1.69,0,2.33l-5.27,5.27c-.32.32-.74.48-1.17.48Z"/>
      </g>
      <path class="cls-1" d="M173.28,558.71c-.91,0-1.65-.74-1.65-1.65v-4.32c0-3.33,2.71-6.05,6.05-6.05h30.24c.91,0,1.65.74,1.65,1.65s-.74,1.65-1.65,1.65h-30.24c-1.52,0-2.75,1.23-2.75,2.75v4.32c0,.91-.74,1.65-1.65,1.65Z"/>
      <path class="cls-1" d="M204.38,555.31c-.42,0-.84-.16-1.17-.48-.64-.64-.64-1.69,0-2.33l3.96-3.96-4.13-4.13c-.64-.64-.64-1.69,0-2.33.64-.64,1.69-.64,2.33,0l5.29,5.29c.64.64.64,1.69,0,2.33l-5.13,5.13c-.32.32-.74.48-1.17.48Z"/>
      <g>
        <path class="cls-1" d="M205.12,576.04h-30.24c-.91,0-1.65-.74-1.65-1.65s.74-1.65,1.65-1.65h30.24c1.52,0,2.75-1.23,2.75-2.75v-4.32c0-.91.74-1.65,1.65-1.65s1.65.74,1.65,1.65v4.32c0,3.33-2.71,6.05-6.05,6.05Z"/>
        <path class="cls-1" d="M178.58,581.14c-.42,0-.84-.16-1.17-.48l-5.29-5.29c-.64-.64-.64-1.69,0-2.33l5.13-5.13c.64-.64,1.69-.64,2.33,0,.64.64.64,1.69,0,2.33l-3.96,3.96,4.13,4.13c.64.64.64,1.69,0,2.33-.32.32-.74.48-1.17.48Z"/>
      </g>
      <path class="cls-1" d="M193.05,567.96c-.91,0-1.65-.74-1.65-1.65v-6.46l-1.03,1.03c-.64.64-1.69.64-2.33,0-.64-.64-.64-1.69,0-2.33l3.85-3.85c.47-.47,1.18-.61,1.8-.36.62.26,1.02.86,1.02,1.52v10.45c0,.91-.74,1.65-1.65,1.65Z"/>
      <path class="cls-1" d="M294.22,544.87h-36.29c-.91,0-1.65-.74-1.65-1.65s.74-1.65,1.65-1.65h36.29c.91,0,1.65.74,1.65,1.65s-.74,1.65-1.65,1.65Z"/>
      <path class="cls-1" d="M268.38,564.66h-10.45c-.91,0-1.65-.74-1.65-1.65s.74-1.65,1.65-1.65h10.45c.91,0,1.65.74,1.65,1.65s-.74,1.65-1.65,1.65Z"/>
      <g>
        <path class="cls-1" d="M281.02,574.56c-.42,0-.84-.16-1.17-.48-.64-.64-.64-1.69,0-2.33l6.6-6.6c.64-.64,1.69-.64,2.33,0,.64.64.64,1.69,0,2.33l-6.6,6.6c-.32.32-.74.48-1.17.48Z"/>
        <path class="cls-1" d="M287.62,574.56c-.42,0-.84-.16-1.17-.48l-6.6-6.6c-.64-.64-.64-1.69,0-2.33.64-.64,1.69-.64,2.33,0l6.6,6.6c.64.64.64,1.69,0,2.33-.32.32-.74.48-1.17.48Z"/>
      </g>
      <path class="cls-1" d="M294.22,554.77h-36.29c-.91,0-1.65-.74-1.65-1.65s.74-1.65,1.65-1.65h36.29c.91,0,1.65.74,1.65,1.65s-.74,1.65-1.65,1.65Z"/>
      <path class="cls-1" d="M284.32,581.16c-6.37,0-11.55-5.18-11.55-11.55s5.18-11.55,11.55-11.55c.91,0,1.65.74,1.65,1.65s-.74,1.65-1.65,1.65c-4.55,0-8.25,3.7-8.25,8.25s3.7,8.25,8.25,8.25,8.25-3.7,8.25-8.25c0-1.11-.22-2.19-.65-3.21-.35-.84.04-1.81.88-2.16.84-.35,1.81.04,2.16.88.6,1.43.91,2.94.91,4.49,0,6.37-5.18,11.55-11.55,11.55Z"/>
      <path class="cls-1" d="M354.7,559.17h-9.9c-2.12,0-3.85-1.73-3.85-3.85v-2.41c0-.91.74-1.65,1.65-1.65s1.65.74,1.65,1.65v2.41c0,.3.25.55.55.55h9.9c.3,0,.55-.25.55-.55v-9.9c0-.3-.25-.55-.55-.55h-9.9c-.3,0-.55.25-.55.55v.39c0,.91-.74,1.65-1.65,1.65s-1.65-.74-1.65-1.65v-.39c0-2.12,1.73-3.85,3.85-3.85h9.9c2.12,0,3.85,1.73,3.85,3.85v9.9c0,2.12-1.73,3.85-3.85,3.85Z"/>
      <path class="cls-1" d="M376.69,559.17h-9.9c-2.12,0-3.85-1.73-3.85-3.85v-9.9c0-2.12,1.73-3.85,3.85-3.85h9.9c2.12,0,3.85,1.73,3.85,3.85v9.9c0,2.12-1.73,3.85-3.85,3.85ZM366.8,544.87c-.3,0-.55.25-.55.55v9.9c0,.3.25.55.55.55h9.9c.3,0,.55-.25.55-.55v-9.9c0-.3-.25-.55-.55-.55h-9.9Z"/>
      <path class="cls-1" d="M354.7,581.16h-9.9c-2.12,0-3.85-1.73-3.85-3.85v-9.9c0-2.12,1.73-3.85,3.85-3.85h9.9c2.12,0,3.85,1.73,3.85,3.85v9.9c0,2.12-1.73,3.85-3.85,3.85ZM344.8,566.86c-.3,0-.55.25-.55.55v9.9c0,.3.25.55.55.55h9.9c.3,0,.55-.25.55-.55v-9.9c0-.3-.25-.55-.55-.55h-9.9Z"/>
      <path class="cls-1" d="M376.69,581.16h-9.9c-2.12,0-3.85-1.73-3.85-3.85v-9.9c0-2.12,1.73-3.85,3.85-3.85h9.9c2.12,0,3.85,1.73,3.85,3.85v9.9c0,2.12-1.73,3.85-3.85,3.85ZM366.8,566.86c-.3,0-.55.25-.55.55v9.9c0,.3.25.55.55.55h9.9c.3,0,.55-.25.55-.55v-9.9c0-.3-.25-.55-.55-.55h-9.9Z"/>
      <path class="cls-1" d="M449.27,575.66h-17.59c-3.33,0-6.05-2.71-6.05-6.05v-.85c0-.91.74-1.65,1.65-1.65s1.65.74,1.65,1.65v.85c0,1.52,1.23,2.75,2.75,2.75h17.59c1.52,0,2.75-1.23,2.75-2.75v-9.9c0-1.52-1.23-2.75-2.75-2.75h-17.59c-1.52,0-2.75,1.23-2.75,2.75v.73c0,.91-.74,1.65-1.65,1.65s-1.65-.74-1.65-1.65v-.73c0-3.33,2.71-6.05,6.05-6.05h17.59c3.33,0,6.05,2.71,6.05,6.05v9.9c0,3.33-2.71,6.05-6.05,6.05Z"/>
      <path class="cls-1" d="M461.36,573.71c-.41,0-.82-.06-1.21-.2l-7-2.33,1.04-3.13,7,2.33c.23.08.41-.01.5-.08.09-.06.23-.2.23-.45v-10.39c0-.24-.14-.38-.23-.45-.09-.06-.26-.15-.5-.08l-7,2.33-1.04-3.13,7-2.33c1.17-.39,2.47-.19,3.47.53,1,.72,1.6,1.89,1.6,3.12v10.39c0,1.23-.6,2.4-1.6,3.12-.66.48-1.45.73-2.25.73Z"/>
      <path class="cls-1" d="M433.33,556.97c-4.24,0-7.7-3.45-7.7-7.7s3.45-7.7,7.7-7.7,7.7,3.45,7.7,7.7-3.45,7.7-7.7,7.7ZM433.33,544.87c-2.43,0-4.4,1.97-4.4,4.4s1.97,4.4,4.4,4.4,4.4-1.97,4.4-4.4-1.97-4.4-4.4-4.4Z"/>
      <path class="cls-1" d="M447.62,556.97c-4.24,0-7.7-3.45-7.7-7.7s3.45-7.7,7.7-7.7,7.7,3.45,7.7,7.7-3.45,7.7-7.7,7.7ZM447.62,544.87c-2.43,0-4.4,1.97-4.4,4.4s1.97,4.4,4.4,4.4,4.4-1.97,4.4-4.4-1.97-4.4-4.4-4.4Z"/>
      <path class="cls-1" d="M434.98,581.16c-.42,0-.84-.16-1.17-.48-.64-.64-.64-1.69,0-2.33l5.5-5.5c.64-.64,1.69-.64,2.33,0,.64.64.64,1.69,0,2.33l-5.5,5.5c-.32.32-.74.48-1.17.48Z"/>
      <path class="cls-1" d="M445.97,581.16c-.42,0-.84-.16-1.17-.48l-5.5-5.5c-.64-.64-.64-1.69,0-2.33.64-.64,1.69-.64,2.33,0l5.5,5.5c.64.64.64,1.69,0,2.33-.32.32-.74.48-1.17.48Z"/>
      <g>
        <path class="cls-1" d="M540.17,581.25h-25.83c-1.43,0-2.73-.73-3.47-1.95-.74-1.22-.79-2.71-.14-3.98l3.07-5.92c.42-.81,1.41-1.13,2.22-.71.81.42,1.12,1.41.71,2.22l-3.07,5.92c-.17.33-.06.61.03.75.08.14.28.37.65.37h23.12l-11.51-22.22c-.19-.37-.54-.41-.68-.41s-.49.04-.68.41l-4.62,8.92c-.42.81-1.41,1.13-2.22.71-.81-.42-1.12-1.41-.71-2.22l4.62-8.92c.7-1.35,2.08-2.2,3.61-2.2s2.91.84,3.61,2.2l12.76,24.62c.26.51.24,1.12-.06,1.62-.3.49-.83.79-1.41.79Z"/>
        <path class="cls-1" d="M545.84,581.25h-9.64v-3.3h9.64c.39,0,.59-.26.66-.37.08-.14.2-.42.03-.75l-7.29-14.07c-.19-.36-.51-.38-.67-.41-.14,0-.49.04-.69.42l-2.68,5.17-2.93-1.52,2.68-5.17c.71-1.36,2.09-2.19,3.61-2.19h.01c1.52,0,2.9.85,3.59,2.2l7.29,14.06c.66,1.27.61,2.76-.14,3.98-.74,1.23-2.05,1.96-3.48,1.96Z"/>
      </g>
      <path class="cls-1" d="M525.16,555.32c-.91,0-1.65-.74-1.65-1.65v-10.45c0-.91.74-1.65,1.65-1.65s1.65.74,1.65,1.65v10.45c0,.91-.74,1.65-1.65,1.65Z"/>
      <path class="cls-1" d="M536.14,551.47h-11c-.91,0-1.65-.74-1.65-1.65s.74-1.65,1.65-1.65h11c.3,0,.55-.25.55-.55v-2.2c0-.3-.25-.55-.55-.55h-11c-.91,0-1.65-.74-1.65-1.65s.74-1.65,1.65-1.65h11c2.12,0,3.85,1.73,3.85,3.85v2.2c0,2.12-1.73,3.85-3.85,3.85Z"/>
      <path class="cls-1" d="M525.15,564.66c-2.15,0-4.31-.48-6.25-1.37l-1.56-.73,4.32-8.35c.7-1.36,2.08-2.2,3.61-2.2h.01c1.53,0,2.91.85,3.6,2.21l4.26,8.23-1.53.74c-2.03.98-4.21,1.47-6.47,1.47ZM521.91,560.9c2.18.63,4.55.6,6.68-.06l-2.65-5.11c-.19-.37-.5-.42-.68-.42-.14,0-.49.04-.68.42l-2.68,5.17Z"/>
      <path class="cls-1" d="M602.12,570.16h-3.3c-3.33,0-6.05-2.71-6.05-6.05v-5.5c0-3.33,2.71-6.05,6.05-6.05h3.3c.91,0,1.65.74,1.65,1.65v14.3c0,.91-.74,1.65-1.65,1.65ZM598.83,555.87c-1.52,0-2.75,1.23-2.75,2.75v5.5c0,1.52,1.23,2.75,2.75,2.75h1.65v-11h-1.65Z"/>
      <path class="cls-1" d="M615.45,579c-1.18,0-2.36-.33-3.42-.99-.05-.03-.1-.07-.15-.1l-10.78-8.53c-.71-.57-.84-1.6-.27-2.32.56-.71,1.6-.84,2.32-.27l10.7,8.46c.98.58,2.14.59,3.14.04,1.02-.57,1.63-1.6,1.63-2.77v-22.33c0-1.17-.61-2.2-1.63-2.77-1-.55-2.16-.54-3.14.04l-1.63,1.29c-.71.56-1.75.44-2.32-.27s-.44-1.75.27-2.32l1.71-1.35s.1-.07.15-.1c2.02-1.26,4.47-1.33,6.56-.17,2.08,1.15,3.33,3.27,3.33,5.65v22.33c0,2.38-1.24,4.5-3.33,5.65-.99.55-2.07.82-3.14.82Z"/>
      <path class="cls-1" d="M602.13,556.3c-.49,0-.97-.21-1.3-.63-.56-.71-.44-1.75.27-2.32l3.08-2.44c.72-.57,1.75-.44,2.32.27.56.71.44,1.75-.27,2.32l-3.08,2.44c-.3.24-.66.36-1.02.36Z"/>
      <path class="cls-1" d="M626.87,574.97c-.67,0-1.29-.41-1.54-1.07-.32-.85.11-1.8.96-2.13,4.3-1.63,7.18-5.81,7.18-10.41s-2.89-8.78-7.18-10.41c-.85-.32-1.28-1.27-.96-2.13.32-.85,1.28-1.28,2.13-.96,5.57,2.11,9.31,7.53,9.31,13.49s-3.74,11.39-9.31,13.49c-.19.07-.39.11-.58.11Z"/>
      <path class="cls-1" d="M626.87,567.1c-.53,0-1.06-.26-1.38-.74-.5-.76-.29-1.78.47-2.29.91-.6,1.46-1.61,1.46-2.7s-.55-2.1-1.46-2.7c-.76-.5-.97-1.53-.47-2.29.5-.76,1.52-.97,2.29-.47,1.84,1.22,2.94,3.26,2.94,5.46s-1.1,4.24-2.94,5.46c-.28.19-.6.27-.91.27Z"/>
      <g>
        <path class="cls-1" d="M704.68,560.81h-10.46c-1.83,0-3.32-1.49-3.32-3.32v-5.86c0-1.83,1.49-3.32,3.32-3.32h10.46c1.83,0,3.32,1.49,3.32,3.32v5.86c0,1.83-1.49,3.32-3.32,3.32ZM694.22,551.61l-.02.44v5.44l10.48.02.02-5.88-10.48-.02Z"/>
        <path class="cls-1" d="M705.91,550.38h-3.3v-4.71c0-.47-.39-.86-.86-.86h-4.6c-.47,0-.86.39-.86.86v4.71h-3.3v-4.71c0-2.29,1.87-4.16,4.16-4.16h4.6c2.29,0,4.16,1.87,4.16,4.16v4.71Z"/>
      </g>
      <path class="cls-1" d="M713.19,581.16h-2.75c-.91,0-1.65-.74-1.65-1.65s.74-1.65,1.65-1.65h2.75c1.52,0,2.75-1.23,2.75-2.75v-5.5c0-1.52-1.23-2.75-2.75-2.75h-27.49c-1.52,0-2.75,1.23-2.75,2.75v5.5c0,1.52,1.23,2.75,2.75,2.75h16.22c.91,0,1.65.74,1.65,1.65s-.74,1.65-1.65,1.65h-16.22c-3.33,0-6.05-2.71-6.05-6.05v-5.5c0-3.33,2.71-6.05,6.05-6.05h27.49c3.33,0,6.05,2.71,6.05,6.05v5.5c0,3.33-2.71,6.05-6.05,6.05Z"/>
      <g>
        <g>
          <path class="cls-1" d="M690.92,576.49c-.42,0-.84-.16-1.17-.48l-4.95-4.95c-.64-.64-.64-1.69,0-2.33.64-.64,1.69-.64,2.33,0l4.95,4.95c.64.64.64,1.69,0,2.33-.32.32-.74.48-1.17.48Z"/>
          <path class="cls-1" d="M685.97,576.49c-.42,0-.84-.16-1.17-.48-.64-.64-.64-1.69,0-2.33l4.95-4.95c.64-.64,1.69-.64,2.33,0,.64.64.64,1.69,0,2.33l-4.95,4.95c-.32.32-.74.48-1.17.48Z"/>
        </g>
        <g>
          <path class="cls-1" d="M701.92,576.49c-.42,0-.84-.16-1.17-.48l-4.95-4.95c-.64-.64-.64-1.69,0-2.33.64-.64,1.69-.64,2.33,0l4.95,4.95c.64.64.64,1.69,0,2.33-.32.32-.74.48-1.17.48Z"/>
          <path class="cls-1" d="M696.97,576.49c-.42,0-.84-.16-1.17-.48-.64-.64-.64-1.69,0-2.33l4.95-4.95c.64-.64,1.69-.64,2.33,0,.64.64.64,1.69,0,2.33l-4.95,4.95c-.32.32-.74.48-1.17.48Z"/>
        </g>
        <g>
          <path class="cls-1" d="M712.92,576.49c-.42,0-.84-.16-1.17-.48l-4.95-4.95c-.64-.64-.64-1.69,0-2.33.64-.64,1.69-.64,2.33,0l4.95,4.95c.64.64.64,1.69,0,2.33-.32.32-.74.48-1.17.48Z"/>
          <path class="cls-1" d="M707.97,576.49c-.42,0-.84-.16-1.17-.48-.64-.64-.64-1.69,0-2.33l4.95-4.95c.64-.64,1.69-.64,2.33,0,.64.64.64,1.69,0,2.33l-4.95,4.95c-.32.32-.74.48-1.17.48Z"/>
        </g>
      </g>
      <g>
        <path class="cls-1" d="M797.92,581.16h-27.49c-3.33,0-6.05-2.71-6.05-6.05v-27.49c0-3.33,2.71-6.05,6.05-6.05h27.49c3.33,0,6.05,2.71,6.05,6.05v8.93c0,.91-.74,1.65-1.65,1.65s-1.65-.74-1.65-1.65v-8.93c0-1.52-1.23-2.75-2.75-2.75h-27.49c-1.52,0-2.75,1.23-2.75,2.75v27.49c0,1.52,1.23,2.75,2.75,2.75h27.49c1.52,0,2.75-1.23,2.75-2.75v-9.23c0-.91.74-1.65,1.65-1.65s1.65.74,1.65,1.65v9.23c0,3.33-2.71,6.05-6.05,6.05Z"/>
        <rect class="cls-1" x="766.02" y="551.44" width="36.29" height="3.3"/>
        <g>
          <path class="cls-1" d="M770.97,545.97c-1.21,0-2.2.99-2.2,2.2s.99,2.2,2.2,2.2,2.2-.99,2.2-2.2-.98-2.2-2.2-2.2ZM770.97,549.27c-.6,0-1.1-.49-1.1-1.1s.49-1.1,1.1-1.1,1.1.49,1.1,1.1-.48,1.1-1.1,1.1Z"/>
          <path class="cls-1" d="M772.07,548.17c0,.6-.48,1.1-1.1,1.1s-1.1-.49-1.1-1.1.49-1.1,1.1-1.1,1.1.49,1.1,1.1Z"/>
        </g>
        <g>
          <path class="cls-1" d="M776.47,545.97c-1.21,0-2.2.99-2.2,2.2s.99,2.2,2.2,2.2,2.2-.99,2.2-2.2-.98-2.2-2.2-2.2ZM776.47,549.27c-.6,0-1.1-.49-1.1-1.1s.49-1.1,1.1-1.1,1.1.49,1.1,1.1-.48,1.1-1.1,1.1Z"/>
          <path class="cls-1" d="M777.57,548.17c0,.6-.48,1.1-1.1,1.1s-1.1-.49-1.1-1.1.49-1.1,1.1-1.1,1.1.49,1.1,1.1Z"/>
        </g>
        <g>
          <path class="cls-1" d="M781.96,545.97c-1.21,0-2.2.99-2.2,2.2s.99,2.2,2.2,2.2,2.2-.99,2.2-2.2-.98-2.2-2.2-2.2ZM781.96,549.27c-.6,0-1.1-.49-1.1-1.1s.49-1.1,1.1-1.1,1.1.49,1.1,1.1-.48,1.1-1.1,1.1Z"/>
          <path class="cls-1" d="M783.06,548.17c0,.6-.48,1.1-1.1,1.1s-1.1-.49-1.1-1.1.49-1.1,1.1-1.1,1.1.49,1.1,1.1Z"/>
        </g>
        <g>
          <path class="cls-1" d="M777.02,572.36c-.42,0-.84-.16-1.17-.48l-4.4-4.4c-.64-.64-.64-1.69,0-2.33l4.4-4.4c.64-.64,1.69-.64,2.33,0,.64.64.64,1.69,0,2.33l-3.23,3.23,3.23,3.23c.64.64.64,1.69,0,2.33-.32.32-.74.48-1.17.48Z"/>
          <path class="cls-1" d="M791.32,572.36c-.42,0-.84-.16-1.17-.48-.64-.64-.64-1.69,0-2.33l3.23-3.23-3.23-3.23c-.64-.64-.64-1.69,0-2.33.64-.64,1.69-.64,2.33,0l4.4,4.4c.64.64.64,1.69,0,2.33l-4.4,4.4c-.32.32-.74.48-1.17.48Z"/>
        </g>
        <path class="cls-1" d="M782.47,572.36c-.19,0-.39-.03-.58-.11-.85-.32-1.29-1.27-.97-2.12l3.3-8.8c.32-.85,1.27-1.29,2.12-.96.85.32,1.29,1.27.97,2.12l-3.3,8.8c-.25.66-.88,1.07-1.54,1.07Z"/>
      </g>
      <path class="cls-1" d="M860.55,578.96h-7.7c-3.33,0-6.05-2.71-6.05-6.05v-23.09c0-3.33,2.71-6.05,6.05-6.05h11.81c2.11,0,4.1,1.12,5.19,2.94l.74,1.23c.49.82,1.4,1.33,2.36,1.33h3.01c3.33,0,6.05,2.71,6.05,6.05v.55h-3.3v-.55c0-1.52-1.23-2.75-2.75-2.75h-3.01c-2.11,0-4.1-1.12-5.19-2.94l-.74-1.23c-.49-.82-1.4-1.33-2.36-1.33h-11.81c-1.52,0-2.75,1.23-2.75,2.75v23.09c0,1.52,1.23,2.75,2.75,2.75h7.7v3.3Z"/>
      <path class="cls-1" d="M881.48,579.04h-2.13c-.91,0-1.65-.74-1.65-1.65s.74-1.65,1.65-1.65h2.13c1.27,0,2.38-.85,2.7-2.08l3.22-12.19c.22-.84.04-1.71-.49-2.4-.53-.69-1.34-1.09-2.22-1.09h-28.58c-1.27,0-2.38.85-2.7,2.08l-3.22,12.19c-.22.84-.04,1.71.49,2.4.53.69,1.34,1.09,2.22,1.09h15.65c.91,0,1.65.74,1.65,1.65s-.74,1.65-1.65,1.65h-15.65c-1.91,0-3.67-.87-4.83-2.37-1.16-1.5-1.55-3.42-1.06-5.25l3.22-12.19c.7-2.67,3.13-4.53,5.89-4.53h28.58c1.91,0,3.67.87,4.83,2.37,1.16,1.5,1.55,3.42,1.06,5.25l-3.22,12.19c-.7,2.67-3.13,4.53-5.89,4.53Z"/>
      <path class="cls-1" d="M967.21,581.16h-27.49c-3.33,0-6.05-2.71-6.05-6.05v-27.49c0-3.33,2.71-6.05,6.05-6.05h27.49c3.33,0,6.05,2.71,6.05,6.05v8.99c0,.91-.74,1.65-1.65,1.65s-1.65-.74-1.65-1.65v-8.99c0-1.52-1.23-2.75-2.75-2.75h-27.49c-1.52,0-2.75,1.23-2.75,2.75v27.49c0,1.52,1.23,2.75,2.75,2.75h27.49c1.52,0,2.75-1.23,2.75-2.75v-8.83c0-.91.74-1.65,1.65-1.65s1.65.74,1.65,1.65v8.83c0,3.33-2.71,6.05-6.05,6.05Z"/>
      <rect class="cls-1" x="935.32" y="551.47" width="36.29" height="3.3"/>
      <path class="cls-1" d="M956.22,563.56h-5.5c-2.12,0-3.85-1.73-3.85-3.85v-18.14h13.2v18.14c0,2.12-1.73,3.85-3.85,3.85ZM950.17,544.87v14.85c0,.3.25.55.55.55h5.5c.3,0,.55-.25.55-.55v-14.85h-6.6Z"/>
      <path class="cls-1" d="M956.77,574.56h-14.57c-.91,0-1.65-.74-1.65-1.65s.74-1.65,1.65-1.65h14.57c.91,0,1.65.74,1.65,1.65s-.74,1.65-1.65,1.65Z"/>
      <path class="cls-1" d="M951.54,570.16h-9.35c-.91,0-1.65-.74-1.65-1.65s.74-1.65,1.65-1.65h9.35c.91,0,1.65.74,1.65,1.65s-.74,1.65-1.65,1.65Z"/>
      <path class="cls-1" d="M1056.29,581.16h-36.29c-.91,0-1.65-.74-1.65-1.65s.74-1.65,1.65-1.65h36.29c.91,0,1.65.74,1.65,1.65s-.74,1.65-1.65,1.65Z"/>
      <path class="cls-1" d="M1023.3,575.66c-.91,0-1.65-.74-1.65-1.65v-12.1c0-.91.74-1.65,1.65-1.65s1.65.74,1.65,1.65v12.1c0,.91-.74,1.65-1.65,1.65Z"/>
      <path class="cls-1" d="M1027.7,575.66c-.91,0-1.65-.74-1.65-1.65v-12.1c0-.91.74-1.65,1.65-1.65s1.65.74,1.65,1.65v12.1c0,.91-.74,1.65-1.65,1.65Z"/>
      <path class="cls-1" d="M1048.59,575.66c-.91,0-1.65-.74-1.65-1.65v-12.1c0-.91.74-1.65,1.65-1.65s1.65.74,1.65,1.65v12.1c0,.91-.74,1.65-1.65,1.65Z"/>
      <path class="cls-1" d="M1052.99,575.66c-.91,0-1.65-.74-1.65-1.65v-12.1c0-.91.74-1.65,1.65-1.65s1.65.74,1.65,1.65v12.1c0,.91-.74,1.65-1.65,1.65Z"/>
      <g>
        <path class="cls-1" d="M1038.14,555.32c-.91,0-1.65-.74-1.65-1.65v-3.85c0-.91.74-1.65,1.65-1.65s1.65.74,1.65,1.65v3.85c0,.91-.74,1.65-1.65,1.65Z"/>
        <path class="cls-1" d="M1038.14,575.66c-.91,0-1.65-.74-1.65-1.65v-3.85c0-.91.74-1.65,1.65-1.65s1.65.74,1.65,1.65v3.85c0,.91-.74,1.65-1.65,1.65Z"/>
        <g>
          <path class="cls-1" d="M1038.14,563.56c-3.49,0-6.32-2.59-6.32-5.77s2.84-5.77,6.32-5.77,6.32,2.59,6.32,5.77c0,.91-.74,1.65-1.65,1.65s-1.65-.74-1.65-1.65c0-1.36-1.36-2.47-3.02-2.47s-3.02,1.11-3.02,2.47,1.36,2.47,3.02,2.47c.91,0,1.65.74,1.65,1.65s-.74,1.65-1.65,1.65Z"/>
          <path class="cls-1" d="M1038.14,571.81c-3.49,0-6.32-2.59-6.32-5.77,0-.91.74-1.65,1.65-1.65s1.65.74,1.65,1.65c0,1.36,1.36,2.47,3.02,2.47s3.02-1.11,3.02-2.47-1.36-2.47-3.02-2.47c-.91,0-1.65-.74-1.65-1.65s.74-1.65,1.65-1.65c3.49,0,6.32,2.59,6.32,5.77s-2.84,5.77-6.32,5.77Z"/>
        </g>
      </g>
      <path class="cls-1" d="M1053.87,557.58h-2.52c-.91,0-1.65-.74-1.65-1.65s.74-1.65,1.65-1.65h2.52c.52,0,.69-.37.74-.58.05-.22.07-.62-.39-.86l-14.62-7.57c-.91-.47-2.01-.47-2.92,0l-14.62,7.57c-.46.24-.44.64-.39.86.05.22.22.58.74.58h2.52c.91,0,1.65.74,1.65,1.65s-.74,1.65-1.65,1.65h-2.52c-1.91,0-3.5-1.25-3.95-3.1-.45-1.86.38-3.69,2.08-4.57l14.62-7.57c1.86-.96,4.09-.96,5.95,0l14.62,7.57c1.7.88,2.53,2.71,2.08,4.57-.45,1.85-2.04,3.1-3.95,3.1Z"/>
      <path class="cls-1" d="M1138.76,559.17h-9.9c-2.12,0-3.85-1.73-3.85-3.85v-9.9c0-2.12,1.73-3.85,3.85-3.85h2.41c.91,0,1.65.74,1.65,1.65s-.74,1.65-1.65,1.65h-2.41c-.3,0-.55.25-.55.55v9.9c0,.3.25.55.55.55h9.9c.3,0,.55-.25.55-.55v-9.9c0-.3-.25-.55-.55-.55h-.39c-.91,0-1.65-.74-1.65-1.65s.74-1.65,1.65-1.65h.39c2.12,0,3.85,1.73,3.85,3.85v9.9c0,2.12-1.73,3.85-3.85,3.85Z"/>
      <path class="cls-1" d="M1116.77,559.17h-9.9c-2.12,0-3.85-1.73-3.85-3.85v-9.9c0-2.12,1.73-3.85,3.85-3.85h9.9c2.12,0,3.85,1.73,3.85,3.85v9.9c0,2.12-1.73,3.85-3.85,3.85ZM1106.87,544.87c-.3,0-.55.25-.55.55v9.9c0,.3.25.55.55.55h9.9c.3,0,.55-.25.55-.55v-9.9c0-.3-.25-.55-.55-.55h-9.9Z"/>
      <path class="cls-1" d="M1116.77,581.16h-9.9c-2.12,0-3.85-1.73-3.85-3.85v-9.9c0-2.12,1.73-3.85,3.85-3.85h9.9c2.12,0,3.85,1.73,3.85,3.85v9.9c0,2.12-1.73,3.85-3.85,3.85ZM1106.87,566.86c-.3,0-.55.25-.55.55v9.9c0,.3.25.55.55.55h9.9c.3,0,.55-.25.55-.55v-9.9c0-.3-.25-.55-.55-.55h-9.9Z"/>
      <path class="cls-1" d="M1112.4,552.02h-1.15c-.91,0-1.65-.74-1.65-1.65s.74-1.65,1.65-1.65h1.15c.91,0,1.65.74,1.65,1.65s-.74,1.65-1.65,1.65Z"/>
      <path class="cls-1" d="M1112.4,574.01h-1.15c-.91,0-1.65-.74-1.65-1.65s.74-1.65,1.65-1.65h1.15c.91,0,1.65.74,1.65,1.65s-.74,1.65-1.65,1.65Z"/>
      <path class="cls-1" d="M1134.39,552.02h-1.15c-.91,0-1.65-.74-1.65-1.65s.74-1.65,1.65-1.65h1.15c.91,0,1.65.74,1.65,1.65s-.74,1.65-1.65,1.65Z"/>
      <g>
        <path class="cls-1" d="M1140.96,574.56c-.91,0-1.65-.74-1.65-1.65v-7.7c0-.91.74-1.65,1.65-1.65s1.65.74,1.65,1.65v7.7c0,.91-.74,1.65-1.65,1.65Z"/>
        <path class="cls-1" d="M1140.96,581.16c-.91,0-1.65-.74-1.65-1.65v-1.65c0-.91.74-1.65,1.65-1.65s1.65.74,1.65,1.65v1.65c0,.91-.74,1.65-1.65,1.65Z"/>
        <path class="cls-1" d="M1126.67,581.16c-.91,0-1.65-.74-1.65-1.65v-6.6c0-.91.74-1.65,1.65-1.65s1.65.74,1.65,1.65v6.6c0,.91-.74,1.65-1.65,1.65Z"/>
        <path class="cls-1" d="M1126.67,569.06c-.91,0-1.65-.74-1.65-1.65v-2.2c0-.91.74-1.65,1.65-1.65s1.65.74,1.65,1.65v2.2c0,.91-.74,1.65-1.65,1.65Z"/>
      </g>
      <path class="cls-1" d="M1133.81,581.16c-.91,0-1.65-.74-1.65-1.65v-14.3c0-.91.74-1.65,1.65-1.65s1.65.74,1.65,1.65v14.3c0,.91-.74,1.65-1.65,1.65Z"/>
    </g>
  </g>
</svg>