<?xml version="1.0" encoding="utf-8"?>
<!-- Generator: Adobe Illustrator 26.2.1, SVG Export Plug-In . SVG Version: 6.00 Build 0)  -->
<svg version="1.1" id="Layer_1" xmlns="http://www.w3.org/2000/svg" xmlns:xlink="http://www.w3.org/1999/xlink" x="0px" y="0px"
	 viewBox="0 0 1087.4 323" style="enable-background:new 0 0 1087.4 323;" xml:space="preserve">
<style type="text/css">
	.st0{fill:#434349;}
	.st1{fill:#FFFFFF;}
	.st2{fill:none;stroke:#52525C;stroke-width:3;stroke-linecap:round;stroke-miterlimit:10;}
	.st3{fill:#52525C;}
</style>
<rect x="0" y="140" class="st0" width="160" height="43"/>
<g>
	<g>
		<path class="st1" d="M45.2,165.3v-10.2h1.2v4.5h5.4v-4.5h1.2v10.2h-1.2v-4.6h-5.4v4.6H45.2z"/>
		<path class="st1" d="M58.5,165.5c-0.7,0-1.3-0.2-1.8-0.5c-0.5-0.3-0.9-0.8-1.2-1.4c-0.3-0.6-0.4-1.3-0.4-2.1
			c0-0.8,0.1-1.5,0.4-2.1s0.7-1.1,1.2-1.4c0.5-0.3,1.1-0.5,1.8-0.5c0.7,0,1.3,0.2,1.8,0.5s0.9,0.8,1.2,1.4s0.4,1.3,0.4,2.1
			c0,0.8-0.1,1.5-0.4,2.1c-0.3,0.6-0.7,1-1.2,1.4S59.2,165.5,58.5,165.5z M58.5,164.4c0.5,0,1-0.1,1.3-0.4c0.3-0.3,0.6-0.6,0.8-1.1
			c0.2-0.4,0.2-0.9,0.2-1.4s-0.1-1-0.2-1.4c-0.2-0.4-0.4-0.8-0.8-1.1c-0.3-0.3-0.8-0.4-1.3-0.4c-0.5,0-1,0.1-1.3,0.4
			c-0.3,0.3-0.6,0.6-0.8,1.1c-0.2,0.4-0.2,0.9-0.2,1.4s0.1,1,0.2,1.4c0.2,0.4,0.4,0.8,0.8,1.1C57.5,164.3,57.9,164.4,58.5,164.4z"/>
		<path class="st1" d="M63.7,165.3v-7.6h1.1v1.2h0.1c0.2-0.4,0.4-0.7,0.8-1c0.4-0.2,0.8-0.3,1.3-0.3c0.5,0,0.9,0.1,1.3,0.3
			s0.6,0.5,0.8,1h0.1c0.2-0.4,0.5-0.7,0.9-0.9c0.4-0.2,0.9-0.4,1.4-0.4c0.7,0,1.2,0.2,1.7,0.6c0.4,0.4,0.7,1.1,0.7,2v5.1h-1.2v-5.1
			c0-0.6-0.2-1-0.5-1.2s-0.7-0.4-1.1-0.4c-0.5,0-1,0.2-1.2,0.5c-0.3,0.3-0.4,0.7-0.4,1.2v5h-1.2v-5.2c0-0.4-0.1-0.8-0.4-1.1
			c-0.3-0.3-0.6-0.4-1.1-0.4c-0.3,0-0.6,0.1-0.9,0.2c-0.3,0.2-0.5,0.4-0.6,0.7s-0.2,0.6-0.2,1v4.8H63.7z"/>
		<path class="st1" d="M79.1,165.5c-0.7,0-1.4-0.2-1.9-0.5c-0.5-0.3-0.9-0.8-1.2-1.4s-0.4-1.3-0.4-2.1s0.1-1.5,0.4-2.1
			s0.7-1.1,1.2-1.4c0.5-0.3,1.1-0.5,1.8-0.5c0.4,0,0.8,0.1,1.2,0.2c0.4,0.1,0.7,0.3,1.1,0.6c0.3,0.3,0.6,0.7,0.8,1.2
			s0.3,1.1,0.3,1.8v0.5h-5.9v-1h4.7c0-0.4-0.1-0.8-0.3-1.2c-0.2-0.3-0.4-0.6-0.7-0.8c-0.3-0.2-0.7-0.3-1.1-0.3
			c-0.5,0-0.9,0.1-1.2,0.3c-0.3,0.2-0.6,0.5-0.8,0.9c-0.2,0.4-0.3,0.8-0.3,1.2v0.7c0,0.6,0.1,1.1,0.3,1.5s0.5,0.7,0.8,0.9
			s0.8,0.3,1.2,0.3c0.3,0,0.6,0,0.8-0.1c0.2-0.1,0.5-0.2,0.6-0.4c0.2-0.2,0.3-0.4,0.4-0.7l1.1,0.3c-0.1,0.4-0.3,0.7-0.6,1
			c-0.3,0.3-0.6,0.5-1,0.7C80.1,165.4,79.6,165.5,79.1,165.5z"/>
		<path class="st1" d="M84,168.2v-10.5h1.1v1.2h0.1c0.1-0.1,0.2-0.3,0.4-0.5c0.2-0.2,0.4-0.4,0.7-0.6s0.7-0.2,1.2-0.2
			c0.6,0,1.2,0.2,1.7,0.5c0.5,0.3,0.9,0.8,1.1,1.4c0.3,0.6,0.4,1.3,0.4,2.1c0,0.8-0.1,1.5-0.4,2.1c-0.3,0.6-0.7,1-1.1,1.4
			s-1,0.5-1.7,0.5c-0.5,0-0.9-0.1-1.2-0.2s-0.5-0.4-0.7-0.6s-0.3-0.4-0.4-0.5h-0.1v4H84z M85.2,161.5c0,0.6,0.1,1.1,0.3,1.5
			c0.2,0.4,0.4,0.8,0.7,1c0.3,0.2,0.7,0.4,1.2,0.4c0.5,0,0.9-0.1,1.2-0.4c0.3-0.3,0.6-0.6,0.7-1.1c0.2-0.4,0.3-0.9,0.3-1.5
			c0-0.5-0.1-1-0.2-1.5s-0.4-0.8-0.7-1c-0.3-0.3-0.7-0.4-1.2-0.4c-0.5,0-0.9,0.1-1.2,0.4c-0.3,0.2-0.6,0.6-0.7,1
			C85.3,160.4,85.2,160.9,85.2,161.5z"/>
		<path class="st1" d="M94.8,165.5c-0.5,0-0.9-0.1-1.3-0.3c-0.4-0.2-0.7-0.5-0.9-0.8s-0.3-0.8-0.3-1.3c0-0.4,0.1-0.8,0.3-1.1
			c0.2-0.3,0.4-0.5,0.7-0.6c0.3-0.2,0.6-0.3,1-0.4c0.3-0.1,0.7-0.1,1.1-0.2c0.5-0.1,0.8-0.1,1.1-0.1c0.3,0,0.5-0.1,0.6-0.2
			s0.2-0.2,0.2-0.4v0c0-0.5-0.1-0.9-0.4-1.1c-0.3-0.3-0.7-0.4-1.2-0.4c-0.6,0-1,0.1-1.3,0.4c-0.3,0.2-0.5,0.5-0.7,0.8l-1.1-0.4
			c0.2-0.5,0.5-0.8,0.8-1.1c0.3-0.3,0.7-0.4,1.1-0.5s0.8-0.2,1.2-0.2c0.2,0,0.5,0,0.8,0.1c0.3,0.1,0.6,0.2,0.9,0.4
			c0.3,0.2,0.5,0.4,0.7,0.8c0.2,0.4,0.3,0.8,0.3,1.5v5h-1.2v-1h-0.1c-0.1,0.2-0.2,0.3-0.4,0.5s-0.4,0.3-0.7,0.5
			C95.6,165.4,95.3,165.5,94.8,165.5z M95,164.4c0.5,0,0.9-0.1,1.2-0.3s0.6-0.4,0.7-0.7c0.2-0.3,0.2-0.6,0.2-0.9v-1.1
			c0,0.1-0.2,0.1-0.3,0.2c-0.2,0-0.4,0.1-0.6,0.1c-0.2,0-0.4,0.1-0.6,0.1c-0.2,0-0.4,0-0.5,0.1c-0.3,0-0.6,0.1-0.9,0.2
			c-0.3,0.1-0.5,0.2-0.6,0.4s-0.2,0.4-0.2,0.7c0,0.4,0.2,0.7,0.5,0.9S94.5,164.4,95,164.4z"/>
		<path class="st1" d="M103.5,168.3c-0.6,0-1.1-0.1-1.5-0.2c-0.4-0.1-0.7-0.3-1-0.6c-0.3-0.2-0.5-0.5-0.6-0.7l0.9-0.7
			c0.1,0.1,0.2,0.3,0.4,0.5c0.2,0.2,0.4,0.3,0.7,0.5c0.3,0.1,0.7,0.2,1.1,0.2c0.6,0,1.1-0.1,1.5-0.4c0.4-0.3,0.6-0.8,0.6-1.4v-1.6
			h-0.1c-0.1,0.1-0.2,0.3-0.4,0.5c-0.2,0.2-0.4,0.4-0.7,0.5s-0.7,0.2-1.2,0.2c-0.6,0-1.2-0.1-1.7-0.4c-0.5-0.3-0.9-0.7-1.2-1.3
			c-0.3-0.6-0.4-1.2-0.4-2c0-0.8,0.1-1.5,0.4-2c0.3-0.6,0.7-1,1.1-1.4c0.5-0.3,1.1-0.5,1.7-0.5c0.5,0,0.9,0.1,1.2,0.2
			s0.5,0.3,0.7,0.6c0.2,0.2,0.3,0.4,0.4,0.5h0.1v-1.2h1.1v7.9c0,0.7-0.1,1.2-0.4,1.6c-0.3,0.4-0.7,0.7-1.2,0.9
			C104.7,168.2,104.2,168.3,103.5,168.3z M103.5,164.1c0.5,0,0.9-0.1,1.2-0.3c0.3-0.2,0.6-0.5,0.7-0.9c0.2-0.4,0.3-0.9,0.3-1.5
			c0-0.5-0.1-1-0.2-1.5c-0.2-0.4-0.4-0.8-0.7-1c-0.3-0.2-0.7-0.4-1.2-0.4c-0.5,0-0.9,0.1-1.2,0.4c-0.3,0.3-0.6,0.6-0.7,1
			s-0.2,0.9-0.2,1.4c0,0.5,0.1,1,0.3,1.4c0.2,0.4,0.4,0.7,0.7,1C102.6,164,103,164.1,103.5,164.1z"/>
		<path class="st1" d="M112.2,165.5c-0.7,0-1.4-0.2-1.9-0.5c-0.5-0.3-0.9-0.8-1.2-1.4s-0.4-1.3-0.4-2.1s0.1-1.5,0.4-2.1
			s0.7-1.1,1.2-1.4c0.5-0.3,1.1-0.5,1.8-0.5c0.4,0,0.8,0.1,1.2,0.2c0.4,0.1,0.7,0.3,1.1,0.6c0.3,0.3,0.6,0.7,0.8,1.2
			s0.3,1.1,0.3,1.8v0.5h-5.9v-1h4.7c0-0.4-0.1-0.8-0.3-1.2c-0.2-0.3-0.4-0.6-0.7-0.8c-0.3-0.2-0.7-0.3-1.1-0.3
			c-0.5,0-0.9,0.1-1.2,0.3c-0.3,0.2-0.6,0.5-0.8,0.9c-0.2,0.4-0.3,0.8-0.3,1.2v0.7c0,0.6,0.1,1.1,0.3,1.5s0.5,0.7,0.8,0.9
			s0.8,0.3,1.2,0.3c0.3,0,0.6,0,0.8-0.1c0.2-0.1,0.5-0.2,0.6-0.4c0.2-0.2,0.3-0.4,0.4-0.7l1.1,0.3c-0.1,0.4-0.3,0.7-0.6,1
			c-0.3,0.3-0.6,0.5-1,0.7C113.2,165.4,112.7,165.5,112.2,165.5z"/>
	</g>
</g>
<rect x="379" y="140" class="st0" width="160" height="43"/>
<g>
	<g>
		<path class="st1" d="M415.8,165.3v-10.2h6.1v1.1h-4.9v3.4h4.6v1.1h-4.6v3.5h5v1.1H415.8z"/>
		<path class="st1" d="M424.9,157.7l1.8,3.1l1.8-3.1h1.4l-2.5,3.8l2.5,3.8h-1.4l-1.8-3l-1.8,3h-1.4l2.4-3.8l-2.4-3.8H424.9z"/>
		<path class="st1" d="M431.6,168.2v-10.5h1.1v1.2h0.1c0.1-0.1,0.2-0.3,0.4-0.5c0.2-0.2,0.4-0.4,0.7-0.6s0.7-0.2,1.2-0.2
			c0.6,0,1.2,0.2,1.7,0.5c0.5,0.3,0.9,0.8,1.1,1.4c0.3,0.6,0.4,1.3,0.4,2.1c0,0.8-0.1,1.5-0.4,2.1c-0.3,0.6-0.7,1-1.1,1.4
			s-1,0.5-1.7,0.5c-0.5,0-0.9-0.1-1.2-0.2s-0.5-0.4-0.7-0.6s-0.3-0.4-0.4-0.5h-0.1v4H431.6z M432.7,161.5c0,0.6,0.1,1.1,0.3,1.5
			c0.2,0.4,0.4,0.8,0.7,1c0.3,0.2,0.7,0.4,1.2,0.4c0.5,0,0.9-0.1,1.2-0.4c0.3-0.3,0.6-0.6,0.7-1.1c0.2-0.4,0.3-0.9,0.3-1.5
			c0-0.5-0.1-1-0.2-1.5s-0.4-0.8-0.7-1c-0.3-0.3-0.7-0.4-1.2-0.4c-0.5,0-0.9,0.1-1.2,0.4c-0.3,0.2-0.6,0.6-0.7,1
			C432.8,160.4,432.7,160.9,432.7,161.5z"/>
		<path class="st1" d="M441.3,155.1v10.2h-1.2v-10.2H441.3z"/>
		<path class="st1" d="M446.6,165.5c-0.7,0-1.3-0.2-1.8-0.5c-0.5-0.3-0.9-0.8-1.2-1.4c-0.3-0.6-0.4-1.3-0.4-2.1
			c0-0.8,0.1-1.5,0.4-2.1s0.7-1.1,1.2-1.4c0.5-0.3,1.1-0.5,1.8-0.5c0.7,0,1.3,0.2,1.8,0.5s0.9,0.8,1.2,1.4s0.4,1.3,0.4,2.1
			c0,0.8-0.1,1.5-0.4,2.1c-0.3,0.6-0.7,1-1.2,1.4S447.2,165.5,446.6,165.5z M446.6,164.4c0.5,0,1-0.1,1.3-0.4
			c0.3-0.3,0.6-0.6,0.8-1.1c0.2-0.4,0.2-0.9,0.2-1.4s-0.1-1-0.2-1.4c-0.2-0.4-0.4-0.8-0.8-1.1c-0.3-0.3-0.8-0.4-1.3-0.4
			c-0.5,0-1,0.1-1.3,0.4c-0.3,0.3-0.6,0.6-0.8,1.1c-0.2,0.4-0.2,0.9-0.2,1.4s0.1,1,0.2,1.4c0.2,0.4,0.4,0.8,0.8,1.1
			C445.6,164.3,446,164.4,446.6,164.4z"/>
		<path class="st1" d="M451.8,165.3v-7.6h1.1v1.2h0.1c0.1-0.4,0.4-0.7,0.8-0.9s0.8-0.4,1.2-0.4c0.1,0,0.2,0,0.3,0c0.1,0,0.2,0,0.3,0
			v1.2c0,0-0.1,0-0.3,0c-0.1,0-0.3,0-0.4,0c-0.4,0-0.7,0.1-1,0.2c-0.3,0.2-0.5,0.4-0.7,0.6c-0.2,0.3-0.3,0.6-0.3,0.9v4.8H451.8z"/>
		<path class="st1" d="M460.2,165.5c-0.7,0-1.4-0.2-1.9-0.5c-0.5-0.3-0.9-0.8-1.2-1.4s-0.4-1.3-0.4-2.1s0.1-1.5,0.4-2.1
			s0.7-1.1,1.2-1.4c0.5-0.3,1.1-0.5,1.8-0.5c0.4,0,0.8,0.1,1.2,0.2c0.4,0.1,0.7,0.3,1.1,0.6c0.3,0.3,0.6,0.7,0.8,1.2
			s0.3,1.1,0.3,1.8v0.5h-5.9v-1h4.7c0-0.4-0.1-0.8-0.3-1.2c-0.2-0.3-0.4-0.6-0.7-0.8c-0.3-0.2-0.7-0.3-1.1-0.3
			c-0.5,0-0.9,0.1-1.2,0.3c-0.3,0.2-0.6,0.5-0.8,0.9c-0.2,0.4-0.3,0.8-0.3,1.2v0.7c0,0.6,0.1,1.1,0.3,1.5s0.5,0.7,0.8,0.9
			s0.8,0.3,1.2,0.3c0.3,0,0.6,0,0.8-0.1c0.2-0.1,0.5-0.2,0.6-0.4c0.2-0.2,0.3-0.4,0.4-0.7l1.1,0.3c-0.1,0.4-0.3,0.7-0.6,1
			c-0.3,0.3-0.6,0.5-1,0.7C461.2,165.4,460.7,165.5,460.2,165.5z"/>
		<path class="st1" d="M470.5,155.1v10.2h-1.2v-10.2H470.5z"/>
		<path class="st1" d="M475.9,165.5c-0.7,0-1.3-0.2-1.8-0.5c-0.5-0.3-0.9-0.8-1.2-1.4c-0.3-0.6-0.4-1.3-0.4-2c0-0.8,0.1-1.5,0.4-2.1
			c0.3-0.6,0.7-1.1,1.2-1.4c0.5-0.3,1.1-0.5,1.8-0.5c0.5,0,1,0.1,1.5,0.3s0.8,0.5,1.1,0.8c0.3,0.4,0.4,0.8,0.5,1.3h-1.2
			c-0.1-0.3-0.3-0.7-0.6-0.9c-0.3-0.3-0.7-0.4-1.2-0.4c-0.5,0-0.9,0.1-1.2,0.4c-0.3,0.2-0.6,0.6-0.8,1c-0.2,0.4-0.3,0.9-0.3,1.5
			c0,0.6,0.1,1.1,0.3,1.5c0.2,0.4,0.5,0.8,0.8,1c0.3,0.2,0.7,0.4,1.2,0.4c0.3,0,0.6-0.1,0.8-0.2c0.2-0.1,0.5-0.3,0.6-0.5
			c0.2-0.2,0.3-0.4,0.4-0.7h1.2c-0.1,0.5-0.2,0.9-0.5,1.2c-0.3,0.4-0.6,0.6-1,0.9S476.5,165.5,475.9,165.5z"/>
		<path class="st1" d="M483.7,165.5c-0.7,0-1.3-0.2-1.8-0.5c-0.5-0.3-0.9-0.8-1.2-1.4c-0.3-0.6-0.4-1.3-0.4-2.1
			c0-0.8,0.1-1.5,0.4-2.1s0.7-1.1,1.2-1.4c0.5-0.3,1.1-0.5,1.8-0.5c0.7,0,1.3,0.2,1.8,0.5s0.9,0.8,1.2,1.4s0.4,1.3,0.4,2.1
			c0,0.8-0.1,1.5-0.4,2.1c-0.3,0.6-0.7,1-1.2,1.4S484.4,165.5,483.7,165.5z M483.7,164.4c0.5,0,1-0.1,1.3-0.4
			c0.3-0.3,0.6-0.6,0.8-1.1c0.2-0.4,0.2-0.9,0.2-1.4s-0.1-1-0.2-1.4c-0.2-0.4-0.4-0.8-0.8-1.1c-0.3-0.3-0.8-0.4-1.3-0.4
			c-0.5,0-1,0.1-1.3,0.4c-0.3,0.3-0.6,0.6-0.8,1.1c-0.2,0.4-0.2,0.9-0.2,1.4s0.1,1,0.2,1.4c0.2,0.4,0.4,0.8,0.8,1.1
			C482.8,164.3,483.2,164.4,483.7,164.4z"/>
		<path class="st1" d="M490.1,160.7v4.6H489v-7.6h1.1v1.2h0.1c0.2-0.4,0.5-0.7,0.8-0.9s0.8-0.4,1.4-0.4c0.5,0,1,0.1,1.4,0.3
			c0.4,0.2,0.7,0.5,0.9,1c0.2,0.4,0.3,1,0.3,1.6v4.9h-1.2v-4.8c0-0.6-0.2-1.1-0.5-1.4s-0.7-0.5-1.3-0.5c-0.4,0-0.7,0.1-1,0.2
			c-0.3,0.2-0.5,0.4-0.7,0.7C490.2,159.9,490.1,160.3,490.1,160.7z"/>
		<path class="st1" d="M502.6,159.4l-1.1,0.3c-0.1-0.2-0.2-0.3-0.3-0.5c-0.1-0.2-0.3-0.3-0.5-0.4s-0.5-0.2-0.8-0.2
			c-0.5,0-0.9,0.1-1.2,0.3c-0.3,0.2-0.5,0.5-0.5,0.8c0,0.3,0.1,0.5,0.3,0.7s0.5,0.3,1,0.4l1.1,0.3c0.7,0.2,1.2,0.4,1.5,0.8
			c0.3,0.3,0.5,0.8,0.5,1.3c0,0.4-0.1,0.8-0.4,1.2c-0.2,0.3-0.6,0.6-1,0.8c-0.4,0.2-1,0.3-1.6,0.3c-0.8,0-1.4-0.2-1.9-0.5
			c-0.5-0.3-0.8-0.8-1-1.5l1.1-0.3c0.1,0.4,0.3,0.7,0.6,0.9c0.3,0.2,0.7,0.3,1.2,0.3c0.5,0,1-0.1,1.3-0.4c0.3-0.2,0.5-0.5,0.5-0.8
			c0-0.3-0.1-0.5-0.3-0.7c-0.2-0.2-0.5-0.3-0.9-0.4l-1.3-0.3c-0.7-0.2-1.2-0.4-1.5-0.8c-0.3-0.3-0.5-0.8-0.5-1.3
			c0-0.4,0.1-0.8,0.4-1.1s0.6-0.6,1-0.8c0.4-0.2,0.9-0.3,1.4-0.3c0.8,0,1.4,0.2,1.8,0.5C502.1,158.4,502.4,158.8,502.6,159.4z"/>
	</g>
</g>
<line class="st2" x1="159" y1="161.5" x2="379" y2="161.5"/>
<circle class="st3" cx="159" cy="161" r="5"/>
<rect x="609" y="140" class="st0" width="160" height="43"/>
<g>
	<g>
		<path class="st1" d="M652.9,155.1v10.2h-1.2v-10.2H652.9z"/>
		<path class="st1" d="M658.3,165.5c-0.7,0-1.3-0.2-1.8-0.5c-0.5-0.3-0.9-0.8-1.2-1.4s-0.4-1.3-0.4-2c0-0.8,0.1-1.5,0.4-2.1
			c0.3-0.6,0.7-1.1,1.2-1.4s1.1-0.5,1.8-0.5c0.5,0,1,0.1,1.5,0.3s0.8,0.5,1.1,0.8c0.3,0.4,0.4,0.8,0.5,1.3h-1.2
			c-0.1-0.3-0.3-0.7-0.6-0.9c-0.3-0.3-0.7-0.4-1.2-0.4c-0.5,0-0.9,0.1-1.2,0.4c-0.3,0.2-0.6,0.6-0.8,1c-0.2,0.4-0.3,0.9-0.3,1.5
			c0,0.6,0.1,1.1,0.3,1.5c0.2,0.4,0.5,0.8,0.8,1c0.3,0.2,0.7,0.4,1.2,0.4c0.3,0,0.6-0.1,0.8-0.2c0.2-0.1,0.5-0.3,0.6-0.5
			c0.2-0.2,0.3-0.4,0.4-0.7h1.2c-0.1,0.5-0.2,0.9-0.5,1.2c-0.3,0.4-0.6,0.6-1,0.9S658.9,165.5,658.3,165.5z"/>
		<path class="st1" d="M666.1,165.5c-0.7,0-1.3-0.2-1.8-0.5c-0.5-0.3-0.9-0.8-1.2-1.4c-0.3-0.6-0.4-1.3-0.4-2.1
			c0-0.8,0.1-1.5,0.4-2.1c0.3-0.6,0.7-1.1,1.2-1.4c0.5-0.3,1.1-0.5,1.8-0.5c0.7,0,1.3,0.2,1.8,0.5s0.9,0.8,1.2,1.4s0.4,1.3,0.4,2.1
			c0,0.8-0.1,1.5-0.4,2.1c-0.3,0.6-0.7,1-1.2,1.4S666.8,165.5,666.1,165.5z M666.1,164.4c0.5,0,1-0.1,1.3-0.4
			c0.3-0.3,0.6-0.6,0.8-1.1s0.2-0.9,0.2-1.4s-0.1-1-0.2-1.4c-0.2-0.4-0.4-0.8-0.8-1.1c-0.3-0.3-0.8-0.4-1.3-0.4
			c-0.5,0-1,0.1-1.3,0.4c-0.3,0.3-0.6,0.6-0.8,1.1c-0.2,0.4-0.2,0.9-0.2,1.4s0.1,1,0.2,1.4c0.2,0.4,0.4,0.8,0.8,1.1
			C665.2,164.3,665.6,164.4,666.1,164.4z"/>
		<path class="st1" d="M672.5,160.7v4.6h-1.2v-7.6h1.1v1.2h0.1c0.2-0.4,0.5-0.7,0.8-0.9s0.8-0.4,1.4-0.4c0.5,0,1,0.1,1.4,0.3
			c0.4,0.2,0.7,0.5,0.9,1c0.2,0.4,0.3,1,0.3,1.6v4.9h-1.2v-4.8c0-0.6-0.2-1.1-0.5-1.4s-0.7-0.5-1.3-0.5c-0.4,0-0.7,0.1-1,0.2
			c-0.3,0.2-0.5,0.4-0.7,0.7C672.6,159.9,672.5,160.3,672.5,160.7z"/>
		<path class="st1" d="M686.8,165.3h-3.1v-10.2h3.3c1,0,1.8,0.2,2.5,0.6c0.7,0.4,1.2,1,1.6,1.7s0.6,1.7,0.6,2.7c0,1.1-0.2,2-0.6,2.7
			c-0.4,0.8-0.9,1.4-1.7,1.8C688.7,165.1,687.8,165.3,686.8,165.3z M684.9,164.2h1.8c0.8,0,1.5-0.2,2.1-0.5c0.6-0.3,1-0.8,1.2-1.4
			c0.3-0.6,0.4-1.3,0.4-2.1c0-0.8-0.1-1.5-0.4-2.1c-0.3-0.6-0.7-1.1-1.2-1.4s-1.2-0.5-2-0.5h-2V164.2z"/>
		<path class="st1" d="M696.8,165.5c-0.7,0-1.4-0.2-1.9-0.5c-0.5-0.3-0.9-0.8-1.2-1.4s-0.4-1.3-0.4-2.1s0.1-1.5,0.4-2.1
			s0.7-1.1,1.2-1.4c0.5-0.3,1.1-0.5,1.8-0.5c0.4,0,0.8,0.1,1.2,0.2c0.4,0.1,0.7,0.3,1.1,0.6s0.6,0.7,0.8,1.2
			c0.2,0.5,0.3,1.1,0.3,1.8v0.5H694v-1h4.7c0-0.4-0.1-0.8-0.3-1.2c-0.2-0.3-0.4-0.6-0.7-0.8c-0.3-0.2-0.7-0.3-1.1-0.3
			c-0.5,0-0.9,0.1-1.2,0.3c-0.3,0.2-0.6,0.5-0.8,0.9c-0.2,0.4-0.3,0.8-0.3,1.2v0.7c0,0.6,0.1,1.1,0.3,1.5s0.5,0.7,0.8,0.9
			s0.8,0.3,1.2,0.3c0.3,0,0.6,0,0.8-0.1c0.2-0.1,0.5-0.2,0.6-0.4c0.2-0.2,0.3-0.4,0.4-0.7l1.1,0.3c-0.1,0.4-0.3,0.7-0.6,1
			c-0.3,0.3-0.6,0.5-1,0.7S697.3,165.5,696.8,165.5z"/>
		<path class="st1" d="M705,157.7v1h-4v-1H705z M702.2,155.8h1.2v7.3c0,0.3,0,0.6,0.1,0.7c0.1,0.2,0.2,0.3,0.4,0.3s0.3,0.1,0.5,0.1
			c0.1,0,0.2,0,0.3,0c0.1,0,0.1,0,0.2,0l0.2,1.1c-0.1,0-0.2,0.1-0.3,0.1c-0.1,0-0.3,0-0.5,0c-0.3,0-0.7-0.1-1-0.2s-0.6-0.4-0.8-0.7
			s-0.3-0.7-0.3-1.1V155.8z"/>
		<path class="st1" d="M709,165.5c-0.5,0-0.9-0.1-1.3-0.3c-0.4-0.2-0.7-0.5-0.9-0.8s-0.3-0.8-0.3-1.3c0-0.4,0.1-0.8,0.3-1.1
			c0.2-0.3,0.4-0.5,0.7-0.6s0.6-0.3,1-0.4c0.3-0.1,0.7-0.1,1.1-0.2c0.5-0.1,0.8-0.1,1.1-0.1c0.3,0,0.5-0.1,0.6-0.2
			c0.1-0.1,0.2-0.2,0.2-0.4v0c0-0.5-0.1-0.9-0.4-1.1c-0.3-0.3-0.7-0.4-1.2-0.4c-0.6,0-1,0.1-1.3,0.4c-0.3,0.2-0.5,0.5-0.7,0.8
			l-1.1-0.4c0.2-0.5,0.5-0.8,0.8-1.1c0.3-0.3,0.7-0.4,1.1-0.5c0.4-0.1,0.8-0.2,1.2-0.2c0.2,0,0.5,0,0.8,0.1c0.3,0.1,0.6,0.2,0.9,0.4
			c0.3,0.2,0.5,0.4,0.7,0.8c0.2,0.4,0.3,0.8,0.3,1.5v5h-1.2v-1h-0.1c-0.1,0.2-0.2,0.3-0.4,0.5s-0.4,0.3-0.7,0.5
			C709.9,165.4,709.5,165.5,709,165.5z M709.2,164.4c0.5,0,0.9-0.1,1.2-0.3c0.3-0.2,0.6-0.4,0.7-0.7c0.2-0.3,0.2-0.6,0.2-0.9v-1.1
			c0,0.1-0.2,0.1-0.3,0.2c-0.2,0-0.4,0.1-0.6,0.1c-0.2,0-0.4,0.1-0.6,0.1c-0.2,0-0.4,0-0.5,0.1c-0.3,0-0.6,0.1-0.9,0.2
			c-0.3,0.1-0.5,0.2-0.6,0.4s-0.2,0.4-0.2,0.7c0,0.4,0.2,0.7,0.5,0.9S708.8,164.4,709.2,164.4z"/>
		<path class="st1" d="M715.3,156.4c-0.2,0-0.4-0.1-0.6-0.2s-0.2-0.3-0.2-0.6s0.1-0.4,0.2-0.6s0.4-0.2,0.6-0.2s0.4,0.1,0.6,0.2
			s0.2,0.3,0.2,0.6s-0.1,0.4-0.2,0.6S715.5,156.4,715.3,156.4z M714.7,165.3v-7.6h1.2v7.6H714.7z"/>
		<path class="st1" d="M719.2,155.1v10.2H718v-10.2H719.2z"/>
		<path class="st1" d="M726.7,159.4l-1.1,0.3c-0.1-0.2-0.2-0.3-0.3-0.5c-0.1-0.2-0.3-0.3-0.5-0.4s-0.5-0.2-0.8-0.2
			c-0.5,0-0.9,0.1-1.2,0.3s-0.5,0.5-0.5,0.8c0,0.3,0.1,0.5,0.3,0.7c0.2,0.2,0.5,0.3,1,0.4l1.1,0.3c0.7,0.2,1.2,0.4,1.5,0.8
			c0.3,0.3,0.5,0.8,0.5,1.3c0,0.4-0.1,0.8-0.4,1.2s-0.6,0.6-1,0.8c-0.4,0.2-1,0.3-1.6,0.3c-0.8,0-1.4-0.2-1.9-0.5
			c-0.5-0.3-0.8-0.8-1-1.5l1.1-0.3c0.1,0.4,0.3,0.7,0.6,0.9s0.7,0.3,1.2,0.3c0.5,0,1-0.1,1.3-0.4c0.3-0.2,0.5-0.5,0.5-0.8
			c0-0.3-0.1-0.5-0.3-0.7c-0.2-0.2-0.5-0.3-0.9-0.4l-1.3-0.3c-0.7-0.2-1.2-0.4-1.5-0.8c-0.3-0.3-0.5-0.8-0.5-1.3
			c0-0.4,0.1-0.8,0.4-1.1c0.2-0.3,0.6-0.6,1-0.8c0.4-0.2,0.9-0.3,1.4-0.3c0.8,0,1.4,0.2,1.8,0.5
			C726.3,158.4,726.6,158.8,726.7,159.4z"/>
	</g>
</g>
<line class="st2" x1="538" y1="161.5" x2="609" y2="161.5"/>
<circle class="st3" cx="538" cy="161" r="5"/>
<rect x="927.4" y="140" class="st0" width="160" height="43"/>
<g>
	<g>
		<path class="st1" d="M954.4,165.3h-3.1v-10.2h3.3c1,0,1.8,0.2,2.5,0.6c0.7,0.4,1.2,1,1.6,1.7c0.4,0.8,0.6,1.7,0.6,2.7
			c0,1.1-0.2,2-0.6,2.7c-0.4,0.8-0.9,1.4-1.7,1.8C956.3,165.1,955.4,165.3,954.4,165.3z M952.5,164.2h1.8c0.8,0,1.5-0.2,2.1-0.5
			c0.6-0.3,1-0.8,1.2-1.4c0.3-0.6,0.4-1.3,0.4-2.1c0-0.8-0.1-1.5-0.4-2.1c-0.3-0.6-0.7-1.1-1.2-1.4c-0.5-0.3-1.2-0.5-2-0.5h-2V164.2
			z"/>
		<path class="st1" d="M964.2,165.5c-0.7,0-1.3-0.2-1.8-0.5c-0.5-0.3-0.9-0.8-1.2-1.4c-0.3-0.6-0.4-1.3-0.4-2.1
			c0-0.8,0.1-1.5,0.4-2.1s0.7-1.1,1.2-1.4c0.5-0.3,1.1-0.5,1.8-0.5s1.3,0.2,1.8,0.5s0.9,0.8,1.2,1.4s0.4,1.3,0.4,2.1
			c0,0.8-0.1,1.5-0.4,2.1c-0.3,0.6-0.7,1-1.2,1.4S964.9,165.5,964.2,165.5z M964.2,164.4c0.5,0,1-0.1,1.3-0.4
			c0.3-0.3,0.6-0.6,0.8-1.1c0.2-0.4,0.2-0.9,0.2-1.4s-0.1-1-0.2-1.4c-0.2-0.4-0.4-0.8-0.8-1.1c-0.3-0.3-0.8-0.4-1.3-0.4
			s-1,0.1-1.3,0.4c-0.3,0.3-0.6,0.6-0.8,1.1c-0.2,0.4-0.2,0.9-0.2,1.4s0.1,1,0.2,1.4c0.2,0.4,0.4,0.8,0.8,1.1
			C963.3,164.3,963.7,164.4,964.2,164.4z"/>
		<path class="st1" d="M971.2,165.3l-2.3-7.6h1.2l1.7,5.8h0.1l1.6-5.8h1.3l1.6,5.8h0.1l1.7-5.8h1.2l-2.3,7.6h-1.2l-1.7-5.9H974
			l-1.7,5.9H971.2z"/>
		<path class="st1" d="M982,160.7v4.6h-1.2v-7.6h1.1v1.2h0.1c0.2-0.4,0.5-0.7,0.8-0.9c0.4-0.2,0.8-0.4,1.4-0.4c0.5,0,1,0.1,1.4,0.3
			s0.7,0.5,0.9,1c0.2,0.4,0.3,1,0.3,1.6v4.9h-1.2v-4.8c0-0.6-0.2-1.1-0.5-1.4s-0.7-0.5-1.3-0.5c-0.4,0-0.7,0.1-1,0.2
			c-0.3,0.2-0.5,0.4-0.7,0.7S982,160.3,982,160.7z"/>
		<path class="st1" d="M990.2,155.1v10.2H989v-10.2H990.2z"/>
		<path class="st1" d="M995.5,165.5c-0.7,0-1.3-0.2-1.8-0.5c-0.5-0.3-0.9-0.8-1.2-1.4c-0.3-0.6-0.4-1.3-0.4-2.1
			c0-0.8,0.1-1.5,0.4-2.1s0.7-1.1,1.2-1.4c0.5-0.3,1.1-0.5,1.8-0.5s1.3,0.2,1.8,0.5s0.9,0.8,1.2,1.4s0.4,1.3,0.4,2.1
			c0,0.8-0.1,1.5-0.4,2.1c-0.3,0.6-0.7,1-1.2,1.4S996.2,165.5,995.5,165.5z M995.5,164.4c0.5,0,1-0.1,1.3-0.4
			c0.3-0.3,0.6-0.6,0.8-1.1c0.2-0.4,0.2-0.9,0.2-1.4s-0.1-1-0.2-1.4c-0.2-0.4-0.4-0.8-0.8-1.1c-0.3-0.3-0.8-0.4-1.3-0.4
			s-1,0.1-1.3,0.4c-0.3,0.3-0.6,0.6-0.8,1.1c-0.2,0.4-0.2,0.9-0.2,1.4s0.1,1,0.2,1.4c0.2,0.4,0.4,0.8,0.8,1.1
			C994.5,164.3,994.9,164.4,995.5,164.4z"/>
		<path class="st1" d="M1003,165.5c-0.5,0-0.9-0.1-1.3-0.3c-0.4-0.2-0.7-0.5-0.9-0.8c-0.2-0.3-0.3-0.8-0.3-1.3
			c0-0.4,0.1-0.8,0.3-1.1c0.2-0.3,0.4-0.5,0.7-0.6s0.6-0.3,1-0.4c0.3-0.1,0.7-0.1,1.1-0.2c0.5-0.1,0.8-0.1,1.1-0.1
			c0.3,0,0.5-0.1,0.6-0.2c0.1-0.1,0.2-0.2,0.2-0.4v0c0-0.5-0.1-0.9-0.4-1.1c-0.3-0.3-0.7-0.4-1.2-0.4c-0.6,0-1,0.1-1.3,0.4
			c-0.3,0.2-0.5,0.5-0.7,0.8l-1.1-0.4c0.2-0.5,0.5-0.8,0.8-1.1s0.7-0.4,1.1-0.5c0.4-0.1,0.8-0.2,1.2-0.2c0.2,0,0.5,0,0.8,0.1
			c0.3,0.1,0.6,0.2,0.9,0.4c0.3,0.2,0.5,0.4,0.7,0.8s0.3,0.8,0.3,1.5v5h-1.2v-1h-0.1c-0.1,0.2-0.2,0.3-0.4,0.5s-0.4,0.3-0.7,0.5
			C1003.8,165.4,1003.4,165.5,1003,165.5z M1003.1,164.4c0.5,0,0.9-0.1,1.2-0.3c0.3-0.2,0.6-0.4,0.7-0.7c0.2-0.3,0.2-0.6,0.2-0.9
			v-1.1c0,0.1-0.2,0.1-0.3,0.2c-0.2,0-0.4,0.1-0.6,0.1s-0.4,0.1-0.6,0.1c-0.2,0-0.4,0-0.5,0.1c-0.3,0-0.6,0.1-0.9,0.2
			s-0.5,0.2-0.6,0.4c-0.2,0.2-0.2,0.4-0.2,0.7c0,0.4,0.2,0.7,0.5,0.9C1002.3,164.3,1002.7,164.4,1003.1,164.4z"/>
		<path class="st1" d="M1011.5,165.5c-0.6,0-1.2-0.2-1.7-0.5s-0.9-0.8-1.1-1.4c-0.3-0.6-0.4-1.3-0.4-2.1c0-0.8,0.1-1.5,0.4-2.1
			c0.3-0.6,0.7-1,1.1-1.4c0.5-0.3,1.1-0.5,1.7-0.5c0.5,0,0.9,0.1,1.2,0.2s0.5,0.3,0.7,0.6c0.2,0.2,0.3,0.4,0.4,0.5h0.1v-3.8h1.2
			v10.2h-1.1v-1.2h-0.1c-0.1,0.1-0.2,0.3-0.4,0.5s-0.4,0.4-0.7,0.6S1012,165.5,1011.5,165.5z M1011.7,164.4c0.5,0,0.9-0.1,1.2-0.4
			c0.3-0.2,0.6-0.6,0.7-1c0.2-0.4,0.3-0.9,0.3-1.5c0-0.6-0.1-1.1-0.2-1.5c-0.2-0.4-0.4-0.8-0.7-1s-0.7-0.4-1.2-0.4
			c-0.5,0-0.9,0.1-1.2,0.4c-0.3,0.3-0.6,0.6-0.7,1s-0.2,0.9-0.2,1.5c0,0.5,0.1,1,0.3,1.5c0.2,0.4,0.4,0.8,0.7,1.1
			S1011.2,164.4,1011.7,164.4z"/>
		<path class="st1" d="M1021.8,165.3h-1.3l3.7-10.2h1.3l3.7,10.2h-1.3l-3-8.6h-0.1L1021.8,165.3z M1022.3,161.3h5.2v1.1h-5.2V161.3z
			"/>
		<path class="st1" d="M1036.1,159.4l-1.1,0.3c-0.1-0.2-0.2-0.3-0.3-0.5c-0.1-0.2-0.3-0.3-0.5-0.4s-0.5-0.2-0.8-0.2
			c-0.5,0-0.9,0.1-1.2,0.3s-0.5,0.5-0.5,0.8c0,0.3,0.1,0.5,0.3,0.7s0.5,0.3,1,0.4l1.1,0.3c0.7,0.2,1.2,0.4,1.5,0.8
			c0.3,0.3,0.5,0.8,0.5,1.3c0,0.4-0.1,0.8-0.4,1.2c-0.2,0.3-0.6,0.6-1,0.8s-1,0.3-1.6,0.3c-0.8,0-1.4-0.2-1.9-0.5
			c-0.5-0.3-0.8-0.8-1-1.5l1.1-0.3c0.1,0.4,0.3,0.7,0.6,0.9s0.7,0.3,1.2,0.3c0.5,0,1-0.1,1.3-0.4c0.3-0.2,0.5-0.5,0.5-0.8
			c0-0.3-0.1-0.5-0.3-0.7c-0.2-0.2-0.5-0.3-0.9-0.4l-1.3-0.3c-0.7-0.2-1.2-0.4-1.5-0.8s-0.5-0.8-0.5-1.3c0-0.4,0.1-0.8,0.4-1.1
			c0.2-0.3,0.6-0.6,1-0.8c0.4-0.2,0.9-0.3,1.4-0.3c0.8,0,1.3,0.2,1.8,0.5C1035.6,158.4,1035.9,158.8,1036.1,159.4z"/>
		<path class="st1" d="M1043.4,159.4l-1.1,0.3c-0.1-0.2-0.2-0.3-0.3-0.5c-0.1-0.2-0.3-0.3-0.5-0.4s-0.5-0.2-0.8-0.2
			c-0.5,0-0.9,0.1-1.2,0.3c-0.3,0.2-0.5,0.5-0.5,0.8c0,0.3,0.1,0.5,0.3,0.7s0.5,0.3,1,0.4l1.1,0.3c0.7,0.2,1.2,0.4,1.5,0.8
			c0.3,0.3,0.5,0.8,0.5,1.3c0,0.4-0.1,0.8-0.4,1.2s-0.6,0.6-1,0.8c-0.4,0.2-1,0.3-1.6,0.3c-0.8,0-1.4-0.2-1.9-0.5
			c-0.5-0.3-0.8-0.8-1-1.5l1.1-0.3c0.1,0.4,0.3,0.7,0.6,0.9c0.3,0.2,0.7,0.3,1.2,0.3c0.5,0,1-0.1,1.3-0.4c0.3-0.2,0.5-0.5,0.5-0.8
			c0-0.3-0.1-0.5-0.3-0.7s-0.5-0.3-0.9-0.4l-1.3-0.3c-0.7-0.2-1.2-0.4-1.5-0.8c-0.3-0.3-0.5-0.8-0.5-1.3c0-0.4,0.1-0.8,0.4-1.1
			c0.2-0.3,0.6-0.6,1-0.8c0.4-0.2,0.9-0.3,1.4-0.3c0.8,0,1.4,0.2,1.8,0.5C1042.9,158.4,1043.3,158.8,1043.4,159.4z"/>
		<path class="st1" d="M1048.5,165.5c-0.7,0-1.4-0.2-1.9-0.5s-0.9-0.8-1.2-1.4c-0.3-0.6-0.4-1.3-0.4-2.1s0.1-1.5,0.4-2.1
			c0.3-0.6,0.7-1.1,1.2-1.4c0.5-0.3,1.1-0.5,1.8-0.5c0.4,0,0.8,0.1,1.2,0.2c0.4,0.1,0.7,0.3,1.1,0.6s0.6,0.7,0.8,1.2
			c0.2,0.5,0.3,1.1,0.3,1.8v0.5h-5.9v-1h4.7c0-0.4-0.1-0.8-0.3-1.2c-0.2-0.3-0.4-0.6-0.7-0.8c-0.3-0.2-0.7-0.3-1.1-0.3
			c-0.5,0-0.9,0.1-1.2,0.3c-0.3,0.2-0.6,0.5-0.8,0.9c-0.2,0.4-0.3,0.8-0.3,1.2v0.7c0,0.6,0.1,1.1,0.3,1.5c0.2,0.4,0.5,0.7,0.8,0.9
			c0.4,0.2,0.8,0.3,1.2,0.3c0.3,0,0.6,0,0.8-0.1c0.2-0.1,0.5-0.2,0.6-0.4c0.2-0.2,0.3-0.4,0.4-0.7l1.1,0.3c-0.1,0.4-0.3,0.7-0.6,1
			s-0.6,0.5-1,0.7S1049.1,165.5,1048.5,165.5z"/>
		<path class="st1" d="M1056.8,157.7v1h-4v-1H1056.8z M1054,155.8h1.2v7.3c0,0.3,0,0.6,0.1,0.7s0.2,0.3,0.4,0.3s0.3,0.1,0.5,0.1
			c0.1,0,0.2,0,0.3,0c0.1,0,0.1,0,0.2,0l0.2,1.1c-0.1,0-0.2,0.1-0.3,0.1c-0.1,0-0.3,0-0.5,0c-0.3,0-0.7-0.1-1-0.2s-0.6-0.4-0.8-0.7
			c-0.2-0.3-0.3-0.7-0.3-1.1V155.8z"/>
		<path class="st1" d="M1064,159.4l-1.1,0.3c-0.1-0.2-0.2-0.3-0.3-0.5c-0.1-0.2-0.3-0.3-0.5-0.4s-0.5-0.2-0.8-0.2
			c-0.5,0-0.9,0.1-1.2,0.3c-0.3,0.2-0.5,0.5-0.5,0.8c0,0.3,0.1,0.5,0.3,0.7s0.5,0.3,1,0.4l1.1,0.3c0.7,0.2,1.2,0.4,1.5,0.8
			c0.3,0.3,0.5,0.8,0.5,1.3c0,0.4-0.1,0.8-0.4,1.2s-0.6,0.6-1,0.8c-0.4,0.2-1,0.3-1.6,0.3c-0.8,0-1.4-0.2-1.9-0.5
			c-0.5-0.3-0.8-0.8-1-1.5l1.1-0.3c0.1,0.4,0.3,0.7,0.6,0.9c0.3,0.2,0.7,0.3,1.2,0.3c0.5,0,1-0.1,1.3-0.4c0.3-0.2,0.5-0.5,0.5-0.8
			c0-0.3-0.1-0.5-0.3-0.7s-0.5-0.3-0.9-0.4l-1.3-0.3c-0.7-0.2-1.2-0.4-1.5-0.8c-0.3-0.3-0.5-0.8-0.5-1.3c0-0.4,0.1-0.8,0.4-1.1
			c0.2-0.3,0.6-0.6,1-0.8c0.4-0.2,0.9-0.3,1.4-0.3c0.8,0,1.4,0.2,1.8,0.5C1063.5,158.4,1063.8,158.8,1064,159.4z"/>
	</g>
</g>
<rect x="927" y="0" class="st0" width="160" height="43"/>
<g>
	<g>
		<path class="st1" d="M976.9,25.3V15.1h1.2v9.1h4.7v1.1H976.9z"/>
		<path class="st1" d="M985.2,16.4c-0.2,0-0.4-0.1-0.6-0.2s-0.2-0.3-0.2-0.6s0.1-0.4,0.2-0.6s0.4-0.2,0.6-0.2s0.4,0.1,0.6,0.2
			s0.2,0.3,0.2,0.6s-0.1,0.4-0.2,0.6S985.4,16.4,985.2,16.4z M984.6,25.3v-7.6h1.2v7.6H984.6z"/>
		<path class="st1" d="M991,25.5c-0.7,0-1.3-0.2-1.8-0.5c-0.5-0.3-0.9-0.8-1.2-1.4c-0.3-0.6-0.4-1.3-0.4-2c0-0.8,0.1-1.5,0.4-2.1
			c0.3-0.6,0.7-1.1,1.2-1.4c0.5-0.3,1.1-0.5,1.8-0.5c0.5,0,1,0.1,1.5,0.3s0.8,0.5,1.1,0.8c0.3,0.4,0.4,0.8,0.5,1.3h-1.2
			c-0.1-0.3-0.3-0.7-0.6-0.9c-0.3-0.3-0.7-0.4-1.2-0.4c-0.5,0-0.9,0.1-1.2,0.4c-0.3,0.2-0.6,0.6-0.8,1s-0.3,0.9-0.3,1.5
			c0,0.6,0.1,1.1,0.3,1.5s0.5,0.8,0.8,1c0.3,0.2,0.7,0.4,1.2,0.4c0.3,0,0.6-0.1,0.8-0.2c0.2-0.1,0.5-0.3,0.6-0.5
			c0.2-0.2,0.3-0.4,0.4-0.7h1.2c-0.1,0.5-0.2,0.9-0.5,1.2c-0.3,0.4-0.6,0.6-1,0.9S991.6,25.5,991,25.5z"/>
		<path class="st1" d="M998.9,25.5c-0.7,0-1.4-0.2-1.9-0.5c-0.5-0.3-0.9-0.8-1.2-1.4s-0.4-1.3-0.4-2.1s0.1-1.5,0.4-2.1
			s0.7-1.1,1.2-1.4s1.1-0.5,1.8-0.5c0.4,0,0.8,0.1,1.2,0.2c0.4,0.1,0.7,0.3,1.1,0.6c0.3,0.3,0.6,0.7,0.8,1.2
			c0.2,0.5,0.3,1.1,0.3,1.8v0.5h-5.9v-1h4.7c0-0.4-0.1-0.8-0.3-1.2c-0.2-0.3-0.4-0.6-0.7-0.8c-0.3-0.2-0.7-0.3-1.1-0.3
			c-0.5,0-0.9,0.1-1.2,0.3c-0.3,0.2-0.6,0.5-0.8,0.9c-0.2,0.4-0.3,0.8-0.3,1.2v0.7c0,0.6,0.1,1.1,0.3,1.5s0.5,0.7,0.8,0.9
			s0.8,0.3,1.2,0.3c0.3,0,0.6,0,0.8-0.1c0.2-0.1,0.5-0.2,0.6-0.4s0.3-0.4,0.4-0.7l1.1,0.3c-0.1,0.4-0.3,0.7-0.6,1s-0.6,0.5-1,0.7
			C999.9,25.4,999.4,25.5,998.9,25.5z"/>
		<path class="st1" d="M1005.1,20.7v4.6h-1.2v-7.6h1.1v1.2h0.1c0.2-0.4,0.5-0.7,0.8-0.9c0.4-0.2,0.8-0.4,1.4-0.4
			c0.5,0,1,0.1,1.4,0.3c0.4,0.2,0.7,0.5,0.9,1c0.2,0.4,0.3,1,0.3,1.6v4.9h-1.2v-4.8c0-0.6-0.2-1.1-0.5-1.4c-0.3-0.3-0.7-0.5-1.3-0.5
			c-0.4,0-0.7,0.1-1,0.2c-0.3,0.2-0.5,0.4-0.7,0.7C1005.1,19.9,1005.1,20.3,1005.1,20.7z"/>
		<path class="st1" d="M1017.5,19.4l-1.1,0.3c-0.1-0.2-0.2-0.3-0.3-0.5c-0.1-0.2-0.3-0.3-0.5-0.4s-0.5-0.2-0.8-0.2
			c-0.5,0-0.9,0.1-1.2,0.3c-0.3,0.2-0.5,0.5-0.5,0.8c0,0.3,0.1,0.5,0.3,0.7s0.5,0.3,1,0.4l1.1,0.3c0.7,0.2,1.2,0.4,1.5,0.8
			c0.3,0.3,0.5,0.8,0.5,1.3c0,0.4-0.1,0.8-0.4,1.2s-0.6,0.6-1,0.8s-1,0.3-1.6,0.3c-0.8,0-1.4-0.2-1.9-0.5c-0.5-0.3-0.8-0.8-1-1.5
			l1.1-0.3c0.1,0.4,0.3,0.7,0.6,0.9c0.3,0.2,0.7,0.3,1.2,0.3c0.5,0,1-0.1,1.3-0.4c0.3-0.2,0.5-0.5,0.5-0.8c0-0.3-0.1-0.5-0.3-0.7
			c-0.2-0.2-0.5-0.3-0.9-0.4l-1.3-0.3c-0.7-0.2-1.2-0.4-1.5-0.8s-0.5-0.8-0.5-1.3c0-0.4,0.1-0.8,0.4-1.1s0.6-0.6,1-0.8
			c0.4-0.2,0.9-0.3,1.4-0.3c0.8,0,1.3,0.2,1.8,0.5C1017,18.4,1017.3,18.8,1017.5,19.4z"/>
		<path class="st1" d="M1020,16.4c-0.2,0-0.4-0.1-0.6-0.2s-0.2-0.3-0.2-0.6s0.1-0.4,0.2-0.6s0.4-0.2,0.6-0.2s0.4,0.1,0.6,0.2
			s0.2,0.3,0.2,0.6s-0.1,0.4-0.2,0.6S1020.2,16.4,1020,16.4z M1019.4,25.3v-7.6h1.2v7.6H1019.4z"/>
		<path class="st1" d="M1023.9,20.7v4.6h-1.2v-7.6h1.1v1.2h0.1c0.2-0.4,0.5-0.7,0.8-0.9c0.4-0.2,0.8-0.4,1.4-0.4
			c0.5,0,1,0.1,1.4,0.3c0.4,0.2,0.7,0.5,0.9,1c0.2,0.4,0.3,1,0.3,1.6v4.9h-1.2v-4.8c0-0.6-0.2-1.1-0.5-1.4c-0.3-0.3-0.7-0.5-1.3-0.5
			c-0.4,0-0.7,0.1-1,0.2c-0.3,0.2-0.5,0.4-0.7,0.7C1024,19.9,1023.9,20.3,1023.9,20.7z"/>
		<path class="st1" d="M1034,28.3c-0.6,0-1.1-0.1-1.5-0.2c-0.4-0.1-0.7-0.3-1-0.6c-0.3-0.2-0.5-0.5-0.6-0.7l0.9-0.7
			c0.1,0.1,0.2,0.3,0.4,0.5s0.4,0.3,0.7,0.5c0.3,0.1,0.7,0.2,1.1,0.2c0.6,0,1.1-0.1,1.5-0.4c0.4-0.3,0.6-0.8,0.6-1.4v-1.6h-0.1
			c-0.1,0.1-0.2,0.3-0.4,0.5c-0.2,0.2-0.4,0.4-0.7,0.5s-0.7,0.2-1.2,0.2c-0.6,0-1.2-0.1-1.7-0.4c-0.5-0.3-0.9-0.7-1.2-1.3
			s-0.4-1.2-0.4-2c0-0.8,0.1-1.5,0.4-2c0.3-0.6,0.7-1,1.1-1.4c0.5-0.3,1.1-0.5,1.7-0.5c0.5,0,0.9,0.1,1.2,0.2
			c0.3,0.2,0.5,0.3,0.7,0.6c0.2,0.2,0.3,0.4,0.4,0.5h0.1v-1.2h1.1v7.9c0,0.7-0.1,1.2-0.4,1.6s-0.7,0.7-1.2,0.9
			C1035.2,28.2,1034.6,28.3,1034,28.3z M1033.9,24.1c0.5,0,0.9-0.1,1.2-0.3c0.3-0.2,0.6-0.5,0.7-0.9c0.2-0.4,0.3-0.9,0.3-1.5
			c0-0.5-0.1-1-0.2-1.5s-0.4-0.8-0.7-1c-0.3-0.2-0.7-0.4-1.2-0.4c-0.5,0-0.9,0.1-1.2,0.4c-0.3,0.3-0.6,0.6-0.7,1s-0.2,0.9-0.2,1.4
			c0,0.5,0.1,1,0.3,1.4c0.2,0.4,0.4,0.7,0.7,1C1033,24,1033.5,24.1,1033.9,24.1z"/>
	</g>
</g>
<rect x="927" y="280" class="st0" width="160" height="43"/>
<g>
	<g>
		<path class="st1" d="M992.2,298.3c-0.1-0.3-0.3-0.6-0.4-0.9s-0.4-0.5-0.6-0.7c-0.2-0.2-0.5-0.3-0.8-0.4c-0.3-0.1-0.6-0.1-1-0.1
			c-0.6,0-1.2,0.2-1.6,0.5c-0.5,0.3-0.9,0.8-1.2,1.4c-0.3,0.6-0.4,1.4-0.4,2.2s0.1,1.6,0.4,2.2c0.3,0.6,0.7,1.1,1.2,1.4
			s1.1,0.5,1.7,0.5c0.6,0,1.1-0.1,1.5-0.4c0.4-0.2,0.8-0.6,1-1.1c0.2-0.5,0.4-1,0.4-1.6l0.4,0.1h-3.1v-1.1h3.9v1.1
			c0,0.8-0.2,1.6-0.5,2.2c-0.4,0.6-0.8,1.1-1.5,1.4c-0.6,0.3-1.3,0.5-2.2,0.5c-0.9,0-1.7-0.2-2.4-0.6c-0.7-0.4-1.2-1-1.6-1.8
			c-0.4-0.8-0.6-1.7-0.6-2.8c0-0.8,0.1-1.5,0.3-2.2c0.2-0.6,0.5-1.2,0.9-1.6c0.4-0.5,0.9-0.8,1.4-1c0.5-0.2,1.1-0.4,1.8-0.4
			c0.5,0,1,0.1,1.5,0.2c0.5,0.2,0.9,0.4,1.2,0.7c0.4,0.3,0.7,0.6,0.9,1c0.2,0.4,0.4,0.9,0.5,1.3H992.2z"/>
		<path class="st1" d="M1000.3,302.2v-4.5h1.2v7.6h-1.2V304h-0.1c-0.2,0.4-0.5,0.7-0.8,1c-0.4,0.3-0.9,0.4-1.4,0.4
			c-0.5,0-0.9-0.1-1.3-0.3c-0.4-0.2-0.7-0.5-0.9-1s-0.3-1-0.3-1.6v-4.9h1.2v4.8c0,0.6,0.2,1,0.5,1.3c0.3,0.3,0.7,0.5,1.2,0.5
			c0.3,0,0.6-0.1,0.9-0.2c0.3-0.1,0.6-0.4,0.8-0.7C1000.2,303.1,1000.3,302.7,1000.3,302.2z"/>
		<path class="st1" d="M1004.2,296.4c-0.2,0-0.4-0.1-0.6-0.2c-0.2-0.2-0.2-0.3-0.2-0.6s0.1-0.4,0.2-0.6c0.2-0.2,0.4-0.2,0.6-0.2
			s0.4,0.1,0.6,0.2c0.2,0.2,0.2,0.3,0.2,0.6s-0.1,0.4-0.2,0.6C1004.6,296.3,1004.4,296.4,1004.2,296.4z M1003.6,305.3v-7.6h1.2v7.6
			H1003.6z"/>
		<path class="st1" d="M1009.8,305.5c-0.6,0-1.2-0.2-1.7-0.5c-0.5-0.3-0.9-0.8-1.1-1.4c-0.3-0.6-0.4-1.3-0.4-2.1
			c0-0.8,0.1-1.5,0.4-2.1c0.3-0.6,0.7-1,1.1-1.4c0.5-0.3,1.1-0.5,1.7-0.5c0.5,0,0.9,0.1,1.2,0.2s0.5,0.3,0.7,0.6
			c0.2,0.2,0.3,0.4,0.4,0.5h0.1v-3.8h1.2v10.2h-1.1v-1.2h-0.1c-0.1,0.1-0.2,0.3-0.4,0.5c-0.2,0.2-0.4,0.4-0.7,0.6
			S1010.3,305.5,1009.8,305.5z M1010,304.4c0.5,0,0.9-0.1,1.2-0.4s0.6-0.6,0.7-1c0.2-0.4,0.3-0.9,0.3-1.5c0-0.6-0.1-1.1-0.2-1.5
			c-0.2-0.4-0.4-0.8-0.7-1c-0.3-0.2-0.7-0.4-1.2-0.4c-0.5,0-0.9,0.1-1.2,0.4s-0.6,0.6-0.7,1s-0.2,0.9-0.2,1.5c0,0.5,0.1,1,0.2,1.5
			c0.2,0.4,0.4,0.8,0.7,1.1C1009.1,304.3,1009.5,304.4,1010,304.4z"/>
		<path class="st1" d="M1018.8,305.5c-0.7,0-1.4-0.2-1.9-0.5c-0.5-0.3-0.9-0.8-1.2-1.4c-0.3-0.6-0.4-1.3-0.4-2.1s0.1-1.5,0.4-2.1
			c0.3-0.6,0.7-1.1,1.2-1.4c0.5-0.3,1.1-0.5,1.8-0.5c0.4,0,0.8,0.1,1.2,0.2s0.7,0.3,1.1,0.6c0.3,0.3,0.6,0.7,0.8,1.2
			c0.2,0.5,0.3,1.1,0.3,1.8v0.5h-5.9v-1h4.7c0-0.4-0.1-0.8-0.3-1.2c-0.2-0.3-0.4-0.6-0.7-0.8c-0.3-0.2-0.7-0.3-1.1-0.3
			c-0.5,0-0.9,0.1-1.2,0.3c-0.3,0.2-0.6,0.5-0.8,0.9c-0.2,0.4-0.3,0.8-0.3,1.2v0.7c0,0.6,0.1,1.1,0.3,1.5s0.5,0.7,0.8,0.9
			s0.8,0.3,1.2,0.3c0.3,0,0.6,0,0.8-0.1c0.2-0.1,0.5-0.2,0.6-0.4c0.2-0.2,0.3-0.4,0.4-0.7l1.1,0.3c-0.1,0.4-0.3,0.7-0.6,1
			c-0.3,0.3-0.6,0.5-1,0.7C1019.8,305.4,1019.3,305.5,1018.8,305.5z"/>
		<path class="st1" d="M1029.2,299.4l-1.1,0.3c-0.1-0.2-0.2-0.3-0.3-0.5s-0.3-0.3-0.5-0.4s-0.5-0.2-0.8-0.2c-0.5,0-0.9,0.1-1.2,0.3
			c-0.3,0.2-0.5,0.5-0.5,0.8c0,0.3,0.1,0.5,0.3,0.7c0.2,0.2,0.5,0.3,1,0.4l1.1,0.3c0.7,0.2,1.2,0.4,1.5,0.8c0.3,0.3,0.5,0.8,0.5,1.3
			c0,0.4-0.1,0.8-0.4,1.2c-0.2,0.3-0.6,0.6-1,0.8c-0.4,0.2-1,0.3-1.6,0.3c-0.8,0-1.4-0.2-1.9-0.5c-0.5-0.3-0.8-0.8-1-1.5l1.1-0.3
			c0.1,0.4,0.3,0.7,0.6,0.9c0.3,0.2,0.7,0.3,1.2,0.3c0.5,0,1-0.1,1.3-0.4s0.5-0.5,0.5-0.8c0-0.3-0.1-0.5-0.3-0.7s-0.5-0.3-0.9-0.4
			l-1.3-0.3c-0.7-0.2-1.2-0.4-1.5-0.8c-0.3-0.3-0.5-0.8-0.5-1.3c0-0.4,0.1-0.8,0.4-1.1c0.2-0.3,0.6-0.6,1-0.8
			c0.4-0.2,0.9-0.3,1.4-0.3c0.8,0,1.3,0.2,1.8,0.5C1028.7,298.4,1029,298.8,1029.2,299.4z"/>
	</g>
</g>
<line class="st2" x1="769" y1="161.5" x2="927" y2="161.5"/>
<circle class="st3" cx="768" cy="161" r="5"/>
<path class="st2" d="M838.7,161.5L838.7,161.5c12.6,0,22.8-10.2,22.8-22.8V44.3c0-12.6,10.2-22.8,22.8-22.8H927"/>
<path class="st2" d="M838.7,161.5L838.7,161.5c12.6,0,22.8,10.2,22.8,22.8v94.3c0,12.6,10.2,22.8,22.8,22.8H927"/>
<rect x="379" y="0" class="st0" width="160" height="43"/>
<g>
	<g>
		<path class="st1" d="M418,25.3V15.1h6.1v1.1h-4.9v3.4h4.4v1.1h-4.4v4.6H418z"/>
		<path class="st1" d="M426.7,16.4c-0.2,0-0.4-0.1-0.6-0.2s-0.2-0.3-0.2-0.6s0.1-0.4,0.2-0.6s0.4-0.2,0.6-0.2s0.4,0.1,0.6,0.2
			s0.2,0.3,0.2,0.6s-0.1,0.4-0.2,0.6S426.9,16.4,426.7,16.4z M426.1,25.3v-7.6h1.2v7.6H426.1z"/>
		<path class="st1" d="M432.5,28.3c-0.6,0-1.1-0.1-1.5-0.2c-0.4-0.1-0.7-0.3-1-0.6c-0.3-0.2-0.5-0.5-0.6-0.7l0.9-0.7
			c0.1,0.1,0.2,0.3,0.4,0.5c0.2,0.2,0.4,0.3,0.7,0.5c0.3,0.1,0.7,0.2,1.1,0.2c0.6,0,1.1-0.1,1.5-0.4c0.4-0.3,0.6-0.8,0.6-1.4v-1.6
			h-0.1c-0.1,0.1-0.2,0.3-0.4,0.5c-0.2,0.2-0.4,0.4-0.7,0.5s-0.7,0.2-1.2,0.2c-0.6,0-1.2-0.1-1.7-0.4c-0.5-0.3-0.9-0.7-1.2-1.3
			c-0.3-0.6-0.4-1.2-0.4-2c0-0.8,0.1-1.5,0.4-2c0.3-0.6,0.7-1,1.1-1.4c0.5-0.3,1.1-0.5,1.7-0.5c0.5,0,0.9,0.1,1.2,0.2
			s0.5,0.3,0.7,0.6c0.2,0.2,0.3,0.4,0.4,0.5h0.1v-1.2h1.1v7.9c0,0.7-0.1,1.2-0.4,1.6c-0.3,0.4-0.7,0.7-1.2,0.9
			C433.6,28.2,433.1,28.3,432.5,28.3z M432.4,24.1c0.5,0,0.9-0.1,1.2-0.3c0.3-0.2,0.6-0.5,0.7-0.9c0.2-0.4,0.3-0.9,0.3-1.5
			c0-0.5-0.1-1-0.2-1.5c-0.2-0.4-0.4-0.8-0.7-1c-0.3-0.2-0.7-0.4-1.2-0.4c-0.5,0-0.9,0.1-1.2,0.4c-0.3,0.3-0.6,0.6-0.7,1
			s-0.2,0.9-0.2,1.4c0,0.5,0.1,1,0.3,1.4c0.2,0.4,0.4,0.7,0.7,1C431.5,24,431.9,24.1,432.4,24.1z"/>
		<path class="st1" d="M437.9,25.3v-7.6h1.1v1.2h0.1c0.2-0.4,0.4-0.7,0.8-1c0.4-0.2,0.8-0.3,1.3-0.3c0.5,0,0.9,0.1,1.3,0.3
			s0.6,0.5,0.8,1h0.1c0.2-0.4,0.5-0.7,0.9-0.9c0.4-0.2,0.9-0.4,1.4-0.4c0.7,0,1.2,0.2,1.7,0.6c0.4,0.4,0.7,1.1,0.7,2v5.1h-1.2v-5.1
			c0-0.6-0.2-1-0.5-1.2s-0.7-0.4-1.1-0.4c-0.5,0-1,0.2-1.2,0.5c-0.3,0.3-0.4,0.7-0.4,1.2v5h-1.2v-5.2c0-0.4-0.1-0.8-0.4-1.1
			c-0.3-0.3-0.6-0.4-1.1-0.4c-0.3,0-0.6,0.1-0.9,0.2c-0.3,0.2-0.5,0.4-0.6,0.7s-0.2,0.6-0.2,1v4.8H437.9z"/>
		<path class="st1" d="M452.3,25.5c-0.5,0-0.9-0.1-1.3-0.3c-0.4-0.2-0.7-0.5-0.9-0.8s-0.3-0.8-0.3-1.3c0-0.4,0.1-0.8,0.3-1.1
			c0.2-0.3,0.4-0.5,0.7-0.6c0.3-0.2,0.6-0.3,1-0.4c0.3-0.1,0.7-0.1,1.1-0.2c0.5-0.1,0.8-0.1,1.1-0.1c0.3,0,0.5-0.1,0.6-0.2
			s0.2-0.2,0.2-0.4v0c0-0.5-0.1-0.9-0.4-1.1c-0.3-0.3-0.7-0.4-1.2-0.4c-0.6,0-1,0.1-1.3,0.4c-0.3,0.2-0.5,0.5-0.7,0.8l-1.1-0.4
			c0.2-0.5,0.5-0.8,0.8-1.1c0.3-0.3,0.7-0.4,1.1-0.5s0.8-0.2,1.2-0.2c0.2,0,0.5,0,0.8,0.1c0.3,0.1,0.6,0.2,0.9,0.4
			c0.3,0.2,0.5,0.4,0.7,0.8c0.2,0.4,0.3,0.8,0.3,1.5v5h-1.2v-1h-0.1c-0.1,0.2-0.2,0.3-0.4,0.5s-0.4,0.3-0.7,0.5
			C453.1,25.4,452.8,25.5,452.3,25.5z M452.5,24.4c0.5,0,0.9-0.1,1.2-0.3s0.6-0.4,0.7-0.7c0.2-0.3,0.2-0.6,0.2-0.9v-1.1
			c0,0.1-0.2,0.1-0.3,0.2c-0.2,0-0.4,0.1-0.6,0.1c-0.2,0-0.4,0.1-0.6,0.1c-0.2,0-0.4,0-0.5,0.1c-0.3,0-0.6,0.1-0.9,0.2
			c-0.3,0.1-0.5,0.2-0.6,0.4s-0.2,0.4-0.2,0.7c0,0.4,0.2,0.7,0.5,0.9S452,24.4,452.5,24.4z"/>
		<path class="st1" d="M462.1,25.3V15.1h3.4c0.8,0,1.5,0.1,2,0.4c0.5,0.3,0.9,0.7,1.1,1.2s0.4,1,0.4,1.6c0,0.6-0.1,1.1-0.4,1.6
			c-0.2,0.5-0.6,0.9-1.1,1.2c-0.5,0.3-1.2,0.4-1.9,0.4h-2.5v-1.1h2.4c0.5,0,1-0.1,1.3-0.3c0.3-0.2,0.6-0.4,0.7-0.8
			c0.2-0.3,0.2-0.7,0.2-1.1c0-0.4-0.1-0.8-0.2-1.1c-0.2-0.3-0.4-0.6-0.7-0.8c-0.3-0.2-0.8-0.3-1.3-0.3h-2.2v9.1H462.1z"/>
		<path class="st1" d="M472,15.1v10.2h-1.2V15.1H472z"/>
		<path class="st1" d="M478.9,22.2v-4.5h1.2v7.6h-1.2V24h-0.1c-0.2,0.4-0.5,0.7-0.8,1s-0.9,0.4-1.4,0.4c-0.5,0-0.9-0.1-1.3-0.3
			s-0.7-0.5-0.9-1c-0.2-0.4-0.3-1-0.3-1.6v-4.9h1.2v4.8c0,0.6,0.2,1,0.5,1.3c0.3,0.3,0.7,0.5,1.2,0.5c0.3,0,0.6-0.1,0.9-0.2
			s0.6-0.4,0.8-0.7S478.9,22.7,478.9,22.2z"/>
		<path class="st1" d="M485.3,28.3c-0.6,0-1.1-0.1-1.5-0.2c-0.4-0.1-0.7-0.3-1-0.6c-0.3-0.2-0.5-0.5-0.6-0.7l0.9-0.7
			c0.1,0.1,0.2,0.3,0.4,0.5c0.2,0.2,0.4,0.3,0.7,0.5c0.3,0.1,0.7,0.2,1.1,0.2c0.6,0,1.1-0.1,1.5-0.4c0.4-0.3,0.6-0.8,0.6-1.4v-1.6
			h-0.1c-0.1,0.1-0.2,0.3-0.4,0.5c-0.2,0.2-0.4,0.4-0.7,0.5s-0.7,0.2-1.2,0.2c-0.6,0-1.2-0.1-1.7-0.4c-0.5-0.3-0.9-0.7-1.2-1.3
			c-0.3-0.6-0.4-1.2-0.4-2c0-0.8,0.1-1.5,0.4-2c0.3-0.6,0.7-1,1.1-1.4c0.5-0.3,1.1-0.5,1.7-0.5c0.5,0,0.9,0.1,1.2,0.2
			s0.5,0.3,0.7,0.6c0.2,0.2,0.3,0.4,0.4,0.5h0.1v-1.2h1.1v7.9c0,0.7-0.1,1.2-0.4,1.6c-0.3,0.4-0.7,0.7-1.2,0.9
			C486.5,28.2,485.9,28.3,485.3,28.3z M485.3,24.1c0.5,0,0.9-0.1,1.2-0.3c0.3-0.2,0.6-0.5,0.7-0.9c0.2-0.4,0.3-0.9,0.3-1.5
			c0-0.5-0.1-1-0.2-1.5c-0.2-0.4-0.4-0.8-0.7-1c-0.3-0.2-0.7-0.4-1.2-0.4c-0.5,0-0.9,0.1-1.2,0.4c-0.3,0.3-0.6,0.6-0.7,1
			s-0.2,0.9-0.2,1.4c0,0.5,0.1,1,0.3,1.4c0.2,0.4,0.4,0.7,0.7,1C484.4,24,484.8,24.1,485.3,24.1z"/>
		<path class="st1" d="M491.4,16.4c-0.2,0-0.4-0.1-0.6-0.2s-0.2-0.3-0.2-0.6s0.1-0.4,0.2-0.6s0.4-0.2,0.6-0.2s0.4,0.1,0.6,0.2
			s0.2,0.3,0.2,0.6s-0.1,0.4-0.2,0.6S491.6,16.4,491.4,16.4z M490.8,25.3v-7.6h1.2v7.6H490.8z"/>
		<path class="st1" d="M495.3,20.7v4.6h-1.2v-7.6h1.1v1.2h0.1c0.2-0.4,0.5-0.7,0.8-0.9s0.8-0.4,1.4-0.4c0.5,0,1,0.1,1.4,0.3
			c0.4,0.2,0.7,0.5,0.9,1c0.2,0.4,0.3,1,0.3,1.6v4.9H499v-4.8c0-0.6-0.2-1.1-0.5-1.4s-0.7-0.5-1.3-0.5c-0.4,0-0.7,0.1-1,0.2
			c-0.3,0.2-0.5,0.4-0.7,0.7C495.4,19.9,495.3,20.3,495.3,20.7z"/>
	</g>
</g>
<rect x="379" y="280" class="st0" width="160" height="43"/>
<g>
	<g>
		<path class="st1" d="M416.3,305.3v-10.2h3.4c0.8,0,1.4,0.1,2,0.4c0.5,0.3,0.9,0.6,1.1,1.1s0.4,1,0.4,1.6c0,0.6-0.1,1.1-0.4,1.6
			s-0.6,0.8-1.1,1.1c-0.5,0.3-1.2,0.4-1.9,0.4H417v-1.1h2.7c0.5,0,1-0.1,1.3-0.2s0.6-0.4,0.7-0.7c0.2-0.3,0.2-0.6,0.2-1.1
			c0-0.4-0.1-0.8-0.2-1.1c-0.2-0.3-0.4-0.5-0.7-0.7c-0.3-0.2-0.8-0.3-1.3-0.3h-2.2v9.1H416.3z M421.1,300.7l2.5,4.6h-1.4l-2.5-4.6
			H421.1z"/>
		<path class="st1" d="M428.3,305.5c-0.7,0-1.4-0.2-1.9-0.5c-0.5-0.3-0.9-0.8-1.2-1.4c-0.3-0.6-0.4-1.3-0.4-2.1s0.1-1.5,0.4-2.1
			c0.3-0.6,0.7-1.1,1.2-1.4c0.5-0.3,1.1-0.5,1.8-0.5c0.4,0,0.8,0.1,1.2,0.2s0.7,0.3,1.1,0.6c0.3,0.3,0.6,0.7,0.8,1.2
			s0.3,1.1,0.3,1.8v0.5h-5.9v-1h4.7c0-0.4-0.1-0.8-0.3-1.2c-0.2-0.3-0.4-0.6-0.7-0.8c-0.3-0.2-0.7-0.3-1.1-0.3
			c-0.5,0-0.9,0.1-1.2,0.3c-0.3,0.2-0.6,0.5-0.8,0.9c-0.2,0.4-0.3,0.8-0.3,1.2v0.7c0,0.6,0.1,1.1,0.3,1.5s0.5,0.7,0.8,0.9
			s0.8,0.3,1.2,0.3c0.3,0,0.6,0,0.8-0.1c0.2-0.1,0.5-0.2,0.6-0.4c0.2-0.2,0.3-0.4,0.4-0.7l1.1,0.3c-0.1,0.4-0.3,0.7-0.6,1
			c-0.3,0.3-0.6,0.5-1,0.7C429.3,305.4,428.8,305.5,428.3,305.5z"/>
		<path class="st1" d="M435.5,305.5c-0.5,0-0.9-0.1-1.3-0.3c-0.4-0.2-0.7-0.5-0.9-0.8s-0.3-0.8-0.3-1.3c0-0.4,0.1-0.8,0.3-1.1
			c0.2-0.3,0.4-0.5,0.7-0.6c0.3-0.2,0.6-0.3,1-0.4s0.7-0.1,1.1-0.2c0.5-0.1,0.8-0.1,1.1-0.1s0.5-0.1,0.6-0.2s0.2-0.2,0.2-0.4v0
			c0-0.5-0.1-0.9-0.4-1.1c-0.3-0.3-0.7-0.4-1.2-0.4c-0.6,0-1,0.1-1.3,0.4c-0.3,0.2-0.5,0.5-0.7,0.8l-1.1-0.4
			c0.2-0.5,0.5-0.8,0.8-1.1c0.3-0.3,0.7-0.4,1.1-0.5s0.8-0.2,1.2-0.2c0.2,0,0.5,0,0.8,0.1c0.3,0.1,0.6,0.2,0.9,0.4
			c0.3,0.2,0.5,0.4,0.7,0.8c0.2,0.4,0.3,0.8,0.3,1.5v5h-1.2v-1h-0.1c-0.1,0.2-0.2,0.3-0.4,0.5c-0.2,0.2-0.4,0.3-0.7,0.5
			C436.3,305.4,435.9,305.5,435.5,305.5z M435.7,304.4c0.5,0,0.9-0.1,1.2-0.3c0.3-0.2,0.6-0.4,0.7-0.7s0.2-0.6,0.2-0.9v-1.1
			c0,0.1-0.2,0.1-0.3,0.2c-0.2,0-0.4,0.1-0.6,0.1c-0.2,0-0.4,0.1-0.6,0.1c-0.2,0-0.4,0-0.5,0.1c-0.3,0-0.6,0.1-0.9,0.2
			c-0.3,0.1-0.5,0.2-0.6,0.4s-0.2,0.4-0.2,0.7c0,0.4,0.2,0.7,0.5,0.9S435.2,304.4,435.7,304.4z"/>
		<path class="st1" d="M444.3,305.5c-0.7,0-1.3-0.2-1.8-0.5c-0.5-0.3-0.9-0.8-1.2-1.4c-0.3-0.6-0.4-1.3-0.4-2c0-0.8,0.1-1.5,0.4-2.1
			c0.3-0.6,0.7-1.1,1.2-1.4c0.5-0.3,1.1-0.5,1.8-0.5c0.5,0,1,0.1,1.5,0.3c0.4,0.2,0.8,0.5,1.1,0.8c0.3,0.4,0.4,0.8,0.5,1.3h-1.2
			c-0.1-0.3-0.3-0.7-0.6-0.9c-0.3-0.3-0.7-0.4-1.2-0.4c-0.5,0-0.9,0.1-1.2,0.4c-0.3,0.2-0.6,0.6-0.8,1c-0.2,0.4-0.3,0.9-0.3,1.5
			c0,0.6,0.1,1.1,0.3,1.5c0.2,0.4,0.5,0.8,0.8,1c0.3,0.2,0.7,0.4,1.2,0.4c0.3,0,0.6-0.1,0.8-0.2c0.2-0.1,0.5-0.3,0.6-0.5
			s0.3-0.4,0.4-0.7h1.2c-0.1,0.5-0.2,0.9-0.5,1.2c-0.3,0.4-0.6,0.6-1,0.9C445.3,305.4,444.8,305.5,444.3,305.5z"/>
		<path class="st1" d="M452.3,297.7v1h-4v-1H452.3z M449.5,295.8h1.2v7.3c0,0.3,0,0.6,0.1,0.7c0.1,0.2,0.2,0.3,0.4,0.3
			c0.2,0.1,0.3,0.1,0.5,0.1c0.1,0,0.2,0,0.3,0c0.1,0,0.1,0,0.2,0l0.2,1.1c-0.1,0-0.2,0.1-0.3,0.1c-0.1,0-0.3,0-0.5,0
			c-0.3,0-0.7-0.1-1-0.2s-0.6-0.4-0.8-0.7c-0.2-0.3-0.3-0.7-0.3-1.1V295.8z"/>
		<path class="st1" d="M458.2,305.3v-10.2h1.2v9.1h4.7v1.1H458.2z"/>
		<path class="st1" d="M466.5,296.4c-0.2,0-0.4-0.1-0.6-0.2c-0.2-0.2-0.2-0.3-0.2-0.6s0.1-0.4,0.2-0.6c0.2-0.2,0.4-0.2,0.6-0.2
			s0.4,0.1,0.6,0.2c0.2,0.2,0.2,0.3,0.2,0.6s-0.1,0.4-0.2,0.6C466.9,296.3,466.7,296.4,466.5,296.4z M465.9,305.3v-7.6h1.2v7.6
			H465.9z"/>
		<path class="st1" d="M469.4,305.3v-10.2h1.2v3.8h0.1c0.1-0.1,0.2-0.3,0.4-0.5c0.2-0.2,0.4-0.4,0.7-0.6s0.7-0.2,1.2-0.2
			c0.6,0,1.2,0.2,1.7,0.5c0.5,0.3,0.9,0.8,1.1,1.4c0.3,0.6,0.4,1.3,0.4,2.1c0,0.8-0.1,1.5-0.4,2.1c-0.3,0.6-0.7,1-1.1,1.4
			s-1,0.5-1.7,0.5c-0.5,0-0.9-0.1-1.2-0.2s-0.5-0.4-0.7-0.6c-0.2-0.2-0.3-0.4-0.4-0.5h-0.1v1.2H469.4z M470.5,301.5
			c0,0.6,0.1,1.1,0.3,1.5c0.2,0.4,0.4,0.8,0.7,1c0.3,0.2,0.7,0.4,1.2,0.4c0.5,0,0.9-0.1,1.2-0.4c0.3-0.3,0.6-0.6,0.7-1.1
			c0.2-0.4,0.3-0.9,0.3-1.5c0-0.5-0.1-1-0.2-1.5s-0.4-0.8-0.7-1c-0.3-0.3-0.7-0.4-1.2-0.4c-0.5,0-0.9,0.1-1.2,0.4s-0.6,0.6-0.7,1
			C470.6,300.4,470.5,300.9,470.5,301.5z"/>
		<path class="st1" d="M477.9,305.3v-7.6h1.1v1.2h0.1c0.1-0.4,0.4-0.7,0.8-0.9s0.8-0.4,1.2-0.4c0.1,0,0.2,0,0.3,0s0.2,0,0.3,0v1.2
			c0,0-0.1,0-0.3,0c-0.1,0-0.3,0-0.4,0c-0.4,0-0.7,0.1-1,0.2c-0.3,0.2-0.5,0.4-0.7,0.6c-0.2,0.3-0.3,0.6-0.3,0.9v4.8H477.9z"/>
		<path class="st1" d="M485.3,305.5c-0.5,0-0.9-0.1-1.3-0.3c-0.4-0.2-0.7-0.5-0.9-0.8s-0.3-0.8-0.3-1.3c0-0.4,0.1-0.8,0.3-1.1
			c0.2-0.3,0.4-0.5,0.7-0.6c0.3-0.2,0.6-0.3,1-0.4s0.7-0.1,1.1-0.2c0.5-0.1,0.8-0.1,1.1-0.1s0.5-0.1,0.6-0.2s0.2-0.2,0.2-0.4v0
			c0-0.5-0.1-0.9-0.4-1.1c-0.3-0.3-0.7-0.4-1.2-0.4c-0.6,0-1,0.1-1.3,0.4c-0.3,0.2-0.5,0.5-0.7,0.8l-1.1-0.4
			c0.2-0.5,0.5-0.8,0.8-1.1c0.3-0.3,0.7-0.4,1.1-0.5s0.8-0.2,1.2-0.2c0.2,0,0.5,0,0.8,0.1c0.3,0.1,0.6,0.2,0.9,0.4
			c0.3,0.2,0.5,0.4,0.7,0.8c0.2,0.4,0.3,0.8,0.3,1.5v5h-1.2v-1h-0.1c-0.1,0.2-0.2,0.3-0.4,0.5c-0.2,0.2-0.4,0.3-0.7,0.5
			C486.2,305.4,485.8,305.5,485.3,305.5z M485.5,304.4c0.5,0,0.9-0.1,1.2-0.3c0.3-0.2,0.6-0.4,0.7-0.7s0.2-0.6,0.2-0.9v-1.1
			c0,0.1-0.2,0.1-0.3,0.2c-0.2,0-0.4,0.1-0.6,0.1c-0.2,0-0.4,0.1-0.6,0.1c-0.2,0-0.4,0-0.5,0.1c-0.3,0-0.6,0.1-0.9,0.2
			c-0.3,0.1-0.5,0.2-0.6,0.4s-0.2,0.4-0.2,0.7c0,0.4,0.2,0.7,0.5,0.9S485.1,304.4,485.5,304.4z"/>
		<path class="st1" d="M491,305.3v-7.6h1.1v1.2h0.1c0.1-0.4,0.4-0.7,0.8-0.9s0.8-0.4,1.2-0.4c0.1,0,0.2,0,0.3,0s0.2,0,0.3,0v1.2
			c0,0-0.1,0-0.3,0c-0.1,0-0.3,0-0.4,0c-0.4,0-0.7,0.1-1,0.2c-0.3,0.2-0.5,0.4-0.7,0.6c-0.2,0.3-0.3,0.6-0.3,0.9v4.8H491z"/>
		<path class="st1" d="M497,308.2c-0.2,0-0.4,0-0.5,0c-0.2,0-0.3-0.1-0.3-0.1l0.3-1c0.3,0.1,0.5,0.1,0.8,0.1s0.4-0.1,0.6-0.3
			c0.2-0.2,0.3-0.5,0.5-0.8l0.2-0.6l-2.8-7.7h1.3l2.1,6.1h0.1l2.1-6.1h1.3l-3.2,8.8c-0.1,0.4-0.3,0.7-0.5,1
			c-0.2,0.3-0.5,0.5-0.7,0.6S497.3,308.2,497,308.2z"/>
	</g>
</g>
<path class="st2" d="M290.7,161.5L290.7,161.5c12.6,0,22.8-10.2,22.8-22.8V44.3c0-12.6,10.2-22.8,22.8-22.8H379"/>
<path class="st2" d="M290.7,161.5L290.7,161.5c12.6,0,22.8,10.2,22.8,22.8v94.3c0,12.6,10.2,22.8,22.8,22.8H379"/>
<rect x="609" y="0" class="st0" width="160" height="43"/>
<g>
	<g>
		<path class="st1" d="M649.9,15.1v10.2h-1.2V15.1H649.9z"/>
		<path class="st1" d="M653.4,20.7v4.6h-1.2v-7.6h1.1v1.2h0.1c0.2-0.4,0.5-0.7,0.8-0.9c0.4-0.2,0.8-0.4,1.4-0.4c0.5,0,1,0.1,1.4,0.3
			c0.4,0.2,0.7,0.5,0.9,1c0.2,0.4,0.3,1,0.3,1.6v4.9h-1.2v-4.8c0-0.6-0.2-1.1-0.5-1.4c-0.3-0.3-0.7-0.5-1.3-0.5
			c-0.4,0-0.7,0.1-1,0.2c-0.3,0.2-0.5,0.4-0.7,0.7C653.4,19.9,653.4,20.3,653.4,20.7z"/>
		<path class="st1" d="M665.8,19.4l-1.1,0.3c-0.1-0.2-0.2-0.3-0.3-0.5c-0.1-0.2-0.3-0.3-0.5-0.4s-0.5-0.2-0.8-0.2
			c-0.5,0-0.9,0.1-1.2,0.3c-0.3,0.2-0.5,0.5-0.5,0.8c0,0.3,0.1,0.5,0.3,0.7s0.5,0.3,1,0.4l1.1,0.3c0.7,0.2,1.2,0.4,1.5,0.8
			c0.3,0.3,0.5,0.8,0.5,1.3c0,0.4-0.1,0.8-0.4,1.2s-0.6,0.6-1,0.8s-1,0.3-1.6,0.3c-0.8,0-1.4-0.2-1.9-0.5c-0.5-0.3-0.8-0.8-1-1.5
			l1.1-0.3c0.1,0.4,0.3,0.7,0.6,0.9c0.3,0.2,0.7,0.3,1.2,0.3c0.5,0,1-0.1,1.3-0.4c0.3-0.2,0.5-0.5,0.5-0.8c0-0.3-0.1-0.5-0.3-0.7
			c-0.2-0.2-0.5-0.3-0.9-0.4l-1.3-0.3c-0.7-0.2-1.2-0.4-1.5-0.8s-0.5-0.8-0.5-1.3c0-0.4,0.1-0.8,0.4-1.1s0.6-0.6,1-0.8
			c0.4-0.2,0.9-0.3,1.4-0.3c0.8,0,1.3,0.2,1.8,0.5C665.3,18.4,665.6,18.8,665.8,19.4z"/>
		<path class="st1" d="M671,17.7v1h-4v-1H671z M668.2,15.8h1.2v7.3c0,0.3,0,0.6,0.1,0.7s0.2,0.3,0.4,0.3c0.2,0.1,0.3,0.1,0.5,0.1
			c0.1,0,0.2,0,0.3,0c0.1,0,0.1,0,0.2,0l0.2,1.1c-0.1,0-0.2,0.1-0.3,0.1c-0.1,0-0.3,0-0.5,0c-0.3,0-0.7-0.1-1-0.2s-0.6-0.4-0.8-0.7
			s-0.3-0.7-0.3-1.1V15.8z"/>
		<path class="st1" d="M675,25.5c-0.5,0-0.9-0.1-1.3-0.3c-0.4-0.2-0.7-0.5-0.9-0.8c-0.2-0.3-0.3-0.8-0.3-1.3c0-0.4,0.1-0.8,0.3-1.1
			s0.4-0.5,0.7-0.6c0.3-0.2,0.6-0.3,1-0.4c0.3-0.1,0.7-0.1,1.1-0.2c0.5-0.1,0.8-0.1,1.1-0.1c0.3,0,0.5-0.1,0.6-0.2s0.2-0.2,0.2-0.4
			v0c0-0.5-0.1-0.9-0.4-1.1c-0.3-0.3-0.7-0.4-1.2-0.4c-0.6,0-1,0.1-1.3,0.4c-0.3,0.2-0.5,0.5-0.7,0.8l-1.1-0.4
			c0.2-0.5,0.5-0.8,0.8-1.1c0.3-0.3,0.7-0.4,1.1-0.5s0.8-0.2,1.2-0.2c0.2,0,0.5,0,0.8,0.1c0.3,0.1,0.6,0.2,0.9,0.4
			c0.3,0.2,0.5,0.4,0.7,0.8c0.2,0.4,0.3,0.8,0.3,1.5v5h-1.2v-1h-0.1c-0.1,0.2-0.2,0.3-0.4,0.5s-0.4,0.3-0.7,0.5
			C675.9,25.4,675.5,25.5,675,25.5z M675.2,24.4c0.5,0,0.9-0.1,1.2-0.3s0.6-0.4,0.7-0.7c0.2-0.3,0.2-0.6,0.2-0.9v-1.1
			c-0.1,0.1-0.2,0.1-0.3,0.2c-0.2,0-0.4,0.1-0.6,0.1c-0.2,0-0.4,0.1-0.6,0.1c-0.2,0-0.4,0-0.5,0.1c-0.3,0-0.6,0.1-0.9,0.2
			c-0.3,0.1-0.5,0.2-0.6,0.4c-0.2,0.2-0.2,0.4-0.2,0.7c0,0.4,0.2,0.7,0.5,0.9C674.4,24.3,674.8,24.4,675.2,24.4z"/>
		<path class="st1" d="M681.9,15.1v10.2h-1.2V15.1H681.9z"/>
		<path class="st1" d="M685.2,15.1v10.2H684V15.1H685.2z"/>
		<path class="st1" d="M691.4,25.3V15.1h3.4c0.8,0,1.5,0.1,2,0.4c0.5,0.3,0.9,0.7,1.1,1.2c0.2,0.5,0.4,1,0.4,1.6
			c0,0.6-0.1,1.1-0.4,1.6c-0.2,0.5-0.6,0.9-1.1,1.2s-1.2,0.4-1.9,0.4h-2.5v-1.1h2.4c0.5,0,1-0.1,1.3-0.3c0.3-0.2,0.6-0.4,0.7-0.8
			c0.2-0.3,0.2-0.7,0.2-1.1c0-0.4-0.1-0.8-0.2-1.1c-0.2-0.3-0.4-0.6-0.7-0.8c-0.3-0.2-0.8-0.3-1.3-0.3h-2.2v9.1H691.4z"/>
		<path class="st1" d="M701.3,15.1v10.2h-1.2V15.1H701.3z"/>
		<path class="st1" d="M708.3,22.2v-4.5h1.2v7.6h-1.2V24h-0.1c-0.2,0.4-0.5,0.7-0.8,1c-0.4,0.3-0.9,0.4-1.4,0.4
			c-0.5,0-0.9-0.1-1.3-0.3s-0.7-0.5-0.9-1c-0.2-0.4-0.3-1-0.3-1.6v-4.9h1.2v4.8c0,0.6,0.2,1,0.5,1.3c0.3,0.3,0.7,0.5,1.2,0.5
			c0.3,0,0.6-0.1,0.9-0.2s0.6-0.4,0.8-0.7S708.3,22.7,708.3,22.2z"/>
		<path class="st1" d="M714.7,28.3c-0.6,0-1.1-0.1-1.5-0.2c-0.4-0.1-0.7-0.3-1-0.6c-0.3-0.2-0.5-0.5-0.6-0.7l0.9-0.7
			c0.1,0.1,0.2,0.3,0.4,0.5s0.4,0.3,0.7,0.5c0.3,0.1,0.7,0.2,1.1,0.2c0.6,0,1.1-0.1,1.5-0.4c0.4-0.3,0.6-0.8,0.6-1.4v-1.6h-0.1
			c-0.1,0.1-0.2,0.3-0.4,0.5c-0.2,0.2-0.4,0.4-0.7,0.5s-0.7,0.2-1.2,0.2c-0.6,0-1.2-0.1-1.7-0.4c-0.5-0.3-0.9-0.7-1.2-1.3
			s-0.4-1.2-0.4-2c0-0.8,0.1-1.5,0.4-2c0.3-0.6,0.7-1,1.1-1.4c0.5-0.3,1.1-0.5,1.7-0.5c0.5,0,0.9,0.1,1.2,0.2
			c0.3,0.2,0.5,0.3,0.7,0.6c0.2,0.2,0.3,0.4,0.4,0.5h0.1v-1.2h1.1v7.9c0,0.7-0.1,1.2-0.4,1.6s-0.7,0.7-1.2,0.9
			C715.9,28.2,715.3,28.3,714.7,28.3z M714.7,24.1c0.5,0,0.9-0.1,1.2-0.3c0.3-0.2,0.6-0.5,0.7-0.9c0.2-0.4,0.3-0.9,0.3-1.5
			c0-0.5-0.1-1-0.2-1.5s-0.4-0.8-0.7-1c-0.3-0.2-0.7-0.4-1.2-0.4c-0.5,0-0.9,0.1-1.2,0.4c-0.3,0.3-0.6,0.6-0.7,1s-0.2,0.9-0.2,1.4
			c0,0.5,0.1,1,0.3,1.4c0.2,0.4,0.4,0.7,0.7,1C713.8,24,714.2,24.1,714.7,24.1z"/>
		<path class="st1" d="M720.7,16.4c-0.2,0-0.4-0.1-0.6-0.2s-0.2-0.3-0.2-0.6s0.1-0.4,0.2-0.6s0.4-0.2,0.6-0.2s0.4,0.1,0.6,0.2
			s0.2,0.3,0.2,0.6s-0.1,0.4-0.2,0.6S721,16.4,720.7,16.4z M720.1,25.3v-7.6h1.2v7.6H720.1z"/>
		<path class="st1" d="M724.6,20.7v4.6h-1.2v-7.6h1.1v1.2h0.1c0.2-0.4,0.5-0.7,0.8-0.9s0.8-0.4,1.4-0.4c0.5,0,1,0.1,1.4,0.3
			c0.4,0.2,0.7,0.5,0.9,1c0.2,0.4,0.3,1,0.3,1.6v4.9h-1.2v-4.8c0-0.6-0.2-1.1-0.5-1.4s-0.7-0.5-1.3-0.5c-0.4,0-0.7,0.1-1,0.2
			c-0.3,0.2-0.5,0.4-0.7,0.7C724.7,19.9,724.6,20.3,724.6,20.7z"/>
	</g>
</g>
<line class="st2" x1="538" y1="21.5" x2="609" y2="21.5"/>
<circle class="st3" cx="538" cy="21" r="5"/>
<rect x="609" y="280" class="st0" width="160" height="43"/>
<g>
	<g>
		<path class="st1" d="M647.1,295.1v10.2h-1.2v-10.2H647.1z"/>
		<path class="st1" d="M650.6,300.7v4.6h-1.2v-7.6h1.1v1.2h0.1c0.2-0.4,0.5-0.7,0.8-0.9c0.4-0.2,0.8-0.4,1.4-0.4
			c0.5,0,1,0.1,1.4,0.3c0.4,0.2,0.7,0.5,0.9,1c0.2,0.4,0.3,1,0.3,1.6v4.9h-1.2v-4.8c0-0.6-0.2-1.1-0.5-1.4c-0.3-0.3-0.7-0.5-1.3-0.5
			c-0.4,0-0.7,0.1-1,0.2c-0.3,0.2-0.5,0.4-0.7,0.7S650.6,300.3,650.6,300.7z"/>
		<path class="st1" d="M663,299.4l-1.1,0.3c-0.1-0.2-0.2-0.3-0.3-0.5c-0.1-0.2-0.3-0.3-0.5-0.4s-0.5-0.2-0.8-0.2
			c-0.5,0-0.9,0.1-1.2,0.3c-0.3,0.2-0.5,0.5-0.5,0.8c0,0.3,0.1,0.5,0.3,0.7s0.5,0.3,1,0.4l1.1,0.3c0.7,0.2,1.2,0.4,1.5,0.8
			c0.3,0.3,0.5,0.8,0.5,1.3c0,0.4-0.1,0.8-0.4,1.2c-0.2,0.3-0.6,0.6-1,0.8c-0.4,0.2-1,0.3-1.6,0.3c-0.8,0-1.4-0.2-1.9-0.5
			c-0.5-0.3-0.8-0.8-1-1.5l1.1-0.3c0.1,0.4,0.3,0.7,0.6,0.9c0.3,0.2,0.7,0.3,1.2,0.3c0.5,0,1-0.1,1.3-0.4c0.3-0.2,0.5-0.5,0.5-0.8
			c0-0.3-0.1-0.5-0.3-0.7s-0.5-0.3-0.9-0.4l-1.3-0.3c-0.7-0.2-1.2-0.4-1.5-0.8c-0.3-0.3-0.5-0.8-0.5-1.3c0-0.4,0.1-0.8,0.4-1.1
			c0.2-0.3,0.6-0.6,1-0.8c0.4-0.2,0.9-0.3,1.4-0.3c0.8,0,1.4,0.2,1.8,0.5C662.5,298.4,662.8,298.8,663,299.4z"/>
		<path class="st1" d="M668.2,297.7v1h-4v-1H668.2z M665.4,295.8h1.2v7.3c0,0.3,0,0.6,0.1,0.7c0.1,0.2,0.2,0.3,0.4,0.3
			s0.3,0.1,0.5,0.1c0.1,0,0.2,0,0.3,0s0.1,0,0.2,0l0.2,1.1c-0.1,0-0.2,0.1-0.3,0.1s-0.3,0-0.5,0c-0.3,0-0.7-0.1-1-0.2
			s-0.6-0.4-0.8-0.7c-0.2-0.3-0.3-0.7-0.3-1.1V295.8z"/>
		<path class="st1" d="M672.2,305.5c-0.5,0-0.9-0.1-1.3-0.3c-0.4-0.2-0.7-0.5-0.9-0.8c-0.2-0.3-0.3-0.8-0.3-1.3
			c0-0.4,0.1-0.8,0.3-1.1c0.2-0.3,0.4-0.5,0.7-0.6c0.3-0.2,0.6-0.3,1-0.4s0.7-0.1,1.1-0.2c0.5-0.1,0.8-0.1,1.1-0.1
			c0.3,0,0.5-0.1,0.6-0.2s0.2-0.2,0.2-0.4v0c0-0.5-0.1-0.9-0.4-1.1c-0.3-0.3-0.7-0.4-1.2-0.4c-0.6,0-1,0.1-1.3,0.4s-0.5,0.5-0.7,0.8
			l-1.1-0.4c0.2-0.5,0.5-0.8,0.8-1.1c0.3-0.3,0.7-0.4,1.1-0.5s0.8-0.2,1.2-0.2c0.2,0,0.5,0,0.8,0.1c0.3,0.1,0.6,0.2,0.9,0.4
			c0.3,0.2,0.5,0.4,0.7,0.8s0.3,0.8,0.3,1.5v5h-1.2v-1h-0.1c-0.1,0.2-0.2,0.3-0.4,0.5c-0.2,0.2-0.4,0.3-0.7,0.5
			C673.1,305.4,672.7,305.5,672.2,305.5z M672.4,304.4c0.5,0,0.9-0.1,1.2-0.3c0.3-0.2,0.6-0.4,0.7-0.7s0.2-0.6,0.2-0.9v-1.1
			c0,0.1-0.2,0.1-0.3,0.2s-0.4,0.1-0.6,0.1c-0.2,0-0.4,0.1-0.6,0.1c-0.2,0-0.4,0-0.5,0.1c-0.3,0-0.6,0.1-0.9,0.2s-0.5,0.2-0.6,0.4
			c-0.2,0.2-0.2,0.4-0.2,0.7c0,0.4,0.2,0.7,0.5,0.9C671.6,304.3,671.9,304.4,672.4,304.4z"/>
		<path class="st1" d="M679.1,295.1v10.2h-1.2v-10.2H679.1z"/>
		<path class="st1" d="M682.4,295.1v10.2h-1.2v-10.2H682.4z"/>
		<path class="st1" d="M688.6,305.3v-10.2h1.2v9.1h4.7v1.1H688.6z"/>
		<path class="st1" d="M696.9,296.4c-0.2,0-0.4-0.1-0.6-0.2c-0.2-0.2-0.2-0.3-0.2-0.6s0.1-0.4,0.2-0.6c0.2-0.2,0.4-0.2,0.6-0.2
			s0.4,0.1,0.6,0.2c0.2,0.2,0.2,0.3,0.2,0.6s-0.1,0.4-0.2,0.6C697.4,296.3,697.2,296.4,696.9,296.4z M696.3,305.3v-7.6h1.2v7.6
			H696.3z"/>
		<path class="st1" d="M699.8,305.3v-10.2h1.2v3.8h0.1c0.1-0.1,0.2-0.3,0.4-0.5c0.2-0.2,0.4-0.4,0.7-0.6c0.3-0.2,0.7-0.2,1.2-0.2
			c0.6,0,1.2,0.2,1.7,0.5c0.5,0.3,0.9,0.8,1.1,1.4c0.3,0.6,0.4,1.3,0.4,2.1c0,0.8-0.1,1.5-0.4,2.1c-0.3,0.6-0.7,1-1.1,1.4
			s-1,0.5-1.7,0.5c-0.5,0-0.9-0.1-1.2-0.2s-0.5-0.4-0.7-0.6c-0.2-0.2-0.3-0.4-0.4-0.5H701v1.2H699.8z M701,301.5
			c0,0.6,0.1,1.1,0.3,1.5c0.2,0.4,0.4,0.8,0.7,1c0.3,0.2,0.7,0.4,1.2,0.4c0.5,0,0.9-0.1,1.2-0.4c0.3-0.3,0.6-0.6,0.7-1.1
			c0.2-0.4,0.3-0.9,0.3-1.5c0-0.5-0.1-1-0.2-1.5s-0.4-0.8-0.7-1c-0.3-0.3-0.7-0.4-1.2-0.4c-0.5,0-0.9,0.1-1.2,0.4s-0.6,0.6-0.7,1
			C701.1,300.4,701,300.9,701,301.5z"/>
		<path class="st1" d="M708.3,305.3v-7.6h1.1v1.2h0.1c0.1-0.4,0.4-0.7,0.8-0.9c0.4-0.2,0.8-0.4,1.2-0.4c0.1,0,0.2,0,0.3,0
			s0.2,0,0.3,0v1.2c0,0-0.1,0-0.3,0s-0.3,0-0.4,0c-0.4,0-0.7,0.1-1,0.2c-0.3,0.2-0.5,0.4-0.7,0.6c-0.2,0.3-0.3,0.6-0.3,0.9v4.8
			H708.3z"/>
		<path class="st1" d="M715.8,305.5c-0.5,0-0.9-0.1-1.3-0.3c-0.4-0.2-0.7-0.5-0.9-0.8c-0.2-0.3-0.3-0.8-0.3-1.3
			c0-0.4,0.1-0.8,0.3-1.1c0.2-0.3,0.4-0.5,0.7-0.6c0.3-0.2,0.6-0.3,1-0.4s0.7-0.1,1.1-0.2c0.5-0.1,0.8-0.1,1.1-0.1
			c0.3,0,0.5-0.1,0.6-0.2s0.2-0.2,0.2-0.4v0c0-0.5-0.1-0.9-0.4-1.1c-0.3-0.3-0.7-0.4-1.2-0.4c-0.6,0-1,0.1-1.3,0.4s-0.5,0.5-0.7,0.8
			l-1.1-0.4c0.2-0.5,0.5-0.8,0.8-1.1c0.3-0.3,0.7-0.4,1.1-0.5s0.8-0.2,1.2-0.2c0.2,0,0.5,0,0.8,0.1c0.3,0.1,0.6,0.2,0.9,0.4
			c0.3,0.2,0.5,0.4,0.7,0.8s0.3,0.8,0.3,1.5v5h-1.2v-1h-0.1c-0.1,0.2-0.2,0.3-0.4,0.5c-0.2,0.2-0.4,0.3-0.7,0.5
			C716.6,305.4,716.2,305.5,715.8,305.5z M716,304.4c0.5,0,0.9-0.1,1.2-0.3c0.3-0.2,0.6-0.4,0.7-0.7s0.2-0.6,0.2-0.9v-1.1
			c0,0.1-0.2,0.1-0.3,0.2s-0.4,0.1-0.6,0.1c-0.2,0-0.4,0.1-0.6,0.1c-0.2,0-0.4,0-0.5,0.1c-0.3,0-0.6,0.1-0.9,0.2s-0.5,0.2-0.6,0.4
			c-0.2,0.2-0.2,0.4-0.2,0.7c0,0.4,0.2,0.7,0.5,0.9C715.1,304.3,715.5,304.4,716,304.4z"/>
		<path class="st1" d="M721.5,305.3v-7.6h1.1v1.2h0.1c0.1-0.4,0.4-0.7,0.8-0.9s0.8-0.4,1.2-0.4c0.1,0,0.2,0,0.3,0c0.1,0,0.2,0,0.3,0
			v1.2c0,0-0.1,0-0.3,0c-0.1,0-0.3,0-0.4,0c-0.4,0-0.7,0.1-1,0.2c-0.3,0.2-0.5,0.4-0.7,0.6c-0.2,0.3-0.3,0.6-0.3,0.9v4.8H721.5z"/>
		<path class="st1" d="M727.4,308.2c-0.2,0-0.4,0-0.5,0c-0.2,0-0.3-0.1-0.3-0.1l0.3-1c0.3,0.1,0.5,0.1,0.8,0.1s0.4-0.1,0.6-0.3
			c0.2-0.2,0.3-0.5,0.5-0.8l0.2-0.6l-2.8-7.7h1.3l2.1,6.1h0.1l2.1-6.1h1.3l-3.2,8.8c-0.1,0.4-0.3,0.7-0.5,1
			c-0.2,0.3-0.5,0.5-0.7,0.6S727.8,308.2,727.4,308.2z"/>
	</g>
</g>
<line class="st2" x1="538" y1="301.5" x2="609" y2="301.5"/>
<circle class="st3" cx="538" cy="301" r="5"/>
</svg>
