<?xml version="1.0" encoding="utf-8"?>
<!-- Generator: Adobe Illustrator 26.2.1, SVG Export Plug-In . SVG Version: 6.00 Build 0)  -->
<svg version="1.1" id="Layer_1" xmlns="http://www.w3.org/2000/svg" xmlns:xlink="http://www.w3.org/1999/xlink" x="0px" y="0px"
	 viewBox="0 0 547.5 534" style="enable-background:new 0 0 547.5 534;" xml:space="preserve">
<style type="text/css">
	.st0{fill:#434349;}
	.st1{fill:#FFFFFF;}
	.st2{fill:none;stroke:#52525C;stroke-width:3;stroke-linecap:round;stroke-miterlimit:10;}
	.st3{fill:#52525C;}
</style>
<g>
	<rect x="194" y="0" class="st0" width="160" height="43"/>
	<g>
		<g>
			<path class="st1" d="M239.2,25.3V15.1h1.2v4.5h5.4v-4.5h1.2v10.2h-1.2v-4.6h-5.4v4.6H239.2z"/>
			<path class="st1" d="M252.5,25.5c-0.7,0-1.3-0.2-1.8-0.5c-0.5-0.3-0.9-0.8-1.2-1.4c-0.3-0.6-0.4-1.3-0.4-2.1
				c0-0.8,0.1-1.5,0.4-2.1s0.7-1.1,1.2-1.4c0.5-0.3,1.1-0.5,1.8-0.5c0.7,0,1.3,0.2,1.8,0.5c0.5,0.3,0.9,0.8,1.2,1.4s0.4,1.3,0.4,2.1
				c0,0.8-0.1,1.5-0.4,2.1c-0.3,0.6-0.7,1-1.2,1.4C253.8,25.3,253.2,25.5,252.5,25.5z M252.5,24.4c0.5,0,1-0.1,1.3-0.4
				c0.3-0.3,0.6-0.6,0.8-1.1c0.2-0.4,0.2-0.9,0.2-1.4s-0.1-1-0.2-1.4c-0.2-0.4-0.4-0.8-0.8-1.1c-0.3-0.3-0.8-0.4-1.3-0.4
				c-0.5,0-1,0.1-1.3,0.4c-0.3,0.3-0.6,0.6-0.8,1.1c-0.2,0.4-0.2,0.9-0.2,1.4s0.1,1,0.2,1.4c0.2,0.4,0.4,0.8,0.8,1.1
				C251.5,24.3,251.9,24.4,252.5,24.4z"/>
			<path class="st1" d="M257.7,25.3v-7.6h1.1v1.2h0.1c0.2-0.4,0.4-0.7,0.8-1s0.8-0.3,1.3-0.3c0.5,0,0.9,0.1,1.3,0.3
				c0.3,0.2,0.6,0.5,0.8,1h0.1c0.2-0.4,0.5-0.7,0.9-0.9c0.4-0.2,0.9-0.4,1.4-0.4c0.7,0,1.2,0.2,1.7,0.6c0.4,0.4,0.7,1.1,0.7,2v5.1
				h-1.2v-5.1c0-0.6-0.2-1-0.5-1.2c-0.3-0.2-0.7-0.4-1.1-0.4c-0.5,0-1,0.2-1.2,0.5c-0.3,0.3-0.4,0.7-0.4,1.2v5h-1.2v-5.2
				c0-0.4-0.1-0.8-0.4-1.1c-0.3-0.3-0.6-0.4-1.1-0.4c-0.3,0-0.6,0.1-0.9,0.2c-0.3,0.2-0.5,0.4-0.6,0.7c-0.2,0.3-0.2,0.6-0.2,1v4.8
				H257.7z"/>
			<path class="st1" d="M273.1,25.5c-0.7,0-1.4-0.2-1.9-0.5s-0.9-0.8-1.2-1.4c-0.3-0.6-0.4-1.3-0.4-2.1s0.1-1.5,0.4-2.1
				c0.3-0.6,0.7-1.1,1.2-1.4c0.5-0.3,1.1-0.5,1.8-0.5c0.4,0,0.8,0.1,1.2,0.2c0.4,0.1,0.7,0.3,1.1,0.6s0.6,0.7,0.8,1.2
				c0.2,0.5,0.3,1.1,0.3,1.8v0.5h-5.9v-1h4.7c0-0.4-0.1-0.8-0.3-1.2c-0.2-0.3-0.4-0.6-0.7-0.8c-0.3-0.2-0.7-0.3-1.1-0.3
				c-0.5,0-0.9,0.1-1.2,0.3c-0.3,0.2-0.6,0.5-0.8,0.9c-0.2,0.4-0.3,0.8-0.3,1.2v0.7c0,0.6,0.1,1.1,0.3,1.5c0.2,0.4,0.5,0.7,0.8,0.9
				c0.4,0.2,0.8,0.3,1.2,0.3c0.3,0,0.6,0,0.8-0.1c0.2-0.1,0.5-0.2,0.6-0.4c0.2-0.2,0.3-0.4,0.4-0.7l1.1,0.3c-0.1,0.4-0.3,0.7-0.6,1
				s-0.6,0.5-1,0.7S273.6,25.5,273.1,25.5z"/>
			<path class="st1" d="M278,28.2V17.7h1.1v1.2h0.1c0.1-0.1,0.2-0.3,0.4-0.5c0.2-0.2,0.4-0.4,0.7-0.6s0.7-0.2,1.2-0.2
				c0.6,0,1.2,0.2,1.7,0.5c0.5,0.3,0.9,0.8,1.1,1.4c0.3,0.6,0.4,1.3,0.4,2.1c0,0.8-0.1,1.5-0.4,2.1c-0.3,0.6-0.7,1-1.1,1.4
				s-1,0.5-1.7,0.5c-0.5,0-0.9-0.1-1.2-0.2s-0.5-0.4-0.7-0.6s-0.3-0.4-0.4-0.5h-0.1v4H278z M279.2,21.5c0,0.6,0.1,1.1,0.3,1.5
				c0.2,0.4,0.4,0.8,0.7,1c0.3,0.2,0.7,0.4,1.2,0.4c0.5,0,0.9-0.1,1.2-0.4s0.6-0.6,0.7-1.1c0.2-0.4,0.3-0.9,0.3-1.5
				c0-0.5-0.1-1-0.2-1.5s-0.4-0.8-0.7-1c-0.3-0.3-0.7-0.4-1.2-0.4c-0.5,0-0.9,0.1-1.2,0.4s-0.6,0.6-0.7,1
				C279.3,20.4,279.2,20.9,279.2,21.5z"/>
			<path class="st1" d="M288.8,25.5c-0.5,0-0.9-0.1-1.3-0.3c-0.4-0.2-0.7-0.5-0.9-0.8c-0.2-0.3-0.3-0.8-0.3-1.3
				c0-0.4,0.1-0.8,0.3-1.1s0.4-0.5,0.7-0.6c0.3-0.2,0.6-0.3,1-0.4c0.3-0.1,0.7-0.1,1.1-0.2c0.5-0.1,0.8-0.1,1.1-0.1
				c0.3,0,0.5-0.1,0.6-0.2c0.1-0.1,0.2-0.2,0.2-0.4v0c0-0.5-0.1-0.9-0.4-1.1c-0.3-0.3-0.7-0.4-1.2-0.4c-0.6,0-1,0.1-1.3,0.4
				c-0.3,0.2-0.5,0.5-0.7,0.8l-1.1-0.4c0.2-0.5,0.5-0.8,0.8-1.1c0.3-0.3,0.7-0.4,1.1-0.5c0.4-0.1,0.8-0.2,1.2-0.2
				c0.2,0,0.5,0,0.8,0.1c0.3,0.1,0.6,0.2,0.9,0.4c0.3,0.2,0.5,0.4,0.7,0.8c0.2,0.4,0.3,0.8,0.3,1.5v5h-1.2v-1h-0.1
				c-0.1,0.2-0.2,0.3-0.4,0.5s-0.4,0.3-0.7,0.5C289.6,25.4,289.3,25.5,288.8,25.5z M289,24.4c0.5,0,0.9-0.1,1.2-0.3
				c0.3-0.2,0.6-0.4,0.7-0.7c0.2-0.3,0.2-0.6,0.2-0.9v-1.1c0,0.1-0.2,0.1-0.3,0.2c-0.2,0-0.4,0.1-0.6,0.1c-0.2,0-0.4,0.1-0.6,0.1
				s-0.4,0-0.5,0.1c-0.3,0-0.6,0.1-0.9,0.2c-0.3,0.1-0.5,0.2-0.6,0.4c-0.2,0.2-0.2,0.4-0.2,0.7c0,0.4,0.2,0.7,0.5,0.9
				C288.1,24.3,288.5,24.4,289,24.4z"/>
			<path class="st1" d="M297.5,28.3c-0.6,0-1.1-0.1-1.5-0.2c-0.4-0.1-0.7-0.3-1-0.6c-0.3-0.2-0.5-0.5-0.6-0.7l0.9-0.7
				c0.1,0.1,0.2,0.3,0.4,0.5s0.4,0.3,0.7,0.5s0.7,0.2,1.1,0.2c0.6,0,1.1-0.1,1.5-0.4c0.4-0.3,0.6-0.8,0.6-1.4v-1.6h-0.1
				c-0.1,0.1-0.2,0.3-0.4,0.5c-0.2,0.2-0.4,0.4-0.7,0.5c-0.3,0.2-0.7,0.2-1.2,0.2c-0.6,0-1.2-0.1-1.7-0.4c-0.5-0.3-0.9-0.7-1.2-1.3
				s-0.4-1.2-0.4-2c0-0.8,0.1-1.5,0.4-2c0.3-0.6,0.7-1,1.1-1.4c0.5-0.3,1.1-0.5,1.7-0.5c0.5,0,0.9,0.1,1.2,0.2
				c0.3,0.2,0.5,0.3,0.7,0.6c0.2,0.2,0.3,0.4,0.4,0.5h0.1v-1.2h1.1v7.9c0,0.7-0.1,1.2-0.4,1.6c-0.3,0.4-0.7,0.7-1.2,0.9
				C298.7,28.2,298.2,28.3,297.5,28.3z M297.5,24.1c0.5,0,0.9-0.1,1.2-0.3c0.3-0.2,0.6-0.5,0.7-0.9c0.2-0.4,0.3-0.9,0.3-1.5
				c0-0.5-0.1-1-0.2-1.5c-0.2-0.4-0.4-0.8-0.7-1c-0.3-0.2-0.7-0.4-1.2-0.4c-0.5,0-0.9,0.1-1.2,0.4c-0.3,0.3-0.6,0.6-0.7,1
				s-0.2,0.9-0.2,1.4c0,0.5,0.1,1,0.3,1.4c0.2,0.4,0.4,0.7,0.7,1C296.6,24,297,24.1,297.5,24.1z"/>
			<path class="st1" d="M306.2,25.5c-0.7,0-1.4-0.2-1.9-0.5c-0.5-0.3-0.9-0.8-1.2-1.4c-0.3-0.6-0.4-1.3-0.4-2.1s0.1-1.5,0.4-2.1
				c0.3-0.6,0.7-1.1,1.2-1.4s1.1-0.5,1.8-0.5c0.4,0,0.8,0.1,1.2,0.2c0.4,0.1,0.7,0.3,1.1,0.6c0.3,0.3,0.6,0.7,0.8,1.2
				c0.2,0.5,0.3,1.1,0.3,1.8v0.5h-5.9v-1h4.7c0-0.4-0.1-0.8-0.3-1.2c-0.2-0.3-0.4-0.6-0.7-0.8c-0.3-0.2-0.7-0.3-1.1-0.3
				c-0.5,0-0.9,0.1-1.2,0.3c-0.3,0.2-0.6,0.5-0.8,0.9c-0.2,0.4-0.3,0.8-0.3,1.2v0.7c0,0.6,0.1,1.1,0.3,1.5c0.2,0.4,0.5,0.7,0.8,0.9
				c0.4,0.2,0.8,0.3,1.2,0.3c0.3,0,0.6,0,0.8-0.1c0.2-0.1,0.5-0.2,0.6-0.4s0.3-0.4,0.4-0.7l1.1,0.3c-0.1,0.4-0.3,0.7-0.6,1
				c-0.3,0.3-0.6,0.5-1,0.7C307.2,25.4,306.7,25.5,306.2,25.5z"/>
		</g>
	</g>
	<rect x="194" y="198.8" class="st0" width="160" height="43"/>
	<g>
		<g>
			<path class="st1" d="M230.8,224.1v-10.2h6.1v1.1h-4.9v3.4h4.6v1.1h-4.6v3.5h5v1.1H230.8z"/>
			<path class="st1" d="M239.9,216.5l1.8,3.1l1.8-3.1h1.4l-2.5,3.8l2.5,3.8h-1.4l-1.8-3l-1.8,3h-1.4l2.4-3.8l-2.4-3.8H239.9z"/>
			<path class="st1" d="M246.6,227v-10.5h1.1v1.2h0.1c0.1-0.1,0.2-0.3,0.4-0.5c0.2-0.2,0.4-0.4,0.7-0.6s0.7-0.2,1.2-0.2
				c0.6,0,1.2,0.2,1.7,0.5c0.5,0.3,0.9,0.8,1.1,1.4c0.3,0.6,0.4,1.3,0.4,2.1c0,0.8-0.1,1.5-0.4,2.1c-0.3,0.6-0.7,1-1.1,1.4
				s-1,0.5-1.7,0.5c-0.5,0-0.9-0.1-1.2-0.2s-0.5-0.4-0.7-0.6s-0.3-0.4-0.4-0.5h-0.1v4H246.6z M247.8,220.3c0,0.6,0.1,1.1,0.3,1.5
				c0.2,0.4,0.4,0.8,0.7,1c0.3,0.2,0.7,0.4,1.2,0.4c0.5,0,0.9-0.1,1.2-0.4c0.3-0.3,0.6-0.6,0.7-1.1c0.2-0.4,0.3-0.9,0.3-1.5
				c0-0.5-0.1-1-0.2-1.5s-0.4-0.8-0.7-1c-0.3-0.3-0.7-0.4-1.2-0.4c-0.5,0-0.9,0.1-1.2,0.4c-0.3,0.2-0.6,0.6-0.7,1
				C247.8,219.2,247.8,219.7,247.8,220.3z"/>
			<path class="st1" d="M256.3,213.9v10.2h-1.2v-10.2H256.3z"/>
			<path class="st1" d="M261.6,224.3c-0.7,0-1.3-0.2-1.8-0.5c-0.5-0.3-0.9-0.8-1.2-1.4c-0.3-0.6-0.4-1.3-0.4-2.1
				c0-0.8,0.1-1.5,0.4-2.1s0.7-1.1,1.2-1.4c0.5-0.3,1.1-0.5,1.8-0.5s1.3,0.2,1.8,0.5s0.9,0.8,1.2,1.4s0.4,1.3,0.4,2.1
				c0,0.8-0.1,1.5-0.4,2.1c-0.3,0.6-0.7,1-1.2,1.4S262.2,224.3,261.6,224.3z M261.6,223.2c0.5,0,1-0.1,1.3-0.4
				c0.3-0.3,0.6-0.6,0.8-1.1c0.2-0.4,0.2-0.9,0.2-1.4s-0.1-1-0.2-1.4c-0.2-0.4-0.4-0.8-0.8-1.1c-0.3-0.3-0.8-0.4-1.3-0.4
				s-1,0.1-1.3,0.4c-0.3,0.3-0.6,0.6-0.8,1.1c-0.2,0.4-0.2,0.9-0.2,1.4s0.1,1,0.2,1.4c0.2,0.4,0.4,0.8,0.8,1.1
				C260.6,223.1,261,223.2,261.6,223.2z"/>
			<path class="st1" d="M266.8,224.1v-7.6h1.1v1.2h0.1c0.1-0.4,0.4-0.7,0.8-0.9c0.4-0.2,0.8-0.4,1.2-0.4c0.1,0,0.2,0,0.3,0
				c0.1,0,0.2,0,0.3,0v1.2c0,0-0.1,0-0.3,0s-0.3,0-0.4,0c-0.4,0-0.7,0.1-1,0.2c-0.3,0.2-0.5,0.4-0.7,0.6c-0.2,0.3-0.3,0.6-0.3,0.9
				v4.8H266.8z"/>
			<path class="st1" d="M275.2,224.3c-0.7,0-1.4-0.2-1.9-0.5s-0.9-0.8-1.2-1.4c-0.3-0.6-0.4-1.3-0.4-2.1s0.1-1.5,0.4-2.1
				c0.3-0.6,0.7-1.1,1.2-1.4c0.5-0.3,1.1-0.5,1.8-0.5c0.4,0,0.8,0.1,1.2,0.2c0.4,0.1,0.7,0.3,1.1,0.6s0.6,0.7,0.8,1.2
				c0.2,0.5,0.3,1.1,0.3,1.8v0.5h-5.9v-1h4.7c0-0.4-0.1-0.8-0.3-1.2c-0.2-0.3-0.4-0.6-0.7-0.8c-0.3-0.2-0.7-0.3-1.1-0.3
				c-0.5,0-0.9,0.1-1.2,0.3c-0.3,0.2-0.6,0.5-0.8,0.9c-0.2,0.4-0.3,0.8-0.3,1.2v0.7c0,0.6,0.1,1.1,0.3,1.5c0.2,0.4,0.5,0.7,0.8,0.9
				c0.4,0.2,0.8,0.3,1.2,0.3c0.3,0,0.6,0,0.8-0.1c0.2-0.1,0.5-0.2,0.6-0.4c0.2-0.2,0.3-0.4,0.4-0.7l1.1,0.3c-0.1,0.4-0.3,0.7-0.6,1
				s-0.6,0.5-1,0.7S275.7,224.3,275.2,224.3z"/>
			<path class="st1" d="M285.5,213.9v10.2h-1.2v-10.2H285.5z"/>
			<path class="st1" d="M290.9,224.3c-0.7,0-1.3-0.2-1.8-0.5c-0.5-0.3-0.9-0.8-1.2-1.4c-0.3-0.6-0.4-1.3-0.4-2
				c0-0.8,0.1-1.5,0.4-2.1c0.3-0.6,0.7-1.1,1.2-1.4s1.1-0.5,1.8-0.5c0.5,0,1,0.1,1.5,0.3s0.8,0.5,1.1,0.8c0.3,0.4,0.4,0.8,0.5,1.3
				h-1.2c-0.1-0.3-0.3-0.7-0.6-0.9c-0.3-0.3-0.7-0.4-1.2-0.4c-0.5,0-0.9,0.1-1.2,0.4c-0.3,0.2-0.6,0.6-0.8,1s-0.3,0.9-0.3,1.5
				c0,0.6,0.1,1.1,0.3,1.5s0.5,0.8,0.8,1c0.3,0.2,0.7,0.4,1.2,0.4c0.3,0,0.6-0.1,0.8-0.2c0.2-0.1,0.5-0.3,0.6-0.5
				c0.2-0.2,0.3-0.4,0.4-0.7h1.2c-0.1,0.5-0.2,0.9-0.5,1.2c-0.3,0.4-0.6,0.6-1,0.9S291.5,224.3,290.9,224.3z"/>
			<path class="st1" d="M298.7,224.3c-0.7,0-1.3-0.2-1.8-0.5c-0.5-0.3-0.9-0.8-1.2-1.4c-0.3-0.6-0.4-1.3-0.4-2.1
				c0-0.8,0.1-1.5,0.4-2.1s0.7-1.1,1.2-1.4c0.5-0.3,1.1-0.5,1.8-0.5s1.3,0.2,1.8,0.5s0.9,0.8,1.2,1.4s0.4,1.3,0.4,2.1
				c0,0.8-0.1,1.5-0.4,2.1c-0.3,0.6-0.7,1-1.2,1.4S299.4,224.3,298.7,224.3z M298.7,223.2c0.5,0,1-0.1,1.3-0.4
				c0.3-0.3,0.6-0.6,0.8-1.1c0.2-0.4,0.2-0.9,0.2-1.4s-0.1-1-0.2-1.4c-0.2-0.4-0.4-0.8-0.8-1.1c-0.3-0.3-0.8-0.4-1.3-0.4
				s-1,0.1-1.3,0.4c-0.3,0.3-0.6,0.6-0.8,1.1c-0.2,0.4-0.2,0.9-0.2,1.4s0.1,1,0.2,1.4c0.2,0.4,0.4,0.8,0.8,1.1
				C297.8,223.1,298.2,223.2,298.7,223.2z"/>
			<path class="st1" d="M305.1,219.5v4.6H304v-7.6h1.1v1.2h0.1c0.2-0.4,0.5-0.7,0.8-0.9c0.4-0.2,0.8-0.4,1.4-0.4
				c0.5,0,1,0.1,1.4,0.3s0.7,0.5,0.9,1c0.2,0.4,0.3,1,0.3,1.6v4.9h-1.2v-4.8c0-0.6-0.2-1.1-0.5-1.4s-0.7-0.5-1.3-0.5
				c-0.4,0-0.7,0.1-1,0.2c-0.3,0.2-0.5,0.4-0.7,0.7S305.1,219.1,305.1,219.5z"/>
			<path class="st1" d="M317.6,218.2l-1.1,0.3c-0.1-0.2-0.2-0.3-0.3-0.5c-0.1-0.2-0.3-0.3-0.5-0.4s-0.5-0.2-0.8-0.2
				c-0.5,0-0.9,0.1-1.2,0.3s-0.5,0.5-0.5,0.8c0,0.3,0.1,0.5,0.3,0.7s0.5,0.3,1,0.4l1.1,0.3c0.7,0.2,1.2,0.4,1.5,0.8
				c0.3,0.3,0.5,0.8,0.5,1.3c0,0.4-0.1,0.8-0.4,1.2c-0.2,0.3-0.6,0.6-1,0.8s-1,0.3-1.6,0.3c-0.8,0-1.4-0.2-1.9-0.5
				c-0.5-0.3-0.8-0.8-1-1.5l1.1-0.3c0.1,0.4,0.3,0.7,0.6,0.9s0.7,0.3,1.2,0.3c0.5,0,1-0.1,1.3-0.4c0.3-0.2,0.5-0.5,0.5-0.8
				c0-0.3-0.1-0.5-0.3-0.7c-0.2-0.2-0.5-0.3-0.9-0.4l-1.3-0.3c-0.7-0.2-1.2-0.4-1.5-0.8s-0.5-0.8-0.5-1.3c0-0.4,0.1-0.8,0.4-1.1
				c0.2-0.3,0.6-0.6,1-0.8c0.4-0.2,0.9-0.3,1.4-0.3c0.8,0,1.3,0.2,1.8,0.5C317.1,217.2,317.4,217.6,317.6,218.2z"/>
		</g>
	</g>
	<line class="st2" x1="274" y1="46" x2="274" y2="198.3"/>
	<circle class="st3" cx="274" cy="43.3" r="5"/>
	<rect x="194" y="313.8" class="st0" width="160" height="43"/>
	<g>
		<g>
			<path class="st1" d="M237.9,328.9v10.2h-1.2v-10.2H237.9z"/>
			<path class="st1" d="M243.3,339.3c-0.7,0-1.3-0.2-1.8-0.5c-0.5-0.3-0.9-0.8-1.2-1.4c-0.3-0.6-0.4-1.3-0.4-2
				c0-0.8,0.1-1.5,0.4-2.1c0.3-0.6,0.7-1.1,1.2-1.4c0.5-0.3,1.1-0.5,1.8-0.5c0.5,0,1,0.1,1.5,0.3s0.8,0.5,1.1,0.8
				c0.3,0.4,0.4,0.8,0.5,1.3h-1.2c-0.1-0.3-0.3-0.7-0.6-0.9c-0.3-0.3-0.7-0.4-1.2-0.4c-0.5,0-0.9,0.1-1.2,0.4
				c-0.3,0.2-0.6,0.6-0.8,1c-0.2,0.4-0.3,0.9-0.3,1.5c0,0.6,0.1,1.1,0.3,1.5c0.2,0.4,0.5,0.8,0.8,1c0.3,0.2,0.7,0.4,1.2,0.4
				c0.3,0,0.6-0.1,0.8-0.2c0.2-0.1,0.5-0.3,0.6-0.5c0.2-0.2,0.3-0.4,0.4-0.7h1.2c-0.1,0.5-0.2,0.9-0.5,1.2c-0.3,0.4-0.6,0.6-1,0.9
				S243.9,339.3,243.3,339.3z"/>
			<path class="st1" d="M251.1,339.3c-0.7,0-1.3-0.2-1.8-0.5c-0.5-0.3-0.9-0.8-1.2-1.4c-0.3-0.6-0.4-1.3-0.4-2.1
				c0-0.8,0.1-1.5,0.4-2.1s0.7-1.1,1.2-1.4c0.5-0.3,1.1-0.5,1.8-0.5c0.7,0,1.3,0.2,1.8,0.5s0.9,0.8,1.2,1.4s0.4,1.3,0.4,2.1
				c0,0.8-0.1,1.5-0.4,2.1c-0.3,0.6-0.7,1-1.2,1.4S251.8,339.3,251.1,339.3z M251.1,338.2c0.5,0,1-0.1,1.3-0.4
				c0.3-0.3,0.6-0.6,0.8-1.1c0.2-0.4,0.2-0.9,0.2-1.4s-0.1-1-0.2-1.4c-0.2-0.4-0.4-0.8-0.8-1.1c-0.3-0.3-0.8-0.4-1.3-0.4
				c-0.5,0-1,0.1-1.3,0.4c-0.3,0.3-0.6,0.6-0.8,1.1c-0.2,0.4-0.2,0.9-0.2,1.4s0.1,1,0.2,1.4c0.2,0.4,0.4,0.8,0.8,1.1
				C250.2,338.1,250.6,338.2,251.1,338.2z"/>
			<path class="st1" d="M257.5,334.5v4.6h-1.2v-7.6h1.1v1.2h0.1c0.2-0.4,0.5-0.7,0.8-0.9c0.4-0.2,0.8-0.4,1.4-0.4
				c0.5,0,1,0.1,1.4,0.3c0.4,0.2,0.7,0.5,0.9,1c0.2,0.4,0.3,1,0.3,1.6v4.9h-1.2v-4.8c0-0.6-0.2-1.1-0.5-1.4s-0.7-0.5-1.3-0.5
				c-0.4,0-0.7,0.1-1,0.2c-0.3,0.2-0.5,0.4-0.7,0.7C257.6,333.7,257.5,334.1,257.5,334.5z"/>
			<path class="st1" d="M271.8,339.1h-3.1v-10.2h3.3c1,0,1.8,0.2,2.5,0.6c0.7,0.4,1.2,1,1.6,1.7c0.4,0.8,0.6,1.7,0.6,2.7
				c0,1.1-0.2,2-0.6,2.7c-0.4,0.8-0.9,1.4-1.7,1.8C273.7,338.9,272.8,339.1,271.8,339.1z M269.9,338h1.8c0.8,0,1.5-0.2,2.1-0.5
				c0.6-0.3,1-0.8,1.2-1.4c0.3-0.6,0.4-1.3,0.4-2.1c0-0.8-0.1-1.5-0.4-2.1c-0.3-0.6-0.7-1.1-1.2-1.4c-0.5-0.3-1.2-0.5-2-0.5h-2V338z
				"/>
			<path class="st1" d="M281.8,339.3c-0.7,0-1.4-0.2-1.9-0.5s-0.9-0.8-1.2-1.4c-0.3-0.6-0.4-1.3-0.4-2.1s0.1-1.5,0.4-2.1
				c0.3-0.6,0.7-1.1,1.2-1.4c0.5-0.3,1.1-0.5,1.8-0.5c0.4,0,0.8,0.1,1.2,0.2c0.4,0.1,0.7,0.3,1.1,0.6s0.6,0.7,0.8,1.2
				c0.2,0.5,0.3,1.1,0.3,1.8v0.5H279v-1h4.7c0-0.4-0.1-0.8-0.3-1.2c-0.2-0.3-0.4-0.6-0.7-0.8c-0.3-0.2-0.7-0.3-1.1-0.3
				c-0.5,0-0.9,0.1-1.2,0.3c-0.3,0.2-0.6,0.5-0.8,0.9c-0.2,0.4-0.3,0.8-0.3,1.2v0.7c0,0.6,0.1,1.1,0.3,1.5c0.2,0.4,0.5,0.7,0.8,0.9
				c0.4,0.2,0.8,0.3,1.2,0.3c0.3,0,0.6,0,0.8-0.1c0.2-0.1,0.5-0.2,0.6-0.4c0.2-0.2,0.3-0.4,0.4-0.7l1.1,0.3c-0.1,0.4-0.3,0.7-0.6,1
				s-0.6,0.5-1,0.7S282.3,339.3,281.8,339.3z"/>
			<path class="st1" d="M290,331.5v1h-4v-1H290z M287.2,329.6h1.2v7.3c0,0.3,0,0.6,0.1,0.7s0.2,0.3,0.4,0.3s0.3,0.1,0.5,0.1
				c0.1,0,0.2,0,0.3,0c0.1,0,0.1,0,0.2,0l0.2,1.1c-0.1,0-0.2,0.1-0.3,0.1c-0.1,0-0.3,0-0.5,0c-0.3,0-0.7-0.1-1-0.2s-0.6-0.4-0.8-0.7
				c-0.2-0.3-0.3-0.7-0.3-1.1V329.6z"/>
			<path class="st1" d="M294.1,339.3c-0.5,0-0.9-0.1-1.3-0.3c-0.4-0.2-0.7-0.5-0.9-0.8c-0.2-0.3-0.3-0.8-0.3-1.3
				c0-0.4,0.1-0.8,0.3-1.1s0.4-0.5,0.7-0.6c0.3-0.2,0.6-0.3,1-0.4c0.3-0.1,0.7-0.1,1.1-0.2c0.5-0.1,0.8-0.1,1.1-0.1
				c0.3,0,0.5-0.1,0.6-0.2c0.1-0.1,0.2-0.2,0.2-0.4v0c0-0.5-0.1-0.9-0.4-1.1c-0.3-0.3-0.7-0.4-1.2-0.4c-0.6,0-1,0.1-1.3,0.4
				c-0.3,0.2-0.5,0.5-0.7,0.8l-1.1-0.4c0.2-0.5,0.5-0.8,0.8-1.1c0.3-0.3,0.7-0.4,1.1-0.5c0.4-0.1,0.8-0.2,1.2-0.2
				c0.2,0,0.5,0,0.8,0.1c0.3,0.1,0.6,0.2,0.9,0.4c0.3,0.2,0.5,0.4,0.7,0.8c0.2,0.4,0.3,0.8,0.3,1.5v5h-1.2v-1h-0.1
				c-0.1,0.2-0.2,0.3-0.4,0.5s-0.4,0.3-0.7,0.5C294.9,339.2,294.5,339.3,294.1,339.3z M294.2,338.2c0.5,0,0.9-0.1,1.2-0.3
				c0.3-0.2,0.6-0.4,0.7-0.7c0.2-0.3,0.2-0.6,0.2-0.9v-1.1c0,0.1-0.2,0.1-0.3,0.2c-0.2,0-0.4,0.1-0.6,0.1c-0.2,0-0.4,0.1-0.6,0.1
				s-0.4,0-0.5,0.1c-0.3,0-0.6,0.1-0.9,0.2c-0.3,0.1-0.5,0.2-0.6,0.4c-0.2,0.2-0.2,0.4-0.2,0.7c0,0.4,0.2,0.7,0.5,0.9
				C293.4,338.1,293.8,338.2,294.2,338.2z"/>
			<path class="st1" d="M300.3,330.2c-0.2,0-0.4-0.1-0.6-0.2s-0.2-0.3-0.2-0.6s0.1-0.4,0.2-0.6s0.4-0.2,0.6-0.2s0.4,0.1,0.6,0.2
				s0.2,0.3,0.2,0.6s-0.1,0.4-0.2,0.6S300.5,330.2,300.3,330.2z M299.7,339.1v-7.6h1.2v7.6H299.7z"/>
			<path class="st1" d="M304.2,328.9v10.2H303v-10.2H304.2z"/>
			<path class="st1" d="M311.8,333.2l-1.1,0.3c-0.1-0.2-0.2-0.3-0.3-0.5c-0.1-0.2-0.3-0.3-0.5-0.4s-0.5-0.2-0.8-0.2
				c-0.5,0-0.9,0.1-1.2,0.3c-0.3,0.2-0.5,0.5-0.5,0.8c0,0.3,0.1,0.5,0.3,0.7s0.5,0.3,1,0.4l1.1,0.3c0.7,0.2,1.2,0.4,1.5,0.8
				c0.3,0.3,0.5,0.8,0.5,1.3c0,0.4-0.1,0.8-0.4,1.2s-0.6,0.6-1,0.8c-0.4,0.2-1,0.3-1.6,0.3c-0.8,0-1.4-0.2-1.9-0.5
				c-0.5-0.3-0.8-0.8-1-1.5l1.1-0.3c0.1,0.4,0.3,0.7,0.6,0.9c0.3,0.2,0.7,0.3,1.2,0.3c0.5,0,1-0.1,1.3-0.4c0.3-0.2,0.5-0.5,0.5-0.8
				c0-0.3-0.1-0.5-0.3-0.7s-0.5-0.3-0.9-0.4l-1.3-0.3c-0.7-0.2-1.2-0.4-1.5-0.8c-0.3-0.3-0.5-0.8-0.5-1.3c0-0.4,0.1-0.8,0.4-1.1
				c0.2-0.3,0.6-0.6,1-0.8c0.4-0.2,0.9-0.3,1.4-0.3c0.8,0,1.4,0.2,1.8,0.5C311.3,332.2,311.6,332.6,311.8,333.2z"/>
		</g>
	</g>
	<line class="st2" x1="274" y1="242.3" x2="274" y2="313.3"/>
	<circle class="st3" cx="274" cy="242.3" r="5"/>
	<circle class="st3" cx="274" cy="357" r="5"/>
	<g>
		<rect x="387.5" y="198.8" class="st0" width="160" height="43"/>
		<g>
			<g>
				<path class="st1" d="M426.5,224.1v-10.2h6.1v1.1h-4.9v3.4h4.4v1.1h-4.4v4.6H426.5z"/>
				<path class="st1" d="M435.2,215.2c-0.2,0-0.4-0.1-0.6-0.2s-0.2-0.3-0.2-0.6s0.1-0.4,0.2-0.6s0.4-0.2,0.6-0.2s0.4,0.1,0.6,0.2
					s0.2,0.3,0.2,0.6s-0.1,0.4-0.2,0.6S435.4,215.2,435.2,215.2z M434.6,224.1v-7.6h1.2v7.6H434.6z"/>
				<path class="st1" d="M441,227.1c-0.6,0-1.1-0.1-1.5-0.2c-0.4-0.1-0.7-0.3-1-0.6c-0.3-0.2-0.5-0.5-0.6-0.7l0.9-0.7
					c0.1,0.1,0.2,0.3,0.4,0.5c0.2,0.2,0.4,0.3,0.7,0.5c0.3,0.1,0.7,0.2,1.1,0.2c0.6,0,1.1-0.1,1.5-0.4s0.6-0.8,0.6-1.4v-1.6H443
					c-0.1,0.1-0.2,0.3-0.4,0.5c-0.2,0.2-0.4,0.4-0.7,0.5c-0.3,0.2-0.7,0.2-1.2,0.2c-0.6,0-1.2-0.1-1.7-0.4c-0.5-0.3-0.9-0.7-1.2-1.3
					c-0.3-0.6-0.4-1.2-0.4-2c0-0.8,0.1-1.5,0.4-2s0.7-1,1.1-1.4s1.1-0.5,1.7-0.5c0.5,0,0.9,0.1,1.2,0.2c0.3,0.2,0.5,0.3,0.7,0.6
					c0.2,0.2,0.3,0.4,0.4,0.5h0.1v-1.2h1.1v7.9c0,0.7-0.1,1.2-0.4,1.6s-0.7,0.7-1.2,0.9S441.6,227.1,441,227.1z M440.9,222.9
					c0.5,0,0.9-0.1,1.2-0.3c0.3-0.2,0.6-0.5,0.7-0.9c0.2-0.4,0.3-0.9,0.3-1.5c0-0.5-0.1-1-0.2-1.5s-0.4-0.8-0.7-1
					c-0.3-0.2-0.7-0.4-1.2-0.4c-0.5,0-0.9,0.1-1.2,0.4c-0.3,0.3-0.6,0.6-0.7,1s-0.2,0.9-0.2,1.4c0,0.5,0.1,1,0.3,1.4
					c0.2,0.4,0.4,0.7,0.7,1C440,222.8,440.4,222.9,440.9,222.9z"/>
				<path class="st1" d="M446.4,224.1v-7.6h1.1v1.2h0.1c0.2-0.4,0.4-0.7,0.8-1c0.4-0.2,0.8-0.3,1.3-0.3c0.5,0,0.9,0.1,1.3,0.3
					c0.3,0.2,0.6,0.5,0.8,1h0.1c0.2-0.4,0.5-0.7,0.9-0.9c0.4-0.2,0.9-0.4,1.4-0.4c0.7,0,1.2,0.2,1.7,0.6c0.4,0.4,0.7,1.1,0.7,2v5.1
					h-1.2V219c0-0.6-0.2-1-0.5-1.2c-0.3-0.2-0.7-0.4-1.1-0.4c-0.5,0-1,0.2-1.2,0.5c-0.3,0.3-0.4,0.7-0.4,1.2v5h-1.2v-5.2
					c0-0.4-0.1-0.8-0.4-1.1c-0.3-0.3-0.6-0.4-1.1-0.4c-0.3,0-0.6,0.1-0.9,0.2c-0.3,0.2-0.5,0.4-0.6,0.7c-0.2,0.3-0.2,0.6-0.2,1v4.8
					H446.4z"/>
				<path class="st1" d="M460.8,224.3c-0.5,0-0.9-0.1-1.3-0.3c-0.4-0.2-0.7-0.5-0.9-0.8c-0.2-0.3-0.3-0.8-0.3-1.3
					c0-0.4,0.1-0.8,0.3-1.1c0.2-0.3,0.4-0.5,0.7-0.6s0.6-0.3,1-0.4c0.3-0.1,0.7-0.1,1.1-0.2c0.5-0.1,0.8-0.1,1.1-0.1
					c0.3,0,0.5-0.1,0.6-0.2c0.1-0.1,0.2-0.2,0.2-0.4v0c0-0.5-0.1-0.9-0.4-1.1c-0.3-0.3-0.7-0.4-1.2-0.4c-0.6,0-1,0.1-1.3,0.4
					c-0.3,0.2-0.5,0.5-0.7,0.8l-1.1-0.4c0.2-0.5,0.5-0.8,0.8-1.1s0.7-0.4,1.1-0.5c0.4-0.1,0.8-0.2,1.2-0.2c0.2,0,0.5,0,0.8,0.1
					c0.3,0.1,0.6,0.2,0.9,0.4c0.3,0.2,0.5,0.4,0.7,0.8s0.3,0.8,0.3,1.5v5h-1.2v-1h-0.1c-0.1,0.2-0.2,0.3-0.4,0.5s-0.4,0.3-0.7,0.5
					C461.7,224.2,461.3,224.3,460.8,224.3z M461,223.2c0.5,0,0.9-0.1,1.2-0.3c0.3-0.2,0.6-0.4,0.7-0.7c0.2-0.3,0.2-0.6,0.2-0.9v-1.1
					c0,0.1-0.2,0.1-0.3,0.2c-0.2,0-0.4,0.1-0.6,0.1s-0.4,0.1-0.6,0.1c-0.2,0-0.4,0-0.5,0.1c-0.3,0-0.6,0.1-0.9,0.2s-0.5,0.2-0.6,0.4
					c-0.2,0.2-0.2,0.4-0.2,0.7c0,0.4,0.2,0.7,0.5,0.9C460.2,223.1,460.5,223.2,461,223.2z"/>
				<path class="st1" d="M470.6,224.1v-10.2h3.4c0.8,0,1.5,0.1,2,0.4c0.5,0.3,0.9,0.7,1.1,1.2s0.4,1,0.4,1.6c0,0.6-0.1,1.1-0.4,1.6
					c-0.2,0.5-0.6,0.9-1.1,1.2c-0.5,0.3-1.2,0.4-1.9,0.4h-2.5v-1.1h2.4c0.5,0,1-0.1,1.3-0.3c0.3-0.2,0.6-0.4,0.7-0.8
					c0.2-0.3,0.2-0.7,0.2-1.1c0-0.4-0.1-0.8-0.2-1.1c-0.2-0.3-0.4-0.6-0.7-0.8c-0.3-0.2-0.8-0.3-1.3-0.3h-2.2v9.1H470.6z"/>
				<path class="st1" d="M480.5,213.9v10.2h-1.2v-10.2H480.5z"/>
				<path class="st1" d="M487.4,221v-4.5h1.2v7.6h-1.2v-1.3h-0.1c-0.2,0.4-0.5,0.7-0.8,1s-0.9,0.4-1.4,0.4c-0.5,0-0.9-0.1-1.3-0.3
					s-0.7-0.5-0.9-1c-0.2-0.4-0.3-1-0.3-1.6v-4.9h1.2v4.8c0,0.6,0.2,1,0.5,1.3c0.3,0.3,0.7,0.5,1.2,0.5c0.3,0,0.6-0.1,0.9-0.2
					c0.3-0.1,0.6-0.4,0.8-0.7S487.4,221.5,487.4,221z"/>
				<path class="st1" d="M493.8,227.1c-0.6,0-1.1-0.1-1.5-0.2c-0.4-0.1-0.7-0.3-1-0.6c-0.3-0.2-0.5-0.5-0.6-0.7l0.9-0.7
					c0.1,0.1,0.2,0.3,0.4,0.5c0.2,0.2,0.4,0.3,0.7,0.5c0.3,0.1,0.7,0.2,1.1,0.2c0.6,0,1.1-0.1,1.5-0.4s0.6-0.8,0.6-1.4v-1.6h-0.1
					c-0.1,0.1-0.2,0.3-0.4,0.5c-0.2,0.2-0.4,0.4-0.7,0.5c-0.3,0.2-0.7,0.2-1.2,0.2c-0.6,0-1.2-0.1-1.7-0.4c-0.5-0.3-0.9-0.7-1.2-1.3
					c-0.3-0.6-0.4-1.2-0.4-2c0-0.8,0.1-1.5,0.4-2s0.7-1,1.1-1.4s1.1-0.5,1.7-0.5c0.5,0,0.9,0.1,1.2,0.2c0.3,0.2,0.5,0.3,0.7,0.6
					c0.2,0.2,0.3,0.4,0.4,0.5h0.1v-1.2h1.1v7.9c0,0.7-0.1,1.2-0.4,1.6s-0.7,0.7-1.2,0.9S494.5,227.1,493.8,227.1z M493.8,222.9
					c0.5,0,0.9-0.1,1.2-0.3c0.3-0.2,0.6-0.5,0.7-0.9c0.2-0.4,0.3-0.9,0.3-1.5c0-0.5-0.1-1-0.2-1.5s-0.4-0.8-0.7-1
					c-0.3-0.2-0.7-0.4-1.2-0.4c-0.5,0-0.9,0.1-1.2,0.4c-0.3,0.3-0.6,0.6-0.7,1s-0.2,0.9-0.2,1.4c0,0.5,0.1,1,0.3,1.4
					c0.2,0.4,0.4,0.7,0.7,1C492.9,222.8,493.3,222.9,493.8,222.9z"/>
				<path class="st1" d="M499.9,215.2c-0.2,0-0.4-0.1-0.6-0.2s-0.2-0.3-0.2-0.6s0.1-0.4,0.2-0.6s0.4-0.2,0.6-0.2s0.4,0.1,0.6,0.2
					s0.2,0.3,0.2,0.6s-0.1,0.4-0.2,0.6S500.1,215.2,499.9,215.2z M499.3,224.1v-7.6h1.2v7.6H499.3z"/>
				<path class="st1" d="M503.8,219.5v4.6h-1.2v-7.6h1.1v1.2h0.1c0.2-0.4,0.5-0.7,0.8-0.9c0.4-0.2,0.8-0.4,1.4-0.4
					c0.5,0,1,0.1,1.4,0.3c0.4,0.2,0.7,0.5,0.9,1c0.2,0.4,0.3,1,0.3,1.6v4.9h-1.2v-4.8c0-0.6-0.2-1.1-0.5-1.4s-0.7-0.5-1.3-0.5
					c-0.4,0-0.7,0.1-1,0.2c-0.3,0.2-0.5,0.4-0.7,0.7C503.9,218.7,503.8,219.1,503.8,219.5z"/>
			</g>
		</g>
	</g>
	<g>
		<rect x="0.5" y="199" class="st0" width="160" height="43"/>
		<g>
			<g>
				<path class="st1" d="M37.8,224.3v-10.2h3.4c0.8,0,1.4,0.1,2,0.4c0.5,0.3,0.9,0.6,1.1,1.1s0.4,1,0.4,1.6c0,0.6-0.1,1.1-0.4,1.6
					c-0.2,0.5-0.6,0.8-1.1,1.1c-0.5,0.3-1.2,0.4-1.9,0.4h-2.8v-1.1h2.7c0.5,0,1-0.1,1.3-0.2s0.6-0.4,0.7-0.7
					c0.2-0.3,0.2-0.6,0.2-1.1s-0.1-0.8-0.2-1.1c-0.2-0.3-0.4-0.5-0.7-0.7s-0.8-0.3-1.3-0.3H39v9.1H37.8z M42.6,219.7l2.5,4.6h-1.4
					l-2.5-4.6H42.6z"/>
				<path class="st1" d="M49.8,224.5c-0.7,0-1.4-0.2-1.9-0.5c-0.5-0.3-0.9-0.8-1.2-1.4s-0.4-1.3-0.4-2.1s0.1-1.5,0.4-2.1
					s0.7-1.1,1.2-1.4c0.5-0.3,1.1-0.5,1.8-0.5c0.4,0,0.8,0.1,1.2,0.2c0.4,0.1,0.7,0.3,1.1,0.6c0.3,0.3,0.6,0.7,0.8,1.2
					s0.3,1.1,0.3,1.8v0.5h-5.9v-1h4.7c0-0.4-0.1-0.8-0.3-1.2c-0.2-0.3-0.4-0.6-0.7-0.8c-0.3-0.2-0.7-0.3-1.1-0.3
					c-0.5,0-0.9,0.1-1.2,0.3c-0.3,0.2-0.6,0.5-0.8,0.9c-0.2,0.4-0.3,0.8-0.3,1.2v0.7c0,0.6,0.1,1.1,0.3,1.5s0.5,0.7,0.8,0.9
					s0.8,0.3,1.2,0.3c0.3,0,0.6,0,0.8-0.1c0.2-0.1,0.5-0.2,0.6-0.4c0.2-0.2,0.3-0.4,0.4-0.7l1.1,0.3c-0.1,0.4-0.3,0.7-0.6,1
					c-0.3,0.3-0.6,0.5-1,0.7C50.8,224.4,50.3,224.5,49.8,224.5z"/>
				<path class="st1" d="M57,224.5c-0.5,0-0.9-0.1-1.3-0.3c-0.4-0.2-0.7-0.5-0.9-0.8s-0.3-0.8-0.3-1.3c0-0.4,0.1-0.8,0.3-1.1
					c0.2-0.3,0.4-0.5,0.7-0.6c0.3-0.2,0.6-0.3,1-0.4c0.3-0.1,0.7-0.1,1.1-0.2c0.5-0.1,0.8-0.1,1.1-0.1c0.3,0,0.5-0.1,0.6-0.2
					s0.2-0.2,0.2-0.4v0c0-0.5-0.1-0.9-0.4-1.1c-0.3-0.3-0.7-0.4-1.2-0.4c-0.6,0-1,0.1-1.3,0.4c-0.3,0.2-0.5,0.5-0.7,0.8l-1.1-0.4
					c0.2-0.5,0.5-0.8,0.8-1.1c0.3-0.3,0.7-0.4,1.1-0.5s0.8-0.2,1.2-0.2c0.2,0,0.5,0,0.8,0.1c0.3,0.1,0.6,0.2,0.9,0.4
					c0.3,0.2,0.5,0.4,0.7,0.8c0.2,0.4,0.3,0.8,0.3,1.5v5h-1.2v-1h-0.1c-0.1,0.2-0.2,0.3-0.4,0.5s-0.4,0.3-0.7,0.5
					C57.8,224.4,57.5,224.5,57,224.5z M57.2,223.4c0.5,0,0.9-0.1,1.2-0.3s0.6-0.4,0.7-0.7c0.2-0.3,0.2-0.6,0.2-0.9v-1.1
					c0,0.1-0.2,0.1-0.3,0.2c-0.2,0-0.4,0.1-0.6,0.1c-0.2,0-0.4,0.1-0.6,0.1c-0.2,0-0.4,0-0.5,0.1c-0.3,0-0.6,0.1-0.9,0.2
					c-0.3,0.1-0.5,0.2-0.6,0.4s-0.2,0.4-0.2,0.7c0,0.4,0.2,0.7,0.5,0.9S56.7,223.4,57.2,223.4z"/>
				<path class="st1" d="M65.8,224.5c-0.7,0-1.3-0.2-1.8-0.5c-0.5-0.3-0.9-0.8-1.2-1.4c-0.3-0.6-0.4-1.3-0.4-2
					c0-0.8,0.1-1.5,0.4-2.1c0.3-0.6,0.7-1.1,1.2-1.4c0.5-0.3,1.1-0.5,1.8-0.5c0.5,0,1,0.1,1.5,0.3s0.8,0.5,1.1,0.8
					c0.3,0.4,0.4,0.8,0.5,1.3h-1.2c-0.1-0.3-0.3-0.7-0.6-0.9c-0.3-0.3-0.7-0.4-1.2-0.4c-0.5,0-0.9,0.1-1.2,0.4
					c-0.3,0.2-0.6,0.6-0.8,1c-0.2,0.4-0.3,0.9-0.3,1.5c0,0.6,0.1,1.1,0.3,1.5c0.2,0.4,0.5,0.8,0.8,1c0.3,0.2,0.7,0.4,1.2,0.4
					c0.3,0,0.6-0.1,0.8-0.2c0.2-0.1,0.5-0.3,0.6-0.5c0.2-0.2,0.3-0.4,0.4-0.7h1.2c-0.1,0.5-0.2,0.9-0.5,1.2c-0.3,0.4-0.6,0.6-1,0.9
					S66.3,224.5,65.8,224.5z"/>
				<path class="st1" d="M73.8,216.7v1h-4v-1H73.8z M71,214.8h1.2v7.3c0,0.3,0,0.6,0.1,0.7c0.1,0.2,0.2,0.3,0.4,0.3
					c0.2,0.1,0.3,0.1,0.5,0.1c0.1,0,0.2,0,0.3,0c0.1,0,0.1,0,0.2,0l0.2,1.1c-0.1,0-0.2,0.1-0.3,0.1c-0.1,0-0.3,0-0.5,0
					c-0.3,0-0.7-0.1-1-0.2s-0.6-0.4-0.8-0.7c-0.2-0.3-0.3-0.7-0.3-1.1V214.8z"/>
				<path class="st1" d="M79.7,224.3v-10.2h1.2v9.1h4.7v1.1H79.7z"/>
				<path class="st1" d="M88,215.4c-0.2,0-0.4-0.1-0.6-0.2s-0.2-0.3-0.2-0.6s0.1-0.4,0.2-0.6s0.4-0.2,0.6-0.2s0.4,0.1,0.6,0.2
					s0.2,0.3,0.2,0.6s-0.1,0.4-0.2,0.6S88.2,215.4,88,215.4z M87.4,224.3v-7.6h1.2v7.6H87.4z"/>
				<path class="st1" d="M90.9,224.3v-10.2H92v3.8h0.1c0.1-0.1,0.2-0.3,0.4-0.5c0.2-0.2,0.4-0.4,0.7-0.6s0.7-0.2,1.2-0.2
					c0.6,0,1.2,0.2,1.7,0.5c0.5,0.3,0.9,0.8,1.1,1.4c0.3,0.6,0.4,1.3,0.4,2.1c0,0.8-0.1,1.5-0.4,2.1c-0.3,0.6-0.7,1-1.1,1.4
					s-1,0.5-1.7,0.5c-0.5,0-0.9-0.1-1.2-0.2s-0.5-0.4-0.7-0.6s-0.3-0.4-0.4-0.5H92v1.2H90.9z M92,220.5c0,0.6,0.1,1.1,0.3,1.5
					c0.2,0.4,0.4,0.8,0.7,1c0.3,0.2,0.7,0.4,1.2,0.4c0.5,0,0.9-0.1,1.2-0.4c0.3-0.3,0.6-0.6,0.7-1.1c0.2-0.4,0.3-0.9,0.3-1.5
					c0-0.5-0.1-1-0.2-1.5s-0.4-0.8-0.7-1c-0.3-0.3-0.7-0.4-1.2-0.4c-0.5,0-0.9,0.1-1.2,0.4s-0.6,0.6-0.7,1
					C92.1,219.4,92,219.9,92,220.5z"/>
				<path class="st1" d="M99.4,224.3v-7.6h1.1v1.2h0.1c0.1-0.4,0.4-0.7,0.8-0.9s0.8-0.4,1.2-0.4c0.1,0,0.2,0,0.3,0
					c0.1,0,0.2,0,0.3,0v1.2c0,0-0.1,0-0.3,0c-0.1,0-0.3,0-0.4,0c-0.4,0-0.7,0.1-1,0.2c-0.3,0.2-0.5,0.4-0.7,0.6
					c-0.2,0.3-0.3,0.6-0.3,0.9v4.8H99.4z"/>
				<path class="st1" d="M106.8,224.5c-0.5,0-0.9-0.1-1.3-0.3c-0.4-0.2-0.7-0.5-0.9-0.8s-0.3-0.8-0.3-1.3c0-0.4,0.1-0.8,0.3-1.1
					c0.2-0.3,0.4-0.5,0.7-0.6c0.3-0.2,0.6-0.3,1-0.4c0.3-0.1,0.7-0.1,1.1-0.2c0.5-0.1,0.8-0.1,1.1-0.1c0.3,0,0.5-0.1,0.6-0.2
					s0.2-0.2,0.2-0.4v0c0-0.5-0.1-0.9-0.4-1.1c-0.3-0.3-0.7-0.4-1.2-0.4c-0.6,0-1,0.1-1.3,0.4c-0.3,0.2-0.5,0.5-0.7,0.8l-1.1-0.4
					c0.2-0.5,0.5-0.8,0.8-1.1c0.3-0.3,0.7-0.4,1.1-0.5s0.8-0.2,1.2-0.2c0.2,0,0.5,0,0.8,0.1c0.3,0.1,0.6,0.2,0.9,0.4
					c0.3,0.2,0.5,0.4,0.7,0.8c0.2,0.4,0.3,0.8,0.3,1.5v5h-1.2v-1h-0.1c-0.1,0.2-0.2,0.3-0.4,0.5s-0.4,0.3-0.7,0.5
					C107.7,224.4,107.3,224.5,106.8,224.5z M107,223.4c0.5,0,0.9-0.1,1.2-0.3s0.6-0.4,0.7-0.7c0.2-0.3,0.2-0.6,0.2-0.9v-1.1
					c0,0.1-0.2,0.1-0.3,0.2c-0.2,0-0.4,0.1-0.6,0.1c-0.2,0-0.4,0.1-0.6,0.1c-0.2,0-0.4,0-0.5,0.1c-0.3,0-0.6,0.1-0.9,0.2
					c-0.3,0.1-0.5,0.2-0.6,0.4s-0.2,0.4-0.2,0.7c0,0.4,0.2,0.7,0.5,0.9S106.6,223.4,107,223.4z"/>
				<path class="st1" d="M112.5,224.3v-7.6h1.1v1.2h0.1c0.1-0.4,0.4-0.7,0.8-0.9s0.8-0.4,1.2-0.4c0.1,0,0.2,0,0.3,0
					c0.1,0,0.2,0,0.3,0v1.2c0,0-0.1,0-0.3,0c-0.1,0-0.3,0-0.4,0c-0.4,0-0.7,0.1-1,0.2c-0.3,0.2-0.5,0.4-0.7,0.6
					c-0.2,0.3-0.3,0.6-0.3,0.9v4.8H112.5z"/>
				<path class="st1" d="M118.5,227.2c-0.2,0-0.4,0-0.5,0c-0.2,0-0.3-0.1-0.3-0.1l0.3-1c0.3,0.1,0.5,0.1,0.8,0.1
					c0.2,0,0.4-0.1,0.6-0.3c0.2-0.2,0.3-0.5,0.5-0.8l0.2-0.6l-2.8-7.7h1.3l2.1,6.1h0.1l2.1-6.1h1.3l-3.2,8.8c-0.1,0.4-0.3,0.7-0.5,1
					c-0.2,0.3-0.5,0.5-0.7,0.6S118.8,227.2,118.5,227.2z"/>
			</g>
		</g>
	</g>
	<path class="st2" d="M274,110L274,110c0,12.6-10.2,22.8-22.8,22.8H103.8c-12.6,0-22.8,10.2-22.8,22.8v42.6"/>
	<path class="st2" d="M274,110L274,110c0,12.6,10.2,22.8,22.8,22.8h147.3c12.6,0,22.8,10.2,22.8,22.8v42.6"/>
	<line class="st2" x1="274" y1="357.5" x2="274" y2="490.3"/>
	<path class="st2" d="M274,402L274,402c0,12.6-10.2,22.8-22.8,22.8H103.8c-12.6,0-22.8,10.2-22.8,22.8v42.6"/>
	<path class="st2" d="M274,402L274,402c0,12.6,10.2,22.8,22.8,22.8h147.3c12.6,0,22.8,10.2,22.8,22.8v42.6"/>
	<g>
		<rect x="387.5" y="314" class="st0" width="160" height="43"/>
		<g>
			<g>
				<path class="st1" d="M428.4,329.1v10.2h-1.2v-10.2H428.4z"/>
				<path class="st1" d="M431.9,334.7v4.6h-1.2v-7.6h1.1v1.2h0.1c0.2-0.4,0.5-0.7,0.8-0.9c0.4-0.2,0.8-0.4,1.4-0.4
					c0.5,0,1,0.1,1.4,0.3s0.7,0.5,0.9,1c0.2,0.4,0.3,1,0.3,1.6v4.9h-1.2v-4.8c0-0.6-0.2-1.1-0.5-1.4s-0.7-0.5-1.3-0.5
					c-0.4,0-0.7,0.1-1,0.2c-0.3,0.2-0.5,0.4-0.7,0.7S431.9,334.3,431.9,334.7z"/>
				<path class="st1" d="M444.3,333.4l-1.1,0.3c-0.1-0.2-0.2-0.3-0.3-0.5c-0.1-0.2-0.3-0.3-0.5-0.4s-0.5-0.2-0.8-0.2
					c-0.5,0-0.9,0.1-1.2,0.3s-0.5,0.5-0.5,0.8c0,0.3,0.1,0.5,0.3,0.7s0.5,0.3,1,0.4l1.1,0.3c0.7,0.2,1.2,0.4,1.5,0.8
					c0.3,0.3,0.5,0.8,0.5,1.3c0,0.4-0.1,0.8-0.4,1.2c-0.2,0.3-0.6,0.6-1,0.8s-1,0.3-1.6,0.3c-0.8,0-1.4-0.2-1.9-0.5
					c-0.5-0.3-0.8-0.8-1-1.5l1.1-0.3c0.1,0.4,0.3,0.7,0.6,0.9s0.7,0.3,1.2,0.3c0.5,0,1-0.1,1.3-0.4c0.3-0.2,0.5-0.5,0.5-0.8
					c0-0.3-0.1-0.5-0.3-0.7c-0.2-0.2-0.5-0.3-0.9-0.4l-1.3-0.3c-0.7-0.2-1.2-0.4-1.5-0.8s-0.5-0.8-0.5-1.3c0-0.4,0.1-0.8,0.4-1.1
					c0.2-0.3,0.6-0.6,1-0.8c0.4-0.2,0.9-0.3,1.4-0.3c0.8,0,1.3,0.2,1.8,0.5C443.8,332.4,444.1,332.8,444.3,333.4z"/>
				<path class="st1" d="M449.5,331.7v1h-4v-1H449.5z M446.7,329.8h1.2v7.3c0,0.3,0,0.6,0.1,0.7c0.1,0.2,0.2,0.3,0.4,0.3
					c0.2,0.1,0.3,0.1,0.5,0.1c0.1,0,0.2,0,0.3,0c0.1,0,0.1,0,0.2,0l0.2,1.1c-0.1,0-0.2,0.1-0.3,0.1c-0.1,0-0.3,0-0.5,0
					c-0.3,0-0.7-0.1-1-0.2s-0.6-0.4-0.8-0.7s-0.3-0.7-0.3-1.1V329.8z"/>
				<path class="st1" d="M453.5,339.5c-0.5,0-0.9-0.1-1.3-0.3c-0.4-0.2-0.7-0.5-0.9-0.8c-0.2-0.3-0.3-0.8-0.3-1.3
					c0-0.4,0.1-0.8,0.3-1.1c0.2-0.3,0.4-0.5,0.7-0.6s0.6-0.3,1-0.4c0.3-0.1,0.7-0.1,1.1-0.2c0.5-0.1,0.8-0.1,1.1-0.1
					c0.3,0,0.5-0.1,0.6-0.2c0.1-0.1,0.2-0.2,0.2-0.4v0c0-0.5-0.1-0.9-0.4-1.1c-0.3-0.3-0.7-0.4-1.2-0.4c-0.6,0-1,0.1-1.3,0.4
					c-0.3,0.2-0.5,0.5-0.7,0.8l-1.1-0.4c0.2-0.5,0.5-0.8,0.8-1.1s0.7-0.4,1.1-0.5c0.4-0.1,0.8-0.2,1.2-0.2c0.2,0,0.5,0,0.8,0.1
					c0.3,0.1,0.6,0.2,0.9,0.4c0.3,0.2,0.5,0.4,0.7,0.8s0.3,0.8,0.3,1.5v5h-1.2v-1h-0.1c-0.1,0.2-0.2,0.3-0.4,0.5s-0.4,0.3-0.7,0.5
					C454.4,339.4,454,339.5,453.5,339.5z M453.7,338.4c0.5,0,0.9-0.1,1.2-0.3c0.3-0.2,0.6-0.4,0.7-0.7c0.2-0.3,0.2-0.6,0.2-0.9v-1.1
					c0,0.1-0.2,0.1-0.3,0.2c-0.2,0-0.4,0.1-0.6,0.1s-0.4,0.1-0.6,0.1c-0.2,0-0.4,0-0.5,0.1c-0.3,0-0.6,0.1-0.9,0.2s-0.5,0.2-0.6,0.4
					c-0.2,0.2-0.2,0.4-0.2,0.7c0,0.4,0.2,0.7,0.5,0.9C452.9,338.3,453.3,338.4,453.7,338.4z"/>
				<path class="st1" d="M460.4,329.1v10.2h-1.2v-10.2H460.4z"/>
				<path class="st1" d="M463.7,329.1v10.2h-1.2v-10.2H463.7z"/>
				<path class="st1" d="M469.9,339.3v-10.2h3.4c0.8,0,1.5,0.1,2,0.4c0.5,0.3,0.9,0.7,1.1,1.2s0.4,1,0.4,1.6c0,0.6-0.1,1.1-0.4,1.6
					c-0.2,0.5-0.6,0.9-1.1,1.2c-0.5,0.3-1.2,0.4-1.9,0.4h-2.5v-1.1h2.4c0.5,0,1-0.1,1.3-0.3c0.3-0.2,0.6-0.4,0.7-0.8
					c0.2-0.3,0.2-0.7,0.2-1.1c0-0.4-0.1-0.8-0.2-1.1c-0.2-0.3-0.4-0.6-0.7-0.8c-0.3-0.2-0.8-0.3-1.3-0.3h-2.2v9.1H469.9z"/>
				<path class="st1" d="M479.8,329.1v10.2h-1.2v-10.2H479.8z"/>
				<path class="st1" d="M486.8,336.2v-4.5h1.2v7.6h-1.2V338h-0.1c-0.2,0.4-0.5,0.7-0.8,1s-0.9,0.4-1.4,0.4c-0.5,0-0.9-0.1-1.3-0.3
					s-0.7-0.5-0.9-1c-0.2-0.4-0.3-1-0.3-1.6v-4.9h1.2v4.8c0,0.6,0.2,1,0.5,1.3c0.3,0.3,0.7,0.5,1.2,0.5c0.3,0,0.6-0.1,0.9-0.2
					c0.3-0.1,0.6-0.4,0.8-0.7S486.8,336.7,486.8,336.2z"/>
				<path class="st1" d="M493.2,342.3c-0.6,0-1.1-0.1-1.5-0.2c-0.4-0.1-0.7-0.3-1-0.6c-0.3-0.2-0.5-0.5-0.6-0.7l0.9-0.7
					c0.1,0.1,0.2,0.3,0.4,0.5c0.2,0.2,0.4,0.3,0.7,0.5c0.3,0.1,0.7,0.2,1.1,0.2c0.6,0,1.1-0.1,1.5-0.4s0.6-0.8,0.6-1.4v-1.6h-0.1
					c-0.1,0.1-0.2,0.3-0.4,0.5c-0.2,0.2-0.4,0.4-0.7,0.5c-0.3,0.2-0.7,0.2-1.2,0.2c-0.6,0-1.2-0.1-1.7-0.4c-0.5-0.3-0.9-0.7-1.2-1.3
					c-0.3-0.6-0.4-1.2-0.4-2c0-0.8,0.1-1.5,0.4-2s0.7-1,1.1-1.4s1.1-0.5,1.7-0.5c0.5,0,0.9,0.1,1.2,0.2c0.3,0.2,0.5,0.3,0.7,0.6
					c0.2,0.2,0.3,0.4,0.4,0.5h0.1v-1.2h1.1v7.9c0,0.7-0.1,1.2-0.4,1.6s-0.7,0.7-1.2,0.9S493.8,342.3,493.2,342.3z M493.2,338.1
					c0.5,0,0.9-0.1,1.2-0.3c0.3-0.2,0.6-0.5,0.7-0.9c0.2-0.4,0.3-0.9,0.3-1.5c0-0.5-0.1-1-0.2-1.5s-0.4-0.8-0.7-1
					c-0.3-0.2-0.7-0.4-1.2-0.4c-0.5,0-0.9,0.1-1.2,0.4c-0.3,0.3-0.6,0.6-0.7,1s-0.2,0.9-0.2,1.4c0,0.5,0.1,1,0.3,1.4
					c0.2,0.4,0.4,0.7,0.7,1C492.3,338,492.7,338.1,493.2,338.1z"/>
				<path class="st1" d="M499.2,330.4c-0.2,0-0.4-0.1-0.6-0.2s-0.2-0.3-0.2-0.6s0.1-0.4,0.2-0.6s0.4-0.2,0.6-0.2s0.4,0.1,0.6,0.2
					s0.2,0.3,0.2,0.6s-0.1,0.4-0.2,0.6S499.5,330.4,499.2,330.4z M498.6,339.3v-7.6h1.2v7.6H498.6z"/>
				<path class="st1" d="M503.1,334.7v4.6H502v-7.6h1.1v1.2h0.1c0.2-0.4,0.5-0.7,0.8-0.9c0.4-0.2,0.8-0.4,1.4-0.4
					c0.5,0,1,0.1,1.4,0.3c0.4,0.2,0.7,0.5,0.9,1c0.2,0.4,0.3,1,0.3,1.6v4.9h-1.2v-4.8c0-0.6-0.2-1.1-0.5-1.4s-0.7-0.5-1.3-0.5
					c-0.4,0-0.7,0.1-1,0.2c-0.3,0.2-0.5,0.4-0.7,0.7C503.2,333.9,503.1,334.3,503.1,334.7z"/>
			</g>
		</g>
	</g>
	<line class="st2" x1="467" y1="242.3" x2="467" y2="313.3"/>
	<circle class="st3" cx="467.5" cy="242.3" r="5"/>
	<g>
		<rect x="0" y="314" class="st0" width="160" height="43"/>
		<g>
			<g>
				<path class="st1" d="M38.1,329.1v10.2h-1.2v-10.2H38.1z"/>
				<path class="st1" d="M41.6,334.7v4.6h-1.2v-7.6h1.1v1.2h0.1c0.2-0.4,0.5-0.7,0.8-0.9s0.8-0.4,1.4-0.4c0.5,0,1,0.1,1.4,0.3
					c0.4,0.2,0.7,0.5,0.9,1c0.2,0.4,0.3,1,0.3,1.6v4.9h-1.2v-4.8c0-0.6-0.2-1.1-0.5-1.4s-0.7-0.5-1.3-0.5c-0.4,0-0.7,0.1-1,0.2
					c-0.3,0.2-0.5,0.4-0.7,0.7C41.7,333.9,41.6,334.3,41.6,334.7z"/>
				<path class="st1" d="M54,333.4l-1.1,0.3c-0.1-0.2-0.2-0.3-0.3-0.5c-0.1-0.2-0.3-0.3-0.5-0.4s-0.5-0.2-0.8-0.2
					c-0.5,0-0.9,0.1-1.2,0.3c-0.3,0.2-0.5,0.5-0.5,0.8c0,0.3,0.1,0.5,0.3,0.7s0.5,0.3,1,0.4l1.1,0.3c0.7,0.2,1.2,0.4,1.5,0.8
					c0.3,0.3,0.5,0.8,0.5,1.3c0,0.4-0.1,0.8-0.4,1.2c-0.2,0.3-0.6,0.6-1,0.8c-0.4,0.2-1,0.3-1.6,0.3c-0.8,0-1.4-0.2-1.9-0.5
					c-0.5-0.3-0.8-0.8-1-1.5l1.1-0.3c0.1,0.4,0.3,0.7,0.6,0.9c0.3,0.2,0.7,0.3,1.2,0.3c0.5,0,1-0.1,1.3-0.4c0.3-0.2,0.5-0.5,0.5-0.8
					c0-0.3-0.1-0.5-0.3-0.7c-0.2-0.2-0.5-0.3-0.9-0.4l-1.3-0.3c-0.7-0.2-1.2-0.4-1.5-0.8c-0.3-0.3-0.5-0.8-0.5-1.3
					c0-0.4,0.1-0.8,0.4-1.1s0.6-0.6,1-0.8c0.4-0.2,0.9-0.3,1.4-0.3c0.8,0,1.4,0.2,1.8,0.5C53.5,332.4,53.8,332.8,54,333.4z"/>
				<path class="st1" d="M59.2,331.7v1h-4v-1H59.2z M56.4,329.8h1.2v7.3c0,0.3,0,0.6,0.1,0.7c0.1,0.2,0.2,0.3,0.4,0.3
					c0.2,0.1,0.3,0.1,0.5,0.1c0.1,0,0.2,0,0.3,0c0.1,0,0.1,0,0.2,0l0.2,1.1c-0.1,0-0.2,0.1-0.3,0.1c-0.1,0-0.3,0-0.5,0
					c-0.3,0-0.7-0.1-1-0.2s-0.6-0.4-0.8-0.7c-0.2-0.3-0.3-0.7-0.3-1.1V329.8z"/>
				<path class="st1" d="M63.2,339.5c-0.5,0-0.9-0.1-1.3-0.3c-0.4-0.2-0.7-0.5-0.9-0.8s-0.3-0.8-0.3-1.3c0-0.4,0.1-0.8,0.3-1.1
					c0.2-0.3,0.4-0.5,0.7-0.6c0.3-0.2,0.6-0.3,1-0.4c0.3-0.1,0.7-0.1,1.1-0.2c0.5-0.1,0.8-0.1,1.1-0.1c0.3,0,0.5-0.1,0.6-0.2
					s0.2-0.2,0.2-0.4v0c0-0.5-0.1-0.9-0.4-1.1c-0.3-0.3-0.7-0.4-1.2-0.4c-0.6,0-1,0.1-1.3,0.4c-0.3,0.2-0.5,0.5-0.7,0.8l-1.1-0.4
					c0.2-0.5,0.5-0.8,0.8-1.1c0.3-0.3,0.7-0.4,1.1-0.5s0.8-0.2,1.2-0.2c0.2,0,0.5,0,0.8,0.1c0.3,0.1,0.6,0.2,0.9,0.4
					c0.3,0.2,0.5,0.4,0.7,0.8c0.2,0.4,0.3,0.8,0.3,1.5v5h-1.2v-1h-0.1c-0.1,0.2-0.2,0.3-0.4,0.5s-0.4,0.3-0.7,0.5
					C64.1,339.4,63.7,339.5,63.2,339.5z M63.4,338.4c0.5,0,0.9-0.1,1.2-0.3s0.6-0.4,0.7-0.7c0.2-0.3,0.2-0.6,0.2-0.9v-1.1
					c0,0.1-0.2,0.1-0.3,0.2c-0.2,0-0.4,0.1-0.6,0.1c-0.2,0-0.4,0.1-0.6,0.1c-0.2,0-0.4,0-0.5,0.1c-0.3,0-0.6,0.1-0.9,0.2
					c-0.3,0.1-0.5,0.2-0.6,0.4s-0.2,0.4-0.2,0.7c0,0.4,0.2,0.7,0.5,0.9S63,338.4,63.4,338.4z"/>
				<path class="st1" d="M70.1,329.1v10.2h-1.2v-10.2H70.1z"/>
				<path class="st1" d="M73.4,329.1v10.2h-1.2v-10.2H73.4z"/>
				<path class="st1" d="M79.6,339.3v-10.2h1.2v9.1h4.7v1.1H79.6z"/>
				<path class="st1" d="M87.9,330.4c-0.2,0-0.4-0.1-0.6-0.2s-0.2-0.3-0.2-0.6s0.1-0.4,0.2-0.6s0.4-0.2,0.6-0.2s0.4,0.1,0.6,0.2
					s0.2,0.3,0.2,0.6s-0.1,0.4-0.2,0.6S88.2,330.4,87.9,330.4z M87.3,339.3v-7.6h1.2v7.6H87.3z"/>
				<path class="st1" d="M90.8,339.3v-10.2H92v3.8h0.1c0.1-0.1,0.2-0.3,0.4-0.5c0.2-0.2,0.4-0.4,0.7-0.6s0.7-0.2,1.2-0.2
					c0.6,0,1.2,0.2,1.7,0.5c0.5,0.3,0.9,0.8,1.1,1.4c0.3,0.6,0.4,1.3,0.4,2.1c0,0.8-0.1,1.5-0.4,2.1c-0.3,0.6-0.7,1-1.1,1.4
					s-1,0.5-1.7,0.5c-0.5,0-0.9-0.1-1.2-0.2s-0.5-0.4-0.7-0.6s-0.3-0.4-0.4-0.5H92v1.2H90.8z M92,335.5c0,0.6,0.1,1.1,0.3,1.5
					c0.2,0.4,0.4,0.8,0.7,1c0.3,0.2,0.7,0.4,1.2,0.4c0.5,0,0.9-0.1,1.2-0.4c0.3-0.3,0.6-0.6,0.7-1.1c0.2-0.4,0.3-0.9,0.3-1.5
					c0-0.5-0.1-1-0.2-1.5s-0.4-0.8-0.7-1c-0.3-0.3-0.7-0.4-1.2-0.4c-0.5,0-0.9,0.1-1.2,0.4s-0.6,0.6-0.7,1
					C92.1,334.4,92,334.9,92,335.5z"/>
				<path class="st1" d="M99.4,339.3v-7.6h1.1v1.2h0.1c0.1-0.4,0.4-0.7,0.8-0.9s0.8-0.4,1.2-0.4c0.1,0,0.2,0,0.3,0
					c0.1,0,0.2,0,0.3,0v1.2c0,0-0.1,0-0.3,0c-0.1,0-0.3,0-0.4,0c-0.4,0-0.7,0.1-1,0.2c-0.3,0.2-0.5,0.4-0.7,0.6
					c-0.2,0.3-0.3,0.6-0.3,0.9v4.8H99.4z"/>
				<path class="st1" d="M106.8,339.5c-0.5,0-0.9-0.1-1.3-0.3c-0.4-0.2-0.7-0.5-0.9-0.8s-0.3-0.8-0.3-1.3c0-0.4,0.1-0.8,0.3-1.1
					c0.2-0.3,0.4-0.5,0.7-0.6c0.3-0.2,0.6-0.3,1-0.4c0.3-0.1,0.7-0.1,1.1-0.2c0.5-0.1,0.8-0.1,1.1-0.1c0.3,0,0.5-0.1,0.6-0.2
					s0.2-0.2,0.2-0.4v0c0-0.5-0.1-0.9-0.4-1.1c-0.3-0.3-0.7-0.4-1.2-0.4c-0.6,0-1,0.1-1.3,0.4c-0.3,0.2-0.5,0.5-0.7,0.8l-1.1-0.4
					c0.2-0.5,0.5-0.8,0.8-1.1c0.3-0.3,0.7-0.4,1.1-0.5s0.8-0.2,1.2-0.2c0.2,0,0.5,0,0.8,0.1c0.3,0.1,0.6,0.2,0.9,0.4
					c0.3,0.2,0.5,0.4,0.7,0.8c0.2,0.4,0.3,0.8,0.3,1.5v5h-1.2v-1h-0.1c-0.1,0.2-0.2,0.3-0.4,0.5s-0.4,0.3-0.7,0.5
					C107.6,339.4,107.3,339.5,106.8,339.5z M107,338.4c0.5,0,0.9-0.1,1.2-0.3s0.6-0.4,0.7-0.7c0.2-0.3,0.2-0.6,0.2-0.9v-1.1
					c0,0.1-0.2,0.1-0.3,0.2c-0.2,0-0.4,0.1-0.6,0.1c-0.2,0-0.4,0.1-0.6,0.1c-0.2,0-0.4,0-0.5,0.1c-0.3,0-0.6,0.1-0.9,0.2
					c-0.3,0.1-0.5,0.2-0.6,0.4s-0.2,0.4-0.2,0.7c0,0.4,0.2,0.7,0.5,0.9S106.5,338.4,107,338.4z"/>
				<path class="st1" d="M112.5,339.3v-7.6h1.1v1.2h0.1c0.1-0.4,0.4-0.7,0.8-0.9s0.8-0.4,1.2-0.4c0.1,0,0.2,0,0.3,0
					c0.1,0,0.2,0,0.3,0v1.2c0,0-0.1,0-0.3,0c-0.1,0-0.3,0-0.4,0c-0.4,0-0.7,0.1-1,0.2c-0.3,0.2-0.5,0.4-0.7,0.6
					c-0.2,0.3-0.3,0.6-0.3,0.9v4.8H112.5z"/>
				<path class="st1" d="M118.4,342.2c-0.2,0-0.4,0-0.5,0c-0.2,0-0.3-0.1-0.3-0.1l0.3-1c0.3,0.1,0.5,0.1,0.8,0.1
					c0.2,0,0.4-0.1,0.6-0.3c0.2-0.2,0.3-0.5,0.5-0.8l0.2-0.6l-2.8-7.7h1.3l2.1,6.1h0.1l2.1-6.1h1.3l-3.2,8.8c-0.1,0.4-0.3,0.7-0.5,1
					c-0.2,0.3-0.5,0.5-0.7,0.6S118.8,342.2,118.4,342.2z"/>
			</g>
		</g>
	</g>
	<rect x="194" y="490.8" class="st0" width="160" height="43"/>
	<g>
		<g>
			<path class="st1" d="M221,516.1h-3.1v-10.2h3.3c1,0,1.8,0.2,2.5,0.6c0.7,0.4,1.2,1,1.6,1.7c0.4,0.8,0.6,1.7,0.6,2.7
				c0,1.1-0.2,2-0.6,2.7c-0.4,0.8-0.9,1.4-1.7,1.8C222.9,515.9,222,516.1,221,516.1z M219.1,515h1.8c0.8,0,1.5-0.2,2.1-0.5
				c0.6-0.3,1-0.8,1.2-1.4c0.3-0.6,0.4-1.3,0.4-2.1c0-0.8-0.1-1.5-0.4-2.1c-0.3-0.6-0.7-1.1-1.2-1.4c-0.5-0.3-1.2-0.5-2-0.5h-2V515z
				"/>
			<path class="st1" d="M230.8,516.3c-0.7,0-1.3-0.2-1.8-0.5c-0.5-0.3-0.9-0.8-1.2-1.4s-0.4-1.3-0.4-2.1c0-0.8,0.1-1.5,0.4-2.1
				c0.3-0.6,0.7-1.1,1.2-1.4c0.5-0.3,1.1-0.5,1.8-0.5c0.7,0,1.3,0.2,1.8,0.5s0.9,0.8,1.2,1.4c0.3,0.6,0.4,1.3,0.4,2.1
				c0,0.8-0.1,1.5-0.4,2.1s-0.7,1-1.2,1.4S231.5,516.3,230.8,516.3z M230.8,515.2c0.5,0,1-0.1,1.3-0.4c0.3-0.3,0.6-0.6,0.8-1.1
				c0.2-0.4,0.2-0.9,0.2-1.4c0-0.5-0.1-1-0.2-1.4c-0.2-0.4-0.4-0.8-0.8-1.1c-0.3-0.3-0.8-0.4-1.3-0.4c-0.5,0-1,0.1-1.3,0.4
				c-0.3,0.3-0.6,0.6-0.8,1.1c-0.2,0.4-0.2,0.9-0.2,1.4c0,0.5,0.1,1,0.2,1.4c0.2,0.4,0.4,0.8,0.8,1.1
				C229.9,515.1,230.3,515.2,230.8,515.2z"/>
			<path class="st1" d="M237.8,516.1l-2.3-7.6h1.2l1.7,5.8h0.1l1.6-5.8h1.3l1.6,5.8h0.1l1.7-5.8h1.2l-2.3,7.6h-1.2l-1.7-5.9h-0.1
				l-1.7,5.9H237.8z"/>
			<path class="st1" d="M248.6,511.5v4.6h-1.2v-7.6h1.1v1.2h0.1c0.2-0.4,0.5-0.7,0.8-0.9c0.4-0.2,0.8-0.4,1.4-0.4
				c0.5,0,1,0.1,1.4,0.3c0.4,0.2,0.7,0.5,0.9,1c0.2,0.4,0.3,1,0.3,1.6v4.9h-1.2v-4.8c0-0.6-0.2-1.1-0.5-1.4
				c-0.3-0.3-0.7-0.5-1.3-0.5c-0.4,0-0.7,0.1-1,0.2c-0.3,0.2-0.5,0.4-0.7,0.7C248.7,510.7,248.6,511.1,248.6,511.5z"/>
			<path class="st1" d="M256.8,505.9v10.2h-1.2v-10.2H256.8z"/>
			<path class="st1" d="M262.1,516.3c-0.7,0-1.3-0.2-1.8-0.5s-0.9-0.8-1.2-1.4s-0.4-1.3-0.4-2.1c0-0.8,0.1-1.5,0.4-2.1
				c0.3-0.6,0.7-1.1,1.2-1.4s1.1-0.5,1.8-0.5c0.7,0,1.3,0.2,1.8,0.5s0.9,0.8,1.2,1.4c0.3,0.6,0.4,1.3,0.4,2.1c0,0.8-0.1,1.5-0.4,2.1
				s-0.7,1-1.2,1.4S262.8,516.3,262.1,516.3z M262.1,515.2c0.5,0,1-0.1,1.3-0.4c0.3-0.3,0.6-0.6,0.8-1.1s0.2-0.9,0.2-1.4
				c0-0.5-0.1-1-0.2-1.4s-0.4-0.8-0.8-1.1c-0.3-0.3-0.8-0.4-1.3-0.4c-0.5,0-1,0.1-1.3,0.4c-0.3,0.3-0.6,0.6-0.8,1.1
				s-0.2,0.9-0.2,1.4c0,0.5,0.1,1,0.2,1.4s0.4,0.8,0.8,1.1C261.1,515.1,261.5,515.2,262.1,515.2z"/>
			<path class="st1" d="M269.6,516.3c-0.5,0-0.9-0.1-1.3-0.3s-0.7-0.5-0.9-0.8c-0.2-0.3-0.3-0.8-0.3-1.3c0-0.4,0.1-0.8,0.3-1.1
				s0.4-0.5,0.7-0.6c0.3-0.2,0.6-0.3,1-0.4c0.3-0.1,0.7-0.1,1.1-0.2c0.5-0.1,0.8-0.1,1.1-0.1c0.3,0,0.5-0.1,0.6-0.2
				c0.1-0.1,0.2-0.2,0.2-0.4v0c0-0.5-0.1-0.9-0.4-1.1c-0.3-0.3-0.7-0.4-1.2-0.4c-0.6,0-1,0.1-1.3,0.4c-0.3,0.2-0.5,0.5-0.7,0.8
				l-1.1-0.4c0.2-0.5,0.5-0.8,0.8-1.1c0.3-0.3,0.7-0.4,1.1-0.5c0.4-0.1,0.8-0.2,1.2-0.2c0.2,0,0.5,0,0.8,0.1
				c0.3,0.1,0.6,0.2,0.9,0.4s0.5,0.4,0.7,0.8c0.2,0.4,0.3,0.8,0.3,1.5v5h-1.2v-1h-0.1c-0.1,0.2-0.2,0.3-0.4,0.5
				c-0.2,0.2-0.4,0.3-0.7,0.5C270.4,516.2,270,516.3,269.6,516.3z M269.7,515.2c0.5,0,0.9-0.1,1.2-0.3c0.3-0.2,0.6-0.4,0.7-0.7
				c0.2-0.3,0.2-0.6,0.2-0.9v-1.1c0,0.1-0.2,0.1-0.3,0.2c-0.2,0-0.4,0.1-0.6,0.1c-0.2,0-0.4,0.1-0.6,0.1c-0.2,0-0.4,0-0.5,0.1
				c-0.3,0-0.6,0.1-0.9,0.2c-0.3,0.1-0.5,0.2-0.6,0.4c-0.2,0.2-0.2,0.4-0.2,0.7c0,0.4,0.2,0.7,0.5,0.9
				C268.9,515.1,269.3,515.2,269.7,515.2z"/>
			<path class="st1" d="M278.1,516.3c-0.6,0-1.2-0.2-1.7-0.5s-0.9-0.8-1.1-1.4s-0.4-1.3-0.4-2.1c0-0.8,0.1-1.5,0.4-2.1
				s0.7-1,1.1-1.4c0.5-0.3,1.1-0.5,1.7-0.5c0.5,0,0.9,0.1,1.2,0.2s0.5,0.3,0.7,0.6s0.3,0.4,0.4,0.5h0.1v-3.8h1.2v10.2h-1.1v-1.2
				h-0.1c-0.1,0.1-0.2,0.3-0.4,0.5c-0.2,0.2-0.4,0.4-0.7,0.6S278.6,516.3,278.1,516.3z M278.3,515.2c0.5,0,0.9-0.1,1.2-0.4
				c0.3-0.2,0.6-0.6,0.7-1s0.3-0.9,0.3-1.5c0-0.6-0.1-1.1-0.2-1.5c-0.2-0.4-0.4-0.8-0.7-1c-0.3-0.2-0.7-0.4-1.2-0.4
				c-0.5,0-0.9,0.1-1.2,0.4c-0.3,0.3-0.6,0.6-0.7,1s-0.2,0.9-0.2,1.5c0,0.5,0.1,1,0.3,1.5c0.2,0.4,0.4,0.8,0.7,1.1
				C277.4,515.1,277.8,515.2,278.3,515.2z"/>
			<path class="st1" d="M288.4,516.1h-1.3l3.7-10.2h1.3l3.7,10.2h-1.3l-3-8.6h-0.1L288.4,516.1z M288.9,512.1h5.2v1.1h-5.2V512.1z"
				/>
			<path class="st1" d="M302.7,510.2l-1.1,0.3c-0.1-0.2-0.2-0.3-0.3-0.5c-0.1-0.2-0.3-0.3-0.5-0.4s-0.5-0.2-0.8-0.2
				c-0.5,0-0.9,0.1-1.2,0.3c-0.3,0.2-0.5,0.5-0.5,0.8c0,0.3,0.1,0.5,0.3,0.7s0.5,0.3,1,0.4l1.1,0.3c0.7,0.2,1.2,0.4,1.5,0.8
				s0.5,0.8,0.5,1.3c0,0.4-0.1,0.8-0.4,1.2s-0.6,0.6-1,0.8c-0.4,0.2-1,0.3-1.6,0.3c-0.8,0-1.4-0.2-1.9-0.5c-0.5-0.3-0.8-0.8-1-1.5
				l1.1-0.3c0.1,0.4,0.3,0.7,0.6,0.9c0.3,0.2,0.7,0.3,1.2,0.3c0.5,0,1-0.1,1.3-0.4c0.3-0.2,0.5-0.5,0.5-0.8c0-0.3-0.1-0.5-0.3-0.7
				s-0.5-0.3-0.9-0.4l-1.3-0.3c-0.7-0.2-1.2-0.4-1.5-0.8c-0.3-0.3-0.5-0.8-0.5-1.3c0-0.4,0.1-0.8,0.4-1.1c0.2-0.3,0.6-0.6,1-0.8
				c0.4-0.2,0.9-0.3,1.4-0.3c0.8,0,1.4,0.2,1.8,0.5C302.2,509.2,302.5,509.6,302.7,510.2z"/>
			<path class="st1" d="M310,510.2l-1.1,0.3c-0.1-0.2-0.2-0.3-0.3-0.5c-0.1-0.2-0.3-0.3-0.5-0.4s-0.5-0.2-0.8-0.2
				c-0.5,0-0.9,0.1-1.2,0.3s-0.5,0.5-0.5,0.8c0,0.3,0.1,0.5,0.3,0.7s0.5,0.3,1,0.4l1.1,0.3c0.7,0.2,1.2,0.4,1.5,0.8
				c0.3,0.3,0.5,0.8,0.5,1.3c0,0.4-0.1,0.8-0.4,1.2c-0.2,0.3-0.6,0.6-1,0.8c-0.4,0.2-1,0.3-1.6,0.3c-0.8,0-1.4-0.2-1.9-0.5
				s-0.8-0.8-1-1.5l1.1-0.3c0.1,0.4,0.3,0.7,0.6,0.9c0.3,0.2,0.7,0.3,1.2,0.3c0.5,0,1-0.1,1.3-0.4c0.3-0.2,0.5-0.5,0.5-0.8
				c0-0.3-0.1-0.5-0.3-0.7c-0.2-0.2-0.5-0.3-0.9-0.4l-1.3-0.3c-0.7-0.2-1.2-0.4-1.5-0.8c-0.3-0.3-0.5-0.8-0.5-1.3
				c0-0.4,0.1-0.8,0.4-1.1c0.2-0.3,0.6-0.6,1-0.8s0.9-0.3,1.4-0.3c0.8,0,1.3,0.2,1.8,0.5S309.8,509.6,310,510.2z"/>
			<path class="st1" d="M315.1,516.3c-0.7,0-1.4-0.2-1.9-0.5c-0.5-0.3-0.9-0.8-1.2-1.4c-0.3-0.6-0.4-1.3-0.4-2.1
				c0-0.8,0.1-1.5,0.4-2.1c0.3-0.6,0.7-1.1,1.2-1.4c0.5-0.3,1.1-0.5,1.8-0.5c0.4,0,0.8,0.1,1.2,0.2c0.4,0.1,0.7,0.3,1.1,0.6
				c0.3,0.3,0.6,0.7,0.8,1.2c0.2,0.5,0.3,1.1,0.3,1.8v0.5h-5.9v-1h4.7c0-0.4-0.1-0.8-0.3-1.2s-0.4-0.6-0.7-0.8
				c-0.3-0.2-0.7-0.3-1.1-0.3c-0.5,0-0.9,0.1-1.2,0.3s-0.6,0.5-0.8,0.9c-0.2,0.4-0.3,0.8-0.3,1.2v0.7c0,0.6,0.1,1.1,0.3,1.5
				c0.2,0.4,0.5,0.7,0.8,0.9c0.4,0.2,0.8,0.3,1.2,0.3c0.3,0,0.6,0,0.8-0.1c0.2-0.1,0.5-0.2,0.6-0.4c0.2-0.2,0.3-0.4,0.4-0.7l1.1,0.3
				c-0.1,0.4-0.3,0.7-0.6,1c-0.3,0.3-0.6,0.5-1,0.7C316.1,516.2,315.7,516.3,315.1,516.3z"/>
			<path class="st1" d="M323.4,508.5v1h-4v-1H323.4z M320.6,506.6h1.2v7.3c0,0.3,0,0.6,0.1,0.7c0.1,0.2,0.2,0.3,0.4,0.3
				c0.2,0.1,0.3,0.1,0.5,0.1c0.1,0,0.2,0,0.3,0c0.1,0,0.1,0,0.2,0l0.2,1.1c-0.1,0-0.2,0.1-0.3,0.1c-0.1,0-0.3,0-0.5,0
				c-0.3,0-0.7-0.1-1-0.2s-0.6-0.4-0.8-0.7c-0.2-0.3-0.3-0.7-0.3-1.1V506.6z"/>
			<path class="st1" d="M330.6,510.2l-1.1,0.3c-0.1-0.2-0.2-0.3-0.3-0.5c-0.1-0.2-0.3-0.3-0.5-0.4s-0.5-0.2-0.8-0.2
				c-0.5,0-0.9,0.1-1.2,0.3s-0.5,0.5-0.5,0.8c0,0.3,0.1,0.5,0.3,0.7s0.5,0.3,1,0.4l1.1,0.3c0.7,0.2,1.2,0.4,1.5,0.8
				c0.3,0.3,0.5,0.8,0.5,1.3c0,0.4-0.1,0.8-0.4,1.2c-0.2,0.3-0.6,0.6-1,0.8c-0.4,0.2-1,0.3-1.6,0.3c-0.8,0-1.4-0.2-1.9-0.5
				s-0.8-0.8-1-1.5l1.1-0.3c0.1,0.4,0.3,0.7,0.6,0.9c0.3,0.2,0.7,0.3,1.2,0.3c0.5,0,1-0.1,1.3-0.4c0.3-0.2,0.5-0.5,0.5-0.8
				c0-0.3-0.1-0.5-0.3-0.7c-0.2-0.2-0.5-0.3-0.9-0.4l-1.3-0.3c-0.7-0.2-1.2-0.4-1.5-0.8c-0.3-0.3-0.5-0.8-0.5-1.3
				c0-0.4,0.1-0.8,0.4-1.1c0.2-0.3,0.6-0.6,1-0.8s0.9-0.3,1.4-0.3c0.8,0,1.3,0.2,1.8,0.5S330.4,509.6,330.6,510.2z"/>
		</g>
	</g>
	<g>
		<rect x="387.5" y="491" class="st0" width="160" height="43"/>
		<g>
			<g>
				<path class="st1" d="M437.4,516.3v-10.2h1.2v9.1h4.7v1.1H437.4z"/>
				<path class="st1" d="M445.7,507.4c-0.2,0-0.4-0.1-0.6-0.2c-0.2-0.2-0.2-0.3-0.2-0.6s0.1-0.4,0.2-0.6c0.2-0.2,0.4-0.2,0.6-0.2
					s0.4,0.1,0.6,0.2c0.2,0.2,0.2,0.3,0.2,0.6s-0.1,0.4-0.2,0.6C446.1,507.3,445.9,507.4,445.7,507.4z M445.1,516.3v-7.6h1.2v7.6
					H445.1z"/>
				<path class="st1" d="M451.5,516.5c-0.7,0-1.3-0.2-1.8-0.5c-0.5-0.3-0.9-0.8-1.2-1.4c-0.3-0.6-0.4-1.3-0.4-2
					c0-0.8,0.1-1.5,0.4-2.1c0.3-0.6,0.7-1.1,1.2-1.4c0.5-0.3,1.1-0.5,1.8-0.5c0.5,0,1,0.1,1.5,0.3c0.4,0.2,0.8,0.5,1.1,0.8
					c0.3,0.4,0.4,0.8,0.5,1.3h-1.2c-0.1-0.3-0.3-0.7-0.6-0.9s-0.7-0.4-1.2-0.4c-0.5,0-0.9,0.1-1.2,0.4s-0.6,0.6-0.8,1
					c-0.2,0.4-0.3,0.9-0.3,1.5c0,0.6,0.1,1.1,0.3,1.5c0.2,0.4,0.5,0.8,0.8,1c0.3,0.2,0.7,0.4,1.2,0.4c0.3,0,0.6-0.1,0.8-0.2
					c0.2-0.1,0.5-0.3,0.6-0.5c0.2-0.2,0.3-0.4,0.4-0.7h1.2c-0.1,0.5-0.2,0.9-0.5,1.2c-0.3,0.4-0.6,0.6-1,0.9
					C452.6,516.4,452.1,516.5,451.5,516.5z"/>
				<path class="st1" d="M459.4,516.5c-0.7,0-1.4-0.2-1.9-0.5c-0.5-0.3-0.9-0.8-1.2-1.4c-0.3-0.6-0.4-1.3-0.4-2.1
					c0-0.8,0.1-1.5,0.4-2.1c0.3-0.6,0.7-1.1,1.2-1.4c0.5-0.3,1.1-0.5,1.8-0.5c0.4,0,0.8,0.1,1.2,0.2c0.4,0.1,0.7,0.3,1.1,0.6
					c0.3,0.3,0.6,0.7,0.8,1.2c0.2,0.5,0.3,1.1,0.3,1.8v0.5h-5.9v-1h4.7c0-0.4-0.1-0.8-0.3-1.2s-0.4-0.6-0.7-0.8
					c-0.3-0.2-0.7-0.3-1.1-0.3c-0.5,0-0.9,0.1-1.2,0.3c-0.3,0.2-0.6,0.5-0.8,0.9c-0.2,0.4-0.3,0.8-0.3,1.2v0.7
					c0,0.6,0.1,1.1,0.3,1.5c0.2,0.4,0.5,0.7,0.8,0.9c0.4,0.2,0.8,0.3,1.2,0.3c0.3,0,0.6,0,0.8-0.1s0.5-0.2,0.6-0.4
					c0.2-0.2,0.3-0.4,0.4-0.7l1.1,0.3c-0.1,0.4-0.3,0.7-0.6,1s-0.6,0.5-1,0.7C460.4,516.4,460,516.5,459.4,516.5z"/>
				<path class="st1" d="M465.6,511.7v4.6h-1.2v-7.6h1.1v1.2h0.1c0.2-0.4,0.5-0.7,0.8-0.9c0.4-0.2,0.8-0.4,1.4-0.4
					c0.5,0,1,0.1,1.4,0.3c0.4,0.2,0.7,0.5,0.9,1c0.2,0.4,0.3,1,0.3,1.6v4.9h-1.2v-4.8c0-0.6-0.2-1.1-0.5-1.4
					c-0.3-0.3-0.7-0.5-1.3-0.5c-0.4,0-0.7,0.1-1,0.2c-0.3,0.2-0.5,0.4-0.7,0.7S465.6,511.3,465.6,511.7z"/>
				<path class="st1" d="M478,510.4l-1.1,0.3c-0.1-0.2-0.2-0.3-0.3-0.5c-0.1-0.2-0.3-0.3-0.5-0.4s-0.5-0.2-0.8-0.2
					c-0.5,0-0.9,0.1-1.2,0.3s-0.5,0.5-0.5,0.8c0,0.3,0.1,0.5,0.3,0.7s0.5,0.3,1,0.4l1.1,0.3c0.7,0.2,1.2,0.4,1.5,0.8
					c0.3,0.3,0.5,0.8,0.5,1.3c0,0.4-0.1,0.8-0.4,1.2c-0.2,0.3-0.6,0.6-1,0.8c-0.4,0.2-1,0.3-1.6,0.3c-0.8,0-1.4-0.2-1.9-0.5
					s-0.8-0.8-1-1.5l1.1-0.3c0.1,0.4,0.3,0.7,0.6,0.9c0.3,0.2,0.7,0.3,1.2,0.3c0.5,0,1-0.1,1.3-0.4c0.3-0.2,0.5-0.5,0.5-0.8
					c0-0.3-0.1-0.5-0.3-0.7c-0.2-0.2-0.5-0.3-0.9-0.4l-1.3-0.3c-0.7-0.2-1.2-0.4-1.5-0.8c-0.3-0.3-0.5-0.8-0.5-1.3
					c0-0.4,0.1-0.8,0.4-1.1c0.2-0.3,0.6-0.6,1-0.8s0.9-0.3,1.4-0.3c0.8,0,1.3,0.2,1.8,0.5S477.8,509.8,478,510.4z"/>
				<path class="st1" d="M480.5,507.4c-0.2,0-0.4-0.1-0.6-0.2c-0.2-0.2-0.2-0.3-0.2-0.6s0.1-0.4,0.2-0.6c0.2-0.2,0.4-0.2,0.6-0.2
					s0.4,0.1,0.6,0.2c0.2,0.2,0.2,0.3,0.2,0.6s-0.1,0.4-0.2,0.6C480.9,507.3,480.7,507.4,480.5,507.4z M479.9,516.3v-7.6h1.2v7.6
					H479.9z"/>
				<path class="st1" d="M484.4,511.7v4.6h-1.2v-7.6h1.1v1.2h0.1c0.2-0.4,0.5-0.7,0.8-0.9c0.4-0.2,0.8-0.4,1.4-0.4
					c0.5,0,1,0.1,1.4,0.3c0.4,0.2,0.7,0.5,0.9,1c0.2,0.4,0.3,1,0.3,1.6v4.9h-1.2v-4.8c0-0.6-0.2-1.1-0.5-1.4
					c-0.3-0.3-0.7-0.5-1.3-0.5c-0.4,0-0.7,0.1-1,0.2c-0.3,0.2-0.5,0.4-0.7,0.7S484.4,511.3,484.4,511.7z"/>
				<path class="st1" d="M494.5,519.3c-0.6,0-1.1-0.1-1.5-0.2c-0.4-0.1-0.7-0.3-1-0.6c-0.3-0.2-0.5-0.5-0.6-0.7l0.9-0.7
					c0.1,0.1,0.2,0.3,0.4,0.5c0.2,0.2,0.4,0.3,0.7,0.5c0.3,0.1,0.7,0.2,1.1,0.2c0.6,0,1.1-0.1,1.5-0.4c0.4-0.3,0.6-0.8,0.6-1.4v-1.6
					h-0.1c-0.1,0.1-0.2,0.3-0.4,0.5c-0.2,0.2-0.4,0.4-0.7,0.5c-0.3,0.2-0.7,0.2-1.2,0.2c-0.6,0-1.2-0.1-1.7-0.4
					c-0.5-0.3-0.9-0.7-1.2-1.3c-0.3-0.6-0.4-1.2-0.4-2c0-0.8,0.1-1.5,0.4-2c0.3-0.6,0.7-1,1.1-1.4c0.5-0.3,1.1-0.5,1.7-0.5
					c0.5,0,0.9,0.1,1.2,0.2c0.3,0.2,0.5,0.3,0.7,0.6c0.2,0.2,0.3,0.4,0.4,0.5h0.1v-1.2h1.1v7.9c0,0.7-0.1,1.2-0.4,1.6
					c-0.3,0.4-0.7,0.7-1.2,0.9C495.7,519.2,495.1,519.3,494.5,519.3z M494.5,515.1c0.5,0,0.9-0.1,1.2-0.3c0.3-0.2,0.6-0.5,0.7-0.9
					s0.3-0.9,0.3-1.5c0-0.5-0.1-1-0.2-1.5s-0.4-0.8-0.7-1c-0.3-0.2-0.7-0.4-1.2-0.4c-0.5,0-0.9,0.1-1.2,0.4c-0.3,0.3-0.6,0.6-0.7,1
					c-0.2,0.4-0.2,0.9-0.2,1.4c0,0.5,0.1,1,0.3,1.4c0.2,0.4,0.4,0.7,0.7,1C493.6,515,494,515.1,494.5,515.1z"/>
			</g>
		</g>
	</g>
	<g>
		<rect x="0" y="491" class="st0" width="160" height="43"/>
		<g>
			<g>
				<path class="st1" d="M65.2,509.3c-0.1-0.3-0.3-0.6-0.4-0.9s-0.4-0.5-0.6-0.7c-0.2-0.2-0.5-0.3-0.8-0.4c-0.3-0.1-0.6-0.1-1-0.1
					c-0.6,0-1.2,0.2-1.6,0.5c-0.5,0.3-0.9,0.8-1.2,1.4s-0.4,1.4-0.4,2.2c0,0.9,0.1,1.6,0.4,2.2s0.7,1.1,1.2,1.4s1.1,0.5,1.7,0.5
					c0.6,0,1.1-0.1,1.5-0.4c0.4-0.2,0.8-0.6,1-1.1c0.2-0.5,0.4-1,0.4-1.6l0.4,0.1h-3.1v-1.1h3.9v1.1c0,0.8-0.2,1.6-0.5,2.2
					c-0.4,0.6-0.8,1.1-1.5,1.4c-0.6,0.3-1.3,0.5-2.2,0.5c-0.9,0-1.7-0.2-2.4-0.6c-0.7-0.4-1.2-1-1.6-1.8c-0.4-0.8-0.6-1.7-0.6-2.8
					c0-0.8,0.1-1.5,0.3-2.2c0.2-0.6,0.5-1.2,0.9-1.6c0.4-0.5,0.9-0.8,1.4-1c0.5-0.2,1.1-0.4,1.8-0.4c0.5,0,1,0.1,1.5,0.2
					c0.5,0.2,0.9,0.4,1.2,0.7s0.7,0.6,0.9,1c0.2,0.4,0.4,0.9,0.5,1.3H65.2z"/>
				<path class="st1" d="M73.3,513.2v-4.5h1.2v7.6h-1.2V515h-0.1c-0.2,0.4-0.5,0.7-0.8,1c-0.4,0.3-0.9,0.4-1.4,0.4
					c-0.5,0-0.9-0.1-1.3-0.3c-0.4-0.2-0.7-0.5-0.9-1c-0.2-0.4-0.3-1-0.3-1.6v-4.9h1.2v4.8c0,0.6,0.2,1,0.5,1.3
					c0.3,0.3,0.7,0.5,1.2,0.5c0.3,0,0.6-0.1,0.9-0.2c0.3-0.1,0.6-0.4,0.8-0.7C73.2,514,73.3,513.7,73.3,513.2z"/>
				<path class="st1" d="M77.2,507.4c-0.2,0-0.4-0.1-0.6-0.2c-0.2-0.2-0.2-0.3-0.2-0.6s0.1-0.4,0.2-0.6c0.2-0.2,0.4-0.2,0.6-0.2
					s0.4,0.1,0.6,0.2c0.2,0.2,0.2,0.3,0.2,0.6s-0.1,0.4-0.2,0.6C77.6,507.3,77.4,507.4,77.2,507.4z M76.6,516.3v-7.6h1.2v7.6H76.6z"
					/>
				<path class="st1" d="M82.8,516.5c-0.6,0-1.2-0.2-1.7-0.5s-0.9-0.8-1.1-1.4c-0.3-0.6-0.4-1.3-0.4-2.1c0-0.8,0.1-1.5,0.4-2.1
					c0.3-0.6,0.7-1,1.1-1.4c0.5-0.3,1.1-0.5,1.7-0.5c0.5,0,0.9,0.1,1.2,0.2s0.5,0.3,0.7,0.6s0.3,0.4,0.4,0.5h0.1v-3.8h1.2v10.2h-1.1
					v-1.2H85c-0.1,0.1-0.2,0.3-0.4,0.5c-0.2,0.2-0.4,0.4-0.7,0.6S83.3,516.5,82.8,516.5z M83,515.4c0.5,0,0.9-0.1,1.2-0.4
					c0.3-0.2,0.6-0.6,0.7-1s0.3-0.9,0.3-1.5c0-0.6-0.1-1.1-0.2-1.5c-0.2-0.4-0.4-0.8-0.7-1c-0.3-0.2-0.7-0.4-1.2-0.4
					c-0.5,0-0.9,0.1-1.2,0.4c-0.3,0.3-0.6,0.6-0.7,1s-0.2,0.9-0.2,1.5c0,0.5,0.1,1,0.3,1.5s0.4,0.8,0.7,1.1
					C82.1,515.3,82.5,515.4,83,515.4z"/>
				<path class="st1" d="M91.8,516.5c-0.7,0-1.4-0.2-1.9-0.5c-0.5-0.3-0.9-0.8-1.2-1.4c-0.3-0.6-0.4-1.3-0.4-2.1
					c0-0.8,0.1-1.5,0.4-2.1c0.3-0.6,0.7-1.1,1.2-1.4c0.5-0.3,1.1-0.5,1.8-0.5c0.4,0,0.8,0.1,1.2,0.2c0.4,0.1,0.7,0.3,1.1,0.6
					c0.3,0.3,0.6,0.7,0.8,1.2s0.3,1.1,0.3,1.8v0.5h-5.9v-1h4.7c0-0.4-0.1-0.8-0.3-1.2s-0.4-0.6-0.7-0.8c-0.3-0.2-0.7-0.3-1.1-0.3
					c-0.5,0-0.9,0.1-1.2,0.3c-0.3,0.2-0.6,0.5-0.8,0.9s-0.3,0.8-0.3,1.2v0.7c0,0.6,0.1,1.1,0.3,1.5s0.5,0.7,0.8,0.9s0.8,0.3,1.2,0.3
					c0.3,0,0.6,0,0.8-0.1c0.2-0.1,0.5-0.2,0.6-0.4c0.2-0.2,0.3-0.4,0.4-0.7l1.1,0.3c-0.1,0.4-0.3,0.7-0.6,1c-0.3,0.3-0.6,0.5-1,0.7
					C92.8,516.4,92.3,516.5,91.8,516.5z"/>
				<path class="st1" d="M102.2,510.4l-1.1,0.3c-0.1-0.2-0.2-0.3-0.3-0.5c-0.1-0.2-0.3-0.3-0.5-0.4s-0.5-0.2-0.8-0.2
					c-0.5,0-0.9,0.1-1.2,0.3c-0.3,0.2-0.5,0.5-0.5,0.8c0,0.3,0.1,0.5,0.3,0.7s0.5,0.3,1,0.4l1.1,0.3c0.7,0.2,1.2,0.4,1.5,0.8
					c0.3,0.3,0.5,0.8,0.5,1.3c0,0.4-0.1,0.8-0.4,1.2c-0.2,0.3-0.6,0.6-1,0.8c-0.4,0.2-1,0.3-1.6,0.3c-0.8,0-1.4-0.2-1.9-0.5
					c-0.5-0.3-0.8-0.8-1-1.5l1.1-0.3c0.1,0.4,0.3,0.7,0.6,0.9c0.3,0.2,0.7,0.3,1.2,0.3c0.5,0,1-0.1,1.3-0.4c0.3-0.2,0.5-0.5,0.5-0.8
					c0-0.3-0.1-0.5-0.3-0.7c-0.2-0.2-0.5-0.3-0.9-0.4l-1.3-0.3c-0.7-0.2-1.2-0.4-1.5-0.8c-0.3-0.3-0.5-0.8-0.5-1.3
					c0-0.4,0.1-0.8,0.4-1.1c0.2-0.3,0.6-0.6,1-0.8c0.4-0.2,0.9-0.3,1.4-0.3c0.8,0,1.4,0.2,1.8,0.5
					C101.7,509.4,102,509.8,102.2,510.4z"/>
			</g>
		</g>
	</g>
	<line class="st2" x1="80" y1="242.3" x2="80" y2="313.3"/>
	<circle class="st3" cx="80.5" cy="242.3" r="5"/>
</g>
</svg>
